ISO-10303-21;
HEADER;
/* Generated by software containing ST-Developer
 * from STEP Tools, Inc. (www.steptools.com) 
 */

FILE_DESCRIPTION(
/* description */ (''),
/* implementation_level */ '2;1');

FILE_NAME(
/* name */ 'ActivationTest.step',
/* time_stamp */ '2026-09-29T22:01:31+02:00',
/* author */ (''),
/* organization */ (''),
/* preprocessor_version */ 'ST-DEVELOPER v20.2',
/* originating_system */ 'Autodesk Translation Framework v15.15.0.0',
/* authorisation */ '');

FILE_SCHEMA (('AUTOMOTIVE_DESIGN { 1 0 10303 214 3 1 1 }','FEATURE_BASED_PROCESS_PLANNING'));
ENDSEC;

DATA;
#10=MECHANICAL_DESIGN_GEOMETRIC_PRESENTATION_REPRESENTATION('',(#15,#16,
#17,#18,#19,#20,#21,#22,#23),#1453);
#11=SHAPE_REPRESENTATION_RELATIONSHIP('SRR','None',#1460,#12);
#12=ADVANCED_BREP_SHAPE_REPRESENTATION('',(#24,#25,#26,#27,#28,#29,#30,
#31,#32),#1452);
#13=ELLIPSE('',#877,4.24264068711929,3.);
#14=ELLIPSE('',#878,4.24264068711929,3.);
#15=STYLED_ITEM('',(#1470),#24);
#16=STYLED_ITEM('',(#1469),#25);
#17=STYLED_ITEM('',(#1470),#26);
#18=STYLED_ITEM('',(#1470),#27);
#19=STYLED_ITEM('',(#1469),#28);
#20=STYLED_ITEM('',(#1469),#29);
#21=STYLED_ITEM('',(#1469),#30);
#22=STYLED_ITEM('',(#1469),#31);
#23=STYLED_ITEM('',(#1469),#32);
#24=MANIFOLD_SOLID_BREP('Tube',#821);
#25=MANIFOLD_SOLID_BREP('Ridgid Body',#822);
#26=MANIFOLD_SOLID_BREP('Membrane',#823);
#27=MANIFOLD_SOLID_BREP('Pusher',#824);
#28=MANIFOLD_SOLID_BREP('TubeCavity',#825);
#29=MANIFOLD_SOLID_BREP('End1',#826);
#30=MANIFOLD_SOLID_BREP('End2',#827);
#31=MANIFOLD_SOLID_BREP('Input',#828);
#32=MANIFOLD_SOLID_BREP('Body10',#829);
#33=FACE_BOUND('',#127,.T.);
#34=FACE_BOUND('',#129,.T.);
#35=FACE_BOUND('',#161,.T.);
#36=FACE_BOUND('',#163,.T.);
#37=FACE_BOUND('',#171,.T.);
#38=FACE_BOUND('',#173,.T.);
#39=PLANE('',#855);
#40=PLANE('',#858);
#41=PLANE('',#863);
#42=PLANE('',#864);
#43=PLANE('',#865);
#44=PLANE('',#866);
#45=PLANE('',#867);
#46=PLANE('',#868);
#47=PLANE('',#869);
#48=PLANE('',#870);
#49=PLANE('',#871);
#50=PLANE('',#872);
#51=PLANE('',#873);
#52=PLANE('',#874);
#53=PLANE('',#875);
#54=PLANE('',#879);
#55=PLANE('',#880);
#56=PLANE('',#881);
#57=PLANE('',#882);
#58=PLANE('',#883);
#59=PLANE('',#890);
#60=PLANE('',#909);
#61=PLANE('',#910);
#62=PLANE('',#929);
#63=PLANE('',#930);
#64=PLANE('',#937);
#65=PLANE('',#938);
#66=PLANE('',#945);
#67=PLANE('',#946);
#68=FACE_OUTER_BOUND('',#122,.T.);
#69=FACE_OUTER_BOUND('',#123,.T.);
#70=FACE_OUTER_BOUND('',#124,.T.);
#71=FACE_OUTER_BOUND('',#125,.T.);
#72=FACE_OUTER_BOUND('',#126,.T.);
#73=FACE_OUTER_BOUND('',#128,.T.);
#74=FACE_OUTER_BOUND('',#130,.T.);
#75=FACE_OUTER_BOUND('',#131,.T.);
#76=FACE_OUTER_BOUND('',#132,.T.);
#77=FACE_OUTER_BOUND('',#133,.T.);
#78=FACE_OUTER_BOUND('',#134,.T.);
#79=FACE_OUTER_BOUND('',#135,.T.);
#80=FACE_OUTER_BOUND('',#136,.T.);
#81=FACE_OUTER_BOUND('',#137,.T.);
#82=FACE_OUTER_BOUND('',#138,.T.);
#83=FACE_OUTER_BOUND('',#139,.T.);
#84=FACE_OUTER_BOUND('',#140,.T.);
#85=FACE_OUTER_BOUND('',#141,.T.);
#86=FACE_OUTER_BOUND('',#142,.T.);
#87=FACE_OUTER_BOUND('',#143,.T.);
#88=FACE_OUTER_BOUND('',#144,.T.);
#89=FACE_OUTER_BOUND('',#145,.T.);
#90=FACE_OUTER_BOUND('',#146,.T.);
#91=FACE_OUTER_BOUND('',#147,.T.);
#92=FACE_OUTER_BOUND('',#148,.T.);
#93=FACE_OUTER_BOUND('',#149,.T.);
#94=FACE_OUTER_BOUND('',#150,.T.);
#95=FACE_OUTER_BOUND('',#151,.T.);
#96=FACE_OUTER_BOUND('',#152,.T.);
#97=FACE_OUTER_BOUND('',#153,.T.);
#98=FACE_OUTER_BOUND('',#154,.T.);
#99=FACE_OUTER_BOUND('',#155,.T.);
#100=FACE_OUTER_BOUND('',#156,.T.);
#101=FACE_OUTER_BOUND('',#157,.T.);
#102=FACE_OUTER_BOUND('',#158,.T.);
#103=FACE_OUTER_BOUND('',#159,.T.);
#104=FACE_OUTER_BOUND('',#160,.T.);
#105=FACE_OUTER_BOUND('',#162,.T.);
#106=FACE_OUTER_BOUND('',#164,.T.);
#107=FACE_OUTER_BOUND('',#165,.T.);
#108=FACE_OUTER_BOUND('',#166,.T.);
#109=FACE_OUTER_BOUND('',#167,.T.);
#110=FACE_OUTER_BOUND('',#168,.T.);
#111=FACE_OUTER_BOUND('',#169,.T.);
#112=FACE_OUTER_BOUND('',#170,.T.);
#113=FACE_OUTER_BOUND('',#172,.T.);
#114=FACE_OUTER_BOUND('',#174,.T.);
#115=FACE_OUTER_BOUND('',#175,.T.);
#116=FACE_OUTER_BOUND('',#176,.T.);
#117=FACE_OUTER_BOUND('',#177,.T.);
#118=FACE_OUTER_BOUND('',#178,.T.);
#119=FACE_OUTER_BOUND('',#179,.T.);
#120=FACE_OUTER_BOUND('',#180,.T.);
#121=FACE_OUTER_BOUND('',#181,.T.);
#122=EDGE_LOOP('',(#526,#527,#528,#529));
#123=EDGE_LOOP('',(#530,#531,#532,#533));
#124=EDGE_LOOP('',(#534,#535,#536,#537));
#125=EDGE_LOOP('',(#538,#539,#540,#541));
#126=EDGE_LOOP('',(#542,#543,#544,#545));
#127=EDGE_LOOP('',(#546,#547));
#128=EDGE_LOOP('',(#548,#549,#550,#551));
#129=EDGE_LOOP('',(#552,#553));
#130=EDGE_LOOP('',(#554,#555,#556,#557));
#131=EDGE_LOOP('',(#558,#559,#560,#561));
#132=EDGE_LOOP('',(#562,#563,#564,#565));
#133=EDGE_LOOP('',(#566,#567,#568,#569));
#134=EDGE_LOOP('',(#570,#571,#572,#573));
#135=EDGE_LOOP('',(#574,#575,#576,#577));
#136=EDGE_LOOP('',(#578,#579,#580,#581));
#137=EDGE_LOOP('',(#582,#583,#584,#585));
#138=EDGE_LOOP('',(#586,#587,#588,#589));
#139=EDGE_LOOP('',(#590,#591,#592,#593));
#140=EDGE_LOOP('',(#594,#595,#596,#597));
#141=EDGE_LOOP('',(#598,#599,#600,#601));
#142=EDGE_LOOP('',(#602,#603,#604,#605));
#143=EDGE_LOOP('',(#606,#607,#608,#609));
#144=EDGE_LOOP('',(#610,#611,#612,#613));
#145=EDGE_LOOP('',(#614,#615,#616,#617));
#146=EDGE_LOOP('',(#618,#619,#620,#621));
#147=EDGE_LOOP('',(#622,#623,#624,#625));
#148=EDGE_LOOP('',(#626,#627,#628,#629));
#149=EDGE_LOOP('',(#630,#631,#632,#633));
#150=EDGE_LOOP('',(#634,#635));
#151=EDGE_LOOP('',(#636,#637,#638,#639));
#152=EDGE_LOOP('',(#640,#641,#642,#643));
#153=EDGE_LOOP('',(#644,#645));
#154=EDGE_LOOP('',(#646,#647,#648,#649));
#155=EDGE_LOOP('',(#650,#651,#652,#653));
#156=EDGE_LOOP('',(#654,#655,#656,#657));
#157=EDGE_LOOP('',(#658,#659,#660,#661));
#158=EDGE_LOOP('',(#662,#663,#664,#665));
#159=EDGE_LOOP('',(#666,#667,#668,#669));
#160=EDGE_LOOP('',(#670,#671,#672,#673));
#161=EDGE_LOOP('',(#674,#675));
#162=EDGE_LOOP('',(#676,#677,#678,#679));
#163=EDGE_LOOP('',(#680,#681));
#164=EDGE_LOOP('',(#682,#683,#684,#685));
#165=EDGE_LOOP('',(#686,#687,#688,#689));
#166=EDGE_LOOP('',(#690,#691,#692,#693));
#167=EDGE_LOOP('',(#694,#695,#696,#697));
#168=EDGE_LOOP('',(#698,#699,#700,#701));
#169=EDGE_LOOP('',(#702,#703,#704,#705));
#170=EDGE_LOOP('',(#706,#707,#708,#709));
#171=EDGE_LOOP('',(#710,#711));
#172=EDGE_LOOP('',(#712,#713,#714,#715));
#173=EDGE_LOOP('',(#716,#717));
#174=EDGE_LOOP('',(#718,#719,#720,#721));
#175=EDGE_LOOP('',(#722,#723,#724,#725));
#176=EDGE_LOOP('',(#726,#727));
#177=EDGE_LOOP('',(#728,#729));
#178=EDGE_LOOP('',(#730,#731,#732,#733));
#179=EDGE_LOOP('',(#734,#735,#736,#737));
#180=EDGE_LOOP('',(#738,#739));
#181=EDGE_LOOP('',(#740,#741));
#182=CIRCLE('',#844,3.);
#183=CIRCLE('',#845,3.);
#184=CIRCLE('',#847,1.);
#185=CIRCLE('',#848,1.);
#186=CIRCLE('',#850,3.);
#187=CIRCLE('',#851,3.);
#188=CIRCLE('',#853,1.);
#189=CIRCLE('',#854,1.);
#190=CIRCLE('',#856,2.);
#191=CIRCLE('',#857,2.);
#192=CIRCLE('',#859,2.);
#193=CIRCLE('',#860,2.);
#194=CIRCLE('',#884,2.);
#195=CIRCLE('',#885,2.);
#196=CIRCLE('',#887,2.);
#197=CIRCLE('',#889,2.);
#198=CIRCLE('',#892,2.);
#199=CIRCLE('',#893,2.);
#200=CIRCLE('',#895,2.);
#201=CIRCLE('',#896,2.);
#202=CIRCLE('',#898,3.);
#203=CIRCLE('',#899,3.);
#204=CIRCLE('',#901,1.);
#205=CIRCLE('',#902,1.);
#206=CIRCLE('',#904,3.);
#207=CIRCLE('',#905,3.);
#208=CIRCLE('',#907,1.);
#209=CIRCLE('',#908,1.);
#210=CIRCLE('',#912,2.);
#211=CIRCLE('',#913,2.);
#212=CIRCLE('',#915,2.);
#213=CIRCLE('',#916,2.);
#214=CIRCLE('',#918,1.);
#215=CIRCLE('',#919,1.);
#216=CIRCLE('',#921,3.);
#217=CIRCLE('',#922,3.);
#218=CIRCLE('',#924,1.);
#219=CIRCLE('',#925,1.);
#220=CIRCLE('',#927,3.);
#221=CIRCLE('',#928,3.);
#222=CIRCLE('',#932,2.);
#223=CIRCLE('',#933,2.);
#224=CIRCLE('',#935,2.);
#225=CIRCLE('',#936,2.);
#226=CIRCLE('',#940,2.);
#227=CIRCLE('',#941,2.);
#228=CIRCLE('',#943,2.);
#229=CIRCLE('',#944,2.);
#230=LINE('',#1219,#288);
#231=LINE('',#1223,#289);
#232=LINE('',#1230,#290);
#233=LINE('',#1234,#291);
#234=LINE('',#1251,#292);
#235=LINE('',#1252,#293);
#236=LINE('',#1257,#294);
#237=LINE('',#1259,#295);
#238=LINE('',#1261,#296);
#239=LINE('',#1262,#297);
#240=LINE('',#1265,#298);
#241=LINE('',#1267,#299);
#242=LINE('',#1268,#300);
#243=LINE('',#1271,#301);
#244=LINE('',#1273,#302);
#245=LINE('',#1274,#303);
#246=LINE('',#1276,#304);
#247=LINE('',#1277,#305);
#248=LINE('',#1283,#306);
#249=LINE('',#1285,#307);
#250=LINE('',#1287,#308);
#251=LINE('',#1288,#309);
#252=LINE('',#1291,#310);
#253=LINE('',#1293,#311);
#254=LINE('',#1294,#312);
#255=LINE('',#1298,#313);
#256=LINE('',#1299,#314);
#257=LINE('',#1300,#315);
#258=LINE('',#1302,#316);
#259=LINE('',#1303,#317);
#260=LINE('',#1309,#318);
#261=LINE('',#1311,#319);
#262=LINE('',#1313,#320);
#263=LINE('',#1314,#321);
#264=LINE('',#1320,#322);
#265=LINE('',#1323,#323);
#266=LINE('',#1325,#324);
#267=LINE('',#1326,#325);
#268=LINE('',#1328,#326);
#269=LINE('',#1330,#327);
#270=LINE('',#1339,#328);
#271=LINE('',#1342,#329);
#272=LINE('',#1351,#330);
#273=LINE('',#1354,#331);
#274=LINE('',#1363,#332);
#275=LINE('',#1366,#333);
#276=LINE('',#1372,#334);
#277=LINE('',#1378,#335);
#278=LINE('',#1389,#336);
#279=LINE('',#1392,#337);
#280=LINE('',#1401,#338);
#281=LINE('',#1404,#339);
#282=LINE('',#1410,#340);
#283=LINE('',#1416,#341);
#284=LINE('',#1427,#342);
#285=LINE('',#1430,#343);
#286=LINE('',#1441,#344);
#287=LINE('',#1444,#345);
#288=VECTOR('',#951,10.);
#289=VECTOR('',#954,10.);
#290=VECTOR('',#963,10.);
#291=VECTOR('',#966,10.);
#292=VECTOR('',#991,10.);
#293=VECTOR('',#992,10.);
#294=VECTOR('',#997,10.);
#295=VECTOR('',#998,10.);
#296=VECTOR('',#999,10.);
#297=VECTOR('',#1000,10.);
#298=VECTOR('',#1003,10.);
#299=VECTOR('',#1004,10.);
#300=VECTOR('',#1005,10.);
#301=VECTOR('',#1008,10.);
#302=VECTOR('',#1009,10.);
#303=VECTOR('',#1010,10.);
#304=VECTOR('',#1013,10.);
#305=VECTOR('',#1014,10.);
#306=VECTOR('',#1021,10.);
#307=VECTOR('',#1022,10.);
#308=VECTOR('',#1023,10.);
#309=VECTOR('',#1024,10.);
#310=VECTOR('',#1027,10.);
#311=VECTOR('',#1028,10.);
#312=VECTOR('',#1029,10.);
#313=VECTOR('',#1032,10.);
#314=VECTOR('',#1033,10.);
#315=VECTOR('',#1034,10.);
#316=VECTOR('',#1037,10.);
#317=VECTOR('',#1038,10.);
#318=VECTOR('',#1045,10.);
#319=VECTOR('',#1046,10.);
#320=VECTOR('',#1047,10.);
#321=VECTOR('',#1048,10.);
#322=VECTOR('',#1053,10.);
#323=VECTOR('',#1056,10.);
#324=VECTOR('',#1059,10.);
#325=VECTOR('',#1060,10.);
#326=VECTOR('',#1063,10.);
#327=VECTOR('',#1066,10.);
#328=VECTOR('',#1077,10.);
#329=VECTOR('',#1080,10.);
#330=VECTOR('',#1091,10.);
#331=VECTOR('',#1094,10.);
#332=VECTOR('',#1105,10.);
#333=VECTOR('',#1108,10.);
#334=VECTOR('',#1115,10.);
#335=VECTOR('',#1122,10.);
#336=VECTOR('',#1137,10.);
#337=VECTOR('',#1140,10.);
#338=VECTOR('',#1151,10.);
#339=VECTOR('',#1154,10.);
#340=VECTOR('',#1161,10.);
#341=VECTOR('',#1168,10.);
#342=VECTOR('',#1183,10.);
#343=VECTOR('',#1186,10.);
#344=VECTOR('',#1201,10.);
#345=VECTOR('',#1204,10.);
#346=VERTEX_POINT('',#1217);
#347=VERTEX_POINT('',#1218);
#348=VERTEX_POINT('',#1220);
#349=VERTEX_POINT('',#1222);
#350=VERTEX_POINT('',#1226);
#351=VERTEX_POINT('',#1228);
#352=VERTEX_POINT('',#1232);
#353=VERTEX_POINT('',#1233);
#354=VERTEX_POINT('',#1241);
#355=VERTEX_POINT('',#1242);
#356=VERTEX_POINT('',#1246);
#357=VERTEX_POINT('',#1247);
#358=VERTEX_POINT('',#1255);
#359=VERTEX_POINT('',#1256);
#360=VERTEX_POINT('',#1258);
#361=VERTEX_POINT('',#1260);
#362=VERTEX_POINT('',#1264);
#363=VERTEX_POINT('',#1266);
#364=VERTEX_POINT('',#1270);
#365=VERTEX_POINT('',#1272);
#366=VERTEX_POINT('',#1281);
#367=VERTEX_POINT('',#1282);
#368=VERTEX_POINT('',#1284);
#369=VERTEX_POINT('',#1286);
#370=VERTEX_POINT('',#1290);
#371=VERTEX_POINT('',#1292);
#372=VERTEX_POINT('',#1296);
#373=VERTEX_POINT('',#1297);
#374=VERTEX_POINT('',#1307);
#375=VERTEX_POINT('',#1308);
#376=VERTEX_POINT('',#1310);
#377=VERTEX_POINT('',#1312);
#378=VERTEX_POINT('',#1316);
#379=VERTEX_POINT('',#1317);
#380=VERTEX_POINT('',#1319);
#381=VERTEX_POINT('',#1321);
#382=VERTEX_POINT('',#1333);
#383=VERTEX_POINT('',#1334);
#384=VERTEX_POINT('',#1338);
#385=VERTEX_POINT('',#1340);
#386=VERTEX_POINT('',#1347);
#387=VERTEX_POINT('',#1348);
#388=VERTEX_POINT('',#1350);
#389=VERTEX_POINT('',#1352);
#390=VERTEX_POINT('',#1359);
#391=VERTEX_POINT('',#1360);
#392=VERTEX_POINT('',#1362);
#393=VERTEX_POINT('',#1364);
#394=VERTEX_POINT('',#1368);
#395=VERTEX_POINT('',#1370);
#396=VERTEX_POINT('',#1374);
#397=VERTEX_POINT('',#1376);
#398=VERTEX_POINT('',#1385);
#399=VERTEX_POINT('',#1386);
#400=VERTEX_POINT('',#1388);
#401=VERTEX_POINT('',#1390);
#402=VERTEX_POINT('',#1397);
#403=VERTEX_POINT('',#1398);
#404=VERTEX_POINT('',#1400);
#405=VERTEX_POINT('',#1402);
#406=VERTEX_POINT('',#1406);
#407=VERTEX_POINT('',#1408);
#408=VERTEX_POINT('',#1412);
#409=VERTEX_POINT('',#1414);
#410=VERTEX_POINT('',#1423);
#411=VERTEX_POINT('',#1424);
#412=VERTEX_POINT('',#1426);
#413=VERTEX_POINT('',#1428);
#414=VERTEX_POINT('',#1437);
#415=VERTEX_POINT('',#1438);
#416=VERTEX_POINT('',#1440);
#417=VERTEX_POINT('',#1442);
#418=EDGE_CURVE('',#346,#347,#230,.T.);
#419=EDGE_CURVE('',#348,#346,#182,.T.);
#420=EDGE_CURVE('',#349,#348,#231,.T.);
#421=EDGE_CURVE('',#347,#349,#183,.T.);
#422=EDGE_CURVE('',#350,#346,#184,.F.);
#423=EDGE_CURVE('',#347,#351,#185,.F.);
#424=EDGE_CURVE('',#351,#350,#232,.T.);
#425=EDGE_CURVE('',#352,#353,#233,.T.);
#426=EDGE_CURVE('',#350,#352,#186,.T.);
#427=EDGE_CURVE('',#353,#351,#187,.T.);
#428=EDGE_CURVE('',#353,#349,#188,.F.);
#429=EDGE_CURVE('',#348,#352,#189,.F.);
#430=EDGE_CURVE('',#354,#355,#190,.T.);
#431=EDGE_CURVE('',#355,#354,#191,.T.);
#432=EDGE_CURVE('',#356,#357,#192,.T.);
#433=EDGE_CURVE('',#357,#356,#193,.T.);
#434=EDGE_CURVE('',#354,#357,#234,.T.);
#435=EDGE_CURVE('',#356,#355,#235,.T.);
#436=EDGE_CURVE('',#358,#359,#236,.T.);
#437=EDGE_CURVE('',#358,#360,#237,.T.);
#438=EDGE_CURVE('',#361,#360,#238,.T.);
#439=EDGE_CURVE('',#359,#361,#239,.T.);
#440=EDGE_CURVE('',#362,#359,#240,.T.);
#441=EDGE_CURVE('',#363,#361,#241,.T.);
#442=EDGE_CURVE('',#362,#363,#242,.T.);
#443=EDGE_CURVE('',#364,#362,#243,.T.);
#444=EDGE_CURVE('',#365,#363,#244,.T.);
#445=EDGE_CURVE('',#364,#365,#245,.T.);
#446=EDGE_CURVE('',#358,#364,#246,.T.);
#447=EDGE_CURVE('',#360,#365,#247,.T.);
#448=EDGE_CURVE('',#366,#367,#248,.T.);
#449=EDGE_CURVE('',#367,#368,#249,.T.);
#450=EDGE_CURVE('',#368,#369,#250,.T.);
#451=EDGE_CURVE('',#369,#366,#251,.T.);
#452=EDGE_CURVE('',#369,#370,#252,.T.);
#453=EDGE_CURVE('',#371,#370,#253,.T.);
#454=EDGE_CURVE('',#366,#371,#254,.T.);
#455=EDGE_CURVE('',#372,#373,#255,.T.);
#456=EDGE_CURVE('',#368,#372,#256,.T.);
#457=EDGE_CURVE('',#367,#373,#257,.T.);
#458=EDGE_CURVE('',#370,#372,#258,.T.);
#459=EDGE_CURVE('',#373,#371,#259,.T.);
#460=EDGE_CURVE('',#374,#375,#260,.T.);
#461=EDGE_CURVE('',#376,#374,#261,.T.);
#462=EDGE_CURVE('',#377,#376,#262,.T.);
#463=EDGE_CURVE('',#375,#377,#263,.T.);
#464=EDGE_CURVE('',#378,#379,#13,.T.);
#465=EDGE_CURVE('',#379,#380,#264,.T.);
#466=EDGE_CURVE('',#380,#381,#14,.T.);
#467=EDGE_CURVE('',#381,#378,#265,.T.);
#468=EDGE_CURVE('',#374,#380,#266,.T.);
#469=EDGE_CURVE('',#381,#375,#267,.T.);
#470=EDGE_CURVE('',#379,#376,#268,.T.);
#471=EDGE_CURVE('',#377,#378,#269,.T.);
#472=EDGE_CURVE('',#382,#383,#194,.T.);
#473=EDGE_CURVE('',#383,#382,#195,.T.);
#474=EDGE_CURVE('',#382,#384,#270,.T.);
#475=EDGE_CURVE('',#385,#384,#196,.T.);
#476=EDGE_CURVE('',#383,#385,#271,.T.);
#477=EDGE_CURVE('',#384,#385,#197,.T.);
#478=EDGE_CURVE('',#386,#387,#198,.T.);
#479=EDGE_CURVE('',#387,#388,#272,.T.);
#480=EDGE_CURVE('',#389,#388,#199,.T.);
#481=EDGE_CURVE('',#386,#389,#273,.T.);
#482=EDGE_CURVE('',#387,#386,#200,.T.);
#483=EDGE_CURVE('',#388,#389,#201,.T.);
#484=EDGE_CURVE('',#390,#391,#202,.T.);
#485=EDGE_CURVE('',#391,#392,#274,.T.);
#486=EDGE_CURVE('',#393,#392,#203,.T.);
#487=EDGE_CURVE('',#390,#393,#275,.T.);
#488=EDGE_CURVE('',#394,#390,#204,.T.);
#489=EDGE_CURVE('',#395,#393,#205,.T.);
#490=EDGE_CURVE('',#394,#395,#276,.T.);
#491=EDGE_CURVE('',#396,#394,#206,.T.);
#492=EDGE_CURVE('',#397,#395,#207,.T.);
#493=EDGE_CURVE('',#396,#397,#277,.T.);
#494=EDGE_CURVE('',#391,#396,#208,.T.);
#495=EDGE_CURVE('',#392,#397,#209,.T.);
#496=EDGE_CURVE('',#398,#399,#210,.T.);
#497=EDGE_CURVE('',#399,#400,#278,.T.);
#498=EDGE_CURVE('',#401,#400,#211,.T.);
#499=EDGE_CURVE('',#398,#401,#279,.T.);
#500=EDGE_CURVE('',#399,#398,#212,.T.);
#501=EDGE_CURVE('',#400,#401,#213,.T.);
#502=EDGE_CURVE('',#402,#403,#214,.F.);
#503=EDGE_CURVE('',#402,#404,#280,.T.);
#504=EDGE_CURVE('',#405,#404,#215,.T.);
#505=EDGE_CURVE('',#403,#405,#281,.T.);
#506=EDGE_CURVE('',#406,#403,#216,.T.);
#507=EDGE_CURVE('',#407,#405,#217,.T.);
#508=EDGE_CURVE('',#406,#407,#282,.T.);
#509=EDGE_CURVE('',#406,#408,#218,.F.);
#510=EDGE_CURVE('',#409,#407,#219,.T.);
#511=EDGE_CURVE('',#408,#409,#283,.T.);
#512=EDGE_CURVE('',#402,#408,#220,.T.);
#513=EDGE_CURVE('',#404,#409,#221,.T.);
#514=EDGE_CURVE('',#410,#411,#222,.T.);
#515=EDGE_CURVE('',#411,#412,#284,.T.);
#516=EDGE_CURVE('',#413,#412,#223,.T.);
#517=EDGE_CURVE('',#410,#413,#285,.T.);
#518=EDGE_CURVE('',#411,#410,#224,.T.);
#519=EDGE_CURVE('',#412,#413,#225,.T.);
#520=EDGE_CURVE('',#414,#415,#226,.T.);
#521=EDGE_CURVE('',#415,#416,#286,.T.);
#522=EDGE_CURVE('',#417,#416,#227,.T.);
#523=EDGE_CURVE('',#414,#417,#287,.T.);
#524=EDGE_CURVE('',#415,#414,#228,.T.);
#525=EDGE_CURVE('',#416,#417,#229,.T.);
#526=ORIENTED_EDGE('',*,*,#418,.F.);
#527=ORIENTED_EDGE('',*,*,#419,.F.);
#528=ORIENTED_EDGE('',*,*,#420,.F.);
#529=ORIENTED_EDGE('',*,*,#421,.F.);
#530=ORIENTED_EDGE('',*,*,#422,.T.);
#531=ORIENTED_EDGE('',*,*,#418,.T.);
#532=ORIENTED_EDGE('',*,*,#423,.T.);
#533=ORIENTED_EDGE('',*,*,#424,.T.);
#534=ORIENTED_EDGE('',*,*,#425,.F.);
#535=ORIENTED_EDGE('',*,*,#426,.F.);
#536=ORIENTED_EDGE('',*,*,#424,.F.);
#537=ORIENTED_EDGE('',*,*,#427,.F.);
#538=ORIENTED_EDGE('',*,*,#428,.T.);
#539=ORIENTED_EDGE('',*,*,#420,.T.);
#540=ORIENTED_EDGE('',*,*,#429,.T.);
#541=ORIENTED_EDGE('',*,*,#425,.T.);
#542=ORIENTED_EDGE('',*,*,#419,.T.);
#543=ORIENTED_EDGE('',*,*,#422,.F.);
#544=ORIENTED_EDGE('',*,*,#426,.T.);
#545=ORIENTED_EDGE('',*,*,#429,.F.);
#546=ORIENTED_EDGE('',*,*,#430,.T.);
#547=ORIENTED_EDGE('',*,*,#431,.T.);
#548=ORIENTED_EDGE('',*,*,#421,.T.);
#549=ORIENTED_EDGE('',*,*,#428,.F.);
#550=ORIENTED_EDGE('',*,*,#427,.T.);
#551=ORIENTED_EDGE('',*,*,#423,.F.);
#552=ORIENTED_EDGE('',*,*,#432,.T.);
#553=ORIENTED_EDGE('',*,*,#433,.T.);
#554=ORIENTED_EDGE('',*,*,#433,.F.);
#555=ORIENTED_EDGE('',*,*,#434,.F.);
#556=ORIENTED_EDGE('',*,*,#431,.F.);
#557=ORIENTED_EDGE('',*,*,#435,.F.);
#558=ORIENTED_EDGE('',*,*,#432,.F.);
#559=ORIENTED_EDGE('',*,*,#435,.T.);
#560=ORIENTED_EDGE('',*,*,#430,.F.);
#561=ORIENTED_EDGE('',*,*,#434,.T.);
#562=ORIENTED_EDGE('',*,*,#436,.F.);
#563=ORIENTED_EDGE('',*,*,#437,.T.);
#564=ORIENTED_EDGE('',*,*,#438,.F.);
#565=ORIENTED_EDGE('',*,*,#439,.F.);
#566=ORIENTED_EDGE('',*,*,#440,.T.);
#567=ORIENTED_EDGE('',*,*,#439,.T.);
#568=ORIENTED_EDGE('',*,*,#441,.F.);
#569=ORIENTED_EDGE('',*,*,#442,.F.);
#570=ORIENTED_EDGE('',*,*,#443,.T.);
#571=ORIENTED_EDGE('',*,*,#442,.T.);
#572=ORIENTED_EDGE('',*,*,#444,.F.);
#573=ORIENTED_EDGE('',*,*,#445,.F.);
#574=ORIENTED_EDGE('',*,*,#446,.T.);
#575=ORIENTED_EDGE('',*,*,#445,.T.);
#576=ORIENTED_EDGE('',*,*,#447,.F.);
#577=ORIENTED_EDGE('',*,*,#437,.F.);
#578=ORIENTED_EDGE('',*,*,#446,.F.);
#579=ORIENTED_EDGE('',*,*,#436,.T.);
#580=ORIENTED_EDGE('',*,*,#440,.F.);
#581=ORIENTED_EDGE('',*,*,#443,.F.);
#582=ORIENTED_EDGE('',*,*,#447,.T.);
#583=ORIENTED_EDGE('',*,*,#444,.T.);
#584=ORIENTED_EDGE('',*,*,#441,.T.);
#585=ORIENTED_EDGE('',*,*,#438,.T.);
#586=ORIENTED_EDGE('',*,*,#448,.T.);
#587=ORIENTED_EDGE('',*,*,#449,.T.);
#588=ORIENTED_EDGE('',*,*,#450,.T.);
#589=ORIENTED_EDGE('',*,*,#451,.T.);
#590=ORIENTED_EDGE('',*,*,#451,.F.);
#591=ORIENTED_EDGE('',*,*,#452,.T.);
#592=ORIENTED_EDGE('',*,*,#453,.F.);
#593=ORIENTED_EDGE('',*,*,#454,.F.);
#594=ORIENTED_EDGE('',*,*,#455,.F.);
#595=ORIENTED_EDGE('',*,*,#456,.F.);
#596=ORIENTED_EDGE('',*,*,#449,.F.);
#597=ORIENTED_EDGE('',*,*,#457,.T.);
#598=ORIENTED_EDGE('',*,*,#453,.T.);
#599=ORIENTED_EDGE('',*,*,#458,.T.);
#600=ORIENTED_EDGE('',*,*,#455,.T.);
#601=ORIENTED_EDGE('',*,*,#459,.T.);
#602=ORIENTED_EDGE('',*,*,#448,.F.);
#603=ORIENTED_EDGE('',*,*,#454,.T.);
#604=ORIENTED_EDGE('',*,*,#459,.F.);
#605=ORIENTED_EDGE('',*,*,#457,.F.);
#606=ORIENTED_EDGE('',*,*,#450,.F.);
#607=ORIENTED_EDGE('',*,*,#456,.T.);
#608=ORIENTED_EDGE('',*,*,#458,.F.);
#609=ORIENTED_EDGE('',*,*,#452,.F.);
#610=ORIENTED_EDGE('',*,*,#460,.F.);
#611=ORIENTED_EDGE('',*,*,#461,.F.);
#612=ORIENTED_EDGE('',*,*,#462,.F.);
#613=ORIENTED_EDGE('',*,*,#463,.F.);
#614=ORIENTED_EDGE('',*,*,#464,.T.);
#615=ORIENTED_EDGE('',*,*,#465,.T.);
#616=ORIENTED_EDGE('',*,*,#466,.T.);
#617=ORIENTED_EDGE('',*,*,#467,.T.);
#618=ORIENTED_EDGE('',*,*,#466,.F.);
#619=ORIENTED_EDGE('',*,*,#468,.F.);
#620=ORIENTED_EDGE('',*,*,#460,.T.);
#621=ORIENTED_EDGE('',*,*,#469,.F.);
#622=ORIENTED_EDGE('',*,*,#465,.F.);
#623=ORIENTED_EDGE('',*,*,#470,.T.);
#624=ORIENTED_EDGE('',*,*,#461,.T.);
#625=ORIENTED_EDGE('',*,*,#468,.T.);
#626=ORIENTED_EDGE('',*,*,#464,.F.);
#627=ORIENTED_EDGE('',*,*,#471,.F.);
#628=ORIENTED_EDGE('',*,*,#462,.T.);
#629=ORIENTED_EDGE('',*,*,#470,.F.);
#630=ORIENTED_EDGE('',*,*,#467,.F.);
#631=ORIENTED_EDGE('',*,*,#469,.T.);
#632=ORIENTED_EDGE('',*,*,#463,.T.);
#633=ORIENTED_EDGE('',*,*,#471,.T.);
#634=ORIENTED_EDGE('',*,*,#472,.T.);
#635=ORIENTED_EDGE('',*,*,#473,.T.);
#636=ORIENTED_EDGE('',*,*,#474,.T.);
#637=ORIENTED_EDGE('',*,*,#475,.F.);
#638=ORIENTED_EDGE('',*,*,#476,.F.);
#639=ORIENTED_EDGE('',*,*,#472,.F.);
#640=ORIENTED_EDGE('',*,*,#476,.T.);
#641=ORIENTED_EDGE('',*,*,#477,.F.);
#642=ORIENTED_EDGE('',*,*,#474,.F.);
#643=ORIENTED_EDGE('',*,*,#473,.F.);
#644=ORIENTED_EDGE('',*,*,#475,.T.);
#645=ORIENTED_EDGE('',*,*,#477,.T.);
#646=ORIENTED_EDGE('',*,*,#478,.T.);
#647=ORIENTED_EDGE('',*,*,#479,.T.);
#648=ORIENTED_EDGE('',*,*,#480,.F.);
#649=ORIENTED_EDGE('',*,*,#481,.F.);
#650=ORIENTED_EDGE('',*,*,#482,.T.);
#651=ORIENTED_EDGE('',*,*,#481,.T.);
#652=ORIENTED_EDGE('',*,*,#483,.F.);
#653=ORIENTED_EDGE('',*,*,#479,.F.);
#654=ORIENTED_EDGE('',*,*,#484,.T.);
#655=ORIENTED_EDGE('',*,*,#485,.T.);
#656=ORIENTED_EDGE('',*,*,#486,.F.);
#657=ORIENTED_EDGE('',*,*,#487,.F.);
#658=ORIENTED_EDGE('',*,*,#488,.T.);
#659=ORIENTED_EDGE('',*,*,#487,.T.);
#660=ORIENTED_EDGE('',*,*,#489,.F.);
#661=ORIENTED_EDGE('',*,*,#490,.F.);
#662=ORIENTED_EDGE('',*,*,#491,.T.);
#663=ORIENTED_EDGE('',*,*,#490,.T.);
#664=ORIENTED_EDGE('',*,*,#492,.F.);
#665=ORIENTED_EDGE('',*,*,#493,.F.);
#666=ORIENTED_EDGE('',*,*,#494,.T.);
#667=ORIENTED_EDGE('',*,*,#493,.T.);
#668=ORIENTED_EDGE('',*,*,#495,.F.);
#669=ORIENTED_EDGE('',*,*,#485,.F.);
#670=ORIENTED_EDGE('',*,*,#495,.T.);
#671=ORIENTED_EDGE('',*,*,#492,.T.);
#672=ORIENTED_EDGE('',*,*,#489,.T.);
#673=ORIENTED_EDGE('',*,*,#486,.T.);
#674=ORIENTED_EDGE('',*,*,#483,.T.);
#675=ORIENTED_EDGE('',*,*,#480,.T.);
#676=ORIENTED_EDGE('',*,*,#494,.F.);
#677=ORIENTED_EDGE('',*,*,#484,.F.);
#678=ORIENTED_EDGE('',*,*,#488,.F.);
#679=ORIENTED_EDGE('',*,*,#491,.F.);
#680=ORIENTED_EDGE('',*,*,#482,.F.);
#681=ORIENTED_EDGE('',*,*,#478,.F.);
#682=ORIENTED_EDGE('',*,*,#496,.T.);
#683=ORIENTED_EDGE('',*,*,#497,.T.);
#684=ORIENTED_EDGE('',*,*,#498,.F.);
#685=ORIENTED_EDGE('',*,*,#499,.F.);
#686=ORIENTED_EDGE('',*,*,#500,.T.);
#687=ORIENTED_EDGE('',*,*,#499,.T.);
#688=ORIENTED_EDGE('',*,*,#501,.F.);
#689=ORIENTED_EDGE('',*,*,#497,.F.);
#690=ORIENTED_EDGE('',*,*,#502,.F.);
#691=ORIENTED_EDGE('',*,*,#503,.T.);
#692=ORIENTED_EDGE('',*,*,#504,.F.);
#693=ORIENTED_EDGE('',*,*,#505,.F.);
#694=ORIENTED_EDGE('',*,*,#506,.T.);
#695=ORIENTED_EDGE('',*,*,#505,.T.);
#696=ORIENTED_EDGE('',*,*,#507,.F.);
#697=ORIENTED_EDGE('',*,*,#508,.F.);
#698=ORIENTED_EDGE('',*,*,#509,.F.);
#699=ORIENTED_EDGE('',*,*,#508,.T.);
#700=ORIENTED_EDGE('',*,*,#510,.F.);
#701=ORIENTED_EDGE('',*,*,#511,.F.);
#702=ORIENTED_EDGE('',*,*,#512,.T.);
#703=ORIENTED_EDGE('',*,*,#511,.T.);
#704=ORIENTED_EDGE('',*,*,#513,.F.);
#705=ORIENTED_EDGE('',*,*,#503,.F.);
#706=ORIENTED_EDGE('',*,*,#513,.T.);
#707=ORIENTED_EDGE('',*,*,#510,.T.);
#708=ORIENTED_EDGE('',*,*,#507,.T.);
#709=ORIENTED_EDGE('',*,*,#504,.T.);
#710=ORIENTED_EDGE('',*,*,#501,.T.);
#711=ORIENTED_EDGE('',*,*,#498,.T.);
#712=ORIENTED_EDGE('',*,*,#512,.F.);
#713=ORIENTED_EDGE('',*,*,#502,.T.);
#714=ORIENTED_EDGE('',*,*,#506,.F.);
#715=ORIENTED_EDGE('',*,*,#509,.T.);
#716=ORIENTED_EDGE('',*,*,#500,.F.);
#717=ORIENTED_EDGE('',*,*,#496,.F.);
#718=ORIENTED_EDGE('',*,*,#514,.T.);
#719=ORIENTED_EDGE('',*,*,#515,.T.);
#720=ORIENTED_EDGE('',*,*,#516,.F.);
#721=ORIENTED_EDGE('',*,*,#517,.F.);
#722=ORIENTED_EDGE('',*,*,#518,.T.);
#723=ORIENTED_EDGE('',*,*,#517,.T.);
#724=ORIENTED_EDGE('',*,*,#519,.F.);
#725=ORIENTED_EDGE('',*,*,#515,.F.);
#726=ORIENTED_EDGE('',*,*,#519,.T.);
#727=ORIENTED_EDGE('',*,*,#516,.T.);
#728=ORIENTED_EDGE('',*,*,#518,.F.);
#729=ORIENTED_EDGE('',*,*,#514,.F.);
#730=ORIENTED_EDGE('',*,*,#520,.T.);
#731=ORIENTED_EDGE('',*,*,#521,.T.);
#732=ORIENTED_EDGE('',*,*,#522,.F.);
#733=ORIENTED_EDGE('',*,*,#523,.F.);
#734=ORIENTED_EDGE('',*,*,#524,.T.);
#735=ORIENTED_EDGE('',*,*,#523,.T.);
#736=ORIENTED_EDGE('',*,*,#525,.F.);
#737=ORIENTED_EDGE('',*,*,#521,.F.);
#738=ORIENTED_EDGE('',*,*,#525,.T.);
#739=ORIENTED_EDGE('',*,*,#522,.T.);
#740=ORIENTED_EDGE('',*,*,#524,.F.);
#741=ORIENTED_EDGE('',*,*,#520,.F.);
#742=CYLINDRICAL_SURFACE('',#843,3.);
#743=CYLINDRICAL_SURFACE('',#846,1.);
#744=CYLINDRICAL_SURFACE('',#849,3.);
#745=CYLINDRICAL_SURFACE('',#852,1.);
#746=CYLINDRICAL_SURFACE('',#861,2.);
#747=CYLINDRICAL_SURFACE('',#862,2.);
#748=CYLINDRICAL_SURFACE('',#876,3.);
#749=CYLINDRICAL_SURFACE('',#886,2.);
#750=CYLINDRICAL_SURFACE('',#888,2.);
#751=CYLINDRICAL_SURFACE('',#891,2.);
#752=CYLINDRICAL_SURFACE('',#894,2.);
#753=CYLINDRICAL_SURFACE('',#897,3.);
#754=CYLINDRICAL_SURFACE('',#900,1.);
#755=CYLINDRICAL_SURFACE('',#903,3.);
#756=CYLINDRICAL_SURFACE('',#906,1.);
#757=CYLINDRICAL_SURFACE('',#911,2.);
#758=CYLINDRICAL_SURFACE('',#914,2.);
#759=CYLINDRICAL_SURFACE('',#917,1.);
#760=CYLINDRICAL_SURFACE('',#920,3.);
#761=CYLINDRICAL_SURFACE('',#923,1.);
#762=CYLINDRICAL_SURFACE('',#926,3.);
#763=CYLINDRICAL_SURFACE('',#931,2.);
#764=CYLINDRICAL_SURFACE('',#934,2.);
#765=CYLINDRICAL_SURFACE('',#939,2.);
#766=CYLINDRICAL_SURFACE('',#942,2.);
#767=ADVANCED_FACE('',(#68),#742,.T.);
#768=ADVANCED_FACE('',(#69),#743,.T.);
#769=ADVANCED_FACE('',(#70),#744,.T.);
#770=ADVANCED_FACE('',(#71),#745,.T.);
#771=ADVANCED_FACE('',(#72,#33),#39,.F.);
#772=ADVANCED_FACE('',(#73,#34),#40,.F.);
#773=ADVANCED_FACE('',(#74),#746,.F.);
#774=ADVANCED_FACE('',(#75),#747,.F.);
#775=ADVANCED_FACE('',(#76),#41,.T.);
#776=ADVANCED_FACE('',(#77),#42,.T.);
#777=ADVANCED_FACE('',(#78),#43,.T.);
#778=ADVANCED_FACE('',(#79),#44,.T.);
#779=ADVANCED_FACE('',(#80),#45,.T.);
#780=ADVANCED_FACE('',(#81),#46,.T.);
#781=ADVANCED_FACE('',(#82),#47,.F.);
#782=ADVANCED_FACE('',(#83),#48,.F.);
#783=ADVANCED_FACE('',(#84),#49,.F.);
#784=ADVANCED_FACE('',(#85),#50,.T.);
#785=ADVANCED_FACE('',(#86),#51,.T.);
#786=ADVANCED_FACE('',(#87),#52,.T.);
#787=ADVANCED_FACE('',(#88),#53,.F.);
#788=ADVANCED_FACE('',(#89),#748,.F.);
#789=ADVANCED_FACE('',(#90),#54,.T.);
#790=ADVANCED_FACE('',(#91),#55,.T.);
#791=ADVANCED_FACE('',(#92),#56,.T.);
#792=ADVANCED_FACE('',(#93),#57,.T.);
#793=ADVANCED_FACE('',(#94),#58,.T.);
#794=ADVANCED_FACE('',(#95),#749,.T.);
#795=ADVANCED_FACE('',(#96),#750,.T.);
#796=ADVANCED_FACE('',(#97),#59,.F.);
#797=ADVANCED_FACE('',(#98),#751,.F.);
#798=ADVANCED_FACE('',(#99),#752,.F.);
#799=ADVANCED_FACE('',(#100),#753,.T.);
#800=ADVANCED_FACE('',(#101),#754,.T.);
#801=ADVANCED_FACE('',(#102),#755,.T.);
#802=ADVANCED_FACE('',(#103),#756,.T.);
#803=ADVANCED_FACE('',(#104,#35),#60,.T.);
#804=ADVANCED_FACE('',(#105,#36),#61,.F.);
#805=ADVANCED_FACE('',(#106),#757,.F.);
#806=ADVANCED_FACE('',(#107),#758,.F.);
#807=ADVANCED_FACE('',(#108),#759,.T.);
#808=ADVANCED_FACE('',(#109),#760,.T.);
#809=ADVANCED_FACE('',(#110),#761,.T.);
#810=ADVANCED_FACE('',(#111),#762,.T.);
#811=ADVANCED_FACE('',(#112,#37),#62,.F.);
#812=ADVANCED_FACE('',(#113,#38),#63,.T.);
#813=ADVANCED_FACE('',(#114),#763,.T.);
#814=ADVANCED_FACE('',(#115),#764,.T.);
#815=ADVANCED_FACE('',(#116),#64,.T.);
#816=ADVANCED_FACE('',(#117),#65,.F.);
#817=ADVANCED_FACE('',(#118),#765,.T.);
#818=ADVANCED_FACE('',(#119),#766,.T.);
#819=ADVANCED_FACE('',(#120),#66,.F.);
#820=ADVANCED_FACE('',(#121),#67,.T.);
#821=CLOSED_SHELL('',(#767,#768,#769,#770,#771,#772,#773,#774));
#822=CLOSED_SHELL('',(#775,#776,#777,#778,#779,#780));
#823=CLOSED_SHELL('',(#781,#782,#783,#784,#785,#786));
#824=CLOSED_SHELL('',(#787,#788,#789,#790,#791,#792));
#825=CLOSED_SHELL('',(#793,#794,#795,#796));
#826=CLOSED_SHELL('',(#797,#798,#799,#800,#801,#802,#803,#804));
#827=CLOSED_SHELL('',(#805,#806,#807,#808,#809,#810,#811,#812));
#828=CLOSED_SHELL('',(#813,#814,#815,#816));
#829=CLOSED_SHELL('',(#817,#818,#819,#820));
#830=DERIVED_UNIT_ELEMENT(#832,1.);
#831=DERIVED_UNIT_ELEMENT(#1455,-3.);
#832=(
MASS_UNIT()
NAMED_UNIT(*)
SI_UNIT(.KILO.,.GRAM.)
);
#833=DERIVED_UNIT((#830,#831));
#834=MEASURE_REPRESENTATION_ITEM('density measure',
POSITIVE_RATIO_MEASURE(7850.),#833);
#835=PROPERTY_DEFINITION_REPRESENTATION(#840,#837);
#836=PROPERTY_DEFINITION_REPRESENTATION(#841,#838);
#837=REPRESENTATION('material name',(#839),#1452);
#838=REPRESENTATION('density',(#834),#1452);
#839=DESCRIPTIVE_REPRESENTATION_ITEM('Steel','Steel');
#840=PROPERTY_DEFINITION('material property','material name',#1462);
#841=PROPERTY_DEFINITION('material property','density of part',#1462);
#842=AXIS2_PLACEMENT_3D('',#1215,#947,#948);
#843=AXIS2_PLACEMENT_3D('',#1216,#949,#950);
#844=AXIS2_PLACEMENT_3D('',#1221,#952,#953);
#845=AXIS2_PLACEMENT_3D('',#1224,#955,#956);
#846=AXIS2_PLACEMENT_3D('',#1225,#957,#958);
#847=AXIS2_PLACEMENT_3D('',#1227,#959,#960);
#848=AXIS2_PLACEMENT_3D('',#1229,#961,#962);
#849=AXIS2_PLACEMENT_3D('',#1231,#964,#965);
#850=AXIS2_PLACEMENT_3D('',#1235,#967,#968);
#851=AXIS2_PLACEMENT_3D('',#1236,#969,#970);
#852=AXIS2_PLACEMENT_3D('',#1237,#971,#972);
#853=AXIS2_PLACEMENT_3D('',#1238,#973,#974);
#854=AXIS2_PLACEMENT_3D('',#1239,#975,#976);
#855=AXIS2_PLACEMENT_3D('',#1240,#977,#978);
#856=AXIS2_PLACEMENT_3D('',#1243,#979,#980);
#857=AXIS2_PLACEMENT_3D('',#1244,#981,#982);
#858=AXIS2_PLACEMENT_3D('',#1245,#983,#984);
#859=AXIS2_PLACEMENT_3D('',#1248,#985,#986);
#860=AXIS2_PLACEMENT_3D('',#1249,#987,#988);
#861=AXIS2_PLACEMENT_3D('',#1250,#989,#990);
#862=AXIS2_PLACEMENT_3D('',#1253,#993,#994);
#863=AXIS2_PLACEMENT_3D('',#1254,#995,#996);
#864=AXIS2_PLACEMENT_3D('',#1263,#1001,#1002);
#865=AXIS2_PLACEMENT_3D('',#1269,#1006,#1007);
#866=AXIS2_PLACEMENT_3D('',#1275,#1011,#1012);
#867=AXIS2_PLACEMENT_3D('',#1278,#1015,#1016);
#868=AXIS2_PLACEMENT_3D('',#1279,#1017,#1018);
#869=AXIS2_PLACEMENT_3D('',#1280,#1019,#1020);
#870=AXIS2_PLACEMENT_3D('',#1289,#1025,#1026);
#871=AXIS2_PLACEMENT_3D('',#1295,#1030,#1031);
#872=AXIS2_PLACEMENT_3D('',#1301,#1035,#1036);
#873=AXIS2_PLACEMENT_3D('',#1304,#1039,#1040);
#874=AXIS2_PLACEMENT_3D('',#1305,#1041,#1042);
#875=AXIS2_PLACEMENT_3D('',#1306,#1043,#1044);
#876=AXIS2_PLACEMENT_3D('',#1315,#1049,#1050);
#877=AXIS2_PLACEMENT_3D('',#1318,#1051,#1052);
#878=AXIS2_PLACEMENT_3D('',#1322,#1054,#1055);
#879=AXIS2_PLACEMENT_3D('',#1324,#1057,#1058);
#880=AXIS2_PLACEMENT_3D('',#1327,#1061,#1062);
#881=AXIS2_PLACEMENT_3D('',#1329,#1064,#1065);
#882=AXIS2_PLACEMENT_3D('',#1331,#1067,#1068);
#883=AXIS2_PLACEMENT_3D('',#1332,#1069,#1070);
#884=AXIS2_PLACEMENT_3D('',#1335,#1071,#1072);
#885=AXIS2_PLACEMENT_3D('',#1336,#1073,#1074);
#886=AXIS2_PLACEMENT_3D('',#1337,#1075,#1076);
#887=AXIS2_PLACEMENT_3D('',#1341,#1078,#1079);
#888=AXIS2_PLACEMENT_3D('',#1343,#1081,#1082);
#889=AXIS2_PLACEMENT_3D('',#1344,#1083,#1084);
#890=AXIS2_PLACEMENT_3D('',#1345,#1085,#1086);
#891=AXIS2_PLACEMENT_3D('',#1346,#1087,#1088);
#892=AXIS2_PLACEMENT_3D('',#1349,#1089,#1090);
#893=AXIS2_PLACEMENT_3D('',#1353,#1092,#1093);
#894=AXIS2_PLACEMENT_3D('',#1355,#1095,#1096);
#895=AXIS2_PLACEMENT_3D('',#1356,#1097,#1098);
#896=AXIS2_PLACEMENT_3D('',#1357,#1099,#1100);
#897=AXIS2_PLACEMENT_3D('',#1358,#1101,#1102);
#898=AXIS2_PLACEMENT_3D('',#1361,#1103,#1104);
#899=AXIS2_PLACEMENT_3D('',#1365,#1106,#1107);
#900=AXIS2_PLACEMENT_3D('',#1367,#1109,#1110);
#901=AXIS2_PLACEMENT_3D('',#1369,#1111,#1112);
#902=AXIS2_PLACEMENT_3D('',#1371,#1113,#1114);
#903=AXIS2_PLACEMENT_3D('',#1373,#1116,#1117);
#904=AXIS2_PLACEMENT_3D('',#1375,#1118,#1119);
#905=AXIS2_PLACEMENT_3D('',#1377,#1120,#1121);
#906=AXIS2_PLACEMENT_3D('',#1379,#1123,#1124);
#907=AXIS2_PLACEMENT_3D('',#1380,#1125,#1126);
#908=AXIS2_PLACEMENT_3D('',#1381,#1127,#1128);
#909=AXIS2_PLACEMENT_3D('',#1382,#1129,#1130);
#910=AXIS2_PLACEMENT_3D('',#1383,#1131,#1132);
#911=AXIS2_PLACEMENT_3D('',#1384,#1133,#1134);
#912=AXIS2_PLACEMENT_3D('',#1387,#1135,#1136);
#913=AXIS2_PLACEMENT_3D('',#1391,#1138,#1139);
#914=AXIS2_PLACEMENT_3D('',#1393,#1141,#1142);
#915=AXIS2_PLACEMENT_3D('',#1394,#1143,#1144);
#916=AXIS2_PLACEMENT_3D('',#1395,#1145,#1146);
#917=AXIS2_PLACEMENT_3D('',#1396,#1147,#1148);
#918=AXIS2_PLACEMENT_3D('',#1399,#1149,#1150);
#919=AXIS2_PLACEMENT_3D('',#1403,#1152,#1153);
#920=AXIS2_PLACEMENT_3D('',#1405,#1155,#1156);
#921=AXIS2_PLACEMENT_3D('',#1407,#1157,#1158);
#922=AXIS2_PLACEMENT_3D('',#1409,#1159,#1160);
#923=AXIS2_PLACEMENT_3D('',#1411,#1162,#1163);
#924=AXIS2_PLACEMENT_3D('',#1413,#1164,#1165);
#925=AXIS2_PLACEMENT_3D('',#1415,#1166,#1167);
#926=AXIS2_PLACEMENT_3D('',#1417,#1169,#1170);
#927=AXIS2_PLACEMENT_3D('',#1418,#1171,#1172);
#928=AXIS2_PLACEMENT_3D('',#1419,#1173,#1174);
#929=AXIS2_PLACEMENT_3D('',#1420,#1175,#1176);
#930=AXIS2_PLACEMENT_3D('',#1421,#1177,#1178);
#931=AXIS2_PLACEMENT_3D('',#1422,#1179,#1180);
#932=AXIS2_PLACEMENT_3D('',#1425,#1181,#1182);
#933=AXIS2_PLACEMENT_3D('',#1429,#1184,#1185);
#934=AXIS2_PLACEMENT_3D('',#1431,#1187,#1188);
#935=AXIS2_PLACEMENT_3D('',#1432,#1189,#1190);
#936=AXIS2_PLACEMENT_3D('',#1433,#1191,#1192);
#937=AXIS2_PLACEMENT_3D('',#1434,#1193,#1194);
#938=AXIS2_PLACEMENT_3D('',#1435,#1195,#1196);
#939=AXIS2_PLACEMENT_3D('',#1436,#1197,#1198);
#940=AXIS2_PLACEMENT_3D('',#1439,#1199,#1200);
#941=AXIS2_PLACEMENT_3D('',#1443,#1202,#1203);
#942=AXIS2_PLACEMENT_3D('',#1445,#1205,#1206);
#943=AXIS2_PLACEMENT_3D('',#1446,#1207,#1208);
#944=AXIS2_PLACEMENT_3D('',#1447,#1209,#1210);
#945=AXIS2_PLACEMENT_3D('',#1448,#1211,#1212);
#946=AXIS2_PLACEMENT_3D('',#1449,#1213,#1214);
#947=DIRECTION('axis',(0.,0.,1.));
#948=DIRECTION('refdir',(1.,0.,0.));
#949=DIRECTION('center_axis',(0.,0.,1.));
#950=DIRECTION('ref_axis',(1.,0.,0.));
#951=DIRECTION('',(0.,0.,1.));
#952=DIRECTION('center_axis',(0.,0.,-1.));
#953=DIRECTION('ref_axis',(1.,0.,0.));
#954=DIRECTION('',(0.,0.,-1.));
#955=DIRECTION('center_axis',(0.,0.,1.));
#956=DIRECTION('ref_axis',(1.,0.,0.));
#957=DIRECTION('center_axis',(0.,0.,1.));
#958=DIRECTION('ref_axis',(-1.,0.,0.));
#959=DIRECTION('center_axis',(0.,0.,-1.));
#960=DIRECTION('ref_axis',(-1.,0.,0.));
#961=DIRECTION('center_axis',(0.,0.,1.));
#962=DIRECTION('ref_axis',(-1.,0.,0.));
#963=DIRECTION('',(0.,0.,-1.));
#964=DIRECTION('center_axis',(0.,0.,1.));
#965=DIRECTION('ref_axis',(1.,0.,0.));
#966=DIRECTION('',(0.,0.,1.));
#967=DIRECTION('center_axis',(0.,0.,-1.));
#968=DIRECTION('ref_axis',(1.,0.,0.));
#969=DIRECTION('center_axis',(0.,0.,1.));
#970=DIRECTION('ref_axis',(1.,0.,0.));
#971=DIRECTION('center_axis',(0.,0.,-1.));
#972=DIRECTION('ref_axis',(1.,5.55111512312579E-16,0.));
#973=DIRECTION('center_axis',(0.,0.,1.));
#974=DIRECTION('ref_axis',(1.,5.55111512312579E-16,0.));
#975=DIRECTION('center_axis',(0.,0.,-1.));
#976=DIRECTION('ref_axis',(1.,5.55111512312579E-16,0.));
#977=DIRECTION('center_axis',(0.,0.,1.));
#978=DIRECTION('ref_axis',(-1.,0.,0.));
#979=DIRECTION('center_axis',(0.,0.,1.));
#980=DIRECTION('ref_axis',(1.,0.,0.));
#981=DIRECTION('center_axis',(0.,0.,1.));
#982=DIRECTION('ref_axis',(1.,0.,0.));
#983=DIRECTION('center_axis',(0.,0.,-1.));
#984=DIRECTION('ref_axis',(1.,0.,0.));
#985=DIRECTION('center_axis',(0.,0.,-1.));
#986=DIRECTION('ref_axis',(1.,0.,0.));
#987=DIRECTION('center_axis',(0.,0.,-1.));
#988=DIRECTION('ref_axis',(1.,0.,0.));
#989=DIRECTION('center_axis',(0.,0.,1.));
#990=DIRECTION('ref_axis',(1.,0.,0.));
#991=DIRECTION('',(0.,0.,1.));
#992=DIRECTION('',(0.,0.,-1.));
#993=DIRECTION('center_axis',(0.,0.,1.));
#994=DIRECTION('ref_axis',(1.,0.,0.));
#995=DIRECTION('center_axis',(0.,1.,0.));
#996=DIRECTION('ref_axis',(-1.,0.,0.));
#997=DIRECTION('',(1.,0.,0.));
#998=DIRECTION('',(0.,0.,1.));
#999=DIRECTION('',(-1.,0.,0.));
#1000=DIRECTION('',(0.,0.,1.));
#1001=DIRECTION('center_axis',(1.,0.,0.));
#1002=DIRECTION('ref_axis',(0.,1.,0.));
#1003=DIRECTION('',(0.,1.,0.));
#1004=DIRECTION('',(0.,1.,0.));
#1005=DIRECTION('',(0.,0.,1.));
#1006=DIRECTION('center_axis',(0.,-1.,0.));
#1007=DIRECTION('ref_axis',(1.,0.,0.));
#1008=DIRECTION('',(1.,0.,0.));
#1009=DIRECTION('',(1.,0.,0.));
#1010=DIRECTION('',(0.,0.,1.));
#1011=DIRECTION('center_axis',(-1.,0.,0.));
#1012=DIRECTION('ref_axis',(0.,-1.,0.));
#1013=DIRECTION('',(0.,-1.,0.));
#1014=DIRECTION('',(0.,-1.,0.));
#1015=DIRECTION('center_axis',(0.,0.,-1.));
#1016=DIRECTION('ref_axis',(1.,0.,0.));
#1017=DIRECTION('center_axis',(0.,0.,1.));
#1018=DIRECTION('ref_axis',(1.,0.,0.));
#1019=DIRECTION('center_axis',(0.,1.,0.));
#1020=DIRECTION('ref_axis',(-1.,0.,0.));
#1021=DIRECTION('',(0.,0.,1.));
#1022=DIRECTION('',(-1.,0.,0.));
#1023=DIRECTION('',(0.,0.,-1.));
#1024=DIRECTION('',(1.,0.,0.));
#1025=DIRECTION('center_axis',(0.,0.,1.));
#1026=DIRECTION('ref_axis',(-1.,0.,0.));
#1027=DIRECTION('',(0.,1.,0.));
#1028=DIRECTION('',(-1.,0.,0.));
#1029=DIRECTION('',(0.,1.,0.));
#1030=DIRECTION('center_axis',(0.,0.,-1.));
#1031=DIRECTION('ref_axis',(1.,0.,0.));
#1032=DIRECTION('',(1.,0.,0.));
#1033=DIRECTION('',(0.,1.,0.));
#1034=DIRECTION('',(0.,1.,0.));
#1035=DIRECTION('center_axis',(0.,1.,0.));
#1036=DIRECTION('ref_axis',(0.,0.,1.));
#1037=DIRECTION('',(0.,0.,1.));
#1038=DIRECTION('',(0.,0.,-1.));
#1039=DIRECTION('center_axis',(1.,0.,0.));
#1040=DIRECTION('ref_axis',(0.,0.,-1.));
#1041=DIRECTION('center_axis',(-1.,0.,0.));
#1042=DIRECTION('ref_axis',(0.,0.,1.));
#1043=DIRECTION('center_axis',(0.,-1.,0.));
#1044=DIRECTION('ref_axis',(-1.,0.,0.));
#1045=DIRECTION('',(1.,0.,0.));
#1046=DIRECTION('',(0.,0.,-1.));
#1047=DIRECTION('',(-1.,0.,0.));
#1048=DIRECTION('',(0.,0.,1.));
#1049=DIRECTION('center_axis',(0.,0.,-1.));
#1050=DIRECTION('ref_axis',(-0.5,0.866025403784439,0.));
#1051=DIRECTION('center_axis',(0.,-0.707106781186548,0.707106781186548));
#1052=DIRECTION('ref_axis',(0.,0.707106781186548,0.707106781186548));
#1053=DIRECTION('',(0.,0.,-1.));
#1054=DIRECTION('center_axis',(0.,-0.707106781186548,-0.707106781186548));
#1055=DIRECTION('ref_axis',(0.,0.707106781186548,-0.707106781186548));
#1056=DIRECTION('',(0.,0.,1.));
#1057=DIRECTION('center_axis',(0.,-0.707106781186548,-0.707106781186548));
#1058=DIRECTION('ref_axis',(0.,0.707106781186548,-0.707106781186548));
#1059=DIRECTION('',(0.,-0.707106781186547,0.707106781186547));
#1060=DIRECTION('',(0.,0.707106781186547,-0.707106781186547));
#1061=DIRECTION('center_axis',(-1.,0.,0.));
#1062=DIRECTION('ref_axis',(0.,0.,1.));
#1063=DIRECTION('',(0.,0.707106781186547,0.707106781186547));
#1064=DIRECTION('center_axis',(0.,-0.707106781186548,0.707106781186548));
#1065=DIRECTION('ref_axis',(0.,-0.707106781186548,-0.707106781186548));
#1066=DIRECTION('',(0.,-0.707106781186547,-0.707106781186547));
#1067=DIRECTION('center_axis',(1.,0.,0.));
#1068=DIRECTION('ref_axis',(0.,0.,-1.));
#1069=DIRECTION('center_axis',(0.,0.,-1.));
#1070=DIRECTION('ref_axis',(1.,0.,0.));
#1071=DIRECTION('center_axis',(0.,0.,-1.));
#1072=DIRECTION('ref_axis',(-0.5,0.866025403784439,0.));
#1073=DIRECTION('center_axis',(0.,0.,-1.));
#1074=DIRECTION('ref_axis',(0.5,-0.866025403784439,0.));
#1075=DIRECTION('center_axis',(0.,0.,1.));
#1076=DIRECTION('ref_axis',(-0.5,0.866025403784439,0.));
#1077=DIRECTION('',(0.,0.,1.));
#1078=DIRECTION('center_axis',(0.,0.,1.));
#1079=DIRECTION('ref_axis',(-0.5,0.866025403784439,0.));
#1080=DIRECTION('',(0.,0.,1.));
#1081=DIRECTION('center_axis',(0.,0.,1.));
#1082=DIRECTION('ref_axis',(0.5,-0.866025403784439,0.));
#1083=DIRECTION('center_axis',(0.,0.,1.));
#1084=DIRECTION('ref_axis',(0.5,-0.866025403784439,0.));
#1085=DIRECTION('center_axis',(0.,0.,-1.));
#1086=DIRECTION('ref_axis',(1.,0.,0.));
#1087=DIRECTION('center_axis',(0.,0.,-1.));
#1088=DIRECTION('ref_axis',(0.5,-0.866025403784439,0.));
#1089=DIRECTION('center_axis',(0.,0.,1.));
#1090=DIRECTION('ref_axis',(0.5,-0.866025403784439,0.));
#1091=DIRECTION('',(0.,0.,-1.));
#1092=DIRECTION('center_axis',(0.,0.,1.));
#1093=DIRECTION('ref_axis',(0.5,-0.866025403784439,0.));
#1094=DIRECTION('',(0.,0.,-1.));
#1095=DIRECTION('center_axis',(0.,0.,-1.));
#1096=DIRECTION('ref_axis',(-0.5,0.866025403784439,0.));
#1097=DIRECTION('center_axis',(0.,0.,1.));
#1098=DIRECTION('ref_axis',(-0.5,0.866025403784439,0.));
#1099=DIRECTION('center_axis',(0.,0.,1.));
#1100=DIRECTION('ref_axis',(-0.5,0.866025403784439,0.));
#1101=DIRECTION('center_axis',(0.,0.,-1.));
#1102=DIRECTION('ref_axis',(-0.5,0.866025403784439,0.));
#1103=DIRECTION('center_axis',(0.,0.,-1.));
#1104=DIRECTION('ref_axis',(-0.5,0.866025403784439,0.));
#1105=DIRECTION('',(0.,0.,-1.));
#1106=DIRECTION('center_axis',(0.,0.,-1.));
#1107=DIRECTION('ref_axis',(-0.5,0.866025403784439,0.));
#1108=DIRECTION('',(0.,0.,-1.));
#1109=DIRECTION('center_axis',(0.,0.,-1.));
#1110=DIRECTION('ref_axis',(-0.499999999999999,-0.866025403784439,0.));
#1111=DIRECTION('center_axis',(0.,0.,-1.));
#1112=DIRECTION('ref_axis',(-0.499999999999999,-0.866025403784439,0.));
#1113=DIRECTION('center_axis',(0.,0.,-1.));
#1114=DIRECTION('ref_axis',(-0.499999999999999,-0.866025403784439,0.));
#1115=DIRECTION('',(0.,0.,-1.));
#1116=DIRECTION('center_axis',(0.,0.,-1.));
#1117=DIRECTION('ref_axis',(0.5,-0.866025403784439,0.));
#1118=DIRECTION('center_axis',(0.,0.,-1.));
#1119=DIRECTION('ref_axis',(0.5,-0.866025403784439,0.));
#1120=DIRECTION('center_axis',(0.,0.,-1.));
#1121=DIRECTION('ref_axis',(0.5,-0.866025403784439,0.));
#1122=DIRECTION('',(0.,0.,-1.));
#1123=DIRECTION('center_axis',(0.,0.,-1.));
#1124=DIRECTION('ref_axis',(0.5,0.866025403784439,0.));
#1125=DIRECTION('center_axis',(0.,0.,-1.));
#1126=DIRECTION('ref_axis',(0.5,0.866025403784439,0.));
#1127=DIRECTION('center_axis',(0.,0.,-1.));
#1128=DIRECTION('ref_axis',(0.5,0.866025403784439,0.));
#1129=DIRECTION('center_axis',(0.,0.,-1.));
#1130=DIRECTION('ref_axis',(1.,0.,0.));
#1131=DIRECTION('center_axis',(0.,0.,-1.));
#1132=DIRECTION('ref_axis',(1.,0.,0.));
#1133=DIRECTION('center_axis',(0.,0.,1.));
#1134=DIRECTION('ref_axis',(1.,0.,0.));
#1135=DIRECTION('center_axis',(0.,0.,-1.));
#1136=DIRECTION('ref_axis',(1.,0.,0.));
#1137=DIRECTION('',(0.,0.,1.));
#1138=DIRECTION('center_axis',(0.,0.,-1.));
#1139=DIRECTION('ref_axis',(1.,0.,0.));
#1140=DIRECTION('',(0.,0.,1.));
#1141=DIRECTION('center_axis',(0.,0.,1.));
#1142=DIRECTION('ref_axis',(1.,0.,0.));
#1143=DIRECTION('center_axis',(0.,0.,-1.));
#1144=DIRECTION('ref_axis',(1.,0.,0.));
#1145=DIRECTION('center_axis',(0.,0.,-1.));
#1146=DIRECTION('ref_axis',(1.,0.,0.));
#1147=DIRECTION('center_axis',(0.,0.,1.));
#1148=DIRECTION('ref_axis',(-1.,0.,0.));
#1149=DIRECTION('center_axis',(0.,0.,1.));
#1150=DIRECTION('ref_axis',(-1.,0.,0.));
#1151=DIRECTION('',(0.,0.,1.));
#1152=DIRECTION('center_axis',(0.,0.,1.));
#1153=DIRECTION('ref_axis',(-1.,0.,0.));
#1154=DIRECTION('',(0.,0.,1.));
#1155=DIRECTION('center_axis',(0.,0.,1.));
#1156=DIRECTION('ref_axis',(1.,0.,0.));
#1157=DIRECTION('center_axis',(0.,0.,1.));
#1158=DIRECTION('ref_axis',(1.,0.,0.));
#1159=DIRECTION('center_axis',(0.,0.,1.));
#1160=DIRECTION('ref_axis',(1.,0.,0.));
#1161=DIRECTION('',(0.,0.,1.));
#1162=DIRECTION('center_axis',(0.,0.,1.));
#1163=DIRECTION('ref_axis',(1.,5.55111512312579E-16,0.));
#1164=DIRECTION('center_axis',(0.,0.,1.));
#1165=DIRECTION('ref_axis',(1.,5.55111512312579E-16,0.));
#1166=DIRECTION('center_axis',(0.,0.,1.));
#1167=DIRECTION('ref_axis',(1.,5.55111512312579E-16,0.));
#1168=DIRECTION('',(0.,0.,1.));
#1169=DIRECTION('center_axis',(0.,0.,1.));
#1170=DIRECTION('ref_axis',(1.,0.,0.));
#1171=DIRECTION('center_axis',(0.,0.,1.));
#1172=DIRECTION('ref_axis',(1.,0.,0.));
#1173=DIRECTION('center_axis',(0.,0.,1.));
#1174=DIRECTION('ref_axis',(1.,0.,0.));
#1175=DIRECTION('center_axis',(0.,0.,-1.));
#1176=DIRECTION('ref_axis',(1.,0.,0.));
#1177=DIRECTION('center_axis',(0.,0.,-1.));
#1178=DIRECTION('ref_axis',(1.,0.,0.));
#1179=DIRECTION('center_axis',(0.,0.,-1.));
#1180=DIRECTION('ref_axis',(0.5,-0.866025403784439,0.));
#1181=DIRECTION('center_axis',(0.,0.,-1.));
#1182=DIRECTION('ref_axis',(0.5,-0.866025403784439,0.));
#1183=DIRECTION('',(0.,0.,-1.));
#1184=DIRECTION('center_axis',(0.,0.,-1.));
#1185=DIRECTION('ref_axis',(0.5,-0.866025403784439,0.));
#1186=DIRECTION('',(0.,0.,-1.));
#1187=DIRECTION('center_axis',(0.,0.,-1.));
#1188=DIRECTION('ref_axis',(-0.5,0.866025403784439,0.));
#1189=DIRECTION('center_axis',(0.,0.,-1.));
#1190=DIRECTION('ref_axis',(-0.5,0.866025403784439,0.));
#1191=DIRECTION('center_axis',(0.,0.,-1.));
#1192=DIRECTION('ref_axis',(-0.5,0.866025403784439,0.));
#1193=DIRECTION('center_axis',(0.,0.,-1.));
#1194=DIRECTION('ref_axis',(1.,0.,0.));
#1195=DIRECTION('center_axis',(0.,0.,-1.));
#1196=DIRECTION('ref_axis',(1.,0.,0.));
#1197=DIRECTION('center_axis',(0.,0.,1.));
#1198=DIRECTION('ref_axis',(0.5,-0.866025403784439,0.));
#1199=DIRECTION('center_axis',(0.,0.,1.));
#1200=DIRECTION('ref_axis',(0.5,-0.866025403784439,0.));
#1201=DIRECTION('',(0.,0.,1.));
#1202=DIRECTION('center_axis',(0.,0.,1.));
#1203=DIRECTION('ref_axis',(0.5,-0.866025403784439,0.));
#1204=DIRECTION('',(0.,0.,1.));
#1205=DIRECTION('center_axis',(0.,0.,1.));
#1206=DIRECTION('ref_axis',(-0.5,0.866025403784439,0.));
#1207=DIRECTION('center_axis',(0.,0.,1.));
#1208=DIRECTION('ref_axis',(-0.5,0.866025403784439,0.));
#1209=DIRECTION('center_axis',(0.,0.,1.));
#1210=DIRECTION('ref_axis',(-0.5,0.866025403784439,0.));
#1211=DIRECTION('center_axis',(0.,0.,-1.));
#1212=DIRECTION('ref_axis',(1.,0.,0.));
#1213=DIRECTION('center_axis',(0.,0.,-1.));
#1214=DIRECTION('ref_axis',(1.,0.,0.));
#1215=CARTESIAN_POINT('',(0.,0.,0.));
#1216=CARTESIAN_POINT('Origin',(-5.89805981832114E-16,1.73205080756888,
0.));
#1217=CARTESIAN_POINT('',(-1.5,-0.866025403784439,-5.));
#1218=CARTESIAN_POINT('',(-1.5,-0.866025403784439,5.));
#1219=CARTESIAN_POINT('',(-1.5,-0.866025403784439,0.));
#1220=CARTESIAN_POINT('',(1.5,-0.866025403784439,-5.));
#1221=CARTESIAN_POINT('Origin',(-5.89805981832114E-16,1.73205080756888,
-5.));
#1222=CARTESIAN_POINT('',(1.5,-0.866025403784439,5.));
#1223=CARTESIAN_POINT('',(1.5,-0.866025403784439,0.));
#1224=CARTESIAN_POINT('Origin',(-5.89805981832114E-16,1.73205080756888,
5.));
#1225=CARTESIAN_POINT('Origin',(-1.,-5.55111512312578E-16,0.));
#1226=CARTESIAN_POINT('',(-1.5,0.866025403784438,-5.));
#1227=CARTESIAN_POINT('Origin',(-1.,-5.55111512312578E-16,-5.));
#1228=CARTESIAN_POINT('',(-1.5,0.866025403784438,5.));
#1229=CARTESIAN_POINT('Origin',(-1.,-5.55111512312578E-16,5.));
#1230=CARTESIAN_POINT('',(-1.5,0.866025403784438,0.));
#1231=CARTESIAN_POINT('Origin',(-2.77555756156289E-16,-1.73205080756888,
0.));
#1232=CARTESIAN_POINT('',(1.5,0.866025403784438,-5.));
#1233=CARTESIAN_POINT('',(1.5,0.866025403784438,5.));
#1234=CARTESIAN_POINT('',(1.5,0.866025403784438,0.));
#1235=CARTESIAN_POINT('Origin',(-2.77555756156289E-16,-1.73205080756888,
-5.));
#1236=CARTESIAN_POINT('Origin',(-2.77555756156289E-16,-1.73205080756888,
5.));
#1237=CARTESIAN_POINT('Origin',(0.999999999999999,-5.55111512312578E-16,
0.));
#1238=CARTESIAN_POINT('Origin',(0.999999999999999,-5.55111512312578E-16,
5.));
#1239=CARTESIAN_POINT('Origin',(0.999999999999999,-5.55111512312578E-16,
-5.));
#1240=CARTESIAN_POINT('Origin',(4.5,3.5,-5.));
#1241=CARTESIAN_POINT('',(-1.,2.77555756156289E-16,-5.));
#1242=CARTESIAN_POINT('',(1.,-2.77555756156289E-16,-5.));
#1243=CARTESIAN_POINT('Origin',(-5.89805981832114E-16,1.73205080756888,
-5.));
#1244=CARTESIAN_POINT('Origin',(-2.77555756156289E-16,-1.73205080756888,
-5.));
#1245=CARTESIAN_POINT('Origin',(-4.5,3.5,5.));
#1246=CARTESIAN_POINT('',(1.,-2.77555756156289E-16,5.));
#1247=CARTESIAN_POINT('',(-1.,2.77555756156289E-16,5.));
#1248=CARTESIAN_POINT('Origin',(-5.89805981832114E-16,1.73205080756888,
5.));
#1249=CARTESIAN_POINT('Origin',(-2.77555756156289E-16,-1.73205080756888,
5.));
#1250=CARTESIAN_POINT('Origin',(-2.77555756156289E-16,-1.73205080756888,
0.));
#1251=CARTESIAN_POINT('',(-0.999999999999999,2.77555756156289E-16,0.));
#1252=CARTESIAN_POINT('',(1.,-2.77555756156289E-16,0.));
#1253=CARTESIAN_POINT('Origin',(-5.89805981832114E-16,1.73205080756888,
0.));
#1254=CARTESIAN_POINT('Origin',(2.,-1.26794919243112,-5.));
#1255=CARTESIAN_POINT('',(-2.,-1.26794919243112,-5.));
#1256=CARTESIAN_POINT('',(2.,-1.26794919243112,-5.));
#1257=CARTESIAN_POINT('',(-2.,-1.26794919243112,-5.));
#1258=CARTESIAN_POINT('',(-2.,-1.26794919243112,5.));
#1259=CARTESIAN_POINT('',(-2.,-1.26794919243112,-5.));
#1260=CARTESIAN_POINT('',(2.,-1.26794919243112,5.));
#1261=CARTESIAN_POINT('',(-2.,-1.26794919243112,5.));
#1262=CARTESIAN_POINT('',(2.,-1.26794919243112,-5.));
#1263=CARTESIAN_POINT('Origin',(2.,-2.26794919243112,-5.));
#1264=CARTESIAN_POINT('',(2.,-2.26794919243112,-5.));
#1265=CARTESIAN_POINT('',(2.,-2.26794919243112,-5.));
#1266=CARTESIAN_POINT('',(2.,-2.26794919243112,5.));
#1267=CARTESIAN_POINT('',(2.,-2.26794919243112,5.));
#1268=CARTESIAN_POINT('',(2.,-2.26794919243112,-5.));
#1269=CARTESIAN_POINT('Origin',(-2.,-2.26794919243112,-5.));
#1270=CARTESIAN_POINT('',(-2.,-2.26794919243112,-5.));
#1271=CARTESIAN_POINT('',(-2.,-2.26794919243112,-5.));
#1272=CARTESIAN_POINT('',(-2.,-2.26794919243112,5.));
#1273=CARTESIAN_POINT('',(-2.,-2.26794919243112,5.));
#1274=CARTESIAN_POINT('',(-2.,-2.26794919243112,-5.));
#1275=CARTESIAN_POINT('Origin',(-2.,-1.26794919243112,-5.));
#1276=CARTESIAN_POINT('',(-2.,-0.267949192431123,-5.));
#1277=CARTESIAN_POINT('',(-2.,-0.267949192431123,5.));
#1278=CARTESIAN_POINT('Origin',(2.77555756156289E-16,-1.76794919243112,
-5.));
#1279=CARTESIAN_POINT('Origin',(2.77555756156289E-16,-1.76794919243112,
5.));
#1280=CARTESIAN_POINT('Origin',(0.,3.,0.));
#1281=CARTESIAN_POINT('',(2.71887933630996,3.,-5.));
#1282=CARTESIAN_POINT('',(2.71887933630996,3.,5.));
#1283=CARTESIAN_POINT('',(2.71887933630996,3.,0.));
#1284=CARTESIAN_POINT('',(-2.71887933630996,3.,5.));
#1285=CARTESIAN_POINT('',(2.5,3.,5.));
#1286=CARTESIAN_POINT('',(-2.71887933630996,3.,-5.));
#1287=CARTESIAN_POINT('',(-2.71887933630996,3.,0.));
#1288=CARTESIAN_POINT('',(2.25,3.,-5.));
#1289=CARTESIAN_POINT('Origin',(4.5,3.5,-5.));
#1290=CARTESIAN_POINT('',(-2.71887933630996,3.5,-5.));
#1291=CARTESIAN_POINT('',(-2.71887933630996,3.,-5.));
#1292=CARTESIAN_POINT('',(2.71887933630996,3.5,-5.));
#1293=CARTESIAN_POINT('',(2.25,3.5,-5.));
#1294=CARTESIAN_POINT('',(2.71887933630996,3.,-5.));
#1295=CARTESIAN_POINT('Origin',(-4.5,3.5,5.));
#1296=CARTESIAN_POINT('',(-2.71887933630996,3.5,5.));
#1297=CARTESIAN_POINT('',(2.71887933630996,3.5,5.));
#1298=CARTESIAN_POINT('',(2.5,3.5,5.));
#1299=CARTESIAN_POINT('',(-2.71887933630996,3.,5.));
#1300=CARTESIAN_POINT('',(2.71887933630996,3.,5.));
#1301=CARTESIAN_POINT('Origin',(0.,3.5,0.));
#1302=CARTESIAN_POINT('',(-2.71887933630996,3.5,0.));
#1303=CARTESIAN_POINT('',(2.71887933630996,3.5,0.));
#1304=CARTESIAN_POINT('Origin',(2.71887933630996,3.,5.));
#1305=CARTESIAN_POINT('Origin',(-2.71887933630996,3.,-5.));
#1306=CARTESIAN_POINT('Origin',(2.71887933630996,3.,-5.));
#1307=CARTESIAN_POINT('',(-1.5,3.,-2.5));
#1308=CARTESIAN_POINT('',(1.5,3.,-2.5));
#1309=CARTESIAN_POINT('',(0.,3.,-2.5));
#1310=CARTESIAN_POINT('',(-1.5,3.,2.5));
#1311=CARTESIAN_POINT('',(-1.5,3.,2.5));
#1312=CARTESIAN_POINT('',(1.5,3.,2.5));
#1313=CARTESIAN_POINT('',(0.,3.,2.5));
#1314=CARTESIAN_POINT('',(1.5,3.,2.5));
#1315=CARTESIAN_POINT('Origin',(-2.08166817117217E-16,-1.73205080756888,
-5.));
#1316=CARTESIAN_POINT('',(1.5,0.866025403784438,0.366025403784438));
#1317=CARTESIAN_POINT('',(-1.5,0.866025403784438,0.366025403784439));
#1318=CARTESIAN_POINT('Origin',(-2.77555756156289E-16,-1.73205080756888,
-2.23205080756888));
#1319=CARTESIAN_POINT('',(-1.5,0.866025403784438,-0.366025403784439));
#1320=CARTESIAN_POINT('',(-1.5,0.866025403784438,0.));
#1321=CARTESIAN_POINT('',(1.5,0.866025403784438,-0.366025403784438));
#1322=CARTESIAN_POINT('Origin',(-2.77555756156289E-16,-1.73205080756888,
2.23205080756888));
#1323=CARTESIAN_POINT('',(1.5,0.866025403784438,0.));
#1324=CARTESIAN_POINT('Origin',(0.,0.5,-5.55111512312578E-16));
#1325=CARTESIAN_POINT('',(-1.5,-2.,2.5));
#1326=CARTESIAN_POINT('',(1.5,-2.,2.5));
#1327=CARTESIAN_POINT('Origin',(-1.5,1.75,0.));
#1328=CARTESIAN_POINT('',(-1.5,3.,2.5));
#1329=CARTESIAN_POINT('Origin',(0.,3.,2.5));
#1330=CARTESIAN_POINT('',(1.5,3.,2.5));
#1331=CARTESIAN_POINT('Origin',(1.5,1.75,0.));
#1332=CARTESIAN_POINT('Origin',(-6.93889390390723E-16,-2.77555756156289E-16,
-5.));
#1333=CARTESIAN_POINT('',(-1.,-2.77555756156289E-16,-5.));
#1334=CARTESIAN_POINT('',(1.,1.38777878078145E-16,-5.));
#1335=CARTESIAN_POINT('Origin',(-2.08166817117217E-16,-1.73205080756888,
-5.));
#1336=CARTESIAN_POINT('Origin',(-6.93889390390723E-16,1.73205080756888,
-5.));
#1337=CARTESIAN_POINT('Origin',(-2.08166817117217E-16,-1.73205080756888,
-5.));
#1338=CARTESIAN_POINT('',(-1.,-2.77555756156289E-16,5.));
#1339=CARTESIAN_POINT('',(-1.,-2.77555756156289E-16,-5.));
#1340=CARTESIAN_POINT('',(1.,1.38777878078145E-16,5.));
#1341=CARTESIAN_POINT('Origin',(-2.08166817117217E-16,-1.73205080756888,
5.));
#1342=CARTESIAN_POINT('',(1.,1.38777878078145E-16,-5.));
#1343=CARTESIAN_POINT('Origin',(-6.93889390390723E-16,1.73205080756888,
-5.));
#1344=CARTESIAN_POINT('Origin',(-6.93889390390723E-16,1.73205080756888,
5.));
#1345=CARTESIAN_POINT('Origin',(-6.93889390390723E-16,-2.77555756156289E-16,
5.));
#1346=CARTESIAN_POINT('Origin',(-6.93889390390723E-16,1.73205080756888,
-5.));
#1347=CARTESIAN_POINT('',(-1.,-2.77555756156289E-16,-5.));
#1348=CARTESIAN_POINT('',(1.,1.38777878078145E-16,-5.));
#1349=CARTESIAN_POINT('Origin',(-6.93889390390723E-16,1.73205080756888,
-5.));
#1350=CARTESIAN_POINT('',(1.,1.38777878078145E-16,-7.));
#1351=CARTESIAN_POINT('',(1.,1.38777878078145E-16,-5.));
#1352=CARTESIAN_POINT('',(-1.,-2.77555756156289E-16,-7.));
#1353=CARTESIAN_POINT('Origin',(-6.93889390390723E-16,1.73205080756888,
-7.));
#1354=CARTESIAN_POINT('',(-1.,-2.77555756156289E-16,-5.));
#1355=CARTESIAN_POINT('Origin',(-2.08166817117217E-16,-1.73205080756888,
-5.));
#1356=CARTESIAN_POINT('Origin',(-2.08166817117217E-16,-1.73205080756888,
-5.));
#1357=CARTESIAN_POINT('Origin',(-2.08166817117217E-16,-1.73205080756888,
-7.));
#1358=CARTESIAN_POINT('Origin',(-2.08166817117217E-16,-1.73205080756888,
-5.));
#1359=CARTESIAN_POINT('',(-1.5,0.866025403784438,-5.));
#1360=CARTESIAN_POINT('',(1.5,0.866025403784438,-5.));
#1361=CARTESIAN_POINT('Origin',(-2.08166817117217E-16,-1.73205080756888,
-5.));
#1362=CARTESIAN_POINT('',(1.5,0.866025403784438,-7.));
#1363=CARTESIAN_POINT('',(1.5,0.866025403784438,-5.));
#1364=CARTESIAN_POINT('',(-1.5,0.866025403784438,-7.));
#1365=CARTESIAN_POINT('Origin',(-2.08166817117217E-16,-1.73205080756888,
-7.));
#1366=CARTESIAN_POINT('',(-1.5,0.866025403784438,-5.));
#1367=CARTESIAN_POINT('Origin',(-1.,-4.16333634234434E-16,-5.));
#1368=CARTESIAN_POINT('',(-1.5,-0.86602540378444,-5.));
#1369=CARTESIAN_POINT('Origin',(-1.,-4.16333634234434E-16,-5.));
#1370=CARTESIAN_POINT('',(-1.5,-0.86602540378444,-7.));
#1371=CARTESIAN_POINT('Origin',(-1.,-4.16333634234434E-16,-7.));
#1372=CARTESIAN_POINT('',(-1.5,-0.86602540378444,-5.));
#1373=CARTESIAN_POINT('Origin',(-6.93889390390723E-16,1.73205080756888,
-5.));
#1374=CARTESIAN_POINT('',(1.5,-0.866025403784439,-5.));
#1375=CARTESIAN_POINT('Origin',(-6.93889390390723E-16,1.73205080756888,
-5.));
#1376=CARTESIAN_POINT('',(1.5,-0.866025403784439,-7.));
#1377=CARTESIAN_POINT('Origin',(-6.93889390390723E-16,1.73205080756888,
-7.));
#1378=CARTESIAN_POINT('',(1.5,-0.866025403784439,-5.));
#1379=CARTESIAN_POINT('Origin',(0.999999999999999,-8.32667268468867E-16,
-5.));
#1380=CARTESIAN_POINT('Origin',(0.999999999999999,-8.32667268468867E-16,
-5.));
#1381=CARTESIAN_POINT('Origin',(0.999999999999999,-8.32667268468867E-16,
-7.));
#1382=CARTESIAN_POINT('Origin',(-8.32667268468867E-16,-5.55111512312578E-16,
-7.));
#1383=CARTESIAN_POINT('Origin',(-8.32667268468867E-16,-5.55111512312578E-16,
-5.));
#1384=CARTESIAN_POINT('Origin',(-2.77555756156289E-16,-1.73205080756888,
5.));
#1385=CARTESIAN_POINT('',(-1.,2.77555756156289E-16,5.));
#1386=CARTESIAN_POINT('',(1.,-2.77555756156289E-16,5.));
#1387=CARTESIAN_POINT('Origin',(-2.77555756156289E-16,-1.73205080756888,
5.));
#1388=CARTESIAN_POINT('',(1.,-2.77555756156289E-16,7.));
#1389=CARTESIAN_POINT('',(1.,-2.77555756156289E-16,5.));
#1390=CARTESIAN_POINT('',(-1.,2.77555756156289E-16,7.));
#1391=CARTESIAN_POINT('Origin',(-2.77555756156289E-16,-1.73205080756888,
7.));
#1392=CARTESIAN_POINT('',(-1.,2.77555756156289E-16,5.));
#1393=CARTESIAN_POINT('Origin',(-5.89805981832114E-16,1.73205080756888,
5.));
#1394=CARTESIAN_POINT('Origin',(-5.89805981832114E-16,1.73205080756888,
5.));
#1395=CARTESIAN_POINT('Origin',(-5.89805981832114E-16,1.73205080756888,
7.));
#1396=CARTESIAN_POINT('Origin',(-1.,-5.55111512312578E-16,5.));
#1397=CARTESIAN_POINT('',(-1.5,-0.866025403784439,5.));
#1398=CARTESIAN_POINT('',(-1.5,0.866025403784438,5.));
#1399=CARTESIAN_POINT('Origin',(-1.,-5.55111512312578E-16,5.));
#1400=CARTESIAN_POINT('',(-1.5,-0.866025403784439,7.));
#1401=CARTESIAN_POINT('',(-1.5,-0.866025403784439,5.));
#1402=CARTESIAN_POINT('',(-1.5,0.866025403784438,7.));
#1403=CARTESIAN_POINT('Origin',(-1.,-5.55111512312578E-16,7.));
#1404=CARTESIAN_POINT('',(-1.5,0.866025403784438,5.));
#1405=CARTESIAN_POINT('Origin',(-2.77555756156289E-16,-1.73205080756888,
5.));
#1406=CARTESIAN_POINT('',(1.5,0.866025403784438,5.));
#1407=CARTESIAN_POINT('Origin',(-2.77555756156289E-16,-1.73205080756888,
5.));
#1408=CARTESIAN_POINT('',(1.5,0.866025403784438,7.));
#1409=CARTESIAN_POINT('Origin',(-2.77555756156289E-16,-1.73205080756888,
7.));
#1410=CARTESIAN_POINT('',(1.5,0.866025403784438,5.));
#1411=CARTESIAN_POINT('Origin',(0.999999999999999,-5.55111512312578E-16,
5.));
#1412=CARTESIAN_POINT('',(1.5,-0.866025403784439,5.));
#1413=CARTESIAN_POINT('Origin',(0.999999999999999,-5.55111512312578E-16,
5.));
#1414=CARTESIAN_POINT('',(1.5,-0.866025403784439,7.));
#1415=CARTESIAN_POINT('Origin',(0.999999999999999,-5.55111512312578E-16,
7.));
#1416=CARTESIAN_POINT('',(1.5,-0.866025403784439,5.));
#1417=CARTESIAN_POINT('Origin',(-5.89805981832114E-16,1.73205080756888,
5.));
#1418=CARTESIAN_POINT('Origin',(-5.89805981832114E-16,1.73205080756888,
5.));
#1419=CARTESIAN_POINT('Origin',(-5.89805981832114E-16,1.73205080756888,
7.));
#1420=CARTESIAN_POINT('Origin',(-4.5,3.5,7.));
#1421=CARTESIAN_POINT('Origin',(-4.5,3.5,5.));
#1422=CARTESIAN_POINT('Origin',(-6.93889390390723E-16,1.73205080756888,
-5.));
#1423=CARTESIAN_POINT('',(1.,1.38777878078145E-16,-5.));
#1424=CARTESIAN_POINT('',(-1.,-2.77555756156289E-16,-5.));
#1425=CARTESIAN_POINT('Origin',(-6.93889390390723E-16,1.73205080756888,
-5.));
#1426=CARTESIAN_POINT('',(-1.,-2.77555756156289E-16,-7.));
#1427=CARTESIAN_POINT('',(-1.,-2.77555756156289E-16,-5.));
#1428=CARTESIAN_POINT('',(1.,1.38777878078145E-16,-7.));
#1429=CARTESIAN_POINT('Origin',(-6.93889390390723E-16,1.73205080756888,
-7.));
#1430=CARTESIAN_POINT('',(1.,1.38777878078145E-16,-5.));
#1431=CARTESIAN_POINT('Origin',(-2.08166817117217E-16,-1.73205080756888,
-5.));
#1432=CARTESIAN_POINT('Origin',(-2.08166817117217E-16,-1.73205080756888,
-5.));
#1433=CARTESIAN_POINT('Origin',(-2.08166817117217E-16,-1.73205080756888,
-7.));
#1434=CARTESIAN_POINT('Origin',(-6.93889390390723E-16,-2.77555756156289E-16,
-7.));
#1435=CARTESIAN_POINT('Origin',(-6.93889390390723E-16,-2.77555756156289E-16,
-5.));
#1436=CARTESIAN_POINT('Origin',(-6.93889390390723E-16,1.73205080756888,
5.));
#1437=CARTESIAN_POINT('',(-1.,-2.77555756156289E-16,5.));
#1438=CARTESIAN_POINT('',(1.,1.38777878078145E-16,5.));
#1439=CARTESIAN_POINT('Origin',(-6.93889390390723E-16,1.73205080756888,
5.));
#1440=CARTESIAN_POINT('',(1.,1.38777878078145E-16,7.));
#1441=CARTESIAN_POINT('',(1.,1.38777878078145E-16,5.));
#1442=CARTESIAN_POINT('',(-1.,-2.77555756156289E-16,7.));
#1443=CARTESIAN_POINT('Origin',(-6.93889390390723E-16,1.73205080756888,
7.));
#1444=CARTESIAN_POINT('',(-1.,-2.77555756156289E-16,5.));
#1445=CARTESIAN_POINT('Origin',(-2.08166817117217E-16,-1.73205080756888,
5.));
#1446=CARTESIAN_POINT('Origin',(-2.08166817117217E-16,-1.73205080756888,
5.));
#1447=CARTESIAN_POINT('Origin',(-2.08166817117217E-16,-1.73205080756888,
7.));
#1448=CARTESIAN_POINT('Origin',(-6.93889390390723E-16,-2.77555756156289E-16,
7.));
#1449=CARTESIAN_POINT('Origin',(-6.93889390390723E-16,-2.77555756156289E-16,
5.));
#1450=UNCERTAINTY_MEASURE_WITH_UNIT(LENGTH_MEASURE(0.01),#1454,
'DISTANCE_ACCURACY_VALUE',
'Maximum model space distance between geometric entities at asserted c
onnectivities');
#1451=UNCERTAINTY_MEASURE_WITH_UNIT(LENGTH_MEASURE(0.01),#1454,
'DISTANCE_ACCURACY_VALUE',
'Maximum model space distance between geometric entities at asserted c
onnectivities');
#1452=(
GEOMETRIC_REPRESENTATION_CONTEXT(3)
GLOBAL_UNCERTAINTY_ASSIGNED_CONTEXT((#1450))
GLOBAL_UNIT_ASSIGNED_CONTEXT((#1454,#1456,#1457))
REPRESENTATION_CONTEXT('','3D')
);
#1453=(
GEOMETRIC_REPRESENTATION_CONTEXT(3)
GLOBAL_UNCERTAINTY_ASSIGNED_CONTEXT((#1451))
GLOBAL_UNIT_ASSIGNED_CONTEXT((#1454,#1456,#1457))
REPRESENTATION_CONTEXT('','3D')
);
#1454=(
LENGTH_UNIT()
NAMED_UNIT(*)
SI_UNIT(.MILLI.,.METRE.)
);
#1455=(
LENGTH_UNIT()
NAMED_UNIT(*)
SI_UNIT($,.METRE.)
);
#1456=(
NAMED_UNIT(*)
PLANE_ANGLE_UNIT()
SI_UNIT($,.RADIAN.)
);
#1457=(
NAMED_UNIT(*)
SI_UNIT($,.STERADIAN.)
SOLID_ANGLE_UNIT()
);
#1458=SHAPE_DEFINITION_REPRESENTATION(#1459,#1460);
#1459=PRODUCT_DEFINITION_SHAPE('',$,#1462);
#1460=SHAPE_REPRESENTATION('',(#842),#1452);
#1461=PRODUCT_DEFINITION_CONTEXT('part definition',#1466,'design');
#1462=PRODUCT_DEFINITION('neuron_with_weights','neuron_with_weights v1',
#1463,#1461);
#1463=PRODUCT_DEFINITION_FORMATION('',$,#1468);
#1464=PRODUCT_RELATED_PRODUCT_CATEGORY('neuron_with_weights v1',
'neuron_with_weights v1',(#1468));
#1465=APPLICATION_PROTOCOL_DEFINITION('international standard',
'automotive_design',2009,#1466);
#1466=APPLICATION_CONTEXT(
'Core Data for Automotive Mechanical Design Process');
#1467=PRODUCT_CONTEXT('part definition',#1466,'mechanical');
#1468=PRODUCT('neuron_with_weights','neuron_with_weights v1',$,(#1467));
#1469=PRESENTATION_STYLE_ASSIGNMENT((#1471));
#1470=PRESENTATION_STYLE_ASSIGNMENT((#1472));
#1471=SURFACE_STYLE_USAGE(.BOTH.,#1473);
#1472=SURFACE_STYLE_USAGE(.BOTH.,#1474);
#1473=SURFACE_SIDE_STYLE('',(#1475));
#1474=SURFACE_SIDE_STYLE('',(#1476));
#1475=SURFACE_STYLE_FILL_AREA(#1477);
#1476=SURFACE_STYLE_FILL_AREA(#1478);
#1477=FILL_AREA_STYLE('Steel - Satin',(#1479));
#1478=FILL_AREA_STYLE('Glass - Medium Color (Blue)',(#1480));
#1479=FILL_AREA_STYLE_COLOUR('Steel - Satin',#1481);
#1480=FILL_AREA_STYLE_COLOUR('Glass - Medium Color (Blue)',#1482);
#1481=COLOUR_RGB('Steel - Satin',0.627450980392157,0.627450980392157,0.627450980392157);
#1482=COLOUR_RGB('Glass - Medium Color (Blue)',0.423529411764706,0.768627450980392,
0.854901960784314);
ENDSEC;
END-ISO-10303-21;
