ISO-10303-21;
HEADER;
/* Generated by software containing ST-Developer
 * from STEP Tools, Inc. (www.steptools.com) 
 */

FILE_DESCRIPTION(
/* description */ (''),
/* implementation_level */ '2;1');

FILE_NAME(
/* name */ 'Example1.step',
/* time_stamp */ '2026-09-28T13:08:08+02:00',
/* author */ (''),
/* organization */ (''),
/* preprocessor_version */ 'ST-DEVELOPER v20.2',
/* originating_system */ 'Autodesk Translation Framework v15.15.0.0',
/* authorisation */ '');

FILE_SCHEMA (('AUTOMOTIVE_DESIGN { 1 0 10303 214 3 1 1 }'));
ENDSEC;

DATA;
#10=MECHANICAL_DESIGN_GEOMETRIC_PRESENTATION_REPRESENTATION('',(#18,#19,
#20,#21,#22,#23),#1688);
#11=SHAPE_REPRESENTATION_RELATIONSHIP('SRR','None',#1695,#12);
#12=ADVANCED_BREP_SHAPE_REPRESENTATION('',(#1052,#13,#14,#15,#16,#17),#1687);
#13=MANIFOLD_SOLID_BREP('Body2',#1047);
#14=MANIFOLD_SOLID_BREP('Body3',#1048);
#15=MANIFOLD_SOLID_BREP('Body4',#1049);
#16=MANIFOLD_SOLID_BREP('Body5',#1050);
#17=MANIFOLD_SOLID_BREP('Body6',#1051);
#18=STYLED_ITEM('',(#1705),#1052);
#19=STYLED_ITEM('',(#1704),#13);
#20=STYLED_ITEM('',(#1704),#14);
#21=STYLED_ITEM('',(#1704),#15);
#22=STYLED_ITEM('',(#1704),#16);
#23=STYLED_ITEM('',(#1704),#17);
#24=ORIENTED_CLOSED_SHELL('',*,#1041,.F.);
#25=ORIENTED_CLOSED_SHELL('',*,#1042,.F.);
#26=ORIENTED_CLOSED_SHELL('',*,#1043,.F.);
#27=ORIENTED_CLOSED_SHELL('',*,#1044,.F.);
#28=ORIENTED_CLOSED_SHELL('',*,#1045,.F.);
#29=FACE_OUTER_BOUND('',#95,.T.);
#30=FACE_OUTER_BOUND('',#96,.T.);
#31=FACE_OUTER_BOUND('',#97,.T.);
#32=FACE_OUTER_BOUND('',#98,.T.);
#33=FACE_OUTER_BOUND('',#99,.T.);
#34=FACE_OUTER_BOUND('',#100,.T.);
#35=FACE_OUTER_BOUND('',#101,.T.);
#36=FACE_OUTER_BOUND('',#102,.T.);
#37=FACE_OUTER_BOUND('',#103,.T.);
#38=FACE_OUTER_BOUND('',#104,.T.);
#39=FACE_OUTER_BOUND('',#105,.T.);
#40=FACE_OUTER_BOUND('',#106,.T.);
#41=FACE_OUTER_BOUND('',#107,.T.);
#42=FACE_OUTER_BOUND('',#108,.T.);
#43=FACE_OUTER_BOUND('',#109,.T.);
#44=FACE_OUTER_BOUND('',#110,.T.);
#45=FACE_OUTER_BOUND('',#111,.T.);
#46=FACE_OUTER_BOUND('',#112,.T.);
#47=FACE_OUTER_BOUND('',#113,.T.);
#48=FACE_OUTER_BOUND('',#114,.T.);
#49=FACE_OUTER_BOUND('',#115,.T.);
#50=FACE_OUTER_BOUND('',#116,.T.);
#51=FACE_OUTER_BOUND('',#117,.T.);
#52=FACE_OUTER_BOUND('',#118,.T.);
#53=FACE_OUTER_BOUND('',#119,.T.);
#54=FACE_OUTER_BOUND('',#120,.T.);
#55=FACE_OUTER_BOUND('',#121,.T.);
#56=FACE_OUTER_BOUND('',#122,.T.);
#57=FACE_OUTER_BOUND('',#123,.T.);
#58=FACE_OUTER_BOUND('',#124,.T.);
#59=FACE_OUTER_BOUND('',#125,.T.);
#60=FACE_OUTER_BOUND('',#126,.T.);
#61=FACE_OUTER_BOUND('',#127,.T.);
#62=FACE_OUTER_BOUND('',#128,.T.);
#63=FACE_OUTER_BOUND('',#129,.T.);
#64=FACE_OUTER_BOUND('',#130,.T.);
#65=FACE_OUTER_BOUND('',#131,.T.);
#66=FACE_OUTER_BOUND('',#132,.T.);
#67=FACE_OUTER_BOUND('',#133,.T.);
#68=FACE_OUTER_BOUND('',#134,.T.);
#69=FACE_OUTER_BOUND('',#135,.T.);
#70=FACE_OUTER_BOUND('',#136,.T.);
#71=FACE_OUTER_BOUND('',#137,.T.);
#72=FACE_OUTER_BOUND('',#138,.T.);
#73=FACE_OUTER_BOUND('',#139,.T.);
#74=FACE_OUTER_BOUND('',#140,.T.);
#75=FACE_OUTER_BOUND('',#141,.T.);
#76=FACE_OUTER_BOUND('',#142,.T.);
#77=FACE_OUTER_BOUND('',#143,.T.);
#78=FACE_OUTER_BOUND('',#144,.T.);
#79=FACE_OUTER_BOUND('',#145,.T.);
#80=FACE_OUTER_BOUND('',#146,.T.);
#81=FACE_OUTER_BOUND('',#147,.T.);
#82=FACE_OUTER_BOUND('',#148,.T.);
#83=FACE_OUTER_BOUND('',#149,.T.);
#84=FACE_OUTER_BOUND('',#150,.T.);
#85=FACE_OUTER_BOUND('',#151,.T.);
#86=FACE_OUTER_BOUND('',#152,.T.);
#87=FACE_OUTER_BOUND('',#153,.T.);
#88=FACE_OUTER_BOUND('',#154,.T.);
#89=FACE_OUTER_BOUND('',#155,.T.);
#90=FACE_OUTER_BOUND('',#156,.T.);
#91=FACE_OUTER_BOUND('',#157,.T.);
#92=FACE_OUTER_BOUND('',#158,.T.);
#93=FACE_OUTER_BOUND('',#159,.T.);
#94=FACE_OUTER_BOUND('',#160,.T.);
#95=EDGE_LOOP('',(#645,#646,#647,#648));
#96=EDGE_LOOP('',(#649,#650,#651,#652));
#97=EDGE_LOOP('',(#653,#654,#655,#656));
#98=EDGE_LOOP('',(#657,#658,#659,#660));
#99=EDGE_LOOP('',(#661,#662,#663,#664));
#100=EDGE_LOOP('',(#665,#666,#667,#668));
#101=EDGE_LOOP('',(#669,#670,#671,#672));
#102=EDGE_LOOP('',(#673,#674,#675,#676));
#103=EDGE_LOOP('',(#677,#678,#679,#680));
#104=EDGE_LOOP('',(#681,#682,#683,#684));
#105=EDGE_LOOP('',(#685,#686,#687,#688));
#106=EDGE_LOOP('',(#689,#690,#691,#692));
#107=EDGE_LOOP('',(#693,#694,#695,#696));
#108=EDGE_LOOP('',(#697,#698,#699,#700));
#109=EDGE_LOOP('',(#701,#702,#703,#704));
#110=EDGE_LOOP('',(#705,#706,#707,#708));
#111=EDGE_LOOP('',(#709,#710,#711,#712));
#112=EDGE_LOOP('',(#713,#714,#715,#716));
#113=EDGE_LOOP('',(#717,#718,#719,#720));
#114=EDGE_LOOP('',(#721,#722,#723,#724));
#115=EDGE_LOOP('',(#725,#726,#727,#728));
#116=EDGE_LOOP('',(#729,#730,#731,#732));
#117=EDGE_LOOP('',(#733,#734,#735,#736));
#118=EDGE_LOOP('',(#737,#738,#739,#740));
#119=EDGE_LOOP('',(#741,#742,#743,#744));
#120=EDGE_LOOP('',(#745,#746,#747,#748));
#121=EDGE_LOOP('',(#749,#750,#751,#752));
#122=EDGE_LOOP('',(#753,#754,#755,#756));
#123=EDGE_LOOP('',(#757,#758,#759,#760));
#124=EDGE_LOOP('',(#761,#762,#763,#764));
#125=EDGE_LOOP('',(#765,#766,#767,#768));
#126=EDGE_LOOP('',(#769,#770,#771,#772));
#127=EDGE_LOOP('',(#773,#774,#775,#776));
#128=EDGE_LOOP('',(#777,#778,#779,#780));
#129=EDGE_LOOP('',(#781,#782,#783,#784));
#130=EDGE_LOOP('',(#785,#786,#787,#788));
#131=EDGE_LOOP('',(#789,#790,#791,#792));
#132=EDGE_LOOP('',(#793,#794,#795,#796));
#133=EDGE_LOOP('',(#797,#798,#799,#800));
#134=EDGE_LOOP('',(#801,#802,#803,#804));
#135=EDGE_LOOP('',(#805,#806,#807,#808));
#136=EDGE_LOOP('',(#809,#810,#811,#812));
#137=EDGE_LOOP('',(#813,#814,#815,#816));
#138=EDGE_LOOP('',(#817,#818,#819,#820));
#139=EDGE_LOOP('',(#821,#822,#823,#824));
#140=EDGE_LOOP('',(#825,#826,#827,#828));
#141=EDGE_LOOP('',(#829,#830,#831,#832));
#142=EDGE_LOOP('',(#833,#834,#835,#836));
#143=EDGE_LOOP('',(#837,#838,#839,#840));
#144=EDGE_LOOP('',(#841,#842,#843,#844));
#145=EDGE_LOOP('',(#845,#846,#847,#848));
#146=EDGE_LOOP('',(#849,#850,#851,#852));
#147=EDGE_LOOP('',(#853,#854,#855,#856));
#148=EDGE_LOOP('',(#857,#858,#859,#860));
#149=EDGE_LOOP('',(#861,#862,#863,#864));
#150=EDGE_LOOP('',(#865,#866,#867,#868));
#151=EDGE_LOOP('',(#869,#870,#871,#872));
#152=EDGE_LOOP('',(#873,#874,#875,#876));
#153=EDGE_LOOP('',(#877,#878,#879,#880));
#154=EDGE_LOOP('',(#881,#882,#883,#884));
#155=EDGE_LOOP('',(#885,#886,#887,#888));
#156=EDGE_LOOP('',(#889,#890,#891,#892));
#157=EDGE_LOOP('',(#893,#894,#895,#896));
#158=EDGE_LOOP('',(#897,#898,#899,#900));
#159=EDGE_LOOP('',(#901,#902,#903,#904));
#160=EDGE_LOOP('',(#905,#906,#907,#908));
#161=LINE('',#1402,#293);
#162=LINE('',#1404,#294);
#163=LINE('',#1406,#295);
#164=LINE('',#1407,#296);
#165=LINE('',#1411,#297);
#166=LINE('',#1413,#298);
#167=LINE('',#1415,#299);
#168=LINE('',#1416,#300);
#169=LINE('',#1418,#301);
#170=LINE('',#1419,#302);
#171=LINE('',#1421,#303);
#172=LINE('',#1423,#304);
#173=LINE('',#1428,#305);
#174=LINE('',#1430,#306);
#175=LINE('',#1432,#307);
#176=LINE('',#1433,#308);
#177=LINE('',#1436,#309);
#178=LINE('',#1438,#310);
#179=LINE('',#1439,#311);
#180=LINE('',#1442,#312);
#181=LINE('',#1444,#313);
#182=LINE('',#1445,#314);
#183=LINE('',#1447,#315);
#184=LINE('',#1448,#316);
#185=LINE('',#1454,#317);
#186=LINE('',#1456,#318);
#187=LINE('',#1458,#319);
#188=LINE('',#1459,#320);
#189=LINE('',#1463,#321);
#190=LINE('',#1465,#322);
#191=LINE('',#1467,#323);
#192=LINE('',#1468,#324);
#193=LINE('',#1470,#325);
#194=LINE('',#1471,#326);
#195=LINE('',#1473,#327);
#196=LINE('',#1475,#328);
#197=LINE('',#1480,#329);
#198=LINE('',#1482,#330);
#199=LINE('',#1484,#331);
#200=LINE('',#1485,#332);
#201=LINE('',#1488,#333);
#202=LINE('',#1490,#334);
#203=LINE('',#1491,#335);
#204=LINE('',#1494,#336);
#205=LINE('',#1496,#337);
#206=LINE('',#1497,#338);
#207=LINE('',#1499,#339);
#208=LINE('',#1500,#340);
#209=LINE('',#1506,#341);
#210=LINE('',#1508,#342);
#211=LINE('',#1510,#343);
#212=LINE('',#1511,#344);
#213=LINE('',#1515,#345);
#214=LINE('',#1517,#346);
#215=LINE('',#1519,#347);
#216=LINE('',#1520,#348);
#217=LINE('',#1522,#349);
#218=LINE('',#1523,#350);
#219=LINE('',#1525,#351);
#220=LINE('',#1527,#352);
#221=LINE('',#1532,#353);
#222=LINE('',#1534,#354);
#223=LINE('',#1536,#355);
#224=LINE('',#1537,#356);
#225=LINE('',#1541,#357);
#226=LINE('',#1542,#358);
#227=LINE('',#1543,#359);
#228=LINE('',#1547,#360);
#229=LINE('',#1548,#361);
#230=LINE('',#1549,#362);
#231=LINE('',#1551,#363);
#232=LINE('',#1552,#364);
#233=LINE('',#1558,#365);
#234=LINE('',#1560,#366);
#235=LINE('',#1562,#367);
#236=LINE('',#1563,#368);
#237=LINE('',#1566,#369);
#238=LINE('',#1568,#370);
#239=LINE('',#1569,#371);
#240=LINE('',#1572,#372);
#241=LINE('',#1574,#373);
#242=LINE('',#1575,#374);
#243=LINE('',#1577,#375);
#244=LINE('',#1578,#376);
#245=LINE('',#1584,#377);
#246=LINE('',#1586,#378);
#247=LINE('',#1588,#379);
#248=LINE('',#1589,#380);
#249=LINE('',#1592,#381);
#250=LINE('',#1594,#382);
#251=LINE('',#1595,#383);
#252=LINE('',#1598,#384);
#253=LINE('',#1600,#385);
#254=LINE('',#1601,#386);
#255=LINE('',#1603,#387);
#256=LINE('',#1604,#388);
#257=LINE('',#1610,#389);
#258=LINE('',#1612,#390);
#259=LINE('',#1614,#391);
#260=LINE('',#1615,#392);
#261=LINE('',#1618,#393);
#262=LINE('',#1620,#394);
#263=LINE('',#1621,#395);
#264=LINE('',#1624,#396);
#265=LINE('',#1626,#397);
#266=LINE('',#1627,#398);
#267=LINE('',#1629,#399);
#268=LINE('',#1630,#400);
#269=LINE('',#1636,#401);
#270=LINE('',#1638,#402);
#271=LINE('',#1640,#403);
#272=LINE('',#1641,#404);
#273=LINE('',#1644,#405);
#274=LINE('',#1646,#406);
#275=LINE('',#1647,#407);
#276=LINE('',#1650,#408);
#277=LINE('',#1652,#409);
#278=LINE('',#1653,#410);
#279=LINE('',#1655,#411);
#280=LINE('',#1656,#412);
#281=LINE('',#1662,#413);
#282=LINE('',#1664,#414);
#283=LINE('',#1666,#415);
#284=LINE('',#1667,#416);
#285=LINE('',#1670,#417);
#286=LINE('',#1672,#418);
#287=LINE('',#1673,#419);
#288=LINE('',#1676,#420);
#289=LINE('',#1678,#421);
#290=LINE('',#1679,#422);
#291=LINE('',#1681,#423);
#292=LINE('',#1682,#424);
#293=VECTOR('',#1136,10.);
#294=VECTOR('',#1137,10.);
#295=VECTOR('',#1138,10.);
#296=VECTOR('',#1139,10.);
#297=VECTOR('',#1142,10.);
#298=VECTOR('',#1143,10.);
#299=VECTOR('',#1144,10.);
#300=VECTOR('',#1145,10.);
#301=VECTOR('',#1148,10.);
#302=VECTOR('',#1149,10.);
#303=VECTOR('',#1152,10.);
#304=VECTOR('',#1155,10.);
#305=VECTOR('',#1160,10.);
#306=VECTOR('',#1161,10.);
#307=VECTOR('',#1162,10.);
#308=VECTOR('',#1163,10.);
#309=VECTOR('',#1166,10.);
#310=VECTOR('',#1167,10.);
#311=VECTOR('',#1168,10.);
#312=VECTOR('',#1171,10.);
#313=VECTOR('',#1172,10.);
#314=VECTOR('',#1173,10.);
#315=VECTOR('',#1176,10.);
#316=VECTOR('',#1177,10.);
#317=VECTOR('',#1184,10.);
#318=VECTOR('',#1185,10.);
#319=VECTOR('',#1186,10.);
#320=VECTOR('',#1187,10.);
#321=VECTOR('',#1190,10.);
#322=VECTOR('',#1191,10.);
#323=VECTOR('',#1192,10.);
#324=VECTOR('',#1193,10.);
#325=VECTOR('',#1196,10.);
#326=VECTOR('',#1197,10.);
#327=VECTOR('',#1200,10.);
#328=VECTOR('',#1203,10.);
#329=VECTOR('',#1208,10.);
#330=VECTOR('',#1209,10.);
#331=VECTOR('',#1210,10.);
#332=VECTOR('',#1211,10.);
#333=VECTOR('',#1214,10.);
#334=VECTOR('',#1215,10.);
#335=VECTOR('',#1216,10.);
#336=VECTOR('',#1219,10.);
#337=VECTOR('',#1220,10.);
#338=VECTOR('',#1221,10.);
#339=VECTOR('',#1224,10.);
#340=VECTOR('',#1225,10.);
#341=VECTOR('',#1232,10.);
#342=VECTOR('',#1233,10.);
#343=VECTOR('',#1234,10.);
#344=VECTOR('',#1235,10.);
#345=VECTOR('',#1238,10.);
#346=VECTOR('',#1239,10.);
#347=VECTOR('',#1240,10.);
#348=VECTOR('',#1241,10.);
#349=VECTOR('',#1244,10.);
#350=VECTOR('',#1245,10.);
#351=VECTOR('',#1248,10.);
#352=VECTOR('',#1251,10.);
#353=VECTOR('',#1256,10.);
#354=VECTOR('',#1257,10.);
#355=VECTOR('',#1258,10.);
#356=VECTOR('',#1259,10.);
#357=VECTOR('',#1262,10.);
#358=VECTOR('',#1263,10.);
#359=VECTOR('',#1264,10.);
#360=VECTOR('',#1267,10.);
#361=VECTOR('',#1268,10.);
#362=VECTOR('',#1269,10.);
#363=VECTOR('',#1272,10.);
#364=VECTOR('',#1273,10.);
#365=VECTOR('',#1280,10.);
#366=VECTOR('',#1281,10.);
#367=VECTOR('',#1282,10.);
#368=VECTOR('',#1283,10.);
#369=VECTOR('',#1286,10.);
#370=VECTOR('',#1287,10.);
#371=VECTOR('',#1288,10.);
#372=VECTOR('',#1291,10.);
#373=VECTOR('',#1292,10.);
#374=VECTOR('',#1293,10.);
#375=VECTOR('',#1296,10.);
#376=VECTOR('',#1297,10.);
#377=VECTOR('',#1304,10.);
#378=VECTOR('',#1305,10.);
#379=VECTOR('',#1306,10.);
#380=VECTOR('',#1307,10.);
#381=VECTOR('',#1310,10.);
#382=VECTOR('',#1311,10.);
#383=VECTOR('',#1312,10.);
#384=VECTOR('',#1315,10.);
#385=VECTOR('',#1316,10.);
#386=VECTOR('',#1317,10.);
#387=VECTOR('',#1320,10.);
#388=VECTOR('',#1321,10.);
#389=VECTOR('',#1328,10.);
#390=VECTOR('',#1329,10.);
#391=VECTOR('',#1330,10.);
#392=VECTOR('',#1331,10.);
#393=VECTOR('',#1334,10.);
#394=VECTOR('',#1335,10.);
#395=VECTOR('',#1336,10.);
#396=VECTOR('',#1339,10.);
#397=VECTOR('',#1340,10.);
#398=VECTOR('',#1341,10.);
#399=VECTOR('',#1344,10.);
#400=VECTOR('',#1345,10.);
#401=VECTOR('',#1352,10.);
#402=VECTOR('',#1353,10.);
#403=VECTOR('',#1354,10.);
#404=VECTOR('',#1355,10.);
#405=VECTOR('',#1358,10.);
#406=VECTOR('',#1359,10.);
#407=VECTOR('',#1360,10.);
#408=VECTOR('',#1363,10.);
#409=VECTOR('',#1364,10.);
#410=VECTOR('',#1365,10.);
#411=VECTOR('',#1368,10.);
#412=VECTOR('',#1369,10.);
#413=VECTOR('',#1376,10.);
#414=VECTOR('',#1377,10.);
#415=VECTOR('',#1378,10.);
#416=VECTOR('',#1379,10.);
#417=VECTOR('',#1382,10.);
#418=VECTOR('',#1383,10.);
#419=VECTOR('',#1384,10.);
#420=VECTOR('',#1387,10.);
#421=VECTOR('',#1388,10.);
#422=VECTOR('',#1389,10.);
#423=VECTOR('',#1392,10.);
#424=VECTOR('',#1393,10.);
#425=VERTEX_POINT('',#1400);
#426=VERTEX_POINT('',#1401);
#427=VERTEX_POINT('',#1403);
#428=VERTEX_POINT('',#1405);
#429=VERTEX_POINT('',#1409);
#430=VERTEX_POINT('',#1410);
#431=VERTEX_POINT('',#1412);
#432=VERTEX_POINT('',#1414);
#433=VERTEX_POINT('',#1426);
#434=VERTEX_POINT('',#1427);
#435=VERTEX_POINT('',#1429);
#436=VERTEX_POINT('',#1431);
#437=VERTEX_POINT('',#1435);
#438=VERTEX_POINT('',#1437);
#439=VERTEX_POINT('',#1441);
#440=VERTEX_POINT('',#1443);
#441=VERTEX_POINT('',#1452);
#442=VERTEX_POINT('',#1453);
#443=VERTEX_POINT('',#1455);
#444=VERTEX_POINT('',#1457);
#445=VERTEX_POINT('',#1461);
#446=VERTEX_POINT('',#1462);
#447=VERTEX_POINT('',#1464);
#448=VERTEX_POINT('',#1466);
#449=VERTEX_POINT('',#1478);
#450=VERTEX_POINT('',#1479);
#451=VERTEX_POINT('',#1481);
#452=VERTEX_POINT('',#1483);
#453=VERTEX_POINT('',#1487);
#454=VERTEX_POINT('',#1489);
#455=VERTEX_POINT('',#1493);
#456=VERTEX_POINT('',#1495);
#457=VERTEX_POINT('',#1504);
#458=VERTEX_POINT('',#1505);
#459=VERTEX_POINT('',#1507);
#460=VERTEX_POINT('',#1509);
#461=VERTEX_POINT('',#1513);
#462=VERTEX_POINT('',#1514);
#463=VERTEX_POINT('',#1516);
#464=VERTEX_POINT('',#1518);
#465=VERTEX_POINT('',#1530);
#466=VERTEX_POINT('',#1531);
#467=VERTEX_POINT('',#1533);
#468=VERTEX_POINT('',#1535);
#469=VERTEX_POINT('',#1539);
#470=VERTEX_POINT('',#1540);
#471=VERTEX_POINT('',#1545);
#472=VERTEX_POINT('',#1546);
#473=VERTEX_POINT('',#1556);
#474=VERTEX_POINT('',#1557);
#475=VERTEX_POINT('',#1559);
#476=VERTEX_POINT('',#1561);
#477=VERTEX_POINT('',#1565);
#478=VERTEX_POINT('',#1567);
#479=VERTEX_POINT('',#1571);
#480=VERTEX_POINT('',#1573);
#481=VERTEX_POINT('',#1582);
#482=VERTEX_POINT('',#1583);
#483=VERTEX_POINT('',#1585);
#484=VERTEX_POINT('',#1587);
#485=VERTEX_POINT('',#1591);
#486=VERTEX_POINT('',#1593);
#487=VERTEX_POINT('',#1597);
#488=VERTEX_POINT('',#1599);
#489=VERTEX_POINT('',#1608);
#490=VERTEX_POINT('',#1609);
#491=VERTEX_POINT('',#1611);
#492=VERTEX_POINT('',#1613);
#493=VERTEX_POINT('',#1617);
#494=VERTEX_POINT('',#1619);
#495=VERTEX_POINT('',#1623);
#496=VERTEX_POINT('',#1625);
#497=VERTEX_POINT('',#1634);
#498=VERTEX_POINT('',#1635);
#499=VERTEX_POINT('',#1637);
#500=VERTEX_POINT('',#1639);
#501=VERTEX_POINT('',#1643);
#502=VERTEX_POINT('',#1645);
#503=VERTEX_POINT('',#1649);
#504=VERTEX_POINT('',#1651);
#505=VERTEX_POINT('',#1660);
#506=VERTEX_POINT('',#1661);
#507=VERTEX_POINT('',#1663);
#508=VERTEX_POINT('',#1665);
#509=VERTEX_POINT('',#1669);
#510=VERTEX_POINT('',#1671);
#511=VERTEX_POINT('',#1675);
#512=VERTEX_POINT('',#1677);
#513=EDGE_CURVE('',#425,#426,#161,.T.);
#514=EDGE_CURVE('',#426,#427,#162,.T.);
#515=EDGE_CURVE('',#427,#428,#163,.T.);
#516=EDGE_CURVE('',#428,#425,#164,.T.);
#517=EDGE_CURVE('',#429,#430,#165,.T.);
#518=EDGE_CURVE('',#431,#429,#166,.T.);
#519=EDGE_CURVE('',#432,#431,#167,.T.);
#520=EDGE_CURVE('',#430,#432,#168,.T.);
#521=EDGE_CURVE('',#430,#426,#169,.T.);
#522=EDGE_CURVE('',#429,#425,#170,.T.);
#523=EDGE_CURVE('',#431,#428,#171,.T.);
#524=EDGE_CURVE('',#432,#427,#172,.T.);
#525=EDGE_CURVE('',#433,#434,#173,.T.);
#526=EDGE_CURVE('',#434,#435,#174,.T.);
#527=EDGE_CURVE('',#436,#435,#175,.T.);
#528=EDGE_CURVE('',#433,#436,#176,.T.);
#529=EDGE_CURVE('',#434,#437,#177,.T.);
#530=EDGE_CURVE('',#437,#438,#178,.T.);
#531=EDGE_CURVE('',#435,#438,#179,.T.);
#532=EDGE_CURVE('',#437,#439,#180,.T.);
#533=EDGE_CURVE('',#439,#440,#181,.T.);
#534=EDGE_CURVE('',#438,#440,#182,.T.);
#535=EDGE_CURVE('',#439,#433,#183,.T.);
#536=EDGE_CURVE('',#440,#436,#184,.T.);
#537=EDGE_CURVE('',#441,#442,#185,.T.);
#538=EDGE_CURVE('',#442,#443,#186,.T.);
#539=EDGE_CURVE('',#443,#444,#187,.T.);
#540=EDGE_CURVE('',#444,#441,#188,.T.);
#541=EDGE_CURVE('',#445,#446,#189,.T.);
#542=EDGE_CURVE('',#447,#445,#190,.T.);
#543=EDGE_CURVE('',#448,#447,#191,.T.);
#544=EDGE_CURVE('',#446,#448,#192,.T.);
#545=EDGE_CURVE('',#446,#442,#193,.T.);
#546=EDGE_CURVE('',#445,#441,#194,.T.);
#547=EDGE_CURVE('',#447,#444,#195,.T.);
#548=EDGE_CURVE('',#448,#443,#196,.T.);
#549=EDGE_CURVE('',#449,#450,#197,.T.);
#550=EDGE_CURVE('',#450,#451,#198,.T.);
#551=EDGE_CURVE('',#452,#451,#199,.T.);
#552=EDGE_CURVE('',#449,#452,#200,.T.);
#553=EDGE_CURVE('',#450,#453,#201,.T.);
#554=EDGE_CURVE('',#453,#454,#202,.T.);
#555=EDGE_CURVE('',#451,#454,#203,.T.);
#556=EDGE_CURVE('',#453,#455,#204,.T.);
#557=EDGE_CURVE('',#455,#456,#205,.T.);
#558=EDGE_CURVE('',#454,#456,#206,.T.);
#559=EDGE_CURVE('',#455,#449,#207,.T.);
#560=EDGE_CURVE('',#456,#452,#208,.T.);
#561=EDGE_CURVE('',#457,#458,#209,.T.);
#562=EDGE_CURVE('',#458,#459,#210,.T.);
#563=EDGE_CURVE('',#459,#460,#211,.T.);
#564=EDGE_CURVE('',#460,#457,#212,.T.);
#565=EDGE_CURVE('',#461,#462,#213,.T.);
#566=EDGE_CURVE('',#463,#461,#214,.T.);
#567=EDGE_CURVE('',#464,#463,#215,.T.);
#568=EDGE_CURVE('',#462,#464,#216,.T.);
#569=EDGE_CURVE('',#462,#458,#217,.T.);
#570=EDGE_CURVE('',#461,#457,#218,.T.);
#571=EDGE_CURVE('',#463,#460,#219,.T.);
#572=EDGE_CURVE('',#464,#459,#220,.T.);
#573=EDGE_CURVE('',#465,#466,#221,.T.);
#574=EDGE_CURVE('',#467,#466,#222,.T.);
#575=EDGE_CURVE('',#467,#468,#223,.T.);
#576=EDGE_CURVE('',#465,#468,#224,.T.);
#577=EDGE_CURVE('',#469,#470,#225,.T.);
#578=EDGE_CURVE('',#466,#470,#226,.T.);
#579=EDGE_CURVE('',#469,#465,#227,.T.);
#580=EDGE_CURVE('',#471,#472,#228,.T.);
#581=EDGE_CURVE('',#470,#472,#229,.T.);
#582=EDGE_CURVE('',#471,#469,#230,.T.);
#583=EDGE_CURVE('',#472,#467,#231,.T.);
#584=EDGE_CURVE('',#468,#471,#232,.T.);
#585=EDGE_CURVE('',#473,#474,#233,.T.);
#586=EDGE_CURVE('',#473,#475,#234,.T.);
#587=EDGE_CURVE('',#476,#475,#235,.T.);
#588=EDGE_CURVE('',#474,#476,#236,.T.);
#589=EDGE_CURVE('',#474,#477,#237,.T.);
#590=EDGE_CURVE('',#478,#476,#238,.T.);
#591=EDGE_CURVE('',#477,#478,#239,.T.);
#592=EDGE_CURVE('',#477,#479,#240,.T.);
#593=EDGE_CURVE('',#480,#478,#241,.T.);
#594=EDGE_CURVE('',#479,#480,#242,.T.);
#595=EDGE_CURVE('',#479,#473,#243,.T.);
#596=EDGE_CURVE('',#475,#480,#244,.T.);
#597=EDGE_CURVE('',#481,#482,#245,.T.);
#598=EDGE_CURVE('',#481,#483,#246,.T.);
#599=EDGE_CURVE('',#484,#483,#247,.T.);
#600=EDGE_CURVE('',#482,#484,#248,.T.);
#601=EDGE_CURVE('',#482,#485,#249,.T.);
#602=EDGE_CURVE('',#486,#484,#250,.T.);
#603=EDGE_CURVE('',#485,#486,#251,.T.);
#604=EDGE_CURVE('',#485,#487,#252,.T.);
#605=EDGE_CURVE('',#488,#486,#253,.T.);
#606=EDGE_CURVE('',#487,#488,#254,.T.);
#607=EDGE_CURVE('',#487,#481,#255,.T.);
#608=EDGE_CURVE('',#483,#488,#256,.T.);
#609=EDGE_CURVE('',#489,#490,#257,.T.);
#610=EDGE_CURVE('',#489,#491,#258,.T.);
#611=EDGE_CURVE('',#492,#491,#259,.T.);
#612=EDGE_CURVE('',#490,#492,#260,.T.);
#613=EDGE_CURVE('',#490,#493,#261,.T.);
#614=EDGE_CURVE('',#494,#492,#262,.T.);
#615=EDGE_CURVE('',#493,#494,#263,.T.);
#616=EDGE_CURVE('',#493,#495,#264,.T.);
#617=EDGE_CURVE('',#496,#494,#265,.T.);
#618=EDGE_CURVE('',#495,#496,#266,.T.);
#619=EDGE_CURVE('',#495,#489,#267,.T.);
#620=EDGE_CURVE('',#491,#496,#268,.T.);
#621=EDGE_CURVE('',#497,#498,#269,.T.);
#622=EDGE_CURVE('',#497,#499,#270,.T.);
#623=EDGE_CURVE('',#500,#499,#271,.T.);
#624=EDGE_CURVE('',#498,#500,#272,.T.);
#625=EDGE_CURVE('',#498,#501,#273,.T.);
#626=EDGE_CURVE('',#502,#500,#274,.T.);
#627=EDGE_CURVE('',#501,#502,#275,.T.);
#628=EDGE_CURVE('',#501,#503,#276,.T.);
#629=EDGE_CURVE('',#504,#502,#277,.T.);
#630=EDGE_CURVE('',#503,#504,#278,.T.);
#631=EDGE_CURVE('',#503,#497,#279,.T.);
#632=EDGE_CURVE('',#499,#504,#280,.T.);
#633=EDGE_CURVE('',#505,#506,#281,.T.);
#634=EDGE_CURVE('',#505,#507,#282,.T.);
#635=EDGE_CURVE('',#508,#507,#283,.T.);
#636=EDGE_CURVE('',#506,#508,#284,.T.);
#637=EDGE_CURVE('',#506,#509,#285,.T.);
#638=EDGE_CURVE('',#510,#508,#286,.T.);
#639=EDGE_CURVE('',#509,#510,#287,.T.);
#640=EDGE_CURVE('',#509,#511,#288,.T.);
#641=EDGE_CURVE('',#512,#510,#289,.T.);
#642=EDGE_CURVE('',#511,#512,#290,.T.);
#643=EDGE_CURVE('',#511,#505,#291,.T.);
#644=EDGE_CURVE('',#507,#512,#292,.T.);
#645=ORIENTED_EDGE('',*,*,#513,.T.);
#646=ORIENTED_EDGE('',*,*,#514,.T.);
#647=ORIENTED_EDGE('',*,*,#515,.T.);
#648=ORIENTED_EDGE('',*,*,#516,.T.);
#649=ORIENTED_EDGE('',*,*,#517,.F.);
#650=ORIENTED_EDGE('',*,*,#518,.F.);
#651=ORIENTED_EDGE('',*,*,#519,.F.);
#652=ORIENTED_EDGE('',*,*,#520,.F.);
#653=ORIENTED_EDGE('',*,*,#517,.T.);
#654=ORIENTED_EDGE('',*,*,#521,.T.);
#655=ORIENTED_EDGE('',*,*,#513,.F.);
#656=ORIENTED_EDGE('',*,*,#522,.F.);
#657=ORIENTED_EDGE('',*,*,#518,.T.);
#658=ORIENTED_EDGE('',*,*,#522,.T.);
#659=ORIENTED_EDGE('',*,*,#516,.F.);
#660=ORIENTED_EDGE('',*,*,#523,.F.);
#661=ORIENTED_EDGE('',*,*,#519,.T.);
#662=ORIENTED_EDGE('',*,*,#523,.T.);
#663=ORIENTED_EDGE('',*,*,#515,.F.);
#664=ORIENTED_EDGE('',*,*,#524,.F.);
#665=ORIENTED_EDGE('',*,*,#520,.T.);
#666=ORIENTED_EDGE('',*,*,#524,.T.);
#667=ORIENTED_EDGE('',*,*,#514,.F.);
#668=ORIENTED_EDGE('',*,*,#521,.F.);
#669=ORIENTED_EDGE('',*,*,#525,.T.);
#670=ORIENTED_EDGE('',*,*,#526,.T.);
#671=ORIENTED_EDGE('',*,*,#527,.F.);
#672=ORIENTED_EDGE('',*,*,#528,.F.);
#673=ORIENTED_EDGE('',*,*,#529,.T.);
#674=ORIENTED_EDGE('',*,*,#530,.T.);
#675=ORIENTED_EDGE('',*,*,#531,.F.);
#676=ORIENTED_EDGE('',*,*,#526,.F.);
#677=ORIENTED_EDGE('',*,*,#532,.T.);
#678=ORIENTED_EDGE('',*,*,#533,.T.);
#679=ORIENTED_EDGE('',*,*,#534,.F.);
#680=ORIENTED_EDGE('',*,*,#530,.F.);
#681=ORIENTED_EDGE('',*,*,#535,.T.);
#682=ORIENTED_EDGE('',*,*,#528,.T.);
#683=ORIENTED_EDGE('',*,*,#536,.F.);
#684=ORIENTED_EDGE('',*,*,#533,.F.);
#685=ORIENTED_EDGE('',*,*,#535,.F.);
#686=ORIENTED_EDGE('',*,*,#532,.F.);
#687=ORIENTED_EDGE('',*,*,#529,.F.);
#688=ORIENTED_EDGE('',*,*,#525,.F.);
#689=ORIENTED_EDGE('',*,*,#536,.T.);
#690=ORIENTED_EDGE('',*,*,#527,.T.);
#691=ORIENTED_EDGE('',*,*,#531,.T.);
#692=ORIENTED_EDGE('',*,*,#534,.T.);
#693=ORIENTED_EDGE('',*,*,#537,.T.);
#694=ORIENTED_EDGE('',*,*,#538,.T.);
#695=ORIENTED_EDGE('',*,*,#539,.T.);
#696=ORIENTED_EDGE('',*,*,#540,.T.);
#697=ORIENTED_EDGE('',*,*,#541,.F.);
#698=ORIENTED_EDGE('',*,*,#542,.F.);
#699=ORIENTED_EDGE('',*,*,#543,.F.);
#700=ORIENTED_EDGE('',*,*,#544,.F.);
#701=ORIENTED_EDGE('',*,*,#541,.T.);
#702=ORIENTED_EDGE('',*,*,#545,.T.);
#703=ORIENTED_EDGE('',*,*,#537,.F.);
#704=ORIENTED_EDGE('',*,*,#546,.F.);
#705=ORIENTED_EDGE('',*,*,#542,.T.);
#706=ORIENTED_EDGE('',*,*,#546,.T.);
#707=ORIENTED_EDGE('',*,*,#540,.F.);
#708=ORIENTED_EDGE('',*,*,#547,.F.);
#709=ORIENTED_EDGE('',*,*,#543,.T.);
#710=ORIENTED_EDGE('',*,*,#547,.T.);
#711=ORIENTED_EDGE('',*,*,#539,.F.);
#712=ORIENTED_EDGE('',*,*,#548,.F.);
#713=ORIENTED_EDGE('',*,*,#544,.T.);
#714=ORIENTED_EDGE('',*,*,#548,.T.);
#715=ORIENTED_EDGE('',*,*,#538,.F.);
#716=ORIENTED_EDGE('',*,*,#545,.F.);
#717=ORIENTED_EDGE('',*,*,#549,.T.);
#718=ORIENTED_EDGE('',*,*,#550,.T.);
#719=ORIENTED_EDGE('',*,*,#551,.F.);
#720=ORIENTED_EDGE('',*,*,#552,.F.);
#721=ORIENTED_EDGE('',*,*,#553,.T.);
#722=ORIENTED_EDGE('',*,*,#554,.T.);
#723=ORIENTED_EDGE('',*,*,#555,.F.);
#724=ORIENTED_EDGE('',*,*,#550,.F.);
#725=ORIENTED_EDGE('',*,*,#556,.T.);
#726=ORIENTED_EDGE('',*,*,#557,.T.);
#727=ORIENTED_EDGE('',*,*,#558,.F.);
#728=ORIENTED_EDGE('',*,*,#554,.F.);
#729=ORIENTED_EDGE('',*,*,#559,.T.);
#730=ORIENTED_EDGE('',*,*,#552,.T.);
#731=ORIENTED_EDGE('',*,*,#560,.F.);
#732=ORIENTED_EDGE('',*,*,#557,.F.);
#733=ORIENTED_EDGE('',*,*,#559,.F.);
#734=ORIENTED_EDGE('',*,*,#556,.F.);
#735=ORIENTED_EDGE('',*,*,#553,.F.);
#736=ORIENTED_EDGE('',*,*,#549,.F.);
#737=ORIENTED_EDGE('',*,*,#560,.T.);
#738=ORIENTED_EDGE('',*,*,#551,.T.);
#739=ORIENTED_EDGE('',*,*,#555,.T.);
#740=ORIENTED_EDGE('',*,*,#558,.T.);
#741=ORIENTED_EDGE('',*,*,#561,.T.);
#742=ORIENTED_EDGE('',*,*,#562,.T.);
#743=ORIENTED_EDGE('',*,*,#563,.T.);
#744=ORIENTED_EDGE('',*,*,#564,.T.);
#745=ORIENTED_EDGE('',*,*,#565,.F.);
#746=ORIENTED_EDGE('',*,*,#566,.F.);
#747=ORIENTED_EDGE('',*,*,#567,.F.);
#748=ORIENTED_EDGE('',*,*,#568,.F.);
#749=ORIENTED_EDGE('',*,*,#565,.T.);
#750=ORIENTED_EDGE('',*,*,#569,.T.);
#751=ORIENTED_EDGE('',*,*,#561,.F.);
#752=ORIENTED_EDGE('',*,*,#570,.F.);
#753=ORIENTED_EDGE('',*,*,#566,.T.);
#754=ORIENTED_EDGE('',*,*,#570,.T.);
#755=ORIENTED_EDGE('',*,*,#564,.F.);
#756=ORIENTED_EDGE('',*,*,#571,.F.);
#757=ORIENTED_EDGE('',*,*,#567,.T.);
#758=ORIENTED_EDGE('',*,*,#571,.T.);
#759=ORIENTED_EDGE('',*,*,#563,.F.);
#760=ORIENTED_EDGE('',*,*,#572,.F.);
#761=ORIENTED_EDGE('',*,*,#568,.T.);
#762=ORIENTED_EDGE('',*,*,#572,.T.);
#763=ORIENTED_EDGE('',*,*,#562,.F.);
#764=ORIENTED_EDGE('',*,*,#569,.F.);
#765=ORIENTED_EDGE('',*,*,#573,.T.);
#766=ORIENTED_EDGE('',*,*,#574,.F.);
#767=ORIENTED_EDGE('',*,*,#575,.T.);
#768=ORIENTED_EDGE('',*,*,#576,.F.);
#769=ORIENTED_EDGE('',*,*,#577,.T.);
#770=ORIENTED_EDGE('',*,*,#578,.F.);
#771=ORIENTED_EDGE('',*,*,#573,.F.);
#772=ORIENTED_EDGE('',*,*,#579,.F.);
#773=ORIENTED_EDGE('',*,*,#580,.T.);
#774=ORIENTED_EDGE('',*,*,#581,.F.);
#775=ORIENTED_EDGE('',*,*,#577,.F.);
#776=ORIENTED_EDGE('',*,*,#582,.F.);
#777=ORIENTED_EDGE('',*,*,#575,.F.);
#778=ORIENTED_EDGE('',*,*,#583,.F.);
#779=ORIENTED_EDGE('',*,*,#580,.F.);
#780=ORIENTED_EDGE('',*,*,#584,.F.);
#781=ORIENTED_EDGE('',*,*,#576,.T.);
#782=ORIENTED_EDGE('',*,*,#584,.T.);
#783=ORIENTED_EDGE('',*,*,#582,.T.);
#784=ORIENTED_EDGE('',*,*,#579,.T.);
#785=ORIENTED_EDGE('',*,*,#583,.T.);
#786=ORIENTED_EDGE('',*,*,#574,.T.);
#787=ORIENTED_EDGE('',*,*,#578,.T.);
#788=ORIENTED_EDGE('',*,*,#581,.T.);
#789=ORIENTED_EDGE('',*,*,#585,.F.);
#790=ORIENTED_EDGE('',*,*,#586,.T.);
#791=ORIENTED_EDGE('',*,*,#587,.F.);
#792=ORIENTED_EDGE('',*,*,#588,.F.);
#793=ORIENTED_EDGE('',*,*,#589,.F.);
#794=ORIENTED_EDGE('',*,*,#588,.T.);
#795=ORIENTED_EDGE('',*,*,#590,.F.);
#796=ORIENTED_EDGE('',*,*,#591,.F.);
#797=ORIENTED_EDGE('',*,*,#592,.F.);
#798=ORIENTED_EDGE('',*,*,#591,.T.);
#799=ORIENTED_EDGE('',*,*,#593,.F.);
#800=ORIENTED_EDGE('',*,*,#594,.F.);
#801=ORIENTED_EDGE('',*,*,#595,.F.);
#802=ORIENTED_EDGE('',*,*,#594,.T.);
#803=ORIENTED_EDGE('',*,*,#596,.F.);
#804=ORIENTED_EDGE('',*,*,#586,.F.);
#805=ORIENTED_EDGE('',*,*,#596,.T.);
#806=ORIENTED_EDGE('',*,*,#593,.T.);
#807=ORIENTED_EDGE('',*,*,#590,.T.);
#808=ORIENTED_EDGE('',*,*,#587,.T.);
#809=ORIENTED_EDGE('',*,*,#595,.T.);
#810=ORIENTED_EDGE('',*,*,#585,.T.);
#811=ORIENTED_EDGE('',*,*,#589,.T.);
#812=ORIENTED_EDGE('',*,*,#592,.T.);
#813=ORIENTED_EDGE('',*,*,#597,.F.);
#814=ORIENTED_EDGE('',*,*,#598,.T.);
#815=ORIENTED_EDGE('',*,*,#599,.F.);
#816=ORIENTED_EDGE('',*,*,#600,.F.);
#817=ORIENTED_EDGE('',*,*,#601,.F.);
#818=ORIENTED_EDGE('',*,*,#600,.T.);
#819=ORIENTED_EDGE('',*,*,#602,.F.);
#820=ORIENTED_EDGE('',*,*,#603,.F.);
#821=ORIENTED_EDGE('',*,*,#604,.F.);
#822=ORIENTED_EDGE('',*,*,#603,.T.);
#823=ORIENTED_EDGE('',*,*,#605,.F.);
#824=ORIENTED_EDGE('',*,*,#606,.F.);
#825=ORIENTED_EDGE('',*,*,#607,.F.);
#826=ORIENTED_EDGE('',*,*,#606,.T.);
#827=ORIENTED_EDGE('',*,*,#608,.F.);
#828=ORIENTED_EDGE('',*,*,#598,.F.);
#829=ORIENTED_EDGE('',*,*,#608,.T.);
#830=ORIENTED_EDGE('',*,*,#605,.T.);
#831=ORIENTED_EDGE('',*,*,#602,.T.);
#832=ORIENTED_EDGE('',*,*,#599,.T.);
#833=ORIENTED_EDGE('',*,*,#607,.T.);
#834=ORIENTED_EDGE('',*,*,#597,.T.);
#835=ORIENTED_EDGE('',*,*,#601,.T.);
#836=ORIENTED_EDGE('',*,*,#604,.T.);
#837=ORIENTED_EDGE('',*,*,#609,.F.);
#838=ORIENTED_EDGE('',*,*,#610,.T.);
#839=ORIENTED_EDGE('',*,*,#611,.F.);
#840=ORIENTED_EDGE('',*,*,#612,.F.);
#841=ORIENTED_EDGE('',*,*,#613,.F.);
#842=ORIENTED_EDGE('',*,*,#612,.T.);
#843=ORIENTED_EDGE('',*,*,#614,.F.);
#844=ORIENTED_EDGE('',*,*,#615,.F.);
#845=ORIENTED_EDGE('',*,*,#616,.F.);
#846=ORIENTED_EDGE('',*,*,#615,.T.);
#847=ORIENTED_EDGE('',*,*,#617,.F.);
#848=ORIENTED_EDGE('',*,*,#618,.F.);
#849=ORIENTED_EDGE('',*,*,#619,.F.);
#850=ORIENTED_EDGE('',*,*,#618,.T.);
#851=ORIENTED_EDGE('',*,*,#620,.F.);
#852=ORIENTED_EDGE('',*,*,#610,.F.);
#853=ORIENTED_EDGE('',*,*,#620,.T.);
#854=ORIENTED_EDGE('',*,*,#617,.T.);
#855=ORIENTED_EDGE('',*,*,#614,.T.);
#856=ORIENTED_EDGE('',*,*,#611,.T.);
#857=ORIENTED_EDGE('',*,*,#619,.T.);
#858=ORIENTED_EDGE('',*,*,#609,.T.);
#859=ORIENTED_EDGE('',*,*,#613,.T.);
#860=ORIENTED_EDGE('',*,*,#616,.T.);
#861=ORIENTED_EDGE('',*,*,#621,.F.);
#862=ORIENTED_EDGE('',*,*,#622,.T.);
#863=ORIENTED_EDGE('',*,*,#623,.F.);
#864=ORIENTED_EDGE('',*,*,#624,.F.);
#865=ORIENTED_EDGE('',*,*,#625,.F.);
#866=ORIENTED_EDGE('',*,*,#624,.T.);
#867=ORIENTED_EDGE('',*,*,#626,.F.);
#868=ORIENTED_EDGE('',*,*,#627,.F.);
#869=ORIENTED_EDGE('',*,*,#628,.F.);
#870=ORIENTED_EDGE('',*,*,#627,.T.);
#871=ORIENTED_EDGE('',*,*,#629,.F.);
#872=ORIENTED_EDGE('',*,*,#630,.F.);
#873=ORIENTED_EDGE('',*,*,#631,.F.);
#874=ORIENTED_EDGE('',*,*,#630,.T.);
#875=ORIENTED_EDGE('',*,*,#632,.F.);
#876=ORIENTED_EDGE('',*,*,#622,.F.);
#877=ORIENTED_EDGE('',*,*,#632,.T.);
#878=ORIENTED_EDGE('',*,*,#629,.T.);
#879=ORIENTED_EDGE('',*,*,#626,.T.);
#880=ORIENTED_EDGE('',*,*,#623,.T.);
#881=ORIENTED_EDGE('',*,*,#631,.T.);
#882=ORIENTED_EDGE('',*,*,#621,.T.);
#883=ORIENTED_EDGE('',*,*,#625,.T.);
#884=ORIENTED_EDGE('',*,*,#628,.T.);
#885=ORIENTED_EDGE('',*,*,#633,.F.);
#886=ORIENTED_EDGE('',*,*,#634,.T.);
#887=ORIENTED_EDGE('',*,*,#635,.F.);
#888=ORIENTED_EDGE('',*,*,#636,.F.);
#889=ORIENTED_EDGE('',*,*,#637,.F.);
#890=ORIENTED_EDGE('',*,*,#636,.T.);
#891=ORIENTED_EDGE('',*,*,#638,.F.);
#892=ORIENTED_EDGE('',*,*,#639,.F.);
#893=ORIENTED_EDGE('',*,*,#640,.F.);
#894=ORIENTED_EDGE('',*,*,#639,.T.);
#895=ORIENTED_EDGE('',*,*,#641,.F.);
#896=ORIENTED_EDGE('',*,*,#642,.F.);
#897=ORIENTED_EDGE('',*,*,#643,.F.);
#898=ORIENTED_EDGE('',*,*,#642,.T.);
#899=ORIENTED_EDGE('',*,*,#644,.F.);
#900=ORIENTED_EDGE('',*,*,#634,.F.);
#901=ORIENTED_EDGE('',*,*,#644,.T.);
#902=ORIENTED_EDGE('',*,*,#641,.T.);
#903=ORIENTED_EDGE('',*,*,#638,.T.);
#904=ORIENTED_EDGE('',*,*,#635,.T.);
#905=ORIENTED_EDGE('',*,*,#643,.T.);
#906=ORIENTED_EDGE('',*,*,#633,.T.);
#907=ORIENTED_EDGE('',*,*,#637,.T.);
#908=ORIENTED_EDGE('',*,*,#640,.T.);
#909=PLANE('',#1066);
#910=PLANE('',#1067);
#911=PLANE('',#1068);
#912=PLANE('',#1069);
#913=PLANE('',#1070);
#914=PLANE('',#1071);
#915=PLANE('',#1072);
#916=PLANE('',#1073);
#917=PLANE('',#1074);
#918=PLANE('',#1075);
#919=PLANE('',#1076);
#920=PLANE('',#1077);
#921=PLANE('',#1078);
#922=PLANE('',#1079);
#923=PLANE('',#1080);
#924=PLANE('',#1081);
#925=PLANE('',#1082);
#926=PLANE('',#1083);
#927=PLANE('',#1084);
#928=PLANE('',#1085);
#929=PLANE('',#1086);
#930=PLANE('',#1087);
#931=PLANE('',#1088);
#932=PLANE('',#1089);
#933=PLANE('',#1090);
#934=PLANE('',#1091);
#935=PLANE('',#1092);
#936=PLANE('',#1093);
#937=PLANE('',#1094);
#938=PLANE('',#1095);
#939=PLANE('',#1096);
#940=PLANE('',#1097);
#941=PLANE('',#1098);
#942=PLANE('',#1099);
#943=PLANE('',#1100);
#944=PLANE('',#1101);
#945=PLANE('',#1102);
#946=PLANE('',#1103);
#947=PLANE('',#1104);
#948=PLANE('',#1105);
#949=PLANE('',#1106);
#950=PLANE('',#1107);
#951=PLANE('',#1108);
#952=PLANE('',#1109);
#953=PLANE('',#1110);
#954=PLANE('',#1111);
#955=PLANE('',#1112);
#956=PLANE('',#1113);
#957=PLANE('',#1114);
#958=PLANE('',#1115);
#959=PLANE('',#1116);
#960=PLANE('',#1117);
#961=PLANE('',#1118);
#962=PLANE('',#1119);
#963=PLANE('',#1120);
#964=PLANE('',#1121);
#965=PLANE('',#1122);
#966=PLANE('',#1123);
#967=PLANE('',#1124);
#968=PLANE('',#1125);
#969=PLANE('',#1126);
#970=PLANE('',#1127);
#971=PLANE('',#1128);
#972=PLANE('',#1129);
#973=PLANE('',#1130);
#974=PLANE('',#1131);
#975=ADVANCED_FACE('',(#29),#909,.F.);
#976=ADVANCED_FACE('',(#30),#910,.T.);
#977=ADVANCED_FACE('',(#31),#911,.T.);
#978=ADVANCED_FACE('',(#32),#912,.T.);
#979=ADVANCED_FACE('',(#33),#913,.T.);
#980=ADVANCED_FACE('',(#34),#914,.T.);
#981=ADVANCED_FACE('',(#35),#915,.T.);
#982=ADVANCED_FACE('',(#36),#916,.T.);
#983=ADVANCED_FACE('',(#37),#917,.T.);
#984=ADVANCED_FACE('',(#38),#918,.T.);
#985=ADVANCED_FACE('',(#39),#919,.T.);
#986=ADVANCED_FACE('',(#40),#920,.F.);
#987=ADVANCED_FACE('',(#41),#921,.F.);
#988=ADVANCED_FACE('',(#42),#922,.T.);
#989=ADVANCED_FACE('',(#43),#923,.T.);
#990=ADVANCED_FACE('',(#44),#924,.T.);
#991=ADVANCED_FACE('',(#45),#925,.T.);
#992=ADVANCED_FACE('',(#46),#926,.T.);
#993=ADVANCED_FACE('',(#47),#927,.T.);
#994=ADVANCED_FACE('',(#48),#928,.T.);
#995=ADVANCED_FACE('',(#49),#929,.T.);
#996=ADVANCED_FACE('',(#50),#930,.T.);
#997=ADVANCED_FACE('',(#51),#931,.T.);
#998=ADVANCED_FACE('',(#52),#932,.F.);
#999=ADVANCED_FACE('',(#53),#933,.F.);
#1000=ADVANCED_FACE('',(#54),#934,.T.);
#1001=ADVANCED_FACE('',(#55),#935,.T.);
#1002=ADVANCED_FACE('',(#56),#936,.T.);
#1003=ADVANCED_FACE('',(#57),#937,.T.);
#1004=ADVANCED_FACE('',(#58),#938,.T.);
#1005=ADVANCED_FACE('',(#59),#939,.T.);
#1006=ADVANCED_FACE('',(#60),#940,.T.);
#1007=ADVANCED_FACE('',(#61),#941,.T.);
#1008=ADVANCED_FACE('',(#62),#942,.T.);
#1009=ADVANCED_FACE('',(#63),#943,.T.);
#1010=ADVANCED_FACE('',(#64),#944,.T.);
#1011=ADVANCED_FACE('',(#65),#945,.T.);
#1012=ADVANCED_FACE('',(#66),#946,.T.);
#1013=ADVANCED_FACE('',(#67),#947,.T.);
#1014=ADVANCED_FACE('',(#68),#948,.T.);
#1015=ADVANCED_FACE('',(#69),#949,.T.);
#1016=ADVANCED_FACE('',(#70),#950,.F.);
#1017=ADVANCED_FACE('',(#71),#951,.T.);
#1018=ADVANCED_FACE('',(#72),#952,.T.);
#1019=ADVANCED_FACE('',(#73),#953,.T.);
#1020=ADVANCED_FACE('',(#74),#954,.T.);
#1021=ADVANCED_FACE('',(#75),#955,.T.);
#1022=ADVANCED_FACE('',(#76),#956,.F.);
#1023=ADVANCED_FACE('',(#77),#957,.T.);
#1024=ADVANCED_FACE('',(#78),#958,.T.);
#1025=ADVANCED_FACE('',(#79),#959,.T.);
#1026=ADVANCED_FACE('',(#80),#960,.T.);
#1027=ADVANCED_FACE('',(#81),#961,.T.);
#1028=ADVANCED_FACE('',(#82),#962,.F.);
#1029=ADVANCED_FACE('',(#83),#963,.T.);
#1030=ADVANCED_FACE('',(#84),#964,.T.);
#1031=ADVANCED_FACE('',(#85),#965,.T.);
#1032=ADVANCED_FACE('',(#86),#966,.T.);
#1033=ADVANCED_FACE('',(#87),#967,.T.);
#1034=ADVANCED_FACE('',(#88),#968,.F.);
#1035=ADVANCED_FACE('',(#89),#969,.T.);
#1036=ADVANCED_FACE('',(#90),#970,.T.);
#1037=ADVANCED_FACE('',(#91),#971,.T.);
#1038=ADVANCED_FACE('',(#92),#972,.T.);
#1039=ADVANCED_FACE('',(#93),#973,.T.);
#1040=ADVANCED_FACE('',(#94),#974,.F.);
#1041=CLOSED_SHELL('',(#975,#976,#977,#978,#979,#980));
#1042=CLOSED_SHELL('',(#981,#982,#983,#984,#985,#986));
#1043=CLOSED_SHELL('',(#987,#988,#989,#990,#991,#992));
#1044=CLOSED_SHELL('',(#993,#994,#995,#996,#997,#998));
#1045=CLOSED_SHELL('',(#999,#1000,#1001,#1002,#1003,#1004));
#1046=CLOSED_SHELL('',(#1005,#1006,#1007,#1008,#1009,#1010));
#1047=CLOSED_SHELL('',(#1011,#1012,#1013,#1014,#1015,#1016));
#1048=CLOSED_SHELL('',(#1017,#1018,#1019,#1020,#1021,#1022));
#1049=CLOSED_SHELL('',(#1023,#1024,#1025,#1026,#1027,#1028));
#1050=CLOSED_SHELL('',(#1029,#1030,#1031,#1032,#1033,#1034));
#1051=CLOSED_SHELL('',(#1035,#1036,#1037,#1038,#1039,#1040));
#1052=BREP_WITH_VOIDS('Body1',#1046,(#24,#25,#26,#27,#28));
#1053=DERIVED_UNIT_ELEMENT(#1055,1.);
#1054=DERIVED_UNIT_ELEMENT(#1690,-3.);
#1055=(
MASS_UNIT()
NAMED_UNIT(*)
SI_UNIT(.KILO.,.GRAM.)
);
#1056=DERIVED_UNIT((#1053,#1054));
#1057=MEASURE_REPRESENTATION_ITEM('density measure',
POSITIVE_RATIO_MEASURE(7850.),#1056);
#1058=PROPERTY_DEFINITION_REPRESENTATION(#1063,#1060);
#1059=PROPERTY_DEFINITION_REPRESENTATION(#1064,#1061);
#1060=REPRESENTATION('material name',(#1062),#1687);
#1061=REPRESENTATION('density',(#1057),#1687);
#1062=DESCRIPTIVE_REPRESENTATION_ITEM('Steel','Steel');
#1063=PROPERTY_DEFINITION('material property','material name',#1697);
#1064=PROPERTY_DEFINITION('material property','density of part',#1697);
#1065=AXIS2_PLACEMENT_3D('',#1398,#1132,#1133);
#1066=AXIS2_PLACEMENT_3D('',#1399,#1134,#1135);
#1067=AXIS2_PLACEMENT_3D('',#1408,#1140,#1141);
#1068=AXIS2_PLACEMENT_3D('',#1417,#1146,#1147);
#1069=AXIS2_PLACEMENT_3D('',#1420,#1150,#1151);
#1070=AXIS2_PLACEMENT_3D('',#1422,#1153,#1154);
#1071=AXIS2_PLACEMENT_3D('',#1424,#1156,#1157);
#1072=AXIS2_PLACEMENT_3D('',#1425,#1158,#1159);
#1073=AXIS2_PLACEMENT_3D('',#1434,#1164,#1165);
#1074=AXIS2_PLACEMENT_3D('',#1440,#1169,#1170);
#1075=AXIS2_PLACEMENT_3D('',#1446,#1174,#1175);
#1076=AXIS2_PLACEMENT_3D('',#1449,#1178,#1179);
#1077=AXIS2_PLACEMENT_3D('',#1450,#1180,#1181);
#1078=AXIS2_PLACEMENT_3D('',#1451,#1182,#1183);
#1079=AXIS2_PLACEMENT_3D('',#1460,#1188,#1189);
#1080=AXIS2_PLACEMENT_3D('',#1469,#1194,#1195);
#1081=AXIS2_PLACEMENT_3D('',#1472,#1198,#1199);
#1082=AXIS2_PLACEMENT_3D('',#1474,#1201,#1202);
#1083=AXIS2_PLACEMENT_3D('',#1476,#1204,#1205);
#1084=AXIS2_PLACEMENT_3D('',#1477,#1206,#1207);
#1085=AXIS2_PLACEMENT_3D('',#1486,#1212,#1213);
#1086=AXIS2_PLACEMENT_3D('',#1492,#1217,#1218);
#1087=AXIS2_PLACEMENT_3D('',#1498,#1222,#1223);
#1088=AXIS2_PLACEMENT_3D('',#1501,#1226,#1227);
#1089=AXIS2_PLACEMENT_3D('',#1502,#1228,#1229);
#1090=AXIS2_PLACEMENT_3D('',#1503,#1230,#1231);
#1091=AXIS2_PLACEMENT_3D('',#1512,#1236,#1237);
#1092=AXIS2_PLACEMENT_3D('',#1521,#1242,#1243);
#1093=AXIS2_PLACEMENT_3D('',#1524,#1246,#1247);
#1094=AXIS2_PLACEMENT_3D('',#1526,#1249,#1250);
#1095=AXIS2_PLACEMENT_3D('',#1528,#1252,#1253);
#1096=AXIS2_PLACEMENT_3D('',#1529,#1254,#1255);
#1097=AXIS2_PLACEMENT_3D('',#1538,#1260,#1261);
#1098=AXIS2_PLACEMENT_3D('',#1544,#1265,#1266);
#1099=AXIS2_PLACEMENT_3D('',#1550,#1270,#1271);
#1100=AXIS2_PLACEMENT_3D('',#1553,#1274,#1275);
#1101=AXIS2_PLACEMENT_3D('',#1554,#1276,#1277);
#1102=AXIS2_PLACEMENT_3D('',#1555,#1278,#1279);
#1103=AXIS2_PLACEMENT_3D('',#1564,#1284,#1285);
#1104=AXIS2_PLACEMENT_3D('',#1570,#1289,#1290);
#1105=AXIS2_PLACEMENT_3D('',#1576,#1294,#1295);
#1106=AXIS2_PLACEMENT_3D('',#1579,#1298,#1299);
#1107=AXIS2_PLACEMENT_3D('',#1580,#1300,#1301);
#1108=AXIS2_PLACEMENT_3D('',#1581,#1302,#1303);
#1109=AXIS2_PLACEMENT_3D('',#1590,#1308,#1309);
#1110=AXIS2_PLACEMENT_3D('',#1596,#1313,#1314);
#1111=AXIS2_PLACEMENT_3D('',#1602,#1318,#1319);
#1112=AXIS2_PLACEMENT_3D('',#1605,#1322,#1323);
#1113=AXIS2_PLACEMENT_3D('',#1606,#1324,#1325);
#1114=AXIS2_PLACEMENT_3D('',#1607,#1326,#1327);
#1115=AXIS2_PLACEMENT_3D('',#1616,#1332,#1333);
#1116=AXIS2_PLACEMENT_3D('',#1622,#1337,#1338);
#1117=AXIS2_PLACEMENT_3D('',#1628,#1342,#1343);
#1118=AXIS2_PLACEMENT_3D('',#1631,#1346,#1347);
#1119=AXIS2_PLACEMENT_3D('',#1632,#1348,#1349);
#1120=AXIS2_PLACEMENT_3D('',#1633,#1350,#1351);
#1121=AXIS2_PLACEMENT_3D('',#1642,#1356,#1357);
#1122=AXIS2_PLACEMENT_3D('',#1648,#1361,#1362);
#1123=AXIS2_PLACEMENT_3D('',#1654,#1366,#1367);
#1124=AXIS2_PLACEMENT_3D('',#1657,#1370,#1371);
#1125=AXIS2_PLACEMENT_3D('',#1658,#1372,#1373);
#1126=AXIS2_PLACEMENT_3D('',#1659,#1374,#1375);
#1127=AXIS2_PLACEMENT_3D('',#1668,#1380,#1381);
#1128=AXIS2_PLACEMENT_3D('',#1674,#1385,#1386);
#1129=AXIS2_PLACEMENT_3D('',#1680,#1390,#1391);
#1130=AXIS2_PLACEMENT_3D('',#1683,#1394,#1395);
#1131=AXIS2_PLACEMENT_3D('',#1684,#1396,#1397);
#1132=DIRECTION('axis',(0.,0.,1.));
#1133=DIRECTION('refdir',(1.,0.,0.));
#1134=DIRECTION('center_axis',(0.,0.,1.));
#1135=DIRECTION('ref_axis',(-1.,0.,0.));
#1136=DIRECTION('',(0.,-1.,0.));
#1137=DIRECTION('',(-1.,0.,0.));
#1138=DIRECTION('',(0.,1.,0.));
#1139=DIRECTION('',(1.,0.,0.));
#1140=DIRECTION('center_axis',(0.,0.,1.));
#1141=DIRECTION('ref_axis',(1.,0.,0.));
#1142=DIRECTION('',(0.,-1.,0.));
#1143=DIRECTION('',(1.,0.,0.));
#1144=DIRECTION('',(0.,1.,0.));
#1145=DIRECTION('',(-1.,0.,0.));
#1146=DIRECTION('center_axis',(-1.,0.,0.));
#1147=DIRECTION('ref_axis',(0.,-1.,0.));
#1148=DIRECTION('',(0.,0.,1.));
#1149=DIRECTION('',(0.,0.,1.));
#1150=DIRECTION('center_axis',(0.,-1.,0.));
#1151=DIRECTION('ref_axis',(1.,0.,0.));
#1152=DIRECTION('',(0.,0.,1.));
#1153=DIRECTION('center_axis',(1.,0.,0.));
#1154=DIRECTION('ref_axis',(0.,1.,0.));
#1155=DIRECTION('',(0.,0.,1.));
#1156=DIRECTION('center_axis',(0.,1.,0.));
#1157=DIRECTION('ref_axis',(-1.,0.,0.));
#1158=DIRECTION('center_axis',(0.,1.,0.));
#1159=DIRECTION('ref_axis',(-1.,0.,0.));
#1160=DIRECTION('',(-1.,0.,0.));
#1161=DIRECTION('',(0.,0.,1.));
#1162=DIRECTION('',(-1.,0.,0.));
#1163=DIRECTION('',(0.,0.,1.));
#1164=DIRECTION('center_axis',(1.,0.,0.));
#1165=DIRECTION('ref_axis',(0.,1.,0.));
#1166=DIRECTION('',(0.,1.,0.));
#1167=DIRECTION('',(0.,0.,1.));
#1168=DIRECTION('',(0.,1.,0.));
#1169=DIRECTION('center_axis',(0.,-1.,0.));
#1170=DIRECTION('ref_axis',(1.,0.,0.));
#1171=DIRECTION('',(1.,0.,0.));
#1172=DIRECTION('',(0.,0.,1.));
#1173=DIRECTION('',(1.,0.,0.));
#1174=DIRECTION('center_axis',(-1.,0.,0.));
#1175=DIRECTION('ref_axis',(0.,-1.,0.));
#1176=DIRECTION('',(0.,-1.,0.));
#1177=DIRECTION('',(0.,-1.,0.));
#1178=DIRECTION('center_axis',(0.,0.,1.));
#1179=DIRECTION('ref_axis',(1.,0.,0.));
#1180=DIRECTION('center_axis',(0.,0.,1.));
#1181=DIRECTION('ref_axis',(-1.,0.,0.));
#1182=DIRECTION('center_axis',(0.,0.,1.));
#1183=DIRECTION('ref_axis',(-1.,0.,0.));
#1184=DIRECTION('',(0.,-1.,0.));
#1185=DIRECTION('',(-1.,0.,0.));
#1186=DIRECTION('',(0.,1.,0.));
#1187=DIRECTION('',(1.,0.,0.));
#1188=DIRECTION('center_axis',(0.,0.,1.));
#1189=DIRECTION('ref_axis',(1.,0.,0.));
#1190=DIRECTION('',(0.,-1.,0.));
#1191=DIRECTION('',(1.,0.,0.));
#1192=DIRECTION('',(0.,1.,0.));
#1193=DIRECTION('',(-1.,0.,0.));
#1194=DIRECTION('center_axis',(-1.,0.,0.));
#1195=DIRECTION('ref_axis',(0.,-1.,0.));
#1196=DIRECTION('',(0.,0.,1.));
#1197=DIRECTION('',(0.,0.,1.));
#1198=DIRECTION('center_axis',(0.,-1.,0.));
#1199=DIRECTION('ref_axis',(1.,0.,0.));
#1200=DIRECTION('',(0.,0.,1.));
#1201=DIRECTION('center_axis',(1.,0.,0.));
#1202=DIRECTION('ref_axis',(0.,1.,0.));
#1203=DIRECTION('',(0.,0.,1.));
#1204=DIRECTION('center_axis',(0.,1.,0.));
#1205=DIRECTION('ref_axis',(-1.,0.,0.));
#1206=DIRECTION('center_axis',(-1.,0.,0.));
#1207=DIRECTION('ref_axis',(0.,-1.,0.));
#1208=DIRECTION('',(0.,-1.,0.));
#1209=DIRECTION('',(0.,0.,1.));
#1210=DIRECTION('',(0.,-1.,0.));
#1211=DIRECTION('',(0.,0.,1.));
#1212=DIRECTION('center_axis',(0.,1.,0.));
#1213=DIRECTION('ref_axis',(-1.,0.,0.));
#1214=DIRECTION('',(-1.,0.,0.));
#1215=DIRECTION('',(0.,0.,1.));
#1216=DIRECTION('',(-1.,0.,0.));
#1217=DIRECTION('center_axis',(1.,0.,0.));
#1218=DIRECTION('ref_axis',(0.,1.,0.));
#1219=DIRECTION('',(0.,1.,0.));
#1220=DIRECTION('',(0.,0.,1.));
#1221=DIRECTION('',(0.,1.,0.));
#1222=DIRECTION('center_axis',(0.,-1.,0.));
#1223=DIRECTION('ref_axis',(1.,0.,0.));
#1224=DIRECTION('',(1.,0.,0.));
#1225=DIRECTION('',(1.,0.,0.));
#1226=DIRECTION('center_axis',(0.,0.,1.));
#1227=DIRECTION('ref_axis',(1.,0.,0.));
#1228=DIRECTION('center_axis',(0.,0.,1.));
#1229=DIRECTION('ref_axis',(-1.,0.,0.));
#1230=DIRECTION('center_axis',(0.,0.,1.));
#1231=DIRECTION('ref_axis',(-1.,0.,0.));
#1232=DIRECTION('',(0.,1.,0.));
#1233=DIRECTION('',(1.,0.,0.));
#1234=DIRECTION('',(0.,-1.,0.));
#1235=DIRECTION('',(-1.,0.,0.));
#1236=DIRECTION('center_axis',(0.,0.,1.));
#1237=DIRECTION('ref_axis',(1.,0.,0.));
#1238=DIRECTION('',(0.,1.,0.));
#1239=DIRECTION('',(-1.,0.,0.));
#1240=DIRECTION('',(0.,-1.,0.));
#1241=DIRECTION('',(1.,0.,0.));
#1242=DIRECTION('center_axis',(1.,0.,0.));
#1243=DIRECTION('ref_axis',(0.,1.,0.));
#1244=DIRECTION('',(0.,0.,1.));
#1245=DIRECTION('',(0.,0.,1.));
#1246=DIRECTION('center_axis',(0.,1.,0.));
#1247=DIRECTION('ref_axis',(-1.,0.,0.));
#1248=DIRECTION('',(0.,0.,1.));
#1249=DIRECTION('center_axis',(-1.,0.,0.));
#1250=DIRECTION('ref_axis',(0.,-1.,0.));
#1251=DIRECTION('',(0.,0.,1.));
#1252=DIRECTION('center_axis',(0.,-1.,0.));
#1253=DIRECTION('ref_axis',(1.,0.,0.));
#1254=DIRECTION('center_axis',(0.,1.,0.));
#1255=DIRECTION('ref_axis',(-1.,0.,0.));
#1256=DIRECTION('',(0.,0.,1.));
#1257=DIRECTION('',(-1.,0.,0.));
#1258=DIRECTION('',(0.,0.,-1.));
#1259=DIRECTION('',(1.,0.,0.));
#1260=DIRECTION('center_axis',(-1.,0.,0.));
#1261=DIRECTION('ref_axis',(0.,-1.,0.));
#1262=DIRECTION('',(0.,0.,1.));
#1263=DIRECTION('',(0.,-1.,0.));
#1264=DIRECTION('',(0.,1.,0.));
#1265=DIRECTION('center_axis',(0.,-1.,0.));
#1266=DIRECTION('ref_axis',(1.,0.,0.));
#1267=DIRECTION('',(0.,0.,1.));
#1268=DIRECTION('',(1.,0.,0.));
#1269=DIRECTION('',(-1.,0.,0.));
#1270=DIRECTION('center_axis',(1.,0.,0.));
#1271=DIRECTION('ref_axis',(0.,1.,0.));
#1272=DIRECTION('',(0.,1.,0.));
#1273=DIRECTION('',(0.,-1.,0.));
#1274=DIRECTION('center_axis',(0.,0.,-1.));
#1275=DIRECTION('ref_axis',(-1.,0.,0.));
#1276=DIRECTION('center_axis',(0.,0.,1.));
#1277=DIRECTION('ref_axis',(1.,0.,0.));
#1278=DIRECTION('center_axis',(0.,-1.,0.));
#1279=DIRECTION('ref_axis',(1.,0.,0.));
#1280=DIRECTION('',(-1.,0.,0.));
#1281=DIRECTION('',(0.,0.,1.));
#1282=DIRECTION('',(1.,0.,0.));
#1283=DIRECTION('',(0.,0.,1.));
#1284=DIRECTION('center_axis',(-1.,0.,0.));
#1285=DIRECTION('ref_axis',(0.,-1.,0.));
#1286=DIRECTION('',(0.,1.,0.));
#1287=DIRECTION('',(0.,-1.,0.));
#1288=DIRECTION('',(0.,0.,1.));
#1289=DIRECTION('center_axis',(0.,1.,0.));
#1290=DIRECTION('ref_axis',(-1.,0.,0.));
#1291=DIRECTION('',(1.,0.,0.));
#1292=DIRECTION('',(-1.,0.,0.));
#1293=DIRECTION('',(0.,0.,1.));
#1294=DIRECTION('center_axis',(1.,0.,0.));
#1295=DIRECTION('ref_axis',(0.,1.,0.));
#1296=DIRECTION('',(0.,-1.,0.));
#1297=DIRECTION('',(0.,1.,0.));
#1298=DIRECTION('center_axis',(0.,0.,1.));
#1299=DIRECTION('ref_axis',(1.,0.,0.));
#1300=DIRECTION('center_axis',(0.,0.,1.));
#1301=DIRECTION('ref_axis',(1.,0.,0.));
#1302=DIRECTION('center_axis',(0.,-1.,0.));
#1303=DIRECTION('ref_axis',(1.,0.,0.));
#1304=DIRECTION('',(-1.,0.,0.));
#1305=DIRECTION('',(0.,0.,1.));
#1306=DIRECTION('',(1.,0.,0.));
#1307=DIRECTION('',(0.,0.,1.));
#1308=DIRECTION('center_axis',(-1.,0.,0.));
#1309=DIRECTION('ref_axis',(0.,-1.,0.));
#1310=DIRECTION('',(0.,1.,0.));
#1311=DIRECTION('',(0.,-1.,0.));
#1312=DIRECTION('',(0.,0.,1.));
#1313=DIRECTION('center_axis',(0.,1.,0.));
#1314=DIRECTION('ref_axis',(-1.,0.,0.));
#1315=DIRECTION('',(1.,0.,0.));
#1316=DIRECTION('',(-1.,0.,0.));
#1317=DIRECTION('',(0.,0.,1.));
#1318=DIRECTION('center_axis',(1.,0.,0.));
#1319=DIRECTION('ref_axis',(0.,1.,0.));
#1320=DIRECTION('',(0.,-1.,0.));
#1321=DIRECTION('',(0.,1.,0.));
#1322=DIRECTION('center_axis',(0.,0.,1.));
#1323=DIRECTION('ref_axis',(1.,0.,0.));
#1324=DIRECTION('center_axis',(0.,0.,1.));
#1325=DIRECTION('ref_axis',(1.,0.,0.));
#1326=DIRECTION('center_axis',(0.,-1.,0.));
#1327=DIRECTION('ref_axis',(1.,0.,0.));
#1328=DIRECTION('',(-1.,0.,0.));
#1329=DIRECTION('',(0.,0.,1.));
#1330=DIRECTION('',(1.,0.,0.));
#1331=DIRECTION('',(0.,0.,1.));
#1332=DIRECTION('center_axis',(-1.,0.,0.));
#1333=DIRECTION('ref_axis',(0.,-1.,0.));
#1334=DIRECTION('',(0.,1.,0.));
#1335=DIRECTION('',(0.,-1.,0.));
#1336=DIRECTION('',(0.,0.,1.));
#1337=DIRECTION('center_axis',(0.,1.,0.));
#1338=DIRECTION('ref_axis',(-1.,0.,0.));
#1339=DIRECTION('',(1.,0.,0.));
#1340=DIRECTION('',(-1.,0.,0.));
#1341=DIRECTION('',(0.,0.,1.));
#1342=DIRECTION('center_axis',(1.,0.,0.));
#1343=DIRECTION('ref_axis',(0.,1.,0.));
#1344=DIRECTION('',(0.,-1.,0.));
#1345=DIRECTION('',(0.,1.,0.));
#1346=DIRECTION('center_axis',(0.,0.,1.));
#1347=DIRECTION('ref_axis',(1.,0.,0.));
#1348=DIRECTION('center_axis',(0.,0.,1.));
#1349=DIRECTION('ref_axis',(1.,0.,0.));
#1350=DIRECTION('center_axis',(0.,1.,0.));
#1351=DIRECTION('ref_axis',(-1.,0.,0.));
#1352=DIRECTION('',(1.,0.,0.));
#1353=DIRECTION('',(0.,0.,1.));
#1354=DIRECTION('',(-1.,0.,0.));
#1355=DIRECTION('',(0.,0.,1.));
#1356=DIRECTION('center_axis',(1.,0.,0.));
#1357=DIRECTION('ref_axis',(0.,1.,0.));
#1358=DIRECTION('',(0.,-1.,0.));
#1359=DIRECTION('',(0.,1.,0.));
#1360=DIRECTION('',(0.,0.,1.));
#1361=DIRECTION('center_axis',(0.,-1.,0.));
#1362=DIRECTION('ref_axis',(1.,0.,0.));
#1363=DIRECTION('',(-1.,0.,0.));
#1364=DIRECTION('',(1.,0.,0.));
#1365=DIRECTION('',(0.,0.,1.));
#1366=DIRECTION('center_axis',(-1.,0.,0.));
#1367=DIRECTION('ref_axis',(0.,-1.,0.));
#1368=DIRECTION('',(0.,1.,0.));
#1369=DIRECTION('',(0.,-1.,0.));
#1370=DIRECTION('center_axis',(0.,0.,1.));
#1371=DIRECTION('ref_axis',(1.,0.,0.));
#1372=DIRECTION('center_axis',(0.,0.,1.));
#1373=DIRECTION('ref_axis',(1.,0.,0.));
#1374=DIRECTION('center_axis',(1.,0.,0.));
#1375=DIRECTION('ref_axis',(0.,1.,0.));
#1376=DIRECTION('',(0.,-1.,0.));
#1377=DIRECTION('',(0.,0.,1.));
#1378=DIRECTION('',(0.,1.,0.));
#1379=DIRECTION('',(0.,0.,1.));
#1380=DIRECTION('center_axis',(0.,-1.,0.));
#1381=DIRECTION('ref_axis',(1.,0.,0.));
#1382=DIRECTION('',(-1.,0.,0.));
#1383=DIRECTION('',(1.,0.,0.));
#1384=DIRECTION('',(0.,0.,1.));
#1385=DIRECTION('center_axis',(-1.,0.,0.));
#1386=DIRECTION('ref_axis',(0.,-1.,0.));
#1387=DIRECTION('',(0.,1.,0.));
#1388=DIRECTION('',(0.,-1.,0.));
#1389=DIRECTION('',(0.,0.,1.));
#1390=DIRECTION('center_axis',(0.,1.,0.));
#1391=DIRECTION('ref_axis',(-1.,0.,0.));
#1392=DIRECTION('',(1.,0.,0.));
#1393=DIRECTION('',(-1.,0.,0.));
#1394=DIRECTION('center_axis',(0.,0.,1.));
#1395=DIRECTION('ref_axis',(1.,0.,0.));
#1396=DIRECTION('center_axis',(0.,0.,1.));
#1397=DIRECTION('ref_axis',(1.,0.,0.));
#1398=CARTESIAN_POINT('',(0.,0.,0.));
#1399=CARTESIAN_POINT('Origin',(0.,0.,100.));
#1400=CARTESIAN_POINT('',(-40.,40.,100.));
#1401=CARTESIAN_POINT('',(-40.,-40.,100.));
#1402=CARTESIAN_POINT('',(-40.,40.,100.));
#1403=CARTESIAN_POINT('',(-60.,-40.,100.));
#1404=CARTESIAN_POINT('',(-40.,-40.,100.));
#1405=CARTESIAN_POINT('',(-60.,40.,100.));
#1406=CARTESIAN_POINT('',(-60.,-40.,100.));
#1407=CARTESIAN_POINT('',(-60.,40.,100.));
#1408=CARTESIAN_POINT('Origin',(0.,0.,0.));
#1409=CARTESIAN_POINT('',(-40.,40.,0.));
#1410=CARTESIAN_POINT('',(-40.,-40.,0.));
#1411=CARTESIAN_POINT('',(-40.,40.,0.));
#1412=CARTESIAN_POINT('',(-60.,40.,0.));
#1413=CARTESIAN_POINT('',(-60.,40.,0.));
#1414=CARTESIAN_POINT('',(-60.,-40.,0.));
#1415=CARTESIAN_POINT('',(-60.,-40.,0.));
#1416=CARTESIAN_POINT('',(-40.,-40.,0.));
#1417=CARTESIAN_POINT('Origin',(-40.,40.,0.));
#1418=CARTESIAN_POINT('',(-40.,-40.,0.));
#1419=CARTESIAN_POINT('',(-40.,40.,0.));
#1420=CARTESIAN_POINT('Origin',(-60.,40.,0.));
#1421=CARTESIAN_POINT('',(-60.,40.,0.));
#1422=CARTESIAN_POINT('Origin',(-60.,-40.,0.));
#1423=CARTESIAN_POINT('',(-60.,-40.,0.));
#1424=CARTESIAN_POINT('Origin',(-40.,-40.,0.));
#1425=CARTESIAN_POINT('Origin',(-65.,-40.,0.));
#1426=CARTESIAN_POINT('',(-65.,-40.,0.));
#1427=CARTESIAN_POINT('',(-85.,-40.,0.));
#1428=CARTESIAN_POINT('',(-65.,-40.,0.));
#1429=CARTESIAN_POINT('',(-85.,-40.,100.));
#1430=CARTESIAN_POINT('',(-85.,-40.,0.));
#1431=CARTESIAN_POINT('',(-65.,-40.,100.));
#1432=CARTESIAN_POINT('',(-65.,-40.,100.));
#1433=CARTESIAN_POINT('',(-65.,-40.,0.));
#1434=CARTESIAN_POINT('Origin',(-85.,-40.,0.));
#1435=CARTESIAN_POINT('',(-85.,40.,0.));
#1436=CARTESIAN_POINT('',(-85.,-40.,0.));
#1437=CARTESIAN_POINT('',(-85.,40.,100.));
#1438=CARTESIAN_POINT('',(-85.,40.,0.));
#1439=CARTESIAN_POINT('',(-85.,-40.,100.));
#1440=CARTESIAN_POINT('Origin',(-85.,40.,0.));
#1441=CARTESIAN_POINT('',(-65.,40.,0.));
#1442=CARTESIAN_POINT('',(-85.,40.,0.));
#1443=CARTESIAN_POINT('',(-65.,40.,100.));
#1444=CARTESIAN_POINT('',(-65.,40.,0.));
#1445=CARTESIAN_POINT('',(-85.,40.,100.));
#1446=CARTESIAN_POINT('Origin',(-65.,40.,0.));
#1447=CARTESIAN_POINT('',(-65.,40.,0.));
#1448=CARTESIAN_POINT('',(-65.,40.,100.));
#1449=CARTESIAN_POINT('Origin',(0.,0.,0.));
#1450=CARTESIAN_POINT('Origin',(0.,0.,100.));
#1451=CARTESIAN_POINT('Origin',(0.,0.,100.));
#1452=CARTESIAN_POINT('',(60.,40.,100.));
#1453=CARTESIAN_POINT('',(60.,-40.,100.));
#1454=CARTESIAN_POINT('',(60.,40.,100.));
#1455=CARTESIAN_POINT('',(40.,-40.,100.));
#1456=CARTESIAN_POINT('',(60.,-40.,100.));
#1457=CARTESIAN_POINT('',(40.,40.,100.));
#1458=CARTESIAN_POINT('',(40.,-40.,100.));
#1459=CARTESIAN_POINT('',(40.,40.,100.));
#1460=CARTESIAN_POINT('Origin',(0.,0.,0.));
#1461=CARTESIAN_POINT('',(60.,40.,0.));
#1462=CARTESIAN_POINT('',(60.,-40.,0.));
#1463=CARTESIAN_POINT('',(60.,40.,0.));
#1464=CARTESIAN_POINT('',(40.,40.,0.));
#1465=CARTESIAN_POINT('',(40.,40.,0.));
#1466=CARTESIAN_POINT('',(40.,-40.,0.));
#1467=CARTESIAN_POINT('',(40.,-40.,0.));
#1468=CARTESIAN_POINT('',(60.,-40.,0.));
#1469=CARTESIAN_POINT('Origin',(60.,40.,0.));
#1470=CARTESIAN_POINT('',(60.,-40.,0.));
#1471=CARTESIAN_POINT('',(60.,40.,0.));
#1472=CARTESIAN_POINT('Origin',(40.,40.,0.));
#1473=CARTESIAN_POINT('',(40.,40.,0.));
#1474=CARTESIAN_POINT('Origin',(40.,-40.,0.));
#1475=CARTESIAN_POINT('',(40.,-40.,0.));
#1476=CARTESIAN_POINT('Origin',(60.,-40.,0.));
#1477=CARTESIAN_POINT('Origin',(85.,40.,0.));
#1478=CARTESIAN_POINT('',(85.,40.,0.));
#1479=CARTESIAN_POINT('',(85.,-40.,0.));
#1480=CARTESIAN_POINT('',(85.,-40.,0.));
#1481=CARTESIAN_POINT('',(85.,-40.,100.));
#1482=CARTESIAN_POINT('',(85.,-40.,0.));
#1483=CARTESIAN_POINT('',(85.,40.,100.));
#1484=CARTESIAN_POINT('',(85.,-40.,100.));
#1485=CARTESIAN_POINT('',(85.,40.,0.));
#1486=CARTESIAN_POINT('Origin',(85.,-40.,0.));
#1487=CARTESIAN_POINT('',(65.,-40.,0.));
#1488=CARTESIAN_POINT('',(65.,-40.,0.));
#1489=CARTESIAN_POINT('',(65.,-40.,100.));
#1490=CARTESIAN_POINT('',(65.,-40.,0.));
#1491=CARTESIAN_POINT('',(65.,-40.,100.));
#1492=CARTESIAN_POINT('Origin',(65.,-40.,0.));
#1493=CARTESIAN_POINT('',(65.,40.,0.));
#1494=CARTESIAN_POINT('',(65.,40.,0.));
#1495=CARTESIAN_POINT('',(65.,40.,100.));
#1496=CARTESIAN_POINT('',(65.,40.,0.));
#1497=CARTESIAN_POINT('',(65.,40.,100.));
#1498=CARTESIAN_POINT('Origin',(65.,40.,0.));
#1499=CARTESIAN_POINT('',(85.,40.,0.));
#1500=CARTESIAN_POINT('',(85.,40.,100.));
#1501=CARTESIAN_POINT('Origin',(0.,0.,0.));
#1502=CARTESIAN_POINT('Origin',(0.,0.,100.));
#1503=CARTESIAN_POINT('Origin',(0.,0.,100.));
#1504=CARTESIAN_POINT('',(-35.,-40.,100.));
#1505=CARTESIAN_POINT('',(-35.,40.,100.));
#1506=CARTESIAN_POINT('',(-35.,-40.,100.));
#1507=CARTESIAN_POINT('',(35.,40.,100.));
#1508=CARTESIAN_POINT('',(-35.,40.,100.));
#1509=CARTESIAN_POINT('',(35.,-40.,100.));
#1510=CARTESIAN_POINT('',(35.,40.,100.));
#1511=CARTESIAN_POINT('',(35.,-40.,100.));
#1512=CARTESIAN_POINT('Origin',(0.,0.,0.));
#1513=CARTESIAN_POINT('',(-35.,-40.,0.));
#1514=CARTESIAN_POINT('',(-35.,40.,0.));
#1515=CARTESIAN_POINT('',(-35.,-40.,0.));
#1516=CARTESIAN_POINT('',(35.,-40.,0.));
#1517=CARTESIAN_POINT('',(35.,-40.,0.));
#1518=CARTESIAN_POINT('',(35.,40.,0.));
#1519=CARTESIAN_POINT('',(35.,40.,0.));
#1520=CARTESIAN_POINT('',(-35.,40.,0.));
#1521=CARTESIAN_POINT('Origin',(-35.,-40.,0.));
#1522=CARTESIAN_POINT('',(-35.,40.,0.));
#1523=CARTESIAN_POINT('',(-35.,-40.,0.));
#1524=CARTESIAN_POINT('Origin',(35.,-40.,0.));
#1525=CARTESIAN_POINT('',(35.,-40.,0.));
#1526=CARTESIAN_POINT('Origin',(35.,40.,0.));
#1527=CARTESIAN_POINT('',(35.,40.,0.));
#1528=CARTESIAN_POINT('Origin',(-35.,40.,0.));
#1529=CARTESIAN_POINT('Origin',(100.,50.,0.));
#1530=CARTESIAN_POINT('',(-100.,50.,-5.));
#1531=CARTESIAN_POINT('',(-100.,50.,105.));
#1532=CARTESIAN_POINT('',(-100.,50.,0.));
#1533=CARTESIAN_POINT('',(100.,50.,105.));
#1534=CARTESIAN_POINT('',(100.,50.,105.));
#1535=CARTESIAN_POINT('',(100.,50.,-5.));
#1536=CARTESIAN_POINT('',(100.,50.,0.));
#1537=CARTESIAN_POINT('',(-100.,50.,-5.));
#1538=CARTESIAN_POINT('Origin',(-100.,50.,0.));
#1539=CARTESIAN_POINT('',(-100.,-50.,-5.));
#1540=CARTESIAN_POINT('',(-100.,-50.,105.));
#1541=CARTESIAN_POINT('',(-100.,-50.,0.));
#1542=CARTESIAN_POINT('',(-100.,50.,105.));
#1543=CARTESIAN_POINT('',(-100.,-50.,-5.));
#1544=CARTESIAN_POINT('Origin',(-100.,-50.,0.));
#1545=CARTESIAN_POINT('',(100.,-50.,-5.));
#1546=CARTESIAN_POINT('',(100.,-50.,105.));
#1547=CARTESIAN_POINT('',(100.,-50.,0.));
#1548=CARTESIAN_POINT('',(-100.,-50.,105.));
#1549=CARTESIAN_POINT('',(100.,-50.,-5.));
#1550=CARTESIAN_POINT('Origin',(100.,-50.,0.));
#1551=CARTESIAN_POINT('',(100.,-50.,105.));
#1552=CARTESIAN_POINT('',(100.,50.,-5.));
#1553=CARTESIAN_POINT('Origin',(0.,0.,-5.));
#1554=CARTESIAN_POINT('Origin',(0.,0.,105.));
#1555=CARTESIAN_POINT('Origin',(40.,-40.,0.));
#1556=CARTESIAN_POINT('',(60.,-40.,0.));
#1557=CARTESIAN_POINT('',(40.,-40.,0.));
#1558=CARTESIAN_POINT('',(60.,-40.,0.));
#1559=CARTESIAN_POINT('',(60.,-40.,100.));
#1560=CARTESIAN_POINT('',(60.,-40.,0.));
#1561=CARTESIAN_POINT('',(40.,-40.,100.));
#1562=CARTESIAN_POINT('',(60.,-40.,100.));
#1563=CARTESIAN_POINT('',(40.,-40.,0.));
#1564=CARTESIAN_POINT('Origin',(40.,40.,0.));
#1565=CARTESIAN_POINT('',(40.,40.,0.));
#1566=CARTESIAN_POINT('',(40.,-40.,0.));
#1567=CARTESIAN_POINT('',(40.,40.,100.));
#1568=CARTESIAN_POINT('',(40.,-40.,100.));
#1569=CARTESIAN_POINT('',(40.,40.,0.));
#1570=CARTESIAN_POINT('Origin',(60.,40.,0.));
#1571=CARTESIAN_POINT('',(60.,40.,0.));
#1572=CARTESIAN_POINT('',(40.,40.,0.));
#1573=CARTESIAN_POINT('',(60.,40.,100.));
#1574=CARTESIAN_POINT('',(40.,40.,100.));
#1575=CARTESIAN_POINT('',(60.,40.,0.));
#1576=CARTESIAN_POINT('Origin',(60.,-40.,0.));
#1577=CARTESIAN_POINT('',(60.,40.,0.));
#1578=CARTESIAN_POINT('',(60.,40.,100.));
#1579=CARTESIAN_POINT('Origin',(0.,0.,100.));
#1580=CARTESIAN_POINT('Origin',(0.,0.,0.));
#1581=CARTESIAN_POINT('Origin',(-60.,-40.,0.));
#1582=CARTESIAN_POINT('',(-40.,-40.,0.));
#1583=CARTESIAN_POINT('',(-60.,-40.,0.));
#1584=CARTESIAN_POINT('',(-40.,-40.,0.));
#1585=CARTESIAN_POINT('',(-40.,-40.,100.));
#1586=CARTESIAN_POINT('',(-40.,-40.,0.));
#1587=CARTESIAN_POINT('',(-60.,-40.,100.));
#1588=CARTESIAN_POINT('',(-40.,-40.,100.));
#1589=CARTESIAN_POINT('',(-60.,-40.,0.));
#1590=CARTESIAN_POINT('Origin',(-60.,40.,0.));
#1591=CARTESIAN_POINT('',(-60.,40.,0.));
#1592=CARTESIAN_POINT('',(-60.,-40.,0.));
#1593=CARTESIAN_POINT('',(-60.,40.,100.));
#1594=CARTESIAN_POINT('',(-60.,-40.,100.));
#1595=CARTESIAN_POINT('',(-60.,40.,0.));
#1596=CARTESIAN_POINT('Origin',(-40.,40.,0.));
#1597=CARTESIAN_POINT('',(-40.,40.,0.));
#1598=CARTESIAN_POINT('',(-60.,40.,0.));
#1599=CARTESIAN_POINT('',(-40.,40.,100.));
#1600=CARTESIAN_POINT('',(-60.,40.,100.));
#1601=CARTESIAN_POINT('',(-40.,40.,0.));
#1602=CARTESIAN_POINT('Origin',(-40.,-40.,0.));
#1603=CARTESIAN_POINT('',(-40.,40.,0.));
#1604=CARTESIAN_POINT('',(-40.,40.,100.));
#1605=CARTESIAN_POINT('Origin',(0.,0.,100.));
#1606=CARTESIAN_POINT('Origin',(0.,0.,0.));
#1607=CARTESIAN_POINT('Origin',(-85.,-40.,0.));
#1608=CARTESIAN_POINT('',(-65.,-40.,0.));
#1609=CARTESIAN_POINT('',(-85.,-40.,0.));
#1610=CARTESIAN_POINT('',(-65.,-40.,0.));
#1611=CARTESIAN_POINT('',(-65.,-40.,100.));
#1612=CARTESIAN_POINT('',(-65.,-40.,0.));
#1613=CARTESIAN_POINT('',(-85.,-40.,100.));
#1614=CARTESIAN_POINT('',(-65.,-40.,100.));
#1615=CARTESIAN_POINT('',(-85.,-40.,0.));
#1616=CARTESIAN_POINT('Origin',(-85.,40.,0.));
#1617=CARTESIAN_POINT('',(-85.,40.,0.));
#1618=CARTESIAN_POINT('',(-85.,-40.,0.));
#1619=CARTESIAN_POINT('',(-85.,40.,100.));
#1620=CARTESIAN_POINT('',(-85.,-40.,100.));
#1621=CARTESIAN_POINT('',(-85.,40.,0.));
#1622=CARTESIAN_POINT('Origin',(-65.,40.,0.));
#1623=CARTESIAN_POINT('',(-65.,40.,0.));
#1624=CARTESIAN_POINT('',(-85.,40.,0.));
#1625=CARTESIAN_POINT('',(-65.,40.,100.));
#1626=CARTESIAN_POINT('',(-85.,40.,100.));
#1627=CARTESIAN_POINT('',(-65.,40.,0.));
#1628=CARTESIAN_POINT('Origin',(-65.,-40.,0.));
#1629=CARTESIAN_POINT('',(-65.,40.,0.));
#1630=CARTESIAN_POINT('',(-65.,40.,100.));
#1631=CARTESIAN_POINT('Origin',(0.,0.,100.));
#1632=CARTESIAN_POINT('Origin',(0.,0.,0.));
#1633=CARTESIAN_POINT('Origin',(35.,40.,0.));
#1634=CARTESIAN_POINT('',(-35.,40.,0.));
#1635=CARTESIAN_POINT('',(35.,40.,0.));
#1636=CARTESIAN_POINT('',(-35.,40.,0.));
#1637=CARTESIAN_POINT('',(-35.,40.,100.));
#1638=CARTESIAN_POINT('',(-35.,40.,0.));
#1639=CARTESIAN_POINT('',(35.,40.,100.));
#1640=CARTESIAN_POINT('',(-35.,40.,100.));
#1641=CARTESIAN_POINT('',(35.,40.,0.));
#1642=CARTESIAN_POINT('Origin',(35.,-40.,0.));
#1643=CARTESIAN_POINT('',(35.,-40.,0.));
#1644=CARTESIAN_POINT('',(35.,40.,0.));
#1645=CARTESIAN_POINT('',(35.,-40.,100.));
#1646=CARTESIAN_POINT('',(35.,40.,100.));
#1647=CARTESIAN_POINT('',(35.,-40.,0.));
#1648=CARTESIAN_POINT('Origin',(-35.,-40.,0.));
#1649=CARTESIAN_POINT('',(-35.,-40.,0.));
#1650=CARTESIAN_POINT('',(35.,-40.,0.));
#1651=CARTESIAN_POINT('',(-35.,-40.,100.));
#1652=CARTESIAN_POINT('',(35.,-40.,100.));
#1653=CARTESIAN_POINT('',(-35.,-40.,0.));
#1654=CARTESIAN_POINT('Origin',(-35.,40.,0.));
#1655=CARTESIAN_POINT('',(-35.,-40.,0.));
#1656=CARTESIAN_POINT('',(-35.,-40.,100.));
#1657=CARTESIAN_POINT('Origin',(0.,0.,100.));
#1658=CARTESIAN_POINT('Origin',(0.,0.,0.));
#1659=CARTESIAN_POINT('Origin',(85.,-40.,0.));
#1660=CARTESIAN_POINT('',(85.,40.,0.));
#1661=CARTESIAN_POINT('',(85.,-40.,0.));
#1662=CARTESIAN_POINT('',(85.,-40.,0.));
#1663=CARTESIAN_POINT('',(85.,40.,100.));
#1664=CARTESIAN_POINT('',(85.,40.,0.));
#1665=CARTESIAN_POINT('',(85.,-40.,100.));
#1666=CARTESIAN_POINT('',(85.,-40.,100.));
#1667=CARTESIAN_POINT('',(85.,-40.,0.));
#1668=CARTESIAN_POINT('Origin',(65.,-40.,0.));
#1669=CARTESIAN_POINT('',(65.,-40.,0.));
#1670=CARTESIAN_POINT('',(65.,-40.,0.));
#1671=CARTESIAN_POINT('',(65.,-40.,100.));
#1672=CARTESIAN_POINT('',(65.,-40.,100.));
#1673=CARTESIAN_POINT('',(65.,-40.,0.));
#1674=CARTESIAN_POINT('Origin',(65.,40.,0.));
#1675=CARTESIAN_POINT('',(65.,40.,0.));
#1676=CARTESIAN_POINT('',(65.,40.,0.));
#1677=CARTESIAN_POINT('',(65.,40.,100.));
#1678=CARTESIAN_POINT('',(65.,40.,100.));
#1679=CARTESIAN_POINT('',(65.,40.,0.));
#1680=CARTESIAN_POINT('Origin',(85.,40.,0.));
#1681=CARTESIAN_POINT('',(85.,40.,0.));
#1682=CARTESIAN_POINT('',(85.,40.,100.));
#1683=CARTESIAN_POINT('Origin',(0.,0.,100.));
#1684=CARTESIAN_POINT('Origin',(0.,0.,0.));
#1685=UNCERTAINTY_MEASURE_WITH_UNIT(LENGTH_MEASURE(0.01),#1689,
'DISTANCE_ACCURACY_VALUE',
'Maximum model space distance between geometric entities at asserted c
onnectivities');
#1686=UNCERTAINTY_MEASURE_WITH_UNIT(LENGTH_MEASURE(0.01),#1689,
'DISTANCE_ACCURACY_VALUE',
'Maximum model space distance between geometric entities at asserted c
onnectivities');
#1687=(
GEOMETRIC_REPRESENTATION_CONTEXT(3)
GLOBAL_UNCERTAINTY_ASSIGNED_CONTEXT((#1685))
GLOBAL_UNIT_ASSIGNED_CONTEXT((#1689,#1691,#1692))
REPRESENTATION_CONTEXT('','3D')
);
#1688=(
GEOMETRIC_REPRESENTATION_CONTEXT(3)
GLOBAL_UNCERTAINTY_ASSIGNED_CONTEXT((#1686))
GLOBAL_UNIT_ASSIGNED_CONTEXT((#1689,#1691,#1692))
REPRESENTATION_CONTEXT('','3D')
);
#1689=(
LENGTH_UNIT()
NAMED_UNIT(*)
SI_UNIT(.MILLI.,.METRE.)
);
#1690=(
LENGTH_UNIT()
NAMED_UNIT(*)
SI_UNIT($,.METRE.)
);
#1691=(
NAMED_UNIT(*)
PLANE_ANGLE_UNIT()
SI_UNIT($,.RADIAN.)
);
#1692=(
NAMED_UNIT(*)
SI_UNIT($,.STERADIAN.)
SOLID_ANGLE_UNIT()
);
#1693=SHAPE_DEFINITION_REPRESENTATION(#1694,#1695);
#1694=PRODUCT_DEFINITION_SHAPE('',$,#1697);
#1695=SHAPE_REPRESENTATION('',(#1065),#1687);
#1696=PRODUCT_DEFINITION_CONTEXT('part definition',#1701,'design');
#1697=PRODUCT_DEFINITION('(Unsaved)','(Unsaved)',#1698,#1696);
#1698=PRODUCT_DEFINITION_FORMATION('',$,#1703);
#1699=PRODUCT_RELATED_PRODUCT_CATEGORY('(Unsaved)','(Unsaved)',(#1703));
#1700=APPLICATION_PROTOCOL_DEFINITION('international standard',
'automotive_design',2009,#1701);
#1701=APPLICATION_CONTEXT(
'Core Data for Automotive Mechanical Design Process');
#1702=PRODUCT_CONTEXT('part definition',#1701,'mechanical');
#1703=PRODUCT('(Unsaved)','(Unsaved)',$,(#1702));
#1704=PRESENTATION_STYLE_ASSIGNMENT((#1706));
#1705=PRESENTATION_STYLE_ASSIGNMENT((#1707));
#1706=SURFACE_STYLE_USAGE(.BOTH.,#1708);
#1707=SURFACE_STYLE_USAGE(.BOTH.,#1709);
#1708=SURFACE_SIDE_STYLE('',(#1710));
#1709=SURFACE_SIDE_STYLE('',(#1711));
#1710=SURFACE_STYLE_FILL_AREA(#1712);
#1711=SURFACE_STYLE_FILL_AREA(#1713);
#1712=FILL_AREA_STYLE('Steel - Satin',(#1714));
#1713=FILL_AREA_STYLE('Glass - Light Color (Blue)',(#1715));
#1714=FILL_AREA_STYLE_COLOUR('Steel - Satin',#1716);
#1715=FILL_AREA_STYLE_COLOUR('Glass - Light Color (Blue)',#1717);
#1716=COLOUR_RGB('Steel - Satin',0.627450980392157,0.627450980392157,0.627450980392157);
#1717=COLOUR_RGB('Glass - Light Color (Blue)',0.423529411764706,0.768627450980392,
0.854901960784314);
ENDSEC;
END-ISO-10303-21;
