ISO-10303-21;
HEADER;
/* Generated by software containing ST-Developer
 * from STEP Tools, Inc. (www.steptools.com) 
 */

FILE_DESCRIPTION(
/* description */ (''),
/* implementation_level */ '2;1');

FILE_NAME(
/* name */ 'Example.step',
/* time_stamp */ '2026-09-28T13:24:29+02:00',
/* author */ (''),
/* organization */ (''),
/* preprocessor_version */ 'ST-DEVELOPER v20.2',
/* originating_system */ 'Autodesk Translation Framework v15.15.0.0',
/* authorisation */ '');

FILE_SCHEMA (('AUTOMOTIVE_DESIGN { 1 0 10303 214 3 1 1 }'));
ENDSEC;

DATA;
#10=MECHANICAL_DESIGN_GEOMETRIC_PRESENTATION_REPRESENTATION('',(#22,#23,
#24,#25,#26,#27,#28,#29,#30,#31),#1692);
#11=SHAPE_REPRESENTATION_RELATIONSHIP('SRR','None',#1699,#12);
#12=ADVANCED_BREP_SHAPE_REPRESENTATION('',(#1056,#13,#14,#15,#16,#17,#18,
#19,#20,#21),#1691);
#13=MANIFOLD_SOLID_BREP('Body2',#1047);
#14=MANIFOLD_SOLID_BREP('Body3',#1048);
#15=MANIFOLD_SOLID_BREP('Body4',#1049);
#16=MANIFOLD_SOLID_BREP('Body5',#1050);
#17=MANIFOLD_SOLID_BREP('Body6',#1051);
#18=MANIFOLD_SOLID_BREP('Body7',#1052);
#19=MANIFOLD_SOLID_BREP('Body8',#1053);
#20=MANIFOLD_SOLID_BREP('Body9',#1054);
#21=MANIFOLD_SOLID_BREP('Body10',#1055);
#22=STYLED_ITEM('',(#1708),#1056);
#23=STYLED_ITEM('',(#1708),#13);
#24=STYLED_ITEM('',(#1708),#14);
#25=STYLED_ITEM('',(#1708),#15);
#26=STYLED_ITEM('',(#1708),#16);
#27=STYLED_ITEM('',(#1708),#17);
#28=STYLED_ITEM('',(#1708),#18);
#29=STYLED_ITEM('',(#1708),#19);
#30=STYLED_ITEM('',(#1708),#20);
#31=STYLED_ITEM('',(#1708),#21);
#32=ORIENTED_CLOSED_SHELL('',*,#1045,.F.);
#33=FACE_OUTER_BOUND('',#99,.T.);
#34=FACE_OUTER_BOUND('',#100,.T.);
#35=FACE_OUTER_BOUND('',#101,.T.);
#36=FACE_OUTER_BOUND('',#102,.T.);
#37=FACE_OUTER_BOUND('',#103,.T.);
#38=FACE_OUTER_BOUND('',#104,.T.);
#39=FACE_OUTER_BOUND('',#105,.T.);
#40=FACE_OUTER_BOUND('',#106,.T.);
#41=FACE_OUTER_BOUND('',#107,.T.);
#42=FACE_OUTER_BOUND('',#108,.T.);
#43=FACE_OUTER_BOUND('',#109,.T.);
#44=FACE_OUTER_BOUND('',#110,.T.);
#45=FACE_OUTER_BOUND('',#111,.T.);
#46=FACE_OUTER_BOUND('',#112,.T.);
#47=FACE_OUTER_BOUND('',#113,.T.);
#48=FACE_OUTER_BOUND('',#114,.T.);
#49=FACE_OUTER_BOUND('',#115,.T.);
#50=FACE_OUTER_BOUND('',#116,.T.);
#51=FACE_OUTER_BOUND('',#117,.T.);
#52=FACE_OUTER_BOUND('',#118,.T.);
#53=FACE_OUTER_BOUND('',#119,.T.);
#54=FACE_OUTER_BOUND('',#120,.T.);
#55=FACE_OUTER_BOUND('',#121,.T.);
#56=FACE_OUTER_BOUND('',#122,.T.);
#57=FACE_OUTER_BOUND('',#123,.T.);
#58=FACE_OUTER_BOUND('',#124,.T.);
#59=FACE_OUTER_BOUND('',#125,.T.);
#60=FACE_OUTER_BOUND('',#126,.T.);
#61=FACE_OUTER_BOUND('',#127,.T.);
#62=FACE_OUTER_BOUND('',#128,.T.);
#63=FACE_OUTER_BOUND('',#129,.T.);
#64=FACE_OUTER_BOUND('',#130,.T.);
#65=FACE_OUTER_BOUND('',#131,.T.);
#66=FACE_OUTER_BOUND('',#132,.T.);
#67=FACE_OUTER_BOUND('',#133,.T.);
#68=FACE_OUTER_BOUND('',#134,.T.);
#69=FACE_OUTER_BOUND('',#135,.T.);
#70=FACE_OUTER_BOUND('',#136,.T.);
#71=FACE_OUTER_BOUND('',#137,.T.);
#72=FACE_OUTER_BOUND('',#138,.T.);
#73=FACE_OUTER_BOUND('',#139,.T.);
#74=FACE_OUTER_BOUND('',#140,.T.);
#75=FACE_OUTER_BOUND('',#141,.T.);
#76=FACE_OUTER_BOUND('',#142,.T.);
#77=FACE_OUTER_BOUND('',#143,.T.);
#78=FACE_OUTER_BOUND('',#144,.T.);
#79=FACE_OUTER_BOUND('',#145,.T.);
#80=FACE_OUTER_BOUND('',#146,.T.);
#81=FACE_OUTER_BOUND('',#147,.T.);
#82=FACE_OUTER_BOUND('',#148,.T.);
#83=FACE_OUTER_BOUND('',#149,.T.);
#84=FACE_OUTER_BOUND('',#150,.T.);
#85=FACE_OUTER_BOUND('',#151,.T.);
#86=FACE_OUTER_BOUND('',#152,.T.);
#87=FACE_OUTER_BOUND('',#153,.T.);
#88=FACE_OUTER_BOUND('',#154,.T.);
#89=FACE_OUTER_BOUND('',#155,.T.);
#90=FACE_OUTER_BOUND('',#156,.T.);
#91=FACE_OUTER_BOUND('',#157,.T.);
#92=FACE_OUTER_BOUND('',#158,.T.);
#93=FACE_OUTER_BOUND('',#159,.T.);
#94=FACE_OUTER_BOUND('',#160,.T.);
#95=FACE_OUTER_BOUND('',#161,.T.);
#96=FACE_OUTER_BOUND('',#162,.T.);
#97=FACE_OUTER_BOUND('',#163,.T.);
#98=FACE_OUTER_BOUND('',#164,.T.);
#99=EDGE_LOOP('',(#649,#650,#651,#652));
#100=EDGE_LOOP('',(#653,#654,#655,#656));
#101=EDGE_LOOP('',(#657,#658,#659,#660));
#102=EDGE_LOOP('',(#661,#662,#663,#664));
#103=EDGE_LOOP('',(#665,#666,#667,#668));
#104=EDGE_LOOP('',(#669,#670,#671,#672));
#105=EDGE_LOOP('',(#673,#674,#675,#676));
#106=EDGE_LOOP('',(#677,#678,#679,#680));
#107=EDGE_LOOP('',(#681,#682,#683,#684));
#108=EDGE_LOOP('',(#685,#686,#687,#688));
#109=EDGE_LOOP('',(#689,#690,#691,#692));
#110=EDGE_LOOP('',(#693,#694,#695,#696));
#111=EDGE_LOOP('',(#697,#698,#699,#700));
#112=EDGE_LOOP('',(#701,#702,#703,#704));
#113=EDGE_LOOP('',(#705,#706,#707,#708));
#114=EDGE_LOOP('',(#709,#710,#711,#712));
#115=EDGE_LOOP('',(#713,#714,#715,#716));
#116=EDGE_LOOP('',(#717,#718,#719,#720));
#117=EDGE_LOOP('',(#721,#722,#723,#724));
#118=EDGE_LOOP('',(#725,#726,#727,#728));
#119=EDGE_LOOP('',(#729,#730,#731,#732));
#120=EDGE_LOOP('',(#733,#734,#735,#736));
#121=EDGE_LOOP('',(#737,#738,#739,#740));
#122=EDGE_LOOP('',(#741,#742,#743,#744));
#123=EDGE_LOOP('',(#745,#746,#747,#748));
#124=EDGE_LOOP('',(#749,#750,#751,#752));
#125=EDGE_LOOP('',(#753,#754,#755,#756));
#126=EDGE_LOOP('',(#757,#758,#759,#760));
#127=EDGE_LOOP('',(#761,#762,#763,#764));
#128=EDGE_LOOP('',(#765,#766,#767,#768));
#129=EDGE_LOOP('',(#769,#770,#771,#772));
#130=EDGE_LOOP('',(#773,#774,#775,#776));
#131=EDGE_LOOP('',(#777,#778,#779,#780));
#132=EDGE_LOOP('',(#781,#782,#783,#784));
#133=EDGE_LOOP('',(#785,#786,#787,#788));
#134=EDGE_LOOP('',(#789,#790,#791,#792));
#135=EDGE_LOOP('',(#793,#794,#795,#796));
#136=EDGE_LOOP('',(#797,#798,#799,#800));
#137=EDGE_LOOP('',(#801,#802,#803,#804));
#138=EDGE_LOOP('',(#805,#806,#807,#808));
#139=EDGE_LOOP('',(#809,#810,#811,#812));
#140=EDGE_LOOP('',(#813,#814,#815,#816));
#141=EDGE_LOOP('',(#817,#818,#819,#820));
#142=EDGE_LOOP('',(#821,#822,#823,#824));
#143=EDGE_LOOP('',(#825,#826,#827,#828));
#144=EDGE_LOOP('',(#829,#830,#831,#832));
#145=EDGE_LOOP('',(#833,#834,#835,#836));
#146=EDGE_LOOP('',(#837,#838,#839,#840));
#147=EDGE_LOOP('',(#841,#842,#843,#844));
#148=EDGE_LOOP('',(#845,#846,#847,#848));
#149=EDGE_LOOP('',(#849,#850,#851,#852));
#150=EDGE_LOOP('',(#853,#854,#855,#856));
#151=EDGE_LOOP('',(#857,#858,#859,#860));
#152=EDGE_LOOP('',(#861,#862,#863,#864));
#153=EDGE_LOOP('',(#865,#866,#867,#868));
#154=EDGE_LOOP('',(#869,#870,#871,#872));
#155=EDGE_LOOP('',(#873,#874,#875,#876));
#156=EDGE_LOOP('',(#877,#878,#879,#880));
#157=EDGE_LOOP('',(#881,#882,#883,#884));
#158=EDGE_LOOP('',(#885,#886,#887,#888));
#159=EDGE_LOOP('',(#889,#890,#891,#892));
#160=EDGE_LOOP('',(#893,#894,#895,#896));
#161=EDGE_LOOP('',(#897,#898,#899,#900));
#162=EDGE_LOOP('',(#901,#902,#903,#904));
#163=EDGE_LOOP('',(#905,#906,#907,#908));
#164=EDGE_LOOP('',(#909,#910,#911,#912));
#165=LINE('',#1406,#297);
#166=LINE('',#1408,#298);
#167=LINE('',#1410,#299);
#168=LINE('',#1411,#300);
#169=LINE('',#1415,#301);
#170=LINE('',#1417,#302);
#171=LINE('',#1419,#303);
#172=LINE('',#1420,#304);
#173=LINE('',#1422,#305);
#174=LINE('',#1423,#306);
#175=LINE('',#1425,#307);
#176=LINE('',#1427,#308);
#177=LINE('',#1432,#309);
#178=LINE('',#1434,#310);
#179=LINE('',#1436,#311);
#180=LINE('',#1437,#312);
#181=LINE('',#1441,#313);
#182=LINE('',#1442,#314);
#183=LINE('',#1443,#315);
#184=LINE('',#1447,#316);
#185=LINE('',#1448,#317);
#186=LINE('',#1449,#318);
#187=LINE('',#1451,#319);
#188=LINE('',#1452,#320);
#189=LINE('',#1458,#321);
#190=LINE('',#1460,#322);
#191=LINE('',#1462,#323);
#192=LINE('',#1463,#324);
#193=LINE('',#1466,#325);
#194=LINE('',#1468,#326);
#195=LINE('',#1469,#327);
#196=LINE('',#1472,#328);
#197=LINE('',#1474,#329);
#198=LINE('',#1475,#330);
#199=LINE('',#1477,#331);
#200=LINE('',#1478,#332);
#201=LINE('',#1484,#333);
#202=LINE('',#1486,#334);
#203=LINE('',#1488,#335);
#204=LINE('',#1489,#336);
#205=LINE('',#1492,#337);
#206=LINE('',#1494,#338);
#207=LINE('',#1495,#339);
#208=LINE('',#1498,#340);
#209=LINE('',#1500,#341);
#210=LINE('',#1501,#342);
#211=LINE('',#1503,#343);
#212=LINE('',#1504,#344);
#213=LINE('',#1510,#345);
#214=LINE('',#1512,#346);
#215=LINE('',#1514,#347);
#216=LINE('',#1515,#348);
#217=LINE('',#1518,#349);
#218=LINE('',#1520,#350);
#219=LINE('',#1521,#351);
#220=LINE('',#1524,#352);
#221=LINE('',#1526,#353);
#222=LINE('',#1527,#354);
#223=LINE('',#1529,#355);
#224=LINE('',#1530,#356);
#225=LINE('',#1536,#357);
#226=LINE('',#1538,#358);
#227=LINE('',#1540,#359);
#228=LINE('',#1541,#360);
#229=LINE('',#1544,#361);
#230=LINE('',#1546,#362);
#231=LINE('',#1547,#363);
#232=LINE('',#1550,#364);
#233=LINE('',#1552,#365);
#234=LINE('',#1553,#366);
#235=LINE('',#1555,#367);
#236=LINE('',#1556,#368);
#237=LINE('',#1562,#369);
#238=LINE('',#1564,#370);
#239=LINE('',#1566,#371);
#240=LINE('',#1567,#372);
#241=LINE('',#1570,#373);
#242=LINE('',#1572,#374);
#243=LINE('',#1573,#375);
#244=LINE('',#1576,#376);
#245=LINE('',#1578,#377);
#246=LINE('',#1579,#378);
#247=LINE('',#1581,#379);
#248=LINE('',#1582,#380);
#249=LINE('',#1588,#381);
#250=LINE('',#1590,#382);
#251=LINE('',#1592,#383);
#252=LINE('',#1593,#384);
#253=LINE('',#1596,#385);
#254=LINE('',#1598,#386);
#255=LINE('',#1599,#387);
#256=LINE('',#1602,#388);
#257=LINE('',#1604,#389);
#258=LINE('',#1605,#390);
#259=LINE('',#1607,#391);
#260=LINE('',#1608,#392);
#261=LINE('',#1614,#393);
#262=LINE('',#1616,#394);
#263=LINE('',#1618,#395);
#264=LINE('',#1619,#396);
#265=LINE('',#1622,#397);
#266=LINE('',#1624,#398);
#267=LINE('',#1625,#399);
#268=LINE('',#1628,#400);
#269=LINE('',#1630,#401);
#270=LINE('',#1631,#402);
#271=LINE('',#1633,#403);
#272=LINE('',#1634,#404);
#273=LINE('',#1640,#405);
#274=LINE('',#1642,#406);
#275=LINE('',#1644,#407);
#276=LINE('',#1645,#408);
#277=LINE('',#1648,#409);
#278=LINE('',#1650,#410);
#279=LINE('',#1651,#411);
#280=LINE('',#1654,#412);
#281=LINE('',#1656,#413);
#282=LINE('',#1657,#414);
#283=LINE('',#1659,#415);
#284=LINE('',#1660,#416);
#285=LINE('',#1666,#417);
#286=LINE('',#1668,#418);
#287=LINE('',#1670,#419);
#288=LINE('',#1671,#420);
#289=LINE('',#1674,#421);
#290=LINE('',#1676,#422);
#291=LINE('',#1677,#423);
#292=LINE('',#1680,#424);
#293=LINE('',#1682,#425);
#294=LINE('',#1683,#426);
#295=LINE('',#1685,#427);
#296=LINE('',#1686,#428);
#297=VECTOR('',#1140,10.);
#298=VECTOR('',#1141,10.);
#299=VECTOR('',#1142,10.);
#300=VECTOR('',#1143,10.);
#301=VECTOR('',#1146,10.);
#302=VECTOR('',#1147,10.);
#303=VECTOR('',#1148,10.);
#304=VECTOR('',#1149,10.);
#305=VECTOR('',#1152,10.);
#306=VECTOR('',#1153,10.);
#307=VECTOR('',#1156,10.);
#308=VECTOR('',#1159,10.);
#309=VECTOR('',#1164,10.);
#310=VECTOR('',#1165,10.);
#311=VECTOR('',#1166,10.);
#312=VECTOR('',#1167,10.);
#313=VECTOR('',#1170,10.);
#314=VECTOR('',#1171,10.);
#315=VECTOR('',#1172,10.);
#316=VECTOR('',#1175,10.);
#317=VECTOR('',#1176,10.);
#318=VECTOR('',#1177,10.);
#319=VECTOR('',#1180,10.);
#320=VECTOR('',#1181,10.);
#321=VECTOR('',#1188,10.);
#322=VECTOR('',#1189,10.);
#323=VECTOR('',#1190,10.);
#324=VECTOR('',#1191,10.);
#325=VECTOR('',#1194,10.);
#326=VECTOR('',#1195,10.);
#327=VECTOR('',#1196,10.);
#328=VECTOR('',#1199,10.);
#329=VECTOR('',#1200,10.);
#330=VECTOR('',#1201,10.);
#331=VECTOR('',#1204,10.);
#332=VECTOR('',#1205,10.);
#333=VECTOR('',#1212,10.);
#334=VECTOR('',#1213,10.);
#335=VECTOR('',#1214,10.);
#336=VECTOR('',#1215,10.);
#337=VECTOR('',#1218,10.);
#338=VECTOR('',#1219,10.);
#339=VECTOR('',#1220,10.);
#340=VECTOR('',#1223,10.);
#341=VECTOR('',#1224,10.);
#342=VECTOR('',#1225,10.);
#343=VECTOR('',#1228,10.);
#344=VECTOR('',#1229,10.);
#345=VECTOR('',#1236,10.);
#346=VECTOR('',#1237,10.);
#347=VECTOR('',#1238,10.);
#348=VECTOR('',#1239,10.);
#349=VECTOR('',#1242,10.);
#350=VECTOR('',#1243,10.);
#351=VECTOR('',#1244,10.);
#352=VECTOR('',#1247,10.);
#353=VECTOR('',#1248,10.);
#354=VECTOR('',#1249,10.);
#355=VECTOR('',#1252,10.);
#356=VECTOR('',#1253,10.);
#357=VECTOR('',#1260,10.);
#358=VECTOR('',#1261,10.);
#359=VECTOR('',#1262,10.);
#360=VECTOR('',#1263,10.);
#361=VECTOR('',#1266,10.);
#362=VECTOR('',#1267,10.);
#363=VECTOR('',#1268,10.);
#364=VECTOR('',#1271,10.);
#365=VECTOR('',#1272,10.);
#366=VECTOR('',#1273,10.);
#367=VECTOR('',#1276,10.);
#368=VECTOR('',#1277,10.);
#369=VECTOR('',#1284,10.);
#370=VECTOR('',#1285,10.);
#371=VECTOR('',#1286,10.);
#372=VECTOR('',#1287,10.);
#373=VECTOR('',#1290,10.);
#374=VECTOR('',#1291,10.);
#375=VECTOR('',#1292,10.);
#376=VECTOR('',#1295,10.);
#377=VECTOR('',#1296,10.);
#378=VECTOR('',#1297,10.);
#379=VECTOR('',#1300,10.);
#380=VECTOR('',#1301,10.);
#381=VECTOR('',#1308,10.);
#382=VECTOR('',#1309,10.);
#383=VECTOR('',#1310,10.);
#384=VECTOR('',#1311,10.);
#385=VECTOR('',#1314,10.);
#386=VECTOR('',#1315,10.);
#387=VECTOR('',#1316,10.);
#388=VECTOR('',#1319,10.);
#389=VECTOR('',#1320,10.);
#390=VECTOR('',#1321,10.);
#391=VECTOR('',#1324,10.);
#392=VECTOR('',#1325,10.);
#393=VECTOR('',#1332,10.);
#394=VECTOR('',#1333,10.);
#395=VECTOR('',#1334,10.);
#396=VECTOR('',#1335,10.);
#397=VECTOR('',#1338,10.);
#398=VECTOR('',#1339,10.);
#399=VECTOR('',#1340,10.);
#400=VECTOR('',#1343,10.);
#401=VECTOR('',#1344,10.);
#402=VECTOR('',#1345,10.);
#403=VECTOR('',#1348,10.);
#404=VECTOR('',#1349,10.);
#405=VECTOR('',#1356,10.);
#406=VECTOR('',#1357,10.);
#407=VECTOR('',#1358,10.);
#408=VECTOR('',#1359,10.);
#409=VECTOR('',#1362,10.);
#410=VECTOR('',#1363,10.);
#411=VECTOR('',#1364,10.);
#412=VECTOR('',#1367,10.);
#413=VECTOR('',#1368,10.);
#414=VECTOR('',#1369,10.);
#415=VECTOR('',#1372,10.);
#416=VECTOR('',#1373,10.);
#417=VECTOR('',#1380,10.);
#418=VECTOR('',#1381,10.);
#419=VECTOR('',#1382,10.);
#420=VECTOR('',#1383,10.);
#421=VECTOR('',#1386,10.);
#422=VECTOR('',#1387,10.);
#423=VECTOR('',#1388,10.);
#424=VECTOR('',#1391,10.);
#425=VECTOR('',#1392,10.);
#426=VECTOR('',#1393,10.);
#427=VECTOR('',#1396,10.);
#428=VECTOR('',#1397,10.);
#429=VERTEX_POINT('',#1404);
#430=VERTEX_POINT('',#1405);
#431=VERTEX_POINT('',#1407);
#432=VERTEX_POINT('',#1409);
#433=VERTEX_POINT('',#1413);
#434=VERTEX_POINT('',#1414);
#435=VERTEX_POINT('',#1416);
#436=VERTEX_POINT('',#1418);
#437=VERTEX_POINT('',#1430);
#438=VERTEX_POINT('',#1431);
#439=VERTEX_POINT('',#1433);
#440=VERTEX_POINT('',#1435);
#441=VERTEX_POINT('',#1439);
#442=VERTEX_POINT('',#1440);
#443=VERTEX_POINT('',#1445);
#444=VERTEX_POINT('',#1446);
#445=VERTEX_POINT('',#1456);
#446=VERTEX_POINT('',#1457);
#447=VERTEX_POINT('',#1459);
#448=VERTEX_POINT('',#1461);
#449=VERTEX_POINT('',#1465);
#450=VERTEX_POINT('',#1467);
#451=VERTEX_POINT('',#1471);
#452=VERTEX_POINT('',#1473);
#453=VERTEX_POINT('',#1482);
#454=VERTEX_POINT('',#1483);
#455=VERTEX_POINT('',#1485);
#456=VERTEX_POINT('',#1487);
#457=VERTEX_POINT('',#1491);
#458=VERTEX_POINT('',#1493);
#459=VERTEX_POINT('',#1497);
#460=VERTEX_POINT('',#1499);
#461=VERTEX_POINT('',#1508);
#462=VERTEX_POINT('',#1509);
#463=VERTEX_POINT('',#1511);
#464=VERTEX_POINT('',#1513);
#465=VERTEX_POINT('',#1517);
#466=VERTEX_POINT('',#1519);
#467=VERTEX_POINT('',#1523);
#468=VERTEX_POINT('',#1525);
#469=VERTEX_POINT('',#1534);
#470=VERTEX_POINT('',#1535);
#471=VERTEX_POINT('',#1537);
#472=VERTEX_POINT('',#1539);
#473=VERTEX_POINT('',#1543);
#474=VERTEX_POINT('',#1545);
#475=VERTEX_POINT('',#1549);
#476=VERTEX_POINT('',#1551);
#477=VERTEX_POINT('',#1560);
#478=VERTEX_POINT('',#1561);
#479=VERTEX_POINT('',#1563);
#480=VERTEX_POINT('',#1565);
#481=VERTEX_POINT('',#1569);
#482=VERTEX_POINT('',#1571);
#483=VERTEX_POINT('',#1575);
#484=VERTEX_POINT('',#1577);
#485=VERTEX_POINT('',#1586);
#486=VERTEX_POINT('',#1587);
#487=VERTEX_POINT('',#1589);
#488=VERTEX_POINT('',#1591);
#489=VERTEX_POINT('',#1595);
#490=VERTEX_POINT('',#1597);
#491=VERTEX_POINT('',#1601);
#492=VERTEX_POINT('',#1603);
#493=VERTEX_POINT('',#1612);
#494=VERTEX_POINT('',#1613);
#495=VERTEX_POINT('',#1615);
#496=VERTEX_POINT('',#1617);
#497=VERTEX_POINT('',#1621);
#498=VERTEX_POINT('',#1623);
#499=VERTEX_POINT('',#1627);
#500=VERTEX_POINT('',#1629);
#501=VERTEX_POINT('',#1638);
#502=VERTEX_POINT('',#1639);
#503=VERTEX_POINT('',#1641);
#504=VERTEX_POINT('',#1643);
#505=VERTEX_POINT('',#1647);
#506=VERTEX_POINT('',#1649);
#507=VERTEX_POINT('',#1653);
#508=VERTEX_POINT('',#1655);
#509=VERTEX_POINT('',#1664);
#510=VERTEX_POINT('',#1665);
#511=VERTEX_POINT('',#1667);
#512=VERTEX_POINT('',#1669);
#513=VERTEX_POINT('',#1673);
#514=VERTEX_POINT('',#1675);
#515=VERTEX_POINT('',#1679);
#516=VERTEX_POINT('',#1681);
#517=EDGE_CURVE('',#429,#430,#165,.T.);
#518=EDGE_CURVE('',#430,#431,#166,.T.);
#519=EDGE_CURVE('',#431,#432,#167,.T.);
#520=EDGE_CURVE('',#432,#429,#168,.T.);
#521=EDGE_CURVE('',#433,#434,#169,.T.);
#522=EDGE_CURVE('',#434,#435,#170,.T.);
#523=EDGE_CURVE('',#435,#436,#171,.T.);
#524=EDGE_CURVE('',#436,#433,#172,.T.);
#525=EDGE_CURVE('',#429,#434,#173,.T.);
#526=EDGE_CURVE('',#430,#433,#174,.T.);
#527=EDGE_CURVE('',#431,#436,#175,.T.);
#528=EDGE_CURVE('',#432,#435,#176,.T.);
#529=EDGE_CURVE('',#437,#438,#177,.T.);
#530=EDGE_CURVE('',#439,#438,#178,.T.);
#531=EDGE_CURVE('',#439,#440,#179,.T.);
#532=EDGE_CURVE('',#437,#440,#180,.T.);
#533=EDGE_CURVE('',#441,#442,#181,.T.);
#534=EDGE_CURVE('',#438,#441,#182,.T.);
#535=EDGE_CURVE('',#442,#437,#183,.T.);
#536=EDGE_CURVE('',#443,#444,#184,.T.);
#537=EDGE_CURVE('',#441,#443,#185,.T.);
#538=EDGE_CURVE('',#444,#442,#186,.T.);
#539=EDGE_CURVE('',#443,#439,#187,.T.);
#540=EDGE_CURVE('',#440,#444,#188,.T.);
#541=EDGE_CURVE('',#445,#446,#189,.T.);
#542=EDGE_CURVE('',#445,#447,#190,.T.);
#543=EDGE_CURVE('',#448,#447,#191,.T.);
#544=EDGE_CURVE('',#446,#448,#192,.T.);
#545=EDGE_CURVE('',#446,#449,#193,.T.);
#546=EDGE_CURVE('',#450,#448,#194,.T.);
#547=EDGE_CURVE('',#449,#450,#195,.T.);
#548=EDGE_CURVE('',#449,#451,#196,.T.);
#549=EDGE_CURVE('',#452,#450,#197,.T.);
#550=EDGE_CURVE('',#451,#452,#198,.T.);
#551=EDGE_CURVE('',#451,#445,#199,.T.);
#552=EDGE_CURVE('',#447,#452,#200,.T.);
#553=EDGE_CURVE('',#453,#454,#201,.T.);
#554=EDGE_CURVE('',#454,#455,#202,.T.);
#555=EDGE_CURVE('',#456,#455,#203,.T.);
#556=EDGE_CURVE('',#453,#456,#204,.T.);
#557=EDGE_CURVE('',#457,#453,#205,.T.);
#558=EDGE_CURVE('',#458,#456,#206,.T.);
#559=EDGE_CURVE('',#457,#458,#207,.T.);
#560=EDGE_CURVE('',#459,#457,#208,.T.);
#561=EDGE_CURVE('',#460,#458,#209,.T.);
#562=EDGE_CURVE('',#459,#460,#210,.T.);
#563=EDGE_CURVE('',#454,#459,#211,.T.);
#564=EDGE_CURVE('',#455,#460,#212,.T.);
#565=EDGE_CURVE('',#461,#462,#213,.T.);
#566=EDGE_CURVE('',#461,#463,#214,.T.);
#567=EDGE_CURVE('',#464,#463,#215,.T.);
#568=EDGE_CURVE('',#462,#464,#216,.T.);
#569=EDGE_CURVE('',#462,#465,#217,.T.);
#570=EDGE_CURVE('',#466,#464,#218,.T.);
#571=EDGE_CURVE('',#465,#466,#219,.T.);
#572=EDGE_CURVE('',#465,#467,#220,.T.);
#573=EDGE_CURVE('',#468,#466,#221,.T.);
#574=EDGE_CURVE('',#467,#468,#222,.T.);
#575=EDGE_CURVE('',#467,#461,#223,.T.);
#576=EDGE_CURVE('',#463,#468,#224,.T.);
#577=EDGE_CURVE('',#469,#470,#225,.T.);
#578=EDGE_CURVE('',#470,#471,#226,.T.);
#579=EDGE_CURVE('',#472,#471,#227,.T.);
#580=EDGE_CURVE('',#469,#472,#228,.T.);
#581=EDGE_CURVE('',#473,#469,#229,.T.);
#582=EDGE_CURVE('',#474,#472,#230,.T.);
#583=EDGE_CURVE('',#473,#474,#231,.T.);
#584=EDGE_CURVE('',#475,#473,#232,.T.);
#585=EDGE_CURVE('',#476,#474,#233,.T.);
#586=EDGE_CURVE('',#475,#476,#234,.T.);
#587=EDGE_CURVE('',#470,#475,#235,.T.);
#588=EDGE_CURVE('',#471,#476,#236,.T.);
#589=EDGE_CURVE('',#477,#478,#237,.T.);
#590=EDGE_CURVE('',#477,#479,#238,.T.);
#591=EDGE_CURVE('',#480,#479,#239,.T.);
#592=EDGE_CURVE('',#478,#480,#240,.T.);
#593=EDGE_CURVE('',#481,#478,#241,.T.);
#594=EDGE_CURVE('',#482,#480,#242,.T.);
#595=EDGE_CURVE('',#481,#482,#243,.T.);
#596=EDGE_CURVE('',#483,#481,#244,.T.);
#597=EDGE_CURVE('',#484,#482,#245,.T.);
#598=EDGE_CURVE('',#483,#484,#246,.T.);
#599=EDGE_CURVE('',#477,#483,#247,.T.);
#600=EDGE_CURVE('',#479,#484,#248,.T.);
#601=EDGE_CURVE('',#485,#486,#249,.T.);
#602=EDGE_CURVE('',#486,#487,#250,.T.);
#603=EDGE_CURVE('',#488,#487,#251,.T.);
#604=EDGE_CURVE('',#485,#488,#252,.T.);
#605=EDGE_CURVE('',#489,#485,#253,.T.);
#606=EDGE_CURVE('',#490,#488,#254,.T.);
#607=EDGE_CURVE('',#489,#490,#255,.T.);
#608=EDGE_CURVE('',#491,#489,#256,.T.);
#609=EDGE_CURVE('',#492,#490,#257,.T.);
#610=EDGE_CURVE('',#491,#492,#258,.T.);
#611=EDGE_CURVE('',#486,#491,#259,.T.);
#612=EDGE_CURVE('',#487,#492,#260,.T.);
#613=EDGE_CURVE('',#493,#494,#261,.T.);
#614=EDGE_CURVE('',#493,#495,#262,.T.);
#615=EDGE_CURVE('',#496,#495,#263,.T.);
#616=EDGE_CURVE('',#494,#496,#264,.T.);
#617=EDGE_CURVE('',#497,#494,#265,.T.);
#618=EDGE_CURVE('',#498,#496,#266,.T.);
#619=EDGE_CURVE('',#497,#498,#267,.T.);
#620=EDGE_CURVE('',#497,#499,#268,.T.);
#621=EDGE_CURVE('',#500,#498,#269,.T.);
#622=EDGE_CURVE('',#499,#500,#270,.T.);
#623=EDGE_CURVE('',#493,#499,#271,.T.);
#624=EDGE_CURVE('',#495,#500,#272,.T.);
#625=EDGE_CURVE('',#501,#502,#273,.T.);
#626=EDGE_CURVE('',#502,#503,#274,.T.);
#627=EDGE_CURVE('',#504,#503,#275,.T.);
#628=EDGE_CURVE('',#501,#504,#276,.T.);
#629=EDGE_CURVE('',#505,#501,#277,.T.);
#630=EDGE_CURVE('',#506,#504,#278,.T.);
#631=EDGE_CURVE('',#505,#506,#279,.T.);
#632=EDGE_CURVE('',#507,#505,#280,.T.);
#633=EDGE_CURVE('',#508,#506,#281,.T.);
#634=EDGE_CURVE('',#507,#508,#282,.T.);
#635=EDGE_CURVE('',#502,#507,#283,.T.);
#636=EDGE_CURVE('',#503,#508,#284,.T.);
#637=EDGE_CURVE('',#509,#510,#285,.T.);
#638=EDGE_CURVE('',#510,#511,#286,.T.);
#639=EDGE_CURVE('',#512,#511,#287,.T.);
#640=EDGE_CURVE('',#509,#512,#288,.T.);
#641=EDGE_CURVE('',#509,#513,#289,.T.);
#642=EDGE_CURVE('',#514,#512,#290,.T.);
#643=EDGE_CURVE('',#513,#514,#291,.T.);
#644=EDGE_CURVE('',#515,#513,#292,.T.);
#645=EDGE_CURVE('',#516,#514,#293,.T.);
#646=EDGE_CURVE('',#515,#516,#294,.T.);
#647=EDGE_CURVE('',#510,#515,#295,.T.);
#648=EDGE_CURVE('',#511,#516,#296,.T.);
#649=ORIENTED_EDGE('',*,*,#517,.T.);
#650=ORIENTED_EDGE('',*,*,#518,.T.);
#651=ORIENTED_EDGE('',*,*,#519,.T.);
#652=ORIENTED_EDGE('',*,*,#520,.T.);
#653=ORIENTED_EDGE('',*,*,#521,.T.);
#654=ORIENTED_EDGE('',*,*,#522,.T.);
#655=ORIENTED_EDGE('',*,*,#523,.T.);
#656=ORIENTED_EDGE('',*,*,#524,.T.);
#657=ORIENTED_EDGE('',*,*,#517,.F.);
#658=ORIENTED_EDGE('',*,*,#525,.T.);
#659=ORIENTED_EDGE('',*,*,#521,.F.);
#660=ORIENTED_EDGE('',*,*,#526,.F.);
#661=ORIENTED_EDGE('',*,*,#518,.F.);
#662=ORIENTED_EDGE('',*,*,#526,.T.);
#663=ORIENTED_EDGE('',*,*,#524,.F.);
#664=ORIENTED_EDGE('',*,*,#527,.F.);
#665=ORIENTED_EDGE('',*,*,#519,.F.);
#666=ORIENTED_EDGE('',*,*,#527,.T.);
#667=ORIENTED_EDGE('',*,*,#523,.F.);
#668=ORIENTED_EDGE('',*,*,#528,.F.);
#669=ORIENTED_EDGE('',*,*,#520,.F.);
#670=ORIENTED_EDGE('',*,*,#528,.T.);
#671=ORIENTED_EDGE('',*,*,#522,.F.);
#672=ORIENTED_EDGE('',*,*,#525,.F.);
#673=ORIENTED_EDGE('',*,*,#529,.T.);
#674=ORIENTED_EDGE('',*,*,#530,.F.);
#675=ORIENTED_EDGE('',*,*,#531,.T.);
#676=ORIENTED_EDGE('',*,*,#532,.F.);
#677=ORIENTED_EDGE('',*,*,#533,.F.);
#678=ORIENTED_EDGE('',*,*,#534,.F.);
#679=ORIENTED_EDGE('',*,*,#529,.F.);
#680=ORIENTED_EDGE('',*,*,#535,.F.);
#681=ORIENTED_EDGE('',*,*,#536,.F.);
#682=ORIENTED_EDGE('',*,*,#537,.F.);
#683=ORIENTED_EDGE('',*,*,#533,.T.);
#684=ORIENTED_EDGE('',*,*,#538,.F.);
#685=ORIENTED_EDGE('',*,*,#531,.F.);
#686=ORIENTED_EDGE('',*,*,#539,.F.);
#687=ORIENTED_EDGE('',*,*,#536,.T.);
#688=ORIENTED_EDGE('',*,*,#540,.F.);
#689=ORIENTED_EDGE('',*,*,#539,.T.);
#690=ORIENTED_EDGE('',*,*,#530,.T.);
#691=ORIENTED_EDGE('',*,*,#534,.T.);
#692=ORIENTED_EDGE('',*,*,#537,.T.);
#693=ORIENTED_EDGE('',*,*,#535,.T.);
#694=ORIENTED_EDGE('',*,*,#532,.T.);
#695=ORIENTED_EDGE('',*,*,#540,.T.);
#696=ORIENTED_EDGE('',*,*,#538,.T.);
#697=ORIENTED_EDGE('',*,*,#541,.F.);
#698=ORIENTED_EDGE('',*,*,#542,.T.);
#699=ORIENTED_EDGE('',*,*,#543,.F.);
#700=ORIENTED_EDGE('',*,*,#544,.F.);
#701=ORIENTED_EDGE('',*,*,#545,.F.);
#702=ORIENTED_EDGE('',*,*,#544,.T.);
#703=ORIENTED_EDGE('',*,*,#546,.F.);
#704=ORIENTED_EDGE('',*,*,#547,.F.);
#705=ORIENTED_EDGE('',*,*,#548,.F.);
#706=ORIENTED_EDGE('',*,*,#547,.T.);
#707=ORIENTED_EDGE('',*,*,#549,.F.);
#708=ORIENTED_EDGE('',*,*,#550,.F.);
#709=ORIENTED_EDGE('',*,*,#551,.F.);
#710=ORIENTED_EDGE('',*,*,#550,.T.);
#711=ORIENTED_EDGE('',*,*,#552,.F.);
#712=ORIENTED_EDGE('',*,*,#542,.F.);
#713=ORIENTED_EDGE('',*,*,#552,.T.);
#714=ORIENTED_EDGE('',*,*,#549,.T.);
#715=ORIENTED_EDGE('',*,*,#546,.T.);
#716=ORIENTED_EDGE('',*,*,#543,.T.);
#717=ORIENTED_EDGE('',*,*,#551,.T.);
#718=ORIENTED_EDGE('',*,*,#541,.T.);
#719=ORIENTED_EDGE('',*,*,#545,.T.);
#720=ORIENTED_EDGE('',*,*,#548,.T.);
#721=ORIENTED_EDGE('',*,*,#553,.T.);
#722=ORIENTED_EDGE('',*,*,#554,.T.);
#723=ORIENTED_EDGE('',*,*,#555,.F.);
#724=ORIENTED_EDGE('',*,*,#556,.F.);
#725=ORIENTED_EDGE('',*,*,#557,.T.);
#726=ORIENTED_EDGE('',*,*,#556,.T.);
#727=ORIENTED_EDGE('',*,*,#558,.F.);
#728=ORIENTED_EDGE('',*,*,#559,.F.);
#729=ORIENTED_EDGE('',*,*,#560,.T.);
#730=ORIENTED_EDGE('',*,*,#559,.T.);
#731=ORIENTED_EDGE('',*,*,#561,.F.);
#732=ORIENTED_EDGE('',*,*,#562,.F.);
#733=ORIENTED_EDGE('',*,*,#563,.T.);
#734=ORIENTED_EDGE('',*,*,#562,.T.);
#735=ORIENTED_EDGE('',*,*,#564,.F.);
#736=ORIENTED_EDGE('',*,*,#554,.F.);
#737=ORIENTED_EDGE('',*,*,#564,.T.);
#738=ORIENTED_EDGE('',*,*,#561,.T.);
#739=ORIENTED_EDGE('',*,*,#558,.T.);
#740=ORIENTED_EDGE('',*,*,#555,.T.);
#741=ORIENTED_EDGE('',*,*,#563,.F.);
#742=ORIENTED_EDGE('',*,*,#553,.F.);
#743=ORIENTED_EDGE('',*,*,#557,.F.);
#744=ORIENTED_EDGE('',*,*,#560,.F.);
#745=ORIENTED_EDGE('',*,*,#565,.F.);
#746=ORIENTED_EDGE('',*,*,#566,.T.);
#747=ORIENTED_EDGE('',*,*,#567,.F.);
#748=ORIENTED_EDGE('',*,*,#568,.F.);
#749=ORIENTED_EDGE('',*,*,#569,.F.);
#750=ORIENTED_EDGE('',*,*,#568,.T.);
#751=ORIENTED_EDGE('',*,*,#570,.F.);
#752=ORIENTED_EDGE('',*,*,#571,.F.);
#753=ORIENTED_EDGE('',*,*,#572,.F.);
#754=ORIENTED_EDGE('',*,*,#571,.T.);
#755=ORIENTED_EDGE('',*,*,#573,.F.);
#756=ORIENTED_EDGE('',*,*,#574,.F.);
#757=ORIENTED_EDGE('',*,*,#575,.F.);
#758=ORIENTED_EDGE('',*,*,#574,.T.);
#759=ORIENTED_EDGE('',*,*,#576,.F.);
#760=ORIENTED_EDGE('',*,*,#566,.F.);
#761=ORIENTED_EDGE('',*,*,#576,.T.);
#762=ORIENTED_EDGE('',*,*,#573,.T.);
#763=ORIENTED_EDGE('',*,*,#570,.T.);
#764=ORIENTED_EDGE('',*,*,#567,.T.);
#765=ORIENTED_EDGE('',*,*,#575,.T.);
#766=ORIENTED_EDGE('',*,*,#565,.T.);
#767=ORIENTED_EDGE('',*,*,#569,.T.);
#768=ORIENTED_EDGE('',*,*,#572,.T.);
#769=ORIENTED_EDGE('',*,*,#577,.T.);
#770=ORIENTED_EDGE('',*,*,#578,.T.);
#771=ORIENTED_EDGE('',*,*,#579,.F.);
#772=ORIENTED_EDGE('',*,*,#580,.F.);
#773=ORIENTED_EDGE('',*,*,#581,.T.);
#774=ORIENTED_EDGE('',*,*,#580,.T.);
#775=ORIENTED_EDGE('',*,*,#582,.F.);
#776=ORIENTED_EDGE('',*,*,#583,.F.);
#777=ORIENTED_EDGE('',*,*,#584,.T.);
#778=ORIENTED_EDGE('',*,*,#583,.T.);
#779=ORIENTED_EDGE('',*,*,#585,.F.);
#780=ORIENTED_EDGE('',*,*,#586,.F.);
#781=ORIENTED_EDGE('',*,*,#587,.T.);
#782=ORIENTED_EDGE('',*,*,#586,.T.);
#783=ORIENTED_EDGE('',*,*,#588,.F.);
#784=ORIENTED_EDGE('',*,*,#578,.F.);
#785=ORIENTED_EDGE('',*,*,#588,.T.);
#786=ORIENTED_EDGE('',*,*,#585,.T.);
#787=ORIENTED_EDGE('',*,*,#582,.T.);
#788=ORIENTED_EDGE('',*,*,#579,.T.);
#789=ORIENTED_EDGE('',*,*,#587,.F.);
#790=ORIENTED_EDGE('',*,*,#577,.F.);
#791=ORIENTED_EDGE('',*,*,#581,.F.);
#792=ORIENTED_EDGE('',*,*,#584,.F.);
#793=ORIENTED_EDGE('',*,*,#589,.F.);
#794=ORIENTED_EDGE('',*,*,#590,.T.);
#795=ORIENTED_EDGE('',*,*,#591,.F.);
#796=ORIENTED_EDGE('',*,*,#592,.F.);
#797=ORIENTED_EDGE('',*,*,#593,.T.);
#798=ORIENTED_EDGE('',*,*,#592,.T.);
#799=ORIENTED_EDGE('',*,*,#594,.F.);
#800=ORIENTED_EDGE('',*,*,#595,.F.);
#801=ORIENTED_EDGE('',*,*,#596,.T.);
#802=ORIENTED_EDGE('',*,*,#595,.T.);
#803=ORIENTED_EDGE('',*,*,#597,.F.);
#804=ORIENTED_EDGE('',*,*,#598,.F.);
#805=ORIENTED_EDGE('',*,*,#599,.T.);
#806=ORIENTED_EDGE('',*,*,#598,.T.);
#807=ORIENTED_EDGE('',*,*,#600,.F.);
#808=ORIENTED_EDGE('',*,*,#590,.F.);
#809=ORIENTED_EDGE('',*,*,#600,.T.);
#810=ORIENTED_EDGE('',*,*,#597,.T.);
#811=ORIENTED_EDGE('',*,*,#594,.T.);
#812=ORIENTED_EDGE('',*,*,#591,.T.);
#813=ORIENTED_EDGE('',*,*,#599,.F.);
#814=ORIENTED_EDGE('',*,*,#589,.T.);
#815=ORIENTED_EDGE('',*,*,#593,.F.);
#816=ORIENTED_EDGE('',*,*,#596,.F.);
#817=ORIENTED_EDGE('',*,*,#601,.T.);
#818=ORIENTED_EDGE('',*,*,#602,.T.);
#819=ORIENTED_EDGE('',*,*,#603,.F.);
#820=ORIENTED_EDGE('',*,*,#604,.F.);
#821=ORIENTED_EDGE('',*,*,#605,.T.);
#822=ORIENTED_EDGE('',*,*,#604,.T.);
#823=ORIENTED_EDGE('',*,*,#606,.F.);
#824=ORIENTED_EDGE('',*,*,#607,.F.);
#825=ORIENTED_EDGE('',*,*,#608,.T.);
#826=ORIENTED_EDGE('',*,*,#607,.T.);
#827=ORIENTED_EDGE('',*,*,#609,.F.);
#828=ORIENTED_EDGE('',*,*,#610,.F.);
#829=ORIENTED_EDGE('',*,*,#611,.T.);
#830=ORIENTED_EDGE('',*,*,#610,.T.);
#831=ORIENTED_EDGE('',*,*,#612,.F.);
#832=ORIENTED_EDGE('',*,*,#602,.F.);
#833=ORIENTED_EDGE('',*,*,#612,.T.);
#834=ORIENTED_EDGE('',*,*,#609,.T.);
#835=ORIENTED_EDGE('',*,*,#606,.T.);
#836=ORIENTED_EDGE('',*,*,#603,.T.);
#837=ORIENTED_EDGE('',*,*,#611,.F.);
#838=ORIENTED_EDGE('',*,*,#601,.F.);
#839=ORIENTED_EDGE('',*,*,#605,.F.);
#840=ORIENTED_EDGE('',*,*,#608,.F.);
#841=ORIENTED_EDGE('',*,*,#613,.F.);
#842=ORIENTED_EDGE('',*,*,#614,.T.);
#843=ORIENTED_EDGE('',*,*,#615,.F.);
#844=ORIENTED_EDGE('',*,*,#616,.F.);
#845=ORIENTED_EDGE('',*,*,#617,.T.);
#846=ORIENTED_EDGE('',*,*,#616,.T.);
#847=ORIENTED_EDGE('',*,*,#618,.F.);
#848=ORIENTED_EDGE('',*,*,#619,.F.);
#849=ORIENTED_EDGE('',*,*,#620,.F.);
#850=ORIENTED_EDGE('',*,*,#619,.T.);
#851=ORIENTED_EDGE('',*,*,#621,.F.);
#852=ORIENTED_EDGE('',*,*,#622,.F.);
#853=ORIENTED_EDGE('',*,*,#623,.T.);
#854=ORIENTED_EDGE('',*,*,#622,.T.);
#855=ORIENTED_EDGE('',*,*,#624,.F.);
#856=ORIENTED_EDGE('',*,*,#614,.F.);
#857=ORIENTED_EDGE('',*,*,#624,.T.);
#858=ORIENTED_EDGE('',*,*,#621,.T.);
#859=ORIENTED_EDGE('',*,*,#618,.T.);
#860=ORIENTED_EDGE('',*,*,#615,.T.);
#861=ORIENTED_EDGE('',*,*,#623,.F.);
#862=ORIENTED_EDGE('',*,*,#613,.T.);
#863=ORIENTED_EDGE('',*,*,#617,.F.);
#864=ORIENTED_EDGE('',*,*,#620,.T.);
#865=ORIENTED_EDGE('',*,*,#625,.T.);
#866=ORIENTED_EDGE('',*,*,#626,.T.);
#867=ORIENTED_EDGE('',*,*,#627,.F.);
#868=ORIENTED_EDGE('',*,*,#628,.F.);
#869=ORIENTED_EDGE('',*,*,#629,.T.);
#870=ORIENTED_EDGE('',*,*,#628,.T.);
#871=ORIENTED_EDGE('',*,*,#630,.F.);
#872=ORIENTED_EDGE('',*,*,#631,.F.);
#873=ORIENTED_EDGE('',*,*,#632,.T.);
#874=ORIENTED_EDGE('',*,*,#631,.T.);
#875=ORIENTED_EDGE('',*,*,#633,.F.);
#876=ORIENTED_EDGE('',*,*,#634,.F.);
#877=ORIENTED_EDGE('',*,*,#635,.T.);
#878=ORIENTED_EDGE('',*,*,#634,.T.);
#879=ORIENTED_EDGE('',*,*,#636,.F.);
#880=ORIENTED_EDGE('',*,*,#626,.F.);
#881=ORIENTED_EDGE('',*,*,#636,.T.);
#882=ORIENTED_EDGE('',*,*,#633,.T.);
#883=ORIENTED_EDGE('',*,*,#630,.T.);
#884=ORIENTED_EDGE('',*,*,#627,.T.);
#885=ORIENTED_EDGE('',*,*,#635,.F.);
#886=ORIENTED_EDGE('',*,*,#625,.F.);
#887=ORIENTED_EDGE('',*,*,#629,.F.);
#888=ORIENTED_EDGE('',*,*,#632,.F.);
#889=ORIENTED_EDGE('',*,*,#637,.T.);
#890=ORIENTED_EDGE('',*,*,#638,.T.);
#891=ORIENTED_EDGE('',*,*,#639,.F.);
#892=ORIENTED_EDGE('',*,*,#640,.F.);
#893=ORIENTED_EDGE('',*,*,#641,.F.);
#894=ORIENTED_EDGE('',*,*,#640,.T.);
#895=ORIENTED_EDGE('',*,*,#642,.F.);
#896=ORIENTED_EDGE('',*,*,#643,.F.);
#897=ORIENTED_EDGE('',*,*,#644,.T.);
#898=ORIENTED_EDGE('',*,*,#643,.T.);
#899=ORIENTED_EDGE('',*,*,#645,.F.);
#900=ORIENTED_EDGE('',*,*,#646,.F.);
#901=ORIENTED_EDGE('',*,*,#647,.T.);
#902=ORIENTED_EDGE('',*,*,#646,.T.);
#903=ORIENTED_EDGE('',*,*,#648,.F.);
#904=ORIENTED_EDGE('',*,*,#638,.F.);
#905=ORIENTED_EDGE('',*,*,#648,.T.);
#906=ORIENTED_EDGE('',*,*,#645,.T.);
#907=ORIENTED_EDGE('',*,*,#642,.T.);
#908=ORIENTED_EDGE('',*,*,#639,.T.);
#909=ORIENTED_EDGE('',*,*,#647,.F.);
#910=ORIENTED_EDGE('',*,*,#637,.F.);
#911=ORIENTED_EDGE('',*,*,#641,.T.);
#912=ORIENTED_EDGE('',*,*,#644,.F.);
#913=PLANE('',#1070);
#914=PLANE('',#1071);
#915=PLANE('',#1072);
#916=PLANE('',#1073);
#917=PLANE('',#1074);
#918=PLANE('',#1075);
#919=PLANE('',#1076);
#920=PLANE('',#1077);
#921=PLANE('',#1078);
#922=PLANE('',#1079);
#923=PLANE('',#1080);
#924=PLANE('',#1081);
#925=PLANE('',#1082);
#926=PLANE('',#1083);
#927=PLANE('',#1084);
#928=PLANE('',#1085);
#929=PLANE('',#1086);
#930=PLANE('',#1087);
#931=PLANE('',#1088);
#932=PLANE('',#1089);
#933=PLANE('',#1090);
#934=PLANE('',#1091);
#935=PLANE('',#1092);
#936=PLANE('',#1093);
#937=PLANE('',#1094);
#938=PLANE('',#1095);
#939=PLANE('',#1096);
#940=PLANE('',#1097);
#941=PLANE('',#1098);
#942=PLANE('',#1099);
#943=PLANE('',#1100);
#944=PLANE('',#1101);
#945=PLANE('',#1102);
#946=PLANE('',#1103);
#947=PLANE('',#1104);
#948=PLANE('',#1105);
#949=PLANE('',#1106);
#950=PLANE('',#1107);
#951=PLANE('',#1108);
#952=PLANE('',#1109);
#953=PLANE('',#1110);
#954=PLANE('',#1111);
#955=PLANE('',#1112);
#956=PLANE('',#1113);
#957=PLANE('',#1114);
#958=PLANE('',#1115);
#959=PLANE('',#1116);
#960=PLANE('',#1117);
#961=PLANE('',#1118);
#962=PLANE('',#1119);
#963=PLANE('',#1120);
#964=PLANE('',#1121);
#965=PLANE('',#1122);
#966=PLANE('',#1123);
#967=PLANE('',#1124);
#968=PLANE('',#1125);
#969=PLANE('',#1126);
#970=PLANE('',#1127);
#971=PLANE('',#1128);
#972=PLANE('',#1129);
#973=PLANE('',#1130);
#974=PLANE('',#1131);
#975=PLANE('',#1132);
#976=PLANE('',#1133);
#977=PLANE('',#1134);
#978=PLANE('',#1135);
#979=ADVANCED_FACE('',(#33),#913,.F.);
#980=ADVANCED_FACE('',(#34),#914,.F.);
#981=ADVANCED_FACE('',(#35),#915,.T.);
#982=ADVANCED_FACE('',(#36),#916,.T.);
#983=ADVANCED_FACE('',(#37),#917,.T.);
#984=ADVANCED_FACE('',(#38),#918,.T.);
#985=ADVANCED_FACE('',(#39),#919,.T.);
#986=ADVANCED_FACE('',(#40),#920,.T.);
#987=ADVANCED_FACE('',(#41),#921,.T.);
#988=ADVANCED_FACE('',(#42),#922,.T.);
#989=ADVANCED_FACE('',(#43),#923,.T.);
#990=ADVANCED_FACE('',(#44),#924,.T.);
#991=ADVANCED_FACE('',(#45),#925,.T.);
#992=ADVANCED_FACE('',(#46),#926,.T.);
#993=ADVANCED_FACE('',(#47),#927,.T.);
#994=ADVANCED_FACE('',(#48),#928,.T.);
#995=ADVANCED_FACE('',(#49),#929,.T.);
#996=ADVANCED_FACE('',(#50),#930,.F.);
#997=ADVANCED_FACE('',(#51),#931,.T.);
#998=ADVANCED_FACE('',(#52),#932,.T.);
#999=ADVANCED_FACE('',(#53),#933,.T.);
#1000=ADVANCED_FACE('',(#54),#934,.T.);
#1001=ADVANCED_FACE('',(#55),#935,.T.);
#1002=ADVANCED_FACE('',(#56),#936,.F.);
#1003=ADVANCED_FACE('',(#57),#937,.T.);
#1004=ADVANCED_FACE('',(#58),#938,.T.);
#1005=ADVANCED_FACE('',(#59),#939,.T.);
#1006=ADVANCED_FACE('',(#60),#940,.T.);
#1007=ADVANCED_FACE('',(#61),#941,.T.);
#1008=ADVANCED_FACE('',(#62),#942,.F.);
#1009=ADVANCED_FACE('',(#63),#943,.T.);
#1010=ADVANCED_FACE('',(#64),#944,.T.);
#1011=ADVANCED_FACE('',(#65),#945,.T.);
#1012=ADVANCED_FACE('',(#66),#946,.T.);
#1013=ADVANCED_FACE('',(#67),#947,.T.);
#1014=ADVANCED_FACE('',(#68),#948,.F.);
#1015=ADVANCED_FACE('',(#69),#949,.T.);
#1016=ADVANCED_FACE('',(#70),#950,.T.);
#1017=ADVANCED_FACE('',(#71),#951,.T.);
#1018=ADVANCED_FACE('',(#72),#952,.T.);
#1019=ADVANCED_FACE('',(#73),#953,.T.);
#1020=ADVANCED_FACE('',(#74),#954,.F.);
#1021=ADVANCED_FACE('',(#75),#955,.T.);
#1022=ADVANCED_FACE('',(#76),#956,.T.);
#1023=ADVANCED_FACE('',(#77),#957,.T.);
#1024=ADVANCED_FACE('',(#78),#958,.T.);
#1025=ADVANCED_FACE('',(#79),#959,.T.);
#1026=ADVANCED_FACE('',(#80),#960,.F.);
#1027=ADVANCED_FACE('',(#81),#961,.T.);
#1028=ADVANCED_FACE('',(#82),#962,.T.);
#1029=ADVANCED_FACE('',(#83),#963,.T.);
#1030=ADVANCED_FACE('',(#84),#964,.T.);
#1031=ADVANCED_FACE('',(#85),#965,.T.);
#1032=ADVANCED_FACE('',(#86),#966,.F.);
#1033=ADVANCED_FACE('',(#87),#967,.T.);
#1034=ADVANCED_FACE('',(#88),#968,.T.);
#1035=ADVANCED_FACE('',(#89),#969,.T.);
#1036=ADVANCED_FACE('',(#90),#970,.T.);
#1037=ADVANCED_FACE('',(#91),#971,.T.);
#1038=ADVANCED_FACE('',(#92),#972,.F.);
#1039=ADVANCED_FACE('',(#93),#973,.T.);
#1040=ADVANCED_FACE('',(#94),#974,.T.);
#1041=ADVANCED_FACE('',(#95),#975,.T.);
#1042=ADVANCED_FACE('',(#96),#976,.T.);
#1043=ADVANCED_FACE('',(#97),#977,.T.);
#1044=ADVANCED_FACE('',(#98),#978,.F.);
#1045=CLOSED_SHELL('',(#979,#980,#981,#982,#983,#984));
#1046=CLOSED_SHELL('',(#985,#986,#987,#988,#989,#990));
#1047=CLOSED_SHELL('',(#991,#992,#993,#994,#995,#996));
#1048=CLOSED_SHELL('',(#997,#998,#999,#1000,#1001,#1002));
#1049=CLOSED_SHELL('',(#1003,#1004,#1005,#1006,#1007,#1008));
#1050=CLOSED_SHELL('',(#1009,#1010,#1011,#1012,#1013,#1014));
#1051=CLOSED_SHELL('',(#1015,#1016,#1017,#1018,#1019,#1020));
#1052=CLOSED_SHELL('',(#1021,#1022,#1023,#1024,#1025,#1026));
#1053=CLOSED_SHELL('',(#1027,#1028,#1029,#1030,#1031,#1032));
#1054=CLOSED_SHELL('',(#1033,#1034,#1035,#1036,#1037,#1038));
#1055=CLOSED_SHELL('',(#1039,#1040,#1041,#1042,#1043,#1044));
#1056=BREP_WITH_VOIDS('Body1',#1046,(#32));
#1057=DERIVED_UNIT_ELEMENT(#1059,1.);
#1058=DERIVED_UNIT_ELEMENT(#1694,-3.);
#1059=(
MASS_UNIT()
NAMED_UNIT(*)
SI_UNIT(.KILO.,.GRAM.)
);
#1060=DERIVED_UNIT((#1057,#1058));
#1061=MEASURE_REPRESENTATION_ITEM('density measure',
POSITIVE_RATIO_MEASURE(7850.),#1060);
#1062=PROPERTY_DEFINITION_REPRESENTATION(#1067,#1064);
#1063=PROPERTY_DEFINITION_REPRESENTATION(#1068,#1065);
#1064=REPRESENTATION('material name',(#1066),#1691);
#1065=REPRESENTATION('density',(#1061),#1691);
#1066=DESCRIPTIVE_REPRESENTATION_ITEM('Steel','Steel');
#1067=PROPERTY_DEFINITION('material property','material name',#1701);
#1068=PROPERTY_DEFINITION('material property','density of part',#1701);
#1069=AXIS2_PLACEMENT_3D('',#1402,#1136,#1137);
#1070=AXIS2_PLACEMENT_3D('',#1403,#1138,#1139);
#1071=AXIS2_PLACEMENT_3D('',#1412,#1144,#1145);
#1072=AXIS2_PLACEMENT_3D('',#1421,#1150,#1151);
#1073=AXIS2_PLACEMENT_3D('',#1424,#1154,#1155);
#1074=AXIS2_PLACEMENT_3D('',#1426,#1157,#1158);
#1075=AXIS2_PLACEMENT_3D('',#1428,#1160,#1161);
#1076=AXIS2_PLACEMENT_3D('',#1429,#1162,#1163);
#1077=AXIS2_PLACEMENT_3D('',#1438,#1168,#1169);
#1078=AXIS2_PLACEMENT_3D('',#1444,#1173,#1174);
#1079=AXIS2_PLACEMENT_3D('',#1450,#1178,#1179);
#1080=AXIS2_PLACEMENT_3D('',#1453,#1182,#1183);
#1081=AXIS2_PLACEMENT_3D('',#1454,#1184,#1185);
#1082=AXIS2_PLACEMENT_3D('',#1455,#1186,#1187);
#1083=AXIS2_PLACEMENT_3D('',#1464,#1192,#1193);
#1084=AXIS2_PLACEMENT_3D('',#1470,#1197,#1198);
#1085=AXIS2_PLACEMENT_3D('',#1476,#1202,#1203);
#1086=AXIS2_PLACEMENT_3D('',#1479,#1206,#1207);
#1087=AXIS2_PLACEMENT_3D('',#1480,#1208,#1209);
#1088=AXIS2_PLACEMENT_3D('',#1481,#1210,#1211);
#1089=AXIS2_PLACEMENT_3D('',#1490,#1216,#1217);
#1090=AXIS2_PLACEMENT_3D('',#1496,#1221,#1222);
#1091=AXIS2_PLACEMENT_3D('',#1502,#1226,#1227);
#1092=AXIS2_PLACEMENT_3D('',#1505,#1230,#1231);
#1093=AXIS2_PLACEMENT_3D('',#1506,#1232,#1233);
#1094=AXIS2_PLACEMENT_3D('',#1507,#1234,#1235);
#1095=AXIS2_PLACEMENT_3D('',#1516,#1240,#1241);
#1096=AXIS2_PLACEMENT_3D('',#1522,#1245,#1246);
#1097=AXIS2_PLACEMENT_3D('',#1528,#1250,#1251);
#1098=AXIS2_PLACEMENT_3D('',#1531,#1254,#1255);
#1099=AXIS2_PLACEMENT_3D('',#1532,#1256,#1257);
#1100=AXIS2_PLACEMENT_3D('',#1533,#1258,#1259);
#1101=AXIS2_PLACEMENT_3D('',#1542,#1264,#1265);
#1102=AXIS2_PLACEMENT_3D('',#1548,#1269,#1270);
#1103=AXIS2_PLACEMENT_3D('',#1554,#1274,#1275);
#1104=AXIS2_PLACEMENT_3D('',#1557,#1278,#1279);
#1105=AXIS2_PLACEMENT_3D('',#1558,#1280,#1281);
#1106=AXIS2_PLACEMENT_3D('',#1559,#1282,#1283);
#1107=AXIS2_PLACEMENT_3D('',#1568,#1288,#1289);
#1108=AXIS2_PLACEMENT_3D('',#1574,#1293,#1294);
#1109=AXIS2_PLACEMENT_3D('',#1580,#1298,#1299);
#1110=AXIS2_PLACEMENT_3D('',#1583,#1302,#1303);
#1111=AXIS2_PLACEMENT_3D('',#1584,#1304,#1305);
#1112=AXIS2_PLACEMENT_3D('',#1585,#1306,#1307);
#1113=AXIS2_PLACEMENT_3D('',#1594,#1312,#1313);
#1114=AXIS2_PLACEMENT_3D('',#1600,#1317,#1318);
#1115=AXIS2_PLACEMENT_3D('',#1606,#1322,#1323);
#1116=AXIS2_PLACEMENT_3D('',#1609,#1326,#1327);
#1117=AXIS2_PLACEMENT_3D('',#1610,#1328,#1329);
#1118=AXIS2_PLACEMENT_3D('',#1611,#1330,#1331);
#1119=AXIS2_PLACEMENT_3D('',#1620,#1336,#1337);
#1120=AXIS2_PLACEMENT_3D('',#1626,#1341,#1342);
#1121=AXIS2_PLACEMENT_3D('',#1632,#1346,#1347);
#1122=AXIS2_PLACEMENT_3D('',#1635,#1350,#1351);
#1123=AXIS2_PLACEMENT_3D('',#1636,#1352,#1353);
#1124=AXIS2_PLACEMENT_3D('',#1637,#1354,#1355);
#1125=AXIS2_PLACEMENT_3D('',#1646,#1360,#1361);
#1126=AXIS2_PLACEMENT_3D('',#1652,#1365,#1366);
#1127=AXIS2_PLACEMENT_3D('',#1658,#1370,#1371);
#1128=AXIS2_PLACEMENT_3D('',#1661,#1374,#1375);
#1129=AXIS2_PLACEMENT_3D('',#1662,#1376,#1377);
#1130=AXIS2_PLACEMENT_3D('',#1663,#1378,#1379);
#1131=AXIS2_PLACEMENT_3D('',#1672,#1384,#1385);
#1132=AXIS2_PLACEMENT_3D('',#1678,#1389,#1390);
#1133=AXIS2_PLACEMENT_3D('',#1684,#1394,#1395);
#1134=AXIS2_PLACEMENT_3D('',#1687,#1398,#1399);
#1135=AXIS2_PLACEMENT_3D('',#1688,#1400,#1401);
#1136=DIRECTION('axis',(0.,0.,1.));
#1137=DIRECTION('refdir',(1.,0.,0.));
#1138=DIRECTION('center_axis',(0.,0.,1.));
#1139=DIRECTION('ref_axis',(-1.,0.,0.));
#1140=DIRECTION('',(-1.,0.,0.));
#1141=DIRECTION('',(0.,1.,0.));
#1142=DIRECTION('',(1.,0.,0.));
#1143=DIRECTION('',(0.,-1.,0.));
#1144=DIRECTION('center_axis',(0.,0.,-1.));
#1145=DIRECTION('ref_axis',(1.,0.,0.));
#1146=DIRECTION('',(1.,0.,0.));
#1147=DIRECTION('',(0.,1.,0.));
#1148=DIRECTION('',(-1.,0.,0.));
#1149=DIRECTION('',(0.,-1.,0.));
#1150=DIRECTION('center_axis',(0.,1.,0.));
#1151=DIRECTION('ref_axis',(1.,0.,0.));
#1152=DIRECTION('',(0.,0.,-1.));
#1153=DIRECTION('',(0.,0.,-1.));
#1154=DIRECTION('center_axis',(1.,0.,0.));
#1155=DIRECTION('ref_axis',(0.,-1.,0.));
#1156=DIRECTION('',(0.,0.,-1.));
#1157=DIRECTION('center_axis',(0.,-1.,0.));
#1158=DIRECTION('ref_axis',(-1.,0.,0.));
#1159=DIRECTION('',(0.,0.,-1.));
#1160=DIRECTION('center_axis',(-1.,0.,0.));
#1161=DIRECTION('ref_axis',(0.,1.,0.));
#1162=DIRECTION('center_axis',(1.,0.,0.));
#1163=DIRECTION('ref_axis',(0.,-1.,0.));
#1164=DIRECTION('',(0.,0.,-1.));
#1165=DIRECTION('',(0.,-1.,0.));
#1166=DIRECTION('',(0.,0.,1.));
#1167=DIRECTION('',(0.,1.,0.));
#1168=DIRECTION('center_axis',(0.,-1.,0.));
#1169=DIRECTION('ref_axis',(-1.,0.,0.));
#1170=DIRECTION('',(0.,0.,1.));
#1171=DIRECTION('',(-1.,0.,0.));
#1172=DIRECTION('',(1.,0.,0.));
#1173=DIRECTION('center_axis',(-1.,0.,0.));
#1174=DIRECTION('ref_axis',(0.,1.,0.));
#1175=DIRECTION('',(0.,0.,1.));
#1176=DIRECTION('',(0.,1.,0.));
#1177=DIRECTION('',(0.,-1.,0.));
#1178=DIRECTION('center_axis',(0.,1.,0.));
#1179=DIRECTION('ref_axis',(1.,0.,0.));
#1180=DIRECTION('',(1.,0.,0.));
#1181=DIRECTION('',(-1.,0.,0.));
#1182=DIRECTION('center_axis',(0.,0.,-1.));
#1183=DIRECTION('ref_axis',(-1.,0.,0.));
#1184=DIRECTION('center_axis',(0.,0.,1.));
#1185=DIRECTION('ref_axis',(1.,0.,0.));
#1186=DIRECTION('center_axis',(0.,-1.,0.));
#1187=DIRECTION('ref_axis',(0.,0.,-1.));
#1188=DIRECTION('',(0.,0.,1.));
#1189=DIRECTION('',(1.,0.,0.));
#1190=DIRECTION('',(0.,0.,-1.));
#1191=DIRECTION('',(1.,0.,0.));
#1192=DIRECTION('center_axis',(0.,0.,1.));
#1193=DIRECTION('ref_axis',(0.,-1.,0.));
#1194=DIRECTION('',(0.,1.,0.));
#1195=DIRECTION('',(0.,-1.,0.));
#1196=DIRECTION('',(1.,0.,0.));
#1197=DIRECTION('center_axis',(0.,1.,0.));
#1198=DIRECTION('ref_axis',(0.,0.,1.));
#1199=DIRECTION('',(0.,0.,-1.));
#1200=DIRECTION('',(0.,0.,1.));
#1201=DIRECTION('',(1.,0.,0.));
#1202=DIRECTION('center_axis',(0.,0.,-1.));
#1203=DIRECTION('ref_axis',(0.,1.,0.));
#1204=DIRECTION('',(0.,-1.,0.));
#1205=DIRECTION('',(0.,1.,0.));
#1206=DIRECTION('center_axis',(1.,0.,0.));
#1207=DIRECTION('ref_axis',(0.,0.,-1.));
#1208=DIRECTION('center_axis',(1.,0.,0.));
#1209=DIRECTION('ref_axis',(0.,1.,0.));
#1210=DIRECTION('center_axis',(0.,1.,0.));
#1211=DIRECTION('ref_axis',(0.,0.,1.));
#1212=DIRECTION('',(0.,0.,1.));
#1213=DIRECTION('',(1.,0.,0.));
#1214=DIRECTION('',(0.,0.,1.));
#1215=DIRECTION('',(1.,0.,0.));
#1216=DIRECTION('center_axis',(0.,0.,-1.));
#1217=DIRECTION('ref_axis',(0.,1.,0.));
#1218=DIRECTION('',(0.,1.,0.));
#1219=DIRECTION('',(0.,1.,0.));
#1220=DIRECTION('',(1.,0.,0.));
#1221=DIRECTION('center_axis',(0.,-1.,0.));
#1222=DIRECTION('ref_axis',(0.,0.,-1.));
#1223=DIRECTION('',(0.,0.,-1.));
#1224=DIRECTION('',(0.,0.,-1.));
#1225=DIRECTION('',(1.,0.,0.));
#1226=DIRECTION('center_axis',(0.,0.,1.));
#1227=DIRECTION('ref_axis',(0.,-1.,0.));
#1228=DIRECTION('',(0.,-1.,0.));
#1229=DIRECTION('',(0.,-1.,0.));
#1230=DIRECTION('center_axis',(1.,0.,0.));
#1231=DIRECTION('ref_axis',(0.,0.,-1.));
#1232=DIRECTION('center_axis',(1.,0.,0.));
#1233=DIRECTION('ref_axis',(0.,1.,0.));
#1234=DIRECTION('center_axis',(0.,-1.,0.));
#1235=DIRECTION('ref_axis',(0.,0.,-1.));
#1236=DIRECTION('',(0.,0.,1.));
#1237=DIRECTION('',(1.,0.,0.));
#1238=DIRECTION('',(0.,0.,-1.));
#1239=DIRECTION('',(1.,0.,0.));
#1240=DIRECTION('center_axis',(0.,0.,1.));
#1241=DIRECTION('ref_axis',(0.,-1.,0.));
#1242=DIRECTION('',(0.,1.,0.));
#1243=DIRECTION('',(0.,-1.,0.));
#1244=DIRECTION('',(1.,0.,0.));
#1245=DIRECTION('center_axis',(0.,1.,0.));
#1246=DIRECTION('ref_axis',(0.,0.,1.));
#1247=DIRECTION('',(0.,0.,-1.));
#1248=DIRECTION('',(0.,0.,1.));
#1249=DIRECTION('',(1.,0.,0.));
#1250=DIRECTION('center_axis',(0.,0.,-1.));
#1251=DIRECTION('ref_axis',(0.,1.,0.));
#1252=DIRECTION('',(0.,-1.,0.));
#1253=DIRECTION('',(0.,1.,0.));
#1254=DIRECTION('center_axis',(1.,0.,0.));
#1255=DIRECTION('ref_axis',(0.,0.,-1.));
#1256=DIRECTION('center_axis',(1.,0.,0.));
#1257=DIRECTION('ref_axis',(0.,1.,0.));
#1258=DIRECTION('center_axis',(0.,-1.,0.));
#1259=DIRECTION('ref_axis',(0.,0.,-1.));
#1260=DIRECTION('',(0.,0.,-1.));
#1261=DIRECTION('',(1.,0.,0.));
#1262=DIRECTION('',(0.,0.,-1.));
#1263=DIRECTION('',(1.,0.,0.));
#1264=DIRECTION('center_axis',(0.,0.,1.));
#1265=DIRECTION('ref_axis',(0.,-1.,0.));
#1266=DIRECTION('',(0.,-1.,0.));
#1267=DIRECTION('',(0.,-1.,0.));
#1268=DIRECTION('',(1.,0.,0.));
#1269=DIRECTION('center_axis',(0.,1.,0.));
#1270=DIRECTION('ref_axis',(0.,0.,1.));
#1271=DIRECTION('',(0.,0.,1.));
#1272=DIRECTION('',(0.,0.,1.));
#1273=DIRECTION('',(1.,0.,0.));
#1274=DIRECTION('center_axis',(0.,0.,-1.));
#1275=DIRECTION('ref_axis',(0.,1.,0.));
#1276=DIRECTION('',(0.,1.,0.));
#1277=DIRECTION('',(0.,1.,0.));
#1278=DIRECTION('center_axis',(1.,0.,0.));
#1279=DIRECTION('ref_axis',(0.,0.,-1.));
#1280=DIRECTION('center_axis',(1.,0.,0.));
#1281=DIRECTION('ref_axis',(0.,1.,0.));
#1282=DIRECTION('center_axis',(0.,0.,1.));
#1283=DIRECTION('ref_axis',(0.,-1.,0.));
#1284=DIRECTION('',(0.,1.,0.));
#1285=DIRECTION('',(1.,0.,0.));
#1286=DIRECTION('',(0.,-1.,0.));
#1287=DIRECTION('',(1.,0.,0.));
#1288=DIRECTION('center_axis',(0.,1.,0.));
#1289=DIRECTION('ref_axis',(0.,0.,1.));
#1290=DIRECTION('',(0.,0.,1.));
#1291=DIRECTION('',(0.,0.,1.));
#1292=DIRECTION('',(1.,0.,0.));
#1293=DIRECTION('center_axis',(0.,0.,-1.));
#1294=DIRECTION('ref_axis',(0.,1.,0.));
#1295=DIRECTION('',(0.,1.,0.));
#1296=DIRECTION('',(0.,1.,0.));
#1297=DIRECTION('',(1.,0.,0.));
#1298=DIRECTION('center_axis',(0.,-1.,0.));
#1299=DIRECTION('ref_axis',(0.,0.,-1.));
#1300=DIRECTION('',(0.,0.,-1.));
#1301=DIRECTION('',(0.,0.,-1.));
#1302=DIRECTION('center_axis',(1.,0.,0.));
#1303=DIRECTION('ref_axis',(0.,0.,-1.));
#1304=DIRECTION('center_axis',(1.,0.,0.));
#1305=DIRECTION('ref_axis',(0.,1.,0.));
#1306=DIRECTION('center_axis',(0.,-1.,0.));
#1307=DIRECTION('ref_axis',(0.,0.,-1.));
#1308=DIRECTION('',(0.,0.,-1.));
#1309=DIRECTION('',(1.,0.,0.));
#1310=DIRECTION('',(0.,0.,-1.));
#1311=DIRECTION('',(1.,0.,0.));
#1312=DIRECTION('center_axis',(0.,0.,1.));
#1313=DIRECTION('ref_axis',(0.,-1.,0.));
#1314=DIRECTION('',(0.,-1.,0.));
#1315=DIRECTION('',(0.,-1.,0.));
#1316=DIRECTION('',(1.,0.,0.));
#1317=DIRECTION('center_axis',(0.,1.,0.));
#1318=DIRECTION('ref_axis',(0.,0.,1.));
#1319=DIRECTION('',(0.,0.,1.));
#1320=DIRECTION('',(0.,0.,1.));
#1321=DIRECTION('',(1.,0.,0.));
#1322=DIRECTION('center_axis',(0.,0.,-1.));
#1323=DIRECTION('ref_axis',(0.,1.,0.));
#1324=DIRECTION('',(0.,1.,0.));
#1325=DIRECTION('',(0.,1.,0.));
#1326=DIRECTION('center_axis',(1.,0.,0.));
#1327=DIRECTION('ref_axis',(0.,0.,-1.));
#1328=DIRECTION('center_axis',(1.,0.,0.));
#1329=DIRECTION('ref_axis',(0.,1.,0.));
#1330=DIRECTION('center_axis',(0.,0.,1.));
#1331=DIRECTION('ref_axis',(0.,-1.,0.));
#1332=DIRECTION('',(0.,1.,0.));
#1333=DIRECTION('',(1.,0.,0.));
#1334=DIRECTION('',(0.,-1.,0.));
#1335=DIRECTION('',(1.,0.,0.));
#1336=DIRECTION('center_axis',(0.,1.,0.));
#1337=DIRECTION('ref_axis',(0.,0.,1.));
#1338=DIRECTION('',(0.,0.,1.));
#1339=DIRECTION('',(0.,0.,1.));
#1340=DIRECTION('',(1.,0.,0.));
#1341=DIRECTION('center_axis',(0.,0.,-1.));
#1342=DIRECTION('ref_axis',(0.,1.,0.));
#1343=DIRECTION('',(0.,-1.,0.));
#1344=DIRECTION('',(0.,1.,0.));
#1345=DIRECTION('',(1.,0.,0.));
#1346=DIRECTION('center_axis',(0.,-1.,0.));
#1347=DIRECTION('ref_axis',(0.,0.,-1.));
#1348=DIRECTION('',(0.,0.,-1.));
#1349=DIRECTION('',(0.,0.,-1.));
#1350=DIRECTION('center_axis',(1.,0.,0.));
#1351=DIRECTION('ref_axis',(0.,0.,-1.));
#1352=DIRECTION('center_axis',(1.,0.,0.));
#1353=DIRECTION('ref_axis',(0.,1.,0.));
#1354=DIRECTION('center_axis',(0.,1.,0.));
#1355=DIRECTION('ref_axis',(0.,0.,1.));
#1356=DIRECTION('',(0.,0.,1.));
#1357=DIRECTION('',(1.,0.,0.));
#1358=DIRECTION('',(0.,0.,1.));
#1359=DIRECTION('',(1.,0.,0.));
#1360=DIRECTION('center_axis',(0.,0.,-1.));
#1361=DIRECTION('ref_axis',(0.,1.,0.));
#1362=DIRECTION('',(0.,1.,0.));
#1363=DIRECTION('',(0.,1.,0.));
#1364=DIRECTION('',(1.,0.,0.));
#1365=DIRECTION('center_axis',(0.,-1.,0.));
#1366=DIRECTION('ref_axis',(0.,0.,-1.));
#1367=DIRECTION('',(0.,0.,-1.));
#1368=DIRECTION('',(0.,0.,-1.));
#1369=DIRECTION('',(1.,0.,0.));
#1370=DIRECTION('center_axis',(0.,0.,1.));
#1371=DIRECTION('ref_axis',(0.,-1.,0.));
#1372=DIRECTION('',(0.,-1.,0.));
#1373=DIRECTION('',(0.,-1.,0.));
#1374=DIRECTION('center_axis',(1.,0.,0.));
#1375=DIRECTION('ref_axis',(0.,0.,-1.));
#1376=DIRECTION('center_axis',(1.,0.,0.));
#1377=DIRECTION('ref_axis',(0.,1.,0.));
#1378=DIRECTION('center_axis',(0.,1.,0.));
#1379=DIRECTION('ref_axis',(0.,0.,1.));
#1380=DIRECTION('',(0.,0.,1.));
#1381=DIRECTION('',(1.,0.,0.));
#1382=DIRECTION('',(0.,0.,1.));
#1383=DIRECTION('',(1.,0.,0.));
#1384=DIRECTION('center_axis',(0.,0.,-1.));
#1385=DIRECTION('ref_axis',(0.,1.,0.));
#1386=DIRECTION('',(0.,-1.,0.));
#1387=DIRECTION('',(0.,1.,0.));
#1388=DIRECTION('',(1.,0.,0.));
#1389=DIRECTION('center_axis',(0.,-1.,0.));
#1390=DIRECTION('ref_axis',(0.,0.,-1.));
#1391=DIRECTION('',(0.,0.,-1.));
#1392=DIRECTION('',(0.,0.,-1.));
#1393=DIRECTION('',(1.,0.,0.));
#1394=DIRECTION('center_axis',(0.,0.,1.));
#1395=DIRECTION('ref_axis',(0.,-1.,0.));
#1396=DIRECTION('',(0.,-1.,0.));
#1397=DIRECTION('',(0.,-1.,0.));
#1398=DIRECTION('center_axis',(1.,0.,0.));
#1399=DIRECTION('ref_axis',(0.,0.,-1.));
#1400=DIRECTION('center_axis',(1.,0.,0.));
#1401=DIRECTION('ref_axis',(0.,1.,0.));
#1402=CARTESIAN_POINT('',(0.,0.,0.));
#1403=CARTESIAN_POINT('Origin',(0.,0.,0.));
#1404=CARTESIAN_POINT('',(50.,-50.,0.));
#1405=CARTESIAN_POINT('',(-50.,-50.,0.));
#1406=CARTESIAN_POINT('',(-50.,-50.,0.));
#1407=CARTESIAN_POINT('',(-50.,50.,0.));
#1408=CARTESIAN_POINT('',(-50.,50.,0.));
#1409=CARTESIAN_POINT('',(50.,50.,0.));
#1410=CARTESIAN_POINT('',(50.,50.,0.));
#1411=CARTESIAN_POINT('',(50.,-50.,0.));
#1412=CARTESIAN_POINT('Origin',(0.,0.,-200.));
#1413=CARTESIAN_POINT('',(-50.,-50.,-200.));
#1414=CARTESIAN_POINT('',(50.,-50.,-200.));
#1415=CARTESIAN_POINT('',(-50.,-50.,-200.));
#1416=CARTESIAN_POINT('',(50.,50.,-200.));
#1417=CARTESIAN_POINT('',(50.,-50.,-200.));
#1418=CARTESIAN_POINT('',(-50.,50.,-200.));
#1419=CARTESIAN_POINT('',(50.,50.,-200.));
#1420=CARTESIAN_POINT('',(-50.,50.,-200.));
#1421=CARTESIAN_POINT('Origin',(-50.,-50.,0.));
#1422=CARTESIAN_POINT('',(50.,-50.,0.));
#1423=CARTESIAN_POINT('',(-50.,-50.,0.));
#1424=CARTESIAN_POINT('Origin',(-50.,50.,0.));
#1425=CARTESIAN_POINT('',(-50.,50.,0.));
#1426=CARTESIAN_POINT('Origin',(50.,50.,0.));
#1427=CARTESIAN_POINT('',(50.,50.,0.));
#1428=CARTESIAN_POINT('Origin',(50.,-50.,0.));
#1429=CARTESIAN_POINT('Origin',(55.,55.,0.));
#1430=CARTESIAN_POINT('',(55.,-55.,5.));
#1431=CARTESIAN_POINT('',(55.,-55.,-205.));
#1432=CARTESIAN_POINT('',(55.,-55.,0.));
#1433=CARTESIAN_POINT('',(55.,55.,-205.));
#1434=CARTESIAN_POINT('',(55.,55.,-205.));
#1435=CARTESIAN_POINT('',(55.,55.,5.));
#1436=CARTESIAN_POINT('',(55.,55.,0.));
#1437=CARTESIAN_POINT('',(55.,-55.,5.));
#1438=CARTESIAN_POINT('Origin',(55.,-55.,0.));
#1439=CARTESIAN_POINT('',(-55.,-55.,-205.));
#1440=CARTESIAN_POINT('',(-55.,-55.,5.));
#1441=CARTESIAN_POINT('',(-55.,-55.,0.));
#1442=CARTESIAN_POINT('',(55.,-55.,-205.));
#1443=CARTESIAN_POINT('',(-55.,-55.,5.));
#1444=CARTESIAN_POINT('Origin',(-55.,-55.,0.));
#1445=CARTESIAN_POINT('',(-55.,55.,-205.));
#1446=CARTESIAN_POINT('',(-55.,55.,5.));
#1447=CARTESIAN_POINT('',(-55.,55.,0.));
#1448=CARTESIAN_POINT('',(-55.,-55.,-205.));
#1449=CARTESIAN_POINT('',(-55.,55.,5.));
#1450=CARTESIAN_POINT('Origin',(-55.,55.,0.));
#1451=CARTESIAN_POINT('',(-55.,55.,-205.));
#1452=CARTESIAN_POINT('',(55.,55.,5.));
#1453=CARTESIAN_POINT('Origin',(0.,0.,-205.));
#1454=CARTESIAN_POINT('Origin',(0.,0.,5.));
#1455=CARTESIAN_POINT('Origin',(-50.,-50.,-140.));
#1456=CARTESIAN_POINT('',(-50.,-50.,-145.));
#1457=CARTESIAN_POINT('',(-50.,-50.,-140.));
#1458=CARTESIAN_POINT('',(-50.,-50.,-145.));
#1459=CARTESIAN_POINT('',(50.,-50.,-145.));
#1460=CARTESIAN_POINT('',(-50.,-50.,-145.));
#1461=CARTESIAN_POINT('',(50.,-50.,-140.));
#1462=CARTESIAN_POINT('',(50.,-50.,-145.));
#1463=CARTESIAN_POINT('',(-50.,-50.,-140.));
#1464=CARTESIAN_POINT('Origin',(-50.,50.,-140.));
#1465=CARTESIAN_POINT('',(-50.,50.,-140.));
#1466=CARTESIAN_POINT('',(-50.,-50.,-140.));
#1467=CARTESIAN_POINT('',(50.,50.,-140.));
#1468=CARTESIAN_POINT('',(50.,-50.,-140.));
#1469=CARTESIAN_POINT('',(-50.,50.,-140.));
#1470=CARTESIAN_POINT('Origin',(-50.,50.,-145.));
#1471=CARTESIAN_POINT('',(-50.,50.,-145.));
#1472=CARTESIAN_POINT('',(-50.,50.,-140.));
#1473=CARTESIAN_POINT('',(50.,50.,-145.));
#1474=CARTESIAN_POINT('',(50.,50.,-140.));
#1475=CARTESIAN_POINT('',(-50.,50.,-145.));
#1476=CARTESIAN_POINT('Origin',(-50.,-50.,-145.));
#1477=CARTESIAN_POINT('',(-50.,50.,-145.));
#1478=CARTESIAN_POINT('',(50.,50.,-145.));
#1479=CARTESIAN_POINT('Origin',(50.,0.,-142.5));
#1480=CARTESIAN_POINT('Origin',(-50.,0.,-142.5));
#1481=CARTESIAN_POINT('Origin',(-50.,50.,-60.));
#1482=CARTESIAN_POINT('',(-50.,50.,-60.));
#1483=CARTESIAN_POINT('',(-50.,50.,-55.));
#1484=CARTESIAN_POINT('',(-50.,50.,-200.));
#1485=CARTESIAN_POINT('',(50.,50.,-55.));
#1486=CARTESIAN_POINT('',(-50.,50.,-55.));
#1487=CARTESIAN_POINT('',(50.,50.,-60.));
#1488=CARTESIAN_POINT('',(50.,50.,-200.));
#1489=CARTESIAN_POINT('',(-50.,50.,-60.));
#1490=CARTESIAN_POINT('Origin',(-50.,-50.,-60.));
#1491=CARTESIAN_POINT('',(-50.,-50.,-60.));
#1492=CARTESIAN_POINT('',(-50.,-50.,-60.));
#1493=CARTESIAN_POINT('',(50.,-50.,-60.));
#1494=CARTESIAN_POINT('',(50.,-50.,-60.));
#1495=CARTESIAN_POINT('',(-50.,-50.,-60.));
#1496=CARTESIAN_POINT('Origin',(-50.,-50.,-55.));
#1497=CARTESIAN_POINT('',(-50.,-50.,-55.));
#1498=CARTESIAN_POINT('',(-50.,-50.,0.));
#1499=CARTESIAN_POINT('',(50.,-50.,-55.));
#1500=CARTESIAN_POINT('',(50.,-50.,0.));
#1501=CARTESIAN_POINT('',(-50.,-50.,-55.));
#1502=CARTESIAN_POINT('Origin',(-50.,50.,-55.));
#1503=CARTESIAN_POINT('',(-50.,50.,-55.));
#1504=CARTESIAN_POINT('',(50.,50.,-55.));
#1505=CARTESIAN_POINT('Origin',(50.,0.,-57.5));
#1506=CARTESIAN_POINT('Origin',(-50.,0.,-57.5));
#1507=CARTESIAN_POINT('Origin',(-50.,-50.,-170.));
#1508=CARTESIAN_POINT('',(-50.,-50.,-175.));
#1509=CARTESIAN_POINT('',(-50.,-50.,-170.));
#1510=CARTESIAN_POINT('',(-50.,-50.,-175.));
#1511=CARTESIAN_POINT('',(50.,-50.,-175.));
#1512=CARTESIAN_POINT('',(-50.,-50.,-175.));
#1513=CARTESIAN_POINT('',(50.,-50.,-170.));
#1514=CARTESIAN_POINT('',(50.,-50.,-175.));
#1515=CARTESIAN_POINT('',(-50.,-50.,-170.));
#1516=CARTESIAN_POINT('Origin',(-50.,50.,-170.));
#1517=CARTESIAN_POINT('',(-50.,50.,-170.));
#1518=CARTESIAN_POINT('',(-50.,-50.,-170.));
#1519=CARTESIAN_POINT('',(50.,50.,-170.));
#1520=CARTESIAN_POINT('',(50.,-50.,-170.));
#1521=CARTESIAN_POINT('',(-50.,50.,-170.));
#1522=CARTESIAN_POINT('Origin',(-50.,50.,-175.));
#1523=CARTESIAN_POINT('',(-50.,50.,-175.));
#1524=CARTESIAN_POINT('',(-50.,50.,-170.));
#1525=CARTESIAN_POINT('',(50.,50.,-175.));
#1526=CARTESIAN_POINT('',(50.,50.,-170.));
#1527=CARTESIAN_POINT('',(-50.,50.,-175.));
#1528=CARTESIAN_POINT('Origin',(-50.,-50.,-175.));
#1529=CARTESIAN_POINT('',(-50.,50.,-175.));
#1530=CARTESIAN_POINT('',(50.,50.,-175.));
#1531=CARTESIAN_POINT('Origin',(50.,0.,-172.5));
#1532=CARTESIAN_POINT('Origin',(-50.,0.,-172.5));
#1533=CARTESIAN_POINT('Origin',(-50.,-50.,-25.));
#1534=CARTESIAN_POINT('',(-50.,-50.,-25.));
#1535=CARTESIAN_POINT('',(-50.,-50.,-30.));
#1536=CARTESIAN_POINT('',(-50.,-50.,0.));
#1537=CARTESIAN_POINT('',(50.,-50.,-30.));
#1538=CARTESIAN_POINT('',(-50.,-50.,-30.));
#1539=CARTESIAN_POINT('',(50.,-50.,-25.));
#1540=CARTESIAN_POINT('',(50.,-50.,0.));
#1541=CARTESIAN_POINT('',(-50.,-50.,-25.));
#1542=CARTESIAN_POINT('Origin',(-50.,50.,-25.));
#1543=CARTESIAN_POINT('',(-50.,50.,-25.));
#1544=CARTESIAN_POINT('',(-50.,50.,-25.));
#1545=CARTESIAN_POINT('',(50.,50.,-25.));
#1546=CARTESIAN_POINT('',(50.,50.,-25.));
#1547=CARTESIAN_POINT('',(-50.,50.,-25.));
#1548=CARTESIAN_POINT('Origin',(-50.,50.,-30.));
#1549=CARTESIAN_POINT('',(-50.,50.,-30.));
#1550=CARTESIAN_POINT('',(-50.,50.,-200.));
#1551=CARTESIAN_POINT('',(50.,50.,-30.));
#1552=CARTESIAN_POINT('',(50.,50.,-200.));
#1553=CARTESIAN_POINT('',(-50.,50.,-30.));
#1554=CARTESIAN_POINT('Origin',(-50.,-50.,-30.));
#1555=CARTESIAN_POINT('',(-50.,-50.,-30.));
#1556=CARTESIAN_POINT('',(50.,-50.,-30.));
#1557=CARTESIAN_POINT('Origin',(50.,0.,-27.5));
#1558=CARTESIAN_POINT('Origin',(-50.,0.,-27.5));
#1559=CARTESIAN_POINT('Origin',(-50.,50.,-60.));
#1560=CARTESIAN_POINT('',(-50.,-50.,-60.));
#1561=CARTESIAN_POINT('',(-50.,50.,-60.));
#1562=CARTESIAN_POINT('',(-50.,-50.,-60.));
#1563=CARTESIAN_POINT('',(50.,-50.,-60.));
#1564=CARTESIAN_POINT('',(-50.,-50.,-60.));
#1565=CARTESIAN_POINT('',(50.,50.,-60.));
#1566=CARTESIAN_POINT('',(50.,-50.,-60.));
#1567=CARTESIAN_POINT('',(-50.,50.,-60.));
#1568=CARTESIAN_POINT('Origin',(-50.,50.,-140.));
#1569=CARTESIAN_POINT('',(-50.,50.,-140.));
#1570=CARTESIAN_POINT('',(-50.,50.,-200.));
#1571=CARTESIAN_POINT('',(50.,50.,-140.));
#1572=CARTESIAN_POINT('',(50.,50.,-200.));
#1573=CARTESIAN_POINT('',(-50.,50.,-140.));
#1574=CARTESIAN_POINT('Origin',(-50.,-50.,-140.));
#1575=CARTESIAN_POINT('',(-50.,-50.,-140.));
#1576=CARTESIAN_POINT('',(-50.,-50.,-140.));
#1577=CARTESIAN_POINT('',(50.,-50.,-140.));
#1578=CARTESIAN_POINT('',(50.,-50.,-140.));
#1579=CARTESIAN_POINT('',(-50.,-50.,-140.));
#1580=CARTESIAN_POINT('Origin',(-50.,-50.,-60.));
#1581=CARTESIAN_POINT('',(-50.,-50.,0.));
#1582=CARTESIAN_POINT('',(50.,-50.,0.));
#1583=CARTESIAN_POINT('Origin',(50.,0.,-100.));
#1584=CARTESIAN_POINT('Origin',(-50.,0.,-100.));
#1585=CARTESIAN_POINT('Origin',(-50.,-50.,-145.));
#1586=CARTESIAN_POINT('',(-50.,-50.,-145.));
#1587=CARTESIAN_POINT('',(-50.,-50.,-170.));
#1588=CARTESIAN_POINT('',(-50.,-50.,0.));
#1589=CARTESIAN_POINT('',(50.,-50.,-170.));
#1590=CARTESIAN_POINT('',(-50.,-50.,-170.));
#1591=CARTESIAN_POINT('',(50.,-50.,-145.));
#1592=CARTESIAN_POINT('',(50.,-50.,0.));
#1593=CARTESIAN_POINT('',(-50.,-50.,-145.));
#1594=CARTESIAN_POINT('Origin',(-50.,50.,-145.));
#1595=CARTESIAN_POINT('',(-50.,50.,-145.));
#1596=CARTESIAN_POINT('',(-50.,50.,-145.));
#1597=CARTESIAN_POINT('',(50.,50.,-145.));
#1598=CARTESIAN_POINT('',(50.,50.,-145.));
#1599=CARTESIAN_POINT('',(-50.,50.,-145.));
#1600=CARTESIAN_POINT('Origin',(-50.,50.,-170.));
#1601=CARTESIAN_POINT('',(-50.,50.,-170.));
#1602=CARTESIAN_POINT('',(-50.,50.,-200.));
#1603=CARTESIAN_POINT('',(50.,50.,-170.));
#1604=CARTESIAN_POINT('',(50.,50.,-200.));
#1605=CARTESIAN_POINT('',(-50.,50.,-170.));
#1606=CARTESIAN_POINT('Origin',(-50.,-50.,-170.));
#1607=CARTESIAN_POINT('',(-50.,-50.,-170.));
#1608=CARTESIAN_POINT('',(50.,-50.,-170.));
#1609=CARTESIAN_POINT('Origin',(50.,0.,-157.5));
#1610=CARTESIAN_POINT('Origin',(-50.,0.,-157.5));
#1611=CARTESIAN_POINT('Origin',(-50.,50.,-30.));
#1612=CARTESIAN_POINT('',(-50.,-50.,-30.));
#1613=CARTESIAN_POINT('',(-50.,50.,-30.));
#1614=CARTESIAN_POINT('',(-50.,-50.,-30.));
#1615=CARTESIAN_POINT('',(50.,-50.,-30.));
#1616=CARTESIAN_POINT('',(-50.,-50.,-30.));
#1617=CARTESIAN_POINT('',(50.,50.,-30.));
#1618=CARTESIAN_POINT('',(50.,-50.,-30.));
#1619=CARTESIAN_POINT('',(-50.,50.,-30.));
#1620=CARTESIAN_POINT('Origin',(-50.,50.,-55.));
#1621=CARTESIAN_POINT('',(-50.,50.,-55.));
#1622=CARTESIAN_POINT('',(-50.,50.,-200.));
#1623=CARTESIAN_POINT('',(50.,50.,-55.));
#1624=CARTESIAN_POINT('',(50.,50.,-200.));
#1625=CARTESIAN_POINT('',(-50.,50.,-55.));
#1626=CARTESIAN_POINT('Origin',(-50.,-50.,-55.));
#1627=CARTESIAN_POINT('',(-50.,-50.,-55.));
#1628=CARTESIAN_POINT('',(-50.,50.,-55.));
#1629=CARTESIAN_POINT('',(50.,-50.,-55.));
#1630=CARTESIAN_POINT('',(50.,50.,-55.));
#1631=CARTESIAN_POINT('',(-50.,-50.,-55.));
#1632=CARTESIAN_POINT('Origin',(-50.,-50.,-30.));
#1633=CARTESIAN_POINT('',(-50.,-50.,0.));
#1634=CARTESIAN_POINT('',(50.,-50.,0.));
#1635=CARTESIAN_POINT('Origin',(50.,0.,-42.5));
#1636=CARTESIAN_POINT('Origin',(-50.,0.,-42.5));
#1637=CARTESIAN_POINT('Origin',(-50.,50.,-200.));
#1638=CARTESIAN_POINT('',(-50.,50.,-200.));
#1639=CARTESIAN_POINT('',(-50.,50.,-175.));
#1640=CARTESIAN_POINT('',(-50.,50.,-200.));
#1641=CARTESIAN_POINT('',(50.,50.,-175.));
#1642=CARTESIAN_POINT('',(-50.,50.,-175.));
#1643=CARTESIAN_POINT('',(50.,50.,-200.));
#1644=CARTESIAN_POINT('',(50.,50.,-200.));
#1645=CARTESIAN_POINT('',(-50.,50.,-200.));
#1646=CARTESIAN_POINT('Origin',(-50.,-50.,-200.));
#1647=CARTESIAN_POINT('',(-50.,-50.,-200.));
#1648=CARTESIAN_POINT('',(-50.,-50.,-200.));
#1649=CARTESIAN_POINT('',(50.,-50.,-200.));
#1650=CARTESIAN_POINT('',(50.,-50.,-200.));
#1651=CARTESIAN_POINT('',(-50.,-50.,-200.));
#1652=CARTESIAN_POINT('Origin',(-50.,-50.,-175.));
#1653=CARTESIAN_POINT('',(-50.,-50.,-175.));
#1654=CARTESIAN_POINT('',(-50.,-50.,0.));
#1655=CARTESIAN_POINT('',(50.,-50.,-175.));
#1656=CARTESIAN_POINT('',(50.,-50.,0.));
#1657=CARTESIAN_POINT('',(-50.,-50.,-175.));
#1658=CARTESIAN_POINT('Origin',(-50.,50.,-175.));
#1659=CARTESIAN_POINT('',(-50.,50.,-175.));
#1660=CARTESIAN_POINT('',(50.,50.,-175.));
#1661=CARTESIAN_POINT('Origin',(50.,0.,-187.5));
#1662=CARTESIAN_POINT('Origin',(-50.,0.,-187.5));
#1663=CARTESIAN_POINT('Origin',(-50.,50.,-25.));
#1664=CARTESIAN_POINT('',(-50.,50.,-25.));
#1665=CARTESIAN_POINT('',(-50.,50.,0.));
#1666=CARTESIAN_POINT('',(-50.,50.,-200.));
#1667=CARTESIAN_POINT('',(50.,50.,0.));
#1668=CARTESIAN_POINT('',(-50.,50.,0.));
#1669=CARTESIAN_POINT('',(50.,50.,-25.));
#1670=CARTESIAN_POINT('',(50.,50.,-200.));
#1671=CARTESIAN_POINT('',(-50.,50.,-25.));
#1672=CARTESIAN_POINT('Origin',(-50.,-50.,-25.));
#1673=CARTESIAN_POINT('',(-50.,-50.,-25.));
#1674=CARTESIAN_POINT('',(-50.,50.,-25.));
#1675=CARTESIAN_POINT('',(50.,-50.,-25.));
#1676=CARTESIAN_POINT('',(50.,50.,-25.));
#1677=CARTESIAN_POINT('',(-50.,-50.,-25.));
#1678=CARTESIAN_POINT('Origin',(-50.,-50.,0.));
#1679=CARTESIAN_POINT('',(-50.,-50.,0.));
#1680=CARTESIAN_POINT('',(-50.,-50.,0.));
#1681=CARTESIAN_POINT('',(50.,-50.,0.));
#1682=CARTESIAN_POINT('',(50.,-50.,0.));
#1683=CARTESIAN_POINT('',(-50.,-50.,0.));
#1684=CARTESIAN_POINT('Origin',(-50.,50.,0.));
#1685=CARTESIAN_POINT('',(-50.,50.,0.));
#1686=CARTESIAN_POINT('',(50.,50.,0.));
#1687=CARTESIAN_POINT('Origin',(50.,0.,-12.5));
#1688=CARTESIAN_POINT('Origin',(-50.,0.,-12.5));
#1689=UNCERTAINTY_MEASURE_WITH_UNIT(LENGTH_MEASURE(0.01),#1693,
'DISTANCE_ACCURACY_VALUE',
'Maximum model space distance between geometric entities at asserted c
onnectivities');
#1690=UNCERTAINTY_MEASURE_WITH_UNIT(LENGTH_MEASURE(0.01),#1693,
'DISTANCE_ACCURACY_VALUE',
'Maximum model space distance between geometric entities at asserted c
onnectivities');
#1691=(
GEOMETRIC_REPRESENTATION_CONTEXT(3)
GLOBAL_UNCERTAINTY_ASSIGNED_CONTEXT((#1689))
GLOBAL_UNIT_ASSIGNED_CONTEXT((#1693,#1695,#1696))
REPRESENTATION_CONTEXT('','3D')
);
#1692=(
GEOMETRIC_REPRESENTATION_CONTEXT(3)
GLOBAL_UNCERTAINTY_ASSIGNED_CONTEXT((#1690))
GLOBAL_UNIT_ASSIGNED_CONTEXT((#1693,#1695,#1696))
REPRESENTATION_CONTEXT('','3D')
);
#1693=(
LENGTH_UNIT()
NAMED_UNIT(*)
SI_UNIT(.MILLI.,.METRE.)
);
#1694=(
LENGTH_UNIT()
NAMED_UNIT(*)
SI_UNIT($,.METRE.)
);
#1695=(
NAMED_UNIT(*)
PLANE_ANGLE_UNIT()
SI_UNIT($,.RADIAN.)
);
#1696=(
NAMED_UNIT(*)
SI_UNIT($,.STERADIAN.)
SOLID_ANGLE_UNIT()
);
#1697=SHAPE_DEFINITION_REPRESENTATION(#1698,#1699);
#1698=PRODUCT_DEFINITION_SHAPE('',$,#1701);
#1699=SHAPE_REPRESENTATION('',(#1069),#1691);
#1700=PRODUCT_DEFINITION_CONTEXT('part definition',#1705,'design');
#1701=PRODUCT_DEFINITION('(Unsaved)','(Unsaved)',#1702,#1700);
#1702=PRODUCT_DEFINITION_FORMATION('',$,#1707);
#1703=PRODUCT_RELATED_PRODUCT_CATEGORY('(Unsaved)','(Unsaved)',(#1707));
#1704=APPLICATION_PROTOCOL_DEFINITION('international standard',
'automotive_design',2009,#1705);
#1705=APPLICATION_CONTEXT(
'Core Data for Automotive Mechanical Design Process');
#1706=PRODUCT_CONTEXT('part definition',#1705,'mechanical');
#1707=PRODUCT('(Unsaved)','(Unsaved)',$,(#1706));
#1708=PRESENTATION_STYLE_ASSIGNMENT((#1709));
#1709=SURFACE_STYLE_USAGE(.BOTH.,#1710);
#1710=SURFACE_SIDE_STYLE('',(#1711));
#1711=SURFACE_STYLE_FILL_AREA(#1712);
#1712=FILL_AREA_STYLE('Steel - Satin',(#1713));
#1713=FILL_AREA_STYLE_COLOUR('Steel - Satin',#1714);
#1714=COLOUR_RGB('Steel - Satin',0.627450980392157,0.627450980392157,0.627450980392157);
ENDSEC;
END-ISO-10303-21;
