ISO-10303-21;
HEADER;
/* Generated by software containing ST-Developer
 * from STEP Tools, Inc. (www.steptools.com) 
 */

FILE_DESCRIPTION(
/* description */ (''),
/* implementation_level */ '2;1');

FILE_NAME(
/* name */ 'NeuronTest.step',
/* time_stamp */ '2026-09-28T18:58:04+02:00',
/* author */ (''),
/* organization */ (''),
/* preprocessor_version */ 'ST-DEVELOPER v20.2',
/* originating_system */ 'Autodesk Translation Framework v15.15.0.0',
/* authorisation */ '');

FILE_SCHEMA (('AUTOMOTIVE_DESIGN { 1 0 10303 214 3 1 1 }'));
ENDSEC;

DATA;
#10=MECHANICAL_DESIGN_GEOMETRIC_PRESENTATION_REPRESENTATION('',(#14,#15,
#16,#17,#18,#19,#20,#21,#22,#23,#24),#1967);
#11=SHAPE_REPRESENTATION_RELATIONSHIP('SRR','None',#1974,#12);
#12=ADVANCED_BREP_SHAPE_REPRESENTATION('',(#25,#26,#27,#28,#29,#30,#31,
#32,#33,#34,#35),#1966);
#13=FACE_BOUND('',#142,.T.);
#14=STYLED_ITEM('',(#1983),#25);
#15=STYLED_ITEM('',(#1983),#26);
#16=STYLED_ITEM('',(#1983),#27);
#17=STYLED_ITEM('',(#1983),#28);
#18=STYLED_ITEM('',(#1984),#29);
#19=STYLED_ITEM('',(#1983),#30);
#20=STYLED_ITEM('',(#1983),#31);
#21=STYLED_ITEM('',(#1983),#32);
#22=STYLED_ITEM('',(#1983),#33);
#23=STYLED_ITEM('',(#1983),#34);
#24=STYLED_ITEM('',(#1983),#35);
#25=MANIFOLD_SOLID_BREP('Membrane21',#1221);
#26=MANIFOLD_SOLID_BREP('Membrane11',#1222);
#27=MANIFOLD_SOLID_BREP('Membrane12',#1223);
#28=MANIFOLD_SOLID_BREP('Membrane22',#1224);
#29=MANIFOLD_SOLID_BREP('Body',#1225);
#30=MANIFOLD_SOLID_BREP('ActivationChamber',#1226);
#31=MANIFOLD_SOLID_BREP('Weight1',#1227);
#32=MANIFOLD_SOLID_BREP('Weight2',#1228);
#33=MANIFOLD_SOLID_BREP('Input1',#1229);
#34=MANIFOLD_SOLID_BREP('Input2',#1230);
#35=MANIFOLD_SOLID_BREP('Body14',#1231);
#36=FACE_OUTER_BOUND('',#111,.T.);
#37=FACE_OUTER_BOUND('',#112,.T.);
#38=FACE_OUTER_BOUND('',#113,.T.);
#39=FACE_OUTER_BOUND('',#114,.T.);
#40=FACE_OUTER_BOUND('',#115,.T.);
#41=FACE_OUTER_BOUND('',#116,.T.);
#42=FACE_OUTER_BOUND('',#117,.T.);
#43=FACE_OUTER_BOUND('',#118,.T.);
#44=FACE_OUTER_BOUND('',#119,.T.);
#45=FACE_OUTER_BOUND('',#120,.T.);
#46=FACE_OUTER_BOUND('',#121,.T.);
#47=FACE_OUTER_BOUND('',#122,.T.);
#48=FACE_OUTER_BOUND('',#123,.T.);
#49=FACE_OUTER_BOUND('',#124,.T.);
#50=FACE_OUTER_BOUND('',#125,.T.);
#51=FACE_OUTER_BOUND('',#126,.T.);
#52=FACE_OUTER_BOUND('',#127,.T.);
#53=FACE_OUTER_BOUND('',#128,.T.);
#54=FACE_OUTER_BOUND('',#129,.T.);
#55=FACE_OUTER_BOUND('',#130,.T.);
#56=FACE_OUTER_BOUND('',#131,.T.);
#57=FACE_OUTER_BOUND('',#132,.T.);
#58=FACE_OUTER_BOUND('',#133,.T.);
#59=FACE_OUTER_BOUND('',#134,.T.);
#60=FACE_OUTER_BOUND('',#135,.T.);
#61=FACE_OUTER_BOUND('',#136,.T.);
#62=FACE_OUTER_BOUND('',#137,.T.);
#63=FACE_OUTER_BOUND('',#138,.T.);
#64=FACE_OUTER_BOUND('',#139,.T.);
#65=FACE_OUTER_BOUND('',#140,.T.);
#66=FACE_OUTER_BOUND('',#141,.T.);
#67=FACE_OUTER_BOUND('',#143,.T.);
#68=FACE_OUTER_BOUND('',#144,.T.);
#69=FACE_OUTER_BOUND('',#145,.T.);
#70=FACE_OUTER_BOUND('',#146,.T.);
#71=FACE_OUTER_BOUND('',#147,.T.);
#72=FACE_OUTER_BOUND('',#148,.T.);
#73=FACE_OUTER_BOUND('',#149,.T.);
#74=FACE_OUTER_BOUND('',#150,.T.);
#75=FACE_OUTER_BOUND('',#151,.T.);
#76=FACE_OUTER_BOUND('',#152,.T.);
#77=FACE_OUTER_BOUND('',#153,.T.);
#78=FACE_OUTER_BOUND('',#154,.T.);
#79=FACE_OUTER_BOUND('',#155,.T.);
#80=FACE_OUTER_BOUND('',#156,.T.);
#81=FACE_OUTER_BOUND('',#157,.T.);
#82=FACE_OUTER_BOUND('',#158,.T.);
#83=FACE_OUTER_BOUND('',#159,.T.);
#84=FACE_OUTER_BOUND('',#160,.T.);
#85=FACE_OUTER_BOUND('',#161,.T.);
#86=FACE_OUTER_BOUND('',#162,.T.);
#87=FACE_OUTER_BOUND('',#163,.T.);
#88=FACE_OUTER_BOUND('',#164,.T.);
#89=FACE_OUTER_BOUND('',#165,.T.);
#90=FACE_OUTER_BOUND('',#166,.T.);
#91=FACE_OUTER_BOUND('',#167,.T.);
#92=FACE_OUTER_BOUND('',#168,.T.);
#93=FACE_OUTER_BOUND('',#169,.T.);
#94=FACE_OUTER_BOUND('',#170,.T.);
#95=FACE_OUTER_BOUND('',#171,.T.);
#96=FACE_OUTER_BOUND('',#172,.T.);
#97=FACE_OUTER_BOUND('',#173,.T.);
#98=FACE_OUTER_BOUND('',#174,.T.);
#99=FACE_OUTER_BOUND('',#175,.T.);
#100=FACE_OUTER_BOUND('',#176,.T.);
#101=FACE_OUTER_BOUND('',#177,.T.);
#102=FACE_OUTER_BOUND('',#178,.T.);
#103=FACE_OUTER_BOUND('',#179,.T.);
#104=FACE_OUTER_BOUND('',#180,.T.);
#105=FACE_OUTER_BOUND('',#181,.T.);
#106=FACE_OUTER_BOUND('',#182,.T.);
#107=FACE_OUTER_BOUND('',#183,.T.);
#108=FACE_OUTER_BOUND('',#184,.T.);
#109=FACE_OUTER_BOUND('',#185,.T.);
#110=FACE_OUTER_BOUND('',#186,.T.);
#111=EDGE_LOOP('',(#759,#760,#761,#762));
#112=EDGE_LOOP('',(#763,#764,#765,#766));
#113=EDGE_LOOP('',(#767,#768,#769,#770));
#114=EDGE_LOOP('',(#771,#772,#773,#774));
#115=EDGE_LOOP('',(#775,#776,#777,#778));
#116=EDGE_LOOP('',(#779,#780,#781,#782));
#117=EDGE_LOOP('',(#783,#784,#785,#786));
#118=EDGE_LOOP('',(#787,#788,#789,#790));
#119=EDGE_LOOP('',(#791,#792,#793,#794));
#120=EDGE_LOOP('',(#795,#796,#797,#798));
#121=EDGE_LOOP('',(#799,#800,#801,#802));
#122=EDGE_LOOP('',(#803,#804,#805,#806));
#123=EDGE_LOOP('',(#807,#808,#809,#810));
#124=EDGE_LOOP('',(#811,#812,#813,#814));
#125=EDGE_LOOP('',(#815,#816,#817,#818));
#126=EDGE_LOOP('',(#819,#820,#821,#822));
#127=EDGE_LOOP('',(#823,#824,#825,#826));
#128=EDGE_LOOP('',(#827,#828,#829,#830));
#129=EDGE_LOOP('',(#831,#832,#833,#834));
#130=EDGE_LOOP('',(#835,#836,#837,#838));
#131=EDGE_LOOP('',(#839,#840,#841,#842));
#132=EDGE_LOOP('',(#843,#844,#845,#846));
#133=EDGE_LOOP('',(#847,#848,#849,#850));
#134=EDGE_LOOP('',(#851,#852,#853,#854));
#135=EDGE_LOOP('',(#855,#856,#857,#858));
#136=EDGE_LOOP('',(#859,#860,#861,#862));
#137=EDGE_LOOP('',(#863,#864,#865,#866));
#138=EDGE_LOOP('',(#867,#868,#869,#870));
#139=EDGE_LOOP('',(#871,#872,#873,#874));
#140=EDGE_LOOP('',(#875,#876,#877,#878));
#141=EDGE_LOOP('',(#879,#880,#881,#882));
#142=EDGE_LOOP('',(#883,#884,#885,#886));
#143=EDGE_LOOP('',(#887,#888,#889,#890));
#144=EDGE_LOOP('',(#891,#892,#893,#894));
#145=EDGE_LOOP('',(#895,#896,#897,#898));
#146=EDGE_LOOP('',(#899,#900,#901,#902));
#147=EDGE_LOOP('',(#903,#904,#905,#906,#907,#908,#909,#910));
#148=EDGE_LOOP('',(#911,#912,#913,#914));
#149=EDGE_LOOP('',(#915,#916,#917,#918,#919,#920,#921,#922));
#150=EDGE_LOOP('',(#923,#924,#925,#926));
#151=EDGE_LOOP('',(#927,#928,#929,#930));
#152=EDGE_LOOP('',(#931,#932,#933,#934));
#153=EDGE_LOOP('',(#935,#936,#937,#938));
#154=EDGE_LOOP('',(#939,#940,#941,#942));
#155=EDGE_LOOP('',(#943,#944,#945,#946));
#156=EDGE_LOOP('',(#947,#948,#949,#950));
#157=EDGE_LOOP('',(#951,#952,#953,#954));
#158=EDGE_LOOP('',(#955,#956,#957,#958));
#159=EDGE_LOOP('',(#959,#960,#961,#962));
#160=EDGE_LOOP('',(#963,#964,#965,#966));
#161=EDGE_LOOP('',(#967,#968,#969,#970));
#162=EDGE_LOOP('',(#971,#972,#973,#974));
#163=EDGE_LOOP('',(#975,#976,#977,#978));
#164=EDGE_LOOP('',(#979,#980,#981,#982));
#165=EDGE_LOOP('',(#983,#984,#985,#986));
#166=EDGE_LOOP('',(#987,#988,#989,#990));
#167=EDGE_LOOP('',(#991,#992,#993,#994));
#168=EDGE_LOOP('',(#995,#996,#997,#998));
#169=EDGE_LOOP('',(#999,#1000,#1001,#1002));
#170=EDGE_LOOP('',(#1003,#1004,#1005,#1006));
#171=EDGE_LOOP('',(#1007,#1008,#1009,#1010));
#172=EDGE_LOOP('',(#1011,#1012,#1013,#1014));
#173=EDGE_LOOP('',(#1015,#1016,#1017,#1018));
#174=EDGE_LOOP('',(#1019,#1020,#1021,#1022));
#175=EDGE_LOOP('',(#1023,#1024,#1025,#1026));
#176=EDGE_LOOP('',(#1027,#1028,#1029,#1030));
#177=EDGE_LOOP('',(#1031,#1032,#1033,#1034));
#178=EDGE_LOOP('',(#1035,#1036,#1037,#1038));
#179=EDGE_LOOP('',(#1039,#1040,#1041,#1042));
#180=EDGE_LOOP('',(#1043,#1044,#1045,#1046));
#181=EDGE_LOOP('',(#1047,#1048,#1049,#1050));
#182=EDGE_LOOP('',(#1051,#1052,#1053,#1054));
#183=EDGE_LOOP('',(#1055,#1056,#1057,#1058));
#184=EDGE_LOOP('',(#1059,#1060,#1061,#1062));
#185=EDGE_LOOP('',(#1063,#1064,#1065,#1066));
#186=EDGE_LOOP('',(#1067,#1068,#1069,#1070));
#187=LINE('',#1632,#343);
#188=LINE('',#1634,#344);
#189=LINE('',#1636,#345);
#190=LINE('',#1637,#346);
#191=LINE('',#1641,#347);
#192=LINE('',#1643,#348);
#193=LINE('',#1645,#349);
#194=LINE('',#1646,#350);
#195=LINE('',#1648,#351);
#196=LINE('',#1649,#352);
#197=LINE('',#1651,#353);
#198=LINE('',#1652,#354);
#199=LINE('',#1658,#355);
#200=LINE('',#1660,#356);
#201=LINE('',#1662,#357);
#202=LINE('',#1663,#358);
#203=LINE('',#1667,#359);
#204=LINE('',#1669,#360);
#205=LINE('',#1671,#361);
#206=LINE('',#1672,#362);
#207=LINE('',#1674,#363);
#208=LINE('',#1675,#364);
#209=LINE('',#1677,#365);
#210=LINE('',#1678,#366);
#211=LINE('',#1684,#367);
#212=LINE('',#1686,#368);
#213=LINE('',#1688,#369);
#214=LINE('',#1689,#370);
#215=LINE('',#1693,#371);
#216=LINE('',#1695,#372);
#217=LINE('',#1697,#373);
#218=LINE('',#1698,#374);
#219=LINE('',#1700,#375);
#220=LINE('',#1701,#376);
#221=LINE('',#1703,#377);
#222=LINE('',#1704,#378);
#223=LINE('',#1710,#379);
#224=LINE('',#1712,#380);
#225=LINE('',#1714,#381);
#226=LINE('',#1715,#382);
#227=LINE('',#1718,#383);
#228=LINE('',#1720,#384);
#229=LINE('',#1721,#385);
#230=LINE('',#1724,#386);
#231=LINE('',#1726,#387);
#232=LINE('',#1727,#388);
#233=LINE('',#1729,#389);
#234=LINE('',#1730,#390);
#235=LINE('',#1736,#391);
#236=LINE('',#1738,#392);
#237=LINE('',#1740,#393);
#238=LINE('',#1741,#394);
#239=LINE('',#1745,#395);
#240=LINE('',#1747,#396);
#241=LINE('',#1749,#397);
#242=LINE('',#1750,#398);
#243=LINE('',#1754,#399);
#244=LINE('',#1756,#400);
#245=LINE('',#1758,#401);
#246=LINE('',#1759,#402);
#247=LINE('',#1763,#403);
#248=LINE('',#1764,#404);
#249=LINE('',#1765,#405);
#250=LINE('',#1769,#406);
#251=LINE('',#1770,#407);
#252=LINE('',#1771,#408);
#253=LINE('',#1773,#409);
#254=LINE('',#1774,#410);
#255=LINE('',#1776,#411);
#256=LINE('',#1777,#412);
#257=LINE('',#1781,#413);
#258=LINE('',#1783,#414);
#259=LINE('',#1784,#415);
#260=LINE('',#1787,#416);
#261=LINE('',#1789,#417);
#262=LINE('',#1790,#418);
#263=LINE('',#1794,#419);
#264=LINE('',#1796,#420);
#265=LINE('',#1798,#421);
#266=LINE('',#1799,#422);
#267=LINE('',#1801,#423);
#268=LINE('',#1802,#424);
#269=LINE('',#1804,#425);
#270=LINE('',#1806,#426);
#271=LINE('',#1811,#427);
#272=LINE('',#1813,#428);
#273=LINE('',#1815,#429);
#274=LINE('',#1816,#430);
#275=LINE('',#1819,#431);
#276=LINE('',#1821,#432);
#277=LINE('',#1822,#433);
#278=LINE('',#1825,#434);
#279=LINE('',#1827,#435);
#280=LINE('',#1828,#436);
#281=LINE('',#1830,#437);
#282=LINE('',#1831,#438);
#283=LINE('',#1837,#439);
#284=LINE('',#1839,#440);
#285=LINE('',#1841,#441);
#286=LINE('',#1842,#442);
#287=LINE('',#1845,#443);
#288=LINE('',#1847,#444);
#289=LINE('',#1848,#445);
#290=LINE('',#1851,#446);
#291=LINE('',#1853,#447);
#292=LINE('',#1854,#448);
#293=LINE('',#1856,#449);
#294=LINE('',#1857,#450);
#295=LINE('',#1863,#451);
#296=LINE('',#1865,#452);
#297=LINE('',#1867,#453);
#298=LINE('',#1868,#454);
#299=LINE('',#1871,#455);
#300=LINE('',#1873,#456);
#301=LINE('',#1874,#457);
#302=LINE('',#1877,#458);
#303=LINE('',#1879,#459);
#304=LINE('',#1880,#460);
#305=LINE('',#1882,#461);
#306=LINE('',#1883,#462);
#307=LINE('',#1889,#463);
#308=LINE('',#1891,#464);
#309=LINE('',#1893,#465);
#310=LINE('',#1894,#466);
#311=LINE('',#1897,#467);
#312=LINE('',#1899,#468);
#313=LINE('',#1900,#469);
#314=LINE('',#1903,#470);
#315=LINE('',#1905,#471);
#316=LINE('',#1906,#472);
#317=LINE('',#1908,#473);
#318=LINE('',#1909,#474);
#319=LINE('',#1915,#475);
#320=LINE('',#1917,#476);
#321=LINE('',#1919,#477);
#322=LINE('',#1920,#478);
#323=LINE('',#1923,#479);
#324=LINE('',#1925,#480);
#325=LINE('',#1926,#481);
#326=LINE('',#1929,#482);
#327=LINE('',#1931,#483);
#328=LINE('',#1932,#484);
#329=LINE('',#1934,#485);
#330=LINE('',#1935,#486);
#331=LINE('',#1941,#487);
#332=LINE('',#1943,#488);
#333=LINE('',#1945,#489);
#334=LINE('',#1946,#490);
#335=LINE('',#1949,#491);
#336=LINE('',#1951,#492);
#337=LINE('',#1952,#493);
#338=LINE('',#1955,#494);
#339=LINE('',#1957,#495);
#340=LINE('',#1958,#496);
#341=LINE('',#1960,#497);
#342=LINE('',#1961,#498);
#343=VECTOR('',#1324,10.);
#344=VECTOR('',#1325,10.);
#345=VECTOR('',#1326,10.);
#346=VECTOR('',#1327,10.);
#347=VECTOR('',#1330,10.);
#348=VECTOR('',#1331,10.);
#349=VECTOR('',#1332,10.);
#350=VECTOR('',#1333,10.);
#351=VECTOR('',#1336,10.);
#352=VECTOR('',#1337,10.);
#353=VECTOR('',#1340,10.);
#354=VECTOR('',#1341,10.);
#355=VECTOR('',#1348,10.);
#356=VECTOR('',#1349,10.);
#357=VECTOR('',#1350,10.);
#358=VECTOR('',#1351,10.);
#359=VECTOR('',#1354,10.);
#360=VECTOR('',#1355,10.);
#361=VECTOR('',#1356,10.);
#362=VECTOR('',#1357,10.);
#363=VECTOR('',#1360,10.);
#364=VECTOR('',#1361,10.);
#365=VECTOR('',#1364,10.);
#366=VECTOR('',#1365,10.);
#367=VECTOR('',#1372,10.);
#368=VECTOR('',#1373,10.);
#369=VECTOR('',#1374,10.);
#370=VECTOR('',#1375,10.);
#371=VECTOR('',#1378,10.);
#372=VECTOR('',#1379,10.);
#373=VECTOR('',#1380,10.);
#374=VECTOR('',#1381,10.);
#375=VECTOR('',#1384,10.);
#376=VECTOR('',#1385,10.);
#377=VECTOR('',#1388,10.);
#378=VECTOR('',#1389,10.);
#379=VECTOR('',#1396,10.);
#380=VECTOR('',#1397,10.);
#381=VECTOR('',#1398,10.);
#382=VECTOR('',#1399,10.);
#383=VECTOR('',#1402,10.);
#384=VECTOR('',#1403,10.);
#385=VECTOR('',#1404,10.);
#386=VECTOR('',#1407,10.);
#387=VECTOR('',#1408,10.);
#388=VECTOR('',#1409,10.);
#389=VECTOR('',#1412,10.);
#390=VECTOR('',#1413,10.);
#391=VECTOR('',#1420,10.);
#392=VECTOR('',#1421,10.);
#393=VECTOR('',#1422,10.);
#394=VECTOR('',#1423,10.);
#395=VECTOR('',#1426,10.);
#396=VECTOR('',#1427,10.);
#397=VECTOR('',#1428,10.);
#398=VECTOR('',#1429,10.);
#399=VECTOR('',#1432,10.);
#400=VECTOR('',#1433,10.);
#401=VECTOR('',#1434,10.);
#402=VECTOR('',#1435,10.);
#403=VECTOR('',#1438,10.);
#404=VECTOR('',#1439,10.);
#405=VECTOR('',#1440,10.);
#406=VECTOR('',#1443,10.);
#407=VECTOR('',#1444,10.);
#408=VECTOR('',#1445,10.);
#409=VECTOR('',#1448,10.);
#410=VECTOR('',#1449,10.);
#411=VECTOR('',#1452,10.);
#412=VECTOR('',#1453,10.);
#413=VECTOR('',#1458,10.);
#414=VECTOR('',#1459,10.);
#415=VECTOR('',#1460,10.);
#416=VECTOR('',#1463,10.);
#417=VECTOR('',#1464,10.);
#418=VECTOR('',#1465,10.);
#419=VECTOR('',#1468,10.);
#420=VECTOR('',#1469,10.);
#421=VECTOR('',#1470,10.);
#422=VECTOR('',#1471,10.);
#423=VECTOR('',#1474,10.);
#424=VECTOR('',#1475,10.);
#425=VECTOR('',#1478,10.);
#426=VECTOR('',#1481,10.);
#427=VECTOR('',#1486,10.);
#428=VECTOR('',#1487,10.);
#429=VECTOR('',#1488,10.);
#430=VECTOR('',#1489,10.);
#431=VECTOR('',#1492,10.);
#432=VECTOR('',#1493,10.);
#433=VECTOR('',#1494,10.);
#434=VECTOR('',#1497,10.);
#435=VECTOR('',#1498,10.);
#436=VECTOR('',#1499,10.);
#437=VECTOR('',#1502,10.);
#438=VECTOR('',#1503,10.);
#439=VECTOR('',#1510,10.);
#440=VECTOR('',#1511,10.);
#441=VECTOR('',#1512,10.);
#442=VECTOR('',#1513,10.);
#443=VECTOR('',#1516,10.);
#444=VECTOR('',#1517,10.);
#445=VECTOR('',#1518,10.);
#446=VECTOR('',#1521,10.);
#447=VECTOR('',#1522,10.);
#448=VECTOR('',#1523,10.);
#449=VECTOR('',#1526,10.);
#450=VECTOR('',#1527,10.);
#451=VECTOR('',#1534,10.);
#452=VECTOR('',#1535,10.);
#453=VECTOR('',#1536,10.);
#454=VECTOR('',#1537,10.);
#455=VECTOR('',#1540,10.);
#456=VECTOR('',#1541,10.);
#457=VECTOR('',#1542,10.);
#458=VECTOR('',#1545,10.);
#459=VECTOR('',#1546,10.);
#460=VECTOR('',#1547,10.);
#461=VECTOR('',#1550,10.);
#462=VECTOR('',#1551,10.);
#463=VECTOR('',#1558,10.);
#464=VECTOR('',#1559,10.);
#465=VECTOR('',#1560,10.);
#466=VECTOR('',#1561,10.);
#467=VECTOR('',#1564,10.);
#468=VECTOR('',#1565,10.);
#469=VECTOR('',#1566,10.);
#470=VECTOR('',#1569,10.);
#471=VECTOR('',#1570,10.);
#472=VECTOR('',#1571,10.);
#473=VECTOR('',#1574,10.);
#474=VECTOR('',#1575,10.);
#475=VECTOR('',#1582,10.);
#476=VECTOR('',#1583,10.);
#477=VECTOR('',#1584,10.);
#478=VECTOR('',#1585,10.);
#479=VECTOR('',#1588,10.);
#480=VECTOR('',#1589,10.);
#481=VECTOR('',#1590,10.);
#482=VECTOR('',#1593,10.);
#483=VECTOR('',#1594,10.);
#484=VECTOR('',#1595,10.);
#485=VECTOR('',#1598,10.);
#486=VECTOR('',#1599,10.);
#487=VECTOR('',#1606,10.);
#488=VECTOR('',#1607,10.);
#489=VECTOR('',#1608,10.);
#490=VECTOR('',#1609,10.);
#491=VECTOR('',#1612,10.);
#492=VECTOR('',#1613,10.);
#493=VECTOR('',#1614,10.);
#494=VECTOR('',#1617,10.);
#495=VECTOR('',#1618,10.);
#496=VECTOR('',#1619,10.);
#497=VECTOR('',#1622,10.);
#498=VECTOR('',#1623,10.);
#499=VERTEX_POINT('',#1630);
#500=VERTEX_POINT('',#1631);
#501=VERTEX_POINT('',#1633);
#502=VERTEX_POINT('',#1635);
#503=VERTEX_POINT('',#1639);
#504=VERTEX_POINT('',#1640);
#505=VERTEX_POINT('',#1642);
#506=VERTEX_POINT('',#1644);
#507=VERTEX_POINT('',#1656);
#508=VERTEX_POINT('',#1657);
#509=VERTEX_POINT('',#1659);
#510=VERTEX_POINT('',#1661);
#511=VERTEX_POINT('',#1665);
#512=VERTEX_POINT('',#1666);
#513=VERTEX_POINT('',#1668);
#514=VERTEX_POINT('',#1670);
#515=VERTEX_POINT('',#1682);
#516=VERTEX_POINT('',#1683);
#517=VERTEX_POINT('',#1685);
#518=VERTEX_POINT('',#1687);
#519=VERTEX_POINT('',#1691);
#520=VERTEX_POINT('',#1692);
#521=VERTEX_POINT('',#1694);
#522=VERTEX_POINT('',#1696);
#523=VERTEX_POINT('',#1708);
#524=VERTEX_POINT('',#1709);
#525=VERTEX_POINT('',#1711);
#526=VERTEX_POINT('',#1713);
#527=VERTEX_POINT('',#1717);
#528=VERTEX_POINT('',#1719);
#529=VERTEX_POINT('',#1723);
#530=VERTEX_POINT('',#1725);
#531=VERTEX_POINT('',#1734);
#532=VERTEX_POINT('',#1735);
#533=VERTEX_POINT('',#1737);
#534=VERTEX_POINT('',#1739);
#535=VERTEX_POINT('',#1743);
#536=VERTEX_POINT('',#1744);
#537=VERTEX_POINT('',#1746);
#538=VERTEX_POINT('',#1748);
#539=VERTEX_POINT('',#1752);
#540=VERTEX_POINT('',#1753);
#541=VERTEX_POINT('',#1755);
#542=VERTEX_POINT('',#1757);
#543=VERTEX_POINT('',#1761);
#544=VERTEX_POINT('',#1762);
#545=VERTEX_POINT('',#1767);
#546=VERTEX_POINT('',#1768);
#547=VERTEX_POINT('',#1780);
#548=VERTEX_POINT('',#1782);
#549=VERTEX_POINT('',#1786);
#550=VERTEX_POINT('',#1788);
#551=VERTEX_POINT('',#1792);
#552=VERTEX_POINT('',#1793);
#553=VERTEX_POINT('',#1795);
#554=VERTEX_POINT('',#1797);
#555=VERTEX_POINT('',#1809);
#556=VERTEX_POINT('',#1810);
#557=VERTEX_POINT('',#1812);
#558=VERTEX_POINT('',#1814);
#559=VERTEX_POINT('',#1818);
#560=VERTEX_POINT('',#1820);
#561=VERTEX_POINT('',#1824);
#562=VERTEX_POINT('',#1826);
#563=VERTEX_POINT('',#1835);
#564=VERTEX_POINT('',#1836);
#565=VERTEX_POINT('',#1838);
#566=VERTEX_POINT('',#1840);
#567=VERTEX_POINT('',#1844);
#568=VERTEX_POINT('',#1846);
#569=VERTEX_POINT('',#1850);
#570=VERTEX_POINT('',#1852);
#571=VERTEX_POINT('',#1861);
#572=VERTEX_POINT('',#1862);
#573=VERTEX_POINT('',#1864);
#574=VERTEX_POINT('',#1866);
#575=VERTEX_POINT('',#1870);
#576=VERTEX_POINT('',#1872);
#577=VERTEX_POINT('',#1876);
#578=VERTEX_POINT('',#1878);
#579=VERTEX_POINT('',#1887);
#580=VERTEX_POINT('',#1888);
#581=VERTEX_POINT('',#1890);
#582=VERTEX_POINT('',#1892);
#583=VERTEX_POINT('',#1896);
#584=VERTEX_POINT('',#1898);
#585=VERTEX_POINT('',#1902);
#586=VERTEX_POINT('',#1904);
#587=VERTEX_POINT('',#1913);
#588=VERTEX_POINT('',#1914);
#589=VERTEX_POINT('',#1916);
#590=VERTEX_POINT('',#1918);
#591=VERTEX_POINT('',#1922);
#592=VERTEX_POINT('',#1924);
#593=VERTEX_POINT('',#1928);
#594=VERTEX_POINT('',#1930);
#595=VERTEX_POINT('',#1939);
#596=VERTEX_POINT('',#1940);
#597=VERTEX_POINT('',#1942);
#598=VERTEX_POINT('',#1944);
#599=VERTEX_POINT('',#1948);
#600=VERTEX_POINT('',#1950);
#601=VERTEX_POINT('',#1954);
#602=VERTEX_POINT('',#1956);
#603=EDGE_CURVE('',#499,#500,#187,.T.);
#604=EDGE_CURVE('',#500,#501,#188,.T.);
#605=EDGE_CURVE('',#501,#502,#189,.T.);
#606=EDGE_CURVE('',#499,#502,#190,.T.);
#607=EDGE_CURVE('',#503,#504,#191,.T.);
#608=EDGE_CURVE('',#505,#504,#192,.T.);
#609=EDGE_CURVE('',#505,#506,#193,.T.);
#610=EDGE_CURVE('',#506,#503,#194,.T.);
#611=EDGE_CURVE('',#501,#504,#195,.T.);
#612=EDGE_CURVE('',#503,#502,#196,.T.);
#613=EDGE_CURVE('',#506,#499,#197,.T.);
#614=EDGE_CURVE('',#500,#505,#198,.T.);
#615=EDGE_CURVE('',#507,#508,#199,.T.);
#616=EDGE_CURVE('',#508,#509,#200,.T.);
#617=EDGE_CURVE('',#510,#509,#201,.T.);
#618=EDGE_CURVE('',#507,#510,#202,.T.);
#619=EDGE_CURVE('',#511,#512,#203,.T.);
#620=EDGE_CURVE('',#512,#513,#204,.T.);
#621=EDGE_CURVE('',#514,#513,#205,.T.);
#622=EDGE_CURVE('',#511,#514,#206,.T.);
#623=EDGE_CURVE('',#512,#507,#207,.T.);
#624=EDGE_CURVE('',#508,#511,#208,.T.);
#625=EDGE_CURVE('',#510,#513,#209,.T.);
#626=EDGE_CURVE('',#514,#509,#210,.T.);
#627=EDGE_CURVE('',#515,#516,#211,.T.);
#628=EDGE_CURVE('',#516,#517,#212,.T.);
#629=EDGE_CURVE('',#517,#518,#213,.T.);
#630=EDGE_CURVE('',#515,#518,#214,.T.);
#631=EDGE_CURVE('',#519,#520,#215,.T.);
#632=EDGE_CURVE('',#521,#520,#216,.T.);
#633=EDGE_CURVE('',#521,#522,#217,.T.);
#634=EDGE_CURVE('',#522,#519,#218,.T.);
#635=EDGE_CURVE('',#517,#520,#219,.T.);
#636=EDGE_CURVE('',#519,#518,#220,.T.);
#637=EDGE_CURVE('',#522,#515,#221,.T.);
#638=EDGE_CURVE('',#516,#521,#222,.T.);
#639=EDGE_CURVE('',#523,#524,#223,.T.);
#640=EDGE_CURVE('',#525,#523,#224,.T.);
#641=EDGE_CURVE('',#526,#525,#225,.T.);
#642=EDGE_CURVE('',#524,#526,#226,.T.);
#643=EDGE_CURVE('',#523,#527,#227,.T.);
#644=EDGE_CURVE('',#528,#527,#228,.T.);
#645=EDGE_CURVE('',#525,#528,#229,.T.);
#646=EDGE_CURVE('',#526,#529,#230,.T.);
#647=EDGE_CURVE('',#530,#529,#231,.T.);
#648=EDGE_CURVE('',#524,#530,#232,.T.);
#649=EDGE_CURVE('',#530,#527,#233,.T.);
#650=EDGE_CURVE('',#528,#529,#234,.T.);
#651=EDGE_CURVE('',#531,#532,#235,.T.);
#652=EDGE_CURVE('',#531,#533,#236,.T.);
#653=EDGE_CURVE('',#534,#533,#237,.T.);
#654=EDGE_CURVE('',#532,#534,#238,.T.);
#655=EDGE_CURVE('',#535,#536,#239,.T.);
#656=EDGE_CURVE('',#535,#537,#240,.T.);
#657=EDGE_CURVE('',#538,#537,#241,.T.);
#658=EDGE_CURVE('',#536,#538,#242,.T.);
#659=EDGE_CURVE('',#539,#540,#243,.T.);
#660=EDGE_CURVE('',#541,#540,#244,.T.);
#661=EDGE_CURVE('',#541,#542,#245,.T.);
#662=EDGE_CURVE('',#539,#542,#246,.T.);
#663=EDGE_CURVE('',#543,#544,#247,.T.);
#664=EDGE_CURVE('',#540,#544,#248,.T.);
#665=EDGE_CURVE('',#543,#539,#249,.T.);
#666=EDGE_CURVE('',#545,#546,#250,.T.);
#667=EDGE_CURVE('',#544,#546,#251,.T.);
#668=EDGE_CURVE('',#545,#543,#252,.T.);
#669=EDGE_CURVE('',#546,#541,#253,.T.);
#670=EDGE_CURVE('',#542,#545,#254,.T.);
#671=EDGE_CURVE('',#533,#538,#255,.T.);
#672=EDGE_CURVE('',#537,#534,#256,.T.);
#673=EDGE_CURVE('',#532,#547,#257,.T.);
#674=EDGE_CURVE('',#547,#548,#258,.T.);
#675=EDGE_CURVE('',#548,#531,#259,.T.);
#676=EDGE_CURVE('',#536,#549,#260,.T.);
#677=EDGE_CURVE('',#549,#550,#261,.T.);
#678=EDGE_CURVE('',#550,#535,#262,.T.);
#679=EDGE_CURVE('',#551,#552,#263,.T.);
#680=EDGE_CURVE('',#553,#552,#264,.T.);
#681=EDGE_CURVE('',#553,#554,#265,.T.);
#682=EDGE_CURVE('',#551,#554,#266,.T.);
#683=EDGE_CURVE('',#551,#547,#267,.T.);
#684=EDGE_CURVE('',#552,#550,#268,.T.);
#685=EDGE_CURVE('',#553,#549,#269,.T.);
#686=EDGE_CURVE('',#554,#548,#270,.T.);
#687=EDGE_CURVE('',#555,#556,#271,.T.);
#688=EDGE_CURVE('',#556,#557,#272,.T.);
#689=EDGE_CURVE('',#558,#557,#273,.T.);
#690=EDGE_CURVE('',#555,#558,#274,.T.);
#691=EDGE_CURVE('',#559,#555,#275,.T.);
#692=EDGE_CURVE('',#560,#558,#276,.T.);
#693=EDGE_CURVE('',#559,#560,#277,.T.);
#694=EDGE_CURVE('',#561,#559,#278,.T.);
#695=EDGE_CURVE('',#562,#560,#279,.T.);
#696=EDGE_CURVE('',#561,#562,#280,.T.);
#697=EDGE_CURVE('',#556,#561,#281,.T.);
#698=EDGE_CURVE('',#557,#562,#282,.T.);
#699=EDGE_CURVE('',#563,#564,#283,.T.);
#700=EDGE_CURVE('',#564,#565,#284,.T.);
#701=EDGE_CURVE('',#566,#565,#285,.T.);
#702=EDGE_CURVE('',#563,#566,#286,.T.);
#703=EDGE_CURVE('',#567,#563,#287,.T.);
#704=EDGE_CURVE('',#568,#566,#288,.T.);
#705=EDGE_CURVE('',#567,#568,#289,.T.);
#706=EDGE_CURVE('',#569,#567,#290,.T.);
#707=EDGE_CURVE('',#570,#568,#291,.T.);
#708=EDGE_CURVE('',#569,#570,#292,.T.);
#709=EDGE_CURVE('',#564,#569,#293,.T.);
#710=EDGE_CURVE('',#565,#570,#294,.T.);
#711=EDGE_CURVE('',#571,#572,#295,.T.);
#712=EDGE_CURVE('',#572,#573,#296,.T.);
#713=EDGE_CURVE('',#574,#573,#297,.T.);
#714=EDGE_CURVE('',#571,#574,#298,.T.);
#715=EDGE_CURVE('',#575,#571,#299,.T.);
#716=EDGE_CURVE('',#576,#574,#300,.T.);
#717=EDGE_CURVE('',#575,#576,#301,.T.);
#718=EDGE_CURVE('',#577,#575,#302,.T.);
#719=EDGE_CURVE('',#578,#576,#303,.T.);
#720=EDGE_CURVE('',#577,#578,#304,.T.);
#721=EDGE_CURVE('',#572,#577,#305,.T.);
#722=EDGE_CURVE('',#573,#578,#306,.T.);
#723=EDGE_CURVE('',#579,#580,#307,.T.);
#724=EDGE_CURVE('',#580,#581,#308,.T.);
#725=EDGE_CURVE('',#582,#581,#309,.T.);
#726=EDGE_CURVE('',#579,#582,#310,.T.);
#727=EDGE_CURVE('',#583,#579,#311,.T.);
#728=EDGE_CURVE('',#584,#582,#312,.T.);
#729=EDGE_CURVE('',#583,#584,#313,.T.);
#730=EDGE_CURVE('',#585,#583,#314,.T.);
#731=EDGE_CURVE('',#586,#584,#315,.T.);
#732=EDGE_CURVE('',#585,#586,#316,.T.);
#733=EDGE_CURVE('',#580,#585,#317,.T.);
#734=EDGE_CURVE('',#581,#586,#318,.T.);
#735=EDGE_CURVE('',#587,#588,#319,.T.);
#736=EDGE_CURVE('',#588,#589,#320,.T.);
#737=EDGE_CURVE('',#590,#589,#321,.T.);
#738=EDGE_CURVE('',#587,#590,#322,.T.);
#739=EDGE_CURVE('',#591,#587,#323,.T.);
#740=EDGE_CURVE('',#592,#590,#324,.T.);
#741=EDGE_CURVE('',#591,#592,#325,.T.);
#742=EDGE_CURVE('',#593,#591,#326,.T.);
#743=EDGE_CURVE('',#594,#592,#327,.T.);
#744=EDGE_CURVE('',#593,#594,#328,.T.);
#745=EDGE_CURVE('',#588,#593,#329,.T.);
#746=EDGE_CURVE('',#589,#594,#330,.T.);
#747=EDGE_CURVE('',#595,#596,#331,.T.);
#748=EDGE_CURVE('',#596,#597,#332,.T.);
#749=EDGE_CURVE('',#598,#597,#333,.T.);
#750=EDGE_CURVE('',#595,#598,#334,.T.);
#751=EDGE_CURVE('',#599,#595,#335,.T.);
#752=EDGE_CURVE('',#600,#598,#336,.T.);
#753=EDGE_CURVE('',#599,#600,#337,.T.);
#754=EDGE_CURVE('',#601,#599,#338,.T.);
#755=EDGE_CURVE('',#602,#600,#339,.T.);
#756=EDGE_CURVE('',#601,#602,#340,.T.);
#757=EDGE_CURVE('',#596,#601,#341,.T.);
#758=EDGE_CURVE('',#597,#602,#342,.T.);
#759=ORIENTED_EDGE('',*,*,#603,.T.);
#760=ORIENTED_EDGE('',*,*,#604,.T.);
#761=ORIENTED_EDGE('',*,*,#605,.T.);
#762=ORIENTED_EDGE('',*,*,#606,.F.);
#763=ORIENTED_EDGE('',*,*,#607,.T.);
#764=ORIENTED_EDGE('',*,*,#608,.F.);
#765=ORIENTED_EDGE('',*,*,#609,.T.);
#766=ORIENTED_EDGE('',*,*,#610,.T.);
#767=ORIENTED_EDGE('',*,*,#605,.F.);
#768=ORIENTED_EDGE('',*,*,#611,.T.);
#769=ORIENTED_EDGE('',*,*,#607,.F.);
#770=ORIENTED_EDGE('',*,*,#612,.T.);
#771=ORIENTED_EDGE('',*,*,#603,.F.);
#772=ORIENTED_EDGE('',*,*,#613,.F.);
#773=ORIENTED_EDGE('',*,*,#609,.F.);
#774=ORIENTED_EDGE('',*,*,#614,.F.);
#775=ORIENTED_EDGE('',*,*,#613,.T.);
#776=ORIENTED_EDGE('',*,*,#606,.T.);
#777=ORIENTED_EDGE('',*,*,#612,.F.);
#778=ORIENTED_EDGE('',*,*,#610,.F.);
#779=ORIENTED_EDGE('',*,*,#614,.T.);
#780=ORIENTED_EDGE('',*,*,#608,.T.);
#781=ORIENTED_EDGE('',*,*,#611,.F.);
#782=ORIENTED_EDGE('',*,*,#604,.F.);
#783=ORIENTED_EDGE('',*,*,#615,.T.);
#784=ORIENTED_EDGE('',*,*,#616,.T.);
#785=ORIENTED_EDGE('',*,*,#617,.F.);
#786=ORIENTED_EDGE('',*,*,#618,.F.);
#787=ORIENTED_EDGE('',*,*,#619,.T.);
#788=ORIENTED_EDGE('',*,*,#620,.T.);
#789=ORIENTED_EDGE('',*,*,#621,.F.);
#790=ORIENTED_EDGE('',*,*,#622,.F.);
#791=ORIENTED_EDGE('',*,*,#623,.F.);
#792=ORIENTED_EDGE('',*,*,#619,.F.);
#793=ORIENTED_EDGE('',*,*,#624,.F.);
#794=ORIENTED_EDGE('',*,*,#615,.F.);
#795=ORIENTED_EDGE('',*,*,#625,.F.);
#796=ORIENTED_EDGE('',*,*,#617,.T.);
#797=ORIENTED_EDGE('',*,*,#626,.F.);
#798=ORIENTED_EDGE('',*,*,#621,.T.);
#799=ORIENTED_EDGE('',*,*,#626,.T.);
#800=ORIENTED_EDGE('',*,*,#616,.F.);
#801=ORIENTED_EDGE('',*,*,#624,.T.);
#802=ORIENTED_EDGE('',*,*,#622,.T.);
#803=ORIENTED_EDGE('',*,*,#620,.F.);
#804=ORIENTED_EDGE('',*,*,#623,.T.);
#805=ORIENTED_EDGE('',*,*,#618,.T.);
#806=ORIENTED_EDGE('',*,*,#625,.T.);
#807=ORIENTED_EDGE('',*,*,#627,.T.);
#808=ORIENTED_EDGE('',*,*,#628,.T.);
#809=ORIENTED_EDGE('',*,*,#629,.T.);
#810=ORIENTED_EDGE('',*,*,#630,.F.);
#811=ORIENTED_EDGE('',*,*,#631,.T.);
#812=ORIENTED_EDGE('',*,*,#632,.F.);
#813=ORIENTED_EDGE('',*,*,#633,.T.);
#814=ORIENTED_EDGE('',*,*,#634,.T.);
#815=ORIENTED_EDGE('',*,*,#629,.F.);
#816=ORIENTED_EDGE('',*,*,#635,.T.);
#817=ORIENTED_EDGE('',*,*,#631,.F.);
#818=ORIENTED_EDGE('',*,*,#636,.T.);
#819=ORIENTED_EDGE('',*,*,#627,.F.);
#820=ORIENTED_EDGE('',*,*,#637,.F.);
#821=ORIENTED_EDGE('',*,*,#633,.F.);
#822=ORIENTED_EDGE('',*,*,#638,.F.);
#823=ORIENTED_EDGE('',*,*,#637,.T.);
#824=ORIENTED_EDGE('',*,*,#630,.T.);
#825=ORIENTED_EDGE('',*,*,#636,.F.);
#826=ORIENTED_EDGE('',*,*,#634,.F.);
#827=ORIENTED_EDGE('',*,*,#638,.T.);
#828=ORIENTED_EDGE('',*,*,#632,.T.);
#829=ORIENTED_EDGE('',*,*,#635,.F.);
#830=ORIENTED_EDGE('',*,*,#628,.F.);
#831=ORIENTED_EDGE('',*,*,#639,.F.);
#832=ORIENTED_EDGE('',*,*,#640,.F.);
#833=ORIENTED_EDGE('',*,*,#641,.F.);
#834=ORIENTED_EDGE('',*,*,#642,.F.);
#835=ORIENTED_EDGE('',*,*,#640,.T.);
#836=ORIENTED_EDGE('',*,*,#643,.T.);
#837=ORIENTED_EDGE('',*,*,#644,.F.);
#838=ORIENTED_EDGE('',*,*,#645,.F.);
#839=ORIENTED_EDGE('',*,*,#642,.T.);
#840=ORIENTED_EDGE('',*,*,#646,.T.);
#841=ORIENTED_EDGE('',*,*,#647,.F.);
#842=ORIENTED_EDGE('',*,*,#648,.F.);
#843=ORIENTED_EDGE('',*,*,#649,.F.);
#844=ORIENTED_EDGE('',*,*,#647,.T.);
#845=ORIENTED_EDGE('',*,*,#650,.F.);
#846=ORIENTED_EDGE('',*,*,#644,.T.);
#847=ORIENTED_EDGE('',*,*,#650,.T.);
#848=ORIENTED_EDGE('',*,*,#646,.F.);
#849=ORIENTED_EDGE('',*,*,#641,.T.);
#850=ORIENTED_EDGE('',*,*,#645,.T.);
#851=ORIENTED_EDGE('',*,*,#639,.T.);
#852=ORIENTED_EDGE('',*,*,#648,.T.);
#853=ORIENTED_EDGE('',*,*,#649,.T.);
#854=ORIENTED_EDGE('',*,*,#643,.F.);
#855=ORIENTED_EDGE('',*,*,#651,.F.);
#856=ORIENTED_EDGE('',*,*,#652,.T.);
#857=ORIENTED_EDGE('',*,*,#653,.F.);
#858=ORIENTED_EDGE('',*,*,#654,.F.);
#859=ORIENTED_EDGE('',*,*,#655,.F.);
#860=ORIENTED_EDGE('',*,*,#656,.T.);
#861=ORIENTED_EDGE('',*,*,#657,.F.);
#862=ORIENTED_EDGE('',*,*,#658,.F.);
#863=ORIENTED_EDGE('',*,*,#659,.T.);
#864=ORIENTED_EDGE('',*,*,#660,.F.);
#865=ORIENTED_EDGE('',*,*,#661,.T.);
#866=ORIENTED_EDGE('',*,*,#662,.F.);
#867=ORIENTED_EDGE('',*,*,#663,.T.);
#868=ORIENTED_EDGE('',*,*,#664,.F.);
#869=ORIENTED_EDGE('',*,*,#659,.F.);
#870=ORIENTED_EDGE('',*,*,#665,.F.);
#871=ORIENTED_EDGE('',*,*,#666,.T.);
#872=ORIENTED_EDGE('',*,*,#667,.F.);
#873=ORIENTED_EDGE('',*,*,#663,.F.);
#874=ORIENTED_EDGE('',*,*,#668,.F.);
#875=ORIENTED_EDGE('',*,*,#661,.F.);
#876=ORIENTED_EDGE('',*,*,#669,.F.);
#877=ORIENTED_EDGE('',*,*,#666,.F.);
#878=ORIENTED_EDGE('',*,*,#670,.F.);
#879=ORIENTED_EDGE('',*,*,#669,.T.);
#880=ORIENTED_EDGE('',*,*,#660,.T.);
#881=ORIENTED_EDGE('',*,*,#664,.T.);
#882=ORIENTED_EDGE('',*,*,#667,.T.);
#883=ORIENTED_EDGE('',*,*,#653,.T.);
#884=ORIENTED_EDGE('',*,*,#671,.T.);
#885=ORIENTED_EDGE('',*,*,#657,.T.);
#886=ORIENTED_EDGE('',*,*,#672,.T.);
#887=ORIENTED_EDGE('',*,*,#665,.T.);
#888=ORIENTED_EDGE('',*,*,#662,.T.);
#889=ORIENTED_EDGE('',*,*,#670,.T.);
#890=ORIENTED_EDGE('',*,*,#668,.T.);
#891=ORIENTED_EDGE('',*,*,#651,.T.);
#892=ORIENTED_EDGE('',*,*,#673,.T.);
#893=ORIENTED_EDGE('',*,*,#674,.T.);
#894=ORIENTED_EDGE('',*,*,#675,.T.);
#895=ORIENTED_EDGE('',*,*,#655,.T.);
#896=ORIENTED_EDGE('',*,*,#676,.T.);
#897=ORIENTED_EDGE('',*,*,#677,.T.);
#898=ORIENTED_EDGE('',*,*,#678,.T.);
#899=ORIENTED_EDGE('',*,*,#679,.T.);
#900=ORIENTED_EDGE('',*,*,#680,.F.);
#901=ORIENTED_EDGE('',*,*,#681,.T.);
#902=ORIENTED_EDGE('',*,*,#682,.F.);
#903=ORIENTED_EDGE('',*,*,#679,.F.);
#904=ORIENTED_EDGE('',*,*,#683,.T.);
#905=ORIENTED_EDGE('',*,*,#673,.F.);
#906=ORIENTED_EDGE('',*,*,#654,.T.);
#907=ORIENTED_EDGE('',*,*,#672,.F.);
#908=ORIENTED_EDGE('',*,*,#656,.F.);
#909=ORIENTED_EDGE('',*,*,#678,.F.);
#910=ORIENTED_EDGE('',*,*,#684,.F.);
#911=ORIENTED_EDGE('',*,*,#680,.T.);
#912=ORIENTED_EDGE('',*,*,#684,.T.);
#913=ORIENTED_EDGE('',*,*,#677,.F.);
#914=ORIENTED_EDGE('',*,*,#685,.F.);
#915=ORIENTED_EDGE('',*,*,#681,.F.);
#916=ORIENTED_EDGE('',*,*,#685,.T.);
#917=ORIENTED_EDGE('',*,*,#676,.F.);
#918=ORIENTED_EDGE('',*,*,#658,.T.);
#919=ORIENTED_EDGE('',*,*,#671,.F.);
#920=ORIENTED_EDGE('',*,*,#652,.F.);
#921=ORIENTED_EDGE('',*,*,#675,.F.);
#922=ORIENTED_EDGE('',*,*,#686,.F.);
#923=ORIENTED_EDGE('',*,*,#682,.T.);
#924=ORIENTED_EDGE('',*,*,#686,.T.);
#925=ORIENTED_EDGE('',*,*,#674,.F.);
#926=ORIENTED_EDGE('',*,*,#683,.F.);
#927=ORIENTED_EDGE('',*,*,#687,.T.);
#928=ORIENTED_EDGE('',*,*,#688,.T.);
#929=ORIENTED_EDGE('',*,*,#689,.F.);
#930=ORIENTED_EDGE('',*,*,#690,.F.);
#931=ORIENTED_EDGE('',*,*,#691,.T.);
#932=ORIENTED_EDGE('',*,*,#690,.T.);
#933=ORIENTED_EDGE('',*,*,#692,.F.);
#934=ORIENTED_EDGE('',*,*,#693,.F.);
#935=ORIENTED_EDGE('',*,*,#694,.T.);
#936=ORIENTED_EDGE('',*,*,#693,.T.);
#937=ORIENTED_EDGE('',*,*,#695,.F.);
#938=ORIENTED_EDGE('',*,*,#696,.F.);
#939=ORIENTED_EDGE('',*,*,#697,.T.);
#940=ORIENTED_EDGE('',*,*,#696,.T.);
#941=ORIENTED_EDGE('',*,*,#698,.F.);
#942=ORIENTED_EDGE('',*,*,#688,.F.);
#943=ORIENTED_EDGE('',*,*,#697,.F.);
#944=ORIENTED_EDGE('',*,*,#687,.F.);
#945=ORIENTED_EDGE('',*,*,#691,.F.);
#946=ORIENTED_EDGE('',*,*,#694,.F.);
#947=ORIENTED_EDGE('',*,*,#698,.T.);
#948=ORIENTED_EDGE('',*,*,#695,.T.);
#949=ORIENTED_EDGE('',*,*,#692,.T.);
#950=ORIENTED_EDGE('',*,*,#689,.T.);
#951=ORIENTED_EDGE('',*,*,#699,.T.);
#952=ORIENTED_EDGE('',*,*,#700,.T.);
#953=ORIENTED_EDGE('',*,*,#701,.F.);
#954=ORIENTED_EDGE('',*,*,#702,.F.);
#955=ORIENTED_EDGE('',*,*,#703,.T.);
#956=ORIENTED_EDGE('',*,*,#702,.T.);
#957=ORIENTED_EDGE('',*,*,#704,.F.);
#958=ORIENTED_EDGE('',*,*,#705,.F.);
#959=ORIENTED_EDGE('',*,*,#706,.T.);
#960=ORIENTED_EDGE('',*,*,#705,.T.);
#961=ORIENTED_EDGE('',*,*,#707,.F.);
#962=ORIENTED_EDGE('',*,*,#708,.F.);
#963=ORIENTED_EDGE('',*,*,#709,.T.);
#964=ORIENTED_EDGE('',*,*,#708,.T.);
#965=ORIENTED_EDGE('',*,*,#710,.F.);
#966=ORIENTED_EDGE('',*,*,#700,.F.);
#967=ORIENTED_EDGE('',*,*,#709,.F.);
#968=ORIENTED_EDGE('',*,*,#699,.F.);
#969=ORIENTED_EDGE('',*,*,#703,.F.);
#970=ORIENTED_EDGE('',*,*,#706,.F.);
#971=ORIENTED_EDGE('',*,*,#710,.T.);
#972=ORIENTED_EDGE('',*,*,#707,.T.);
#973=ORIENTED_EDGE('',*,*,#704,.T.);
#974=ORIENTED_EDGE('',*,*,#701,.T.);
#975=ORIENTED_EDGE('',*,*,#711,.T.);
#976=ORIENTED_EDGE('',*,*,#712,.T.);
#977=ORIENTED_EDGE('',*,*,#713,.F.);
#978=ORIENTED_EDGE('',*,*,#714,.F.);
#979=ORIENTED_EDGE('',*,*,#715,.T.);
#980=ORIENTED_EDGE('',*,*,#714,.T.);
#981=ORIENTED_EDGE('',*,*,#716,.F.);
#982=ORIENTED_EDGE('',*,*,#717,.F.);
#983=ORIENTED_EDGE('',*,*,#718,.T.);
#984=ORIENTED_EDGE('',*,*,#717,.T.);
#985=ORIENTED_EDGE('',*,*,#719,.F.);
#986=ORIENTED_EDGE('',*,*,#720,.F.);
#987=ORIENTED_EDGE('',*,*,#721,.T.);
#988=ORIENTED_EDGE('',*,*,#720,.T.);
#989=ORIENTED_EDGE('',*,*,#722,.F.);
#990=ORIENTED_EDGE('',*,*,#712,.F.);
#991=ORIENTED_EDGE('',*,*,#721,.F.);
#992=ORIENTED_EDGE('',*,*,#711,.F.);
#993=ORIENTED_EDGE('',*,*,#715,.F.);
#994=ORIENTED_EDGE('',*,*,#718,.F.);
#995=ORIENTED_EDGE('',*,*,#722,.T.);
#996=ORIENTED_EDGE('',*,*,#719,.T.);
#997=ORIENTED_EDGE('',*,*,#716,.T.);
#998=ORIENTED_EDGE('',*,*,#713,.T.);
#999=ORIENTED_EDGE('',*,*,#723,.T.);
#1000=ORIENTED_EDGE('',*,*,#724,.T.);
#1001=ORIENTED_EDGE('',*,*,#725,.F.);
#1002=ORIENTED_EDGE('',*,*,#726,.F.);
#1003=ORIENTED_EDGE('',*,*,#727,.T.);
#1004=ORIENTED_EDGE('',*,*,#726,.T.);
#1005=ORIENTED_EDGE('',*,*,#728,.F.);
#1006=ORIENTED_EDGE('',*,*,#729,.F.);
#1007=ORIENTED_EDGE('',*,*,#730,.T.);
#1008=ORIENTED_EDGE('',*,*,#729,.T.);
#1009=ORIENTED_EDGE('',*,*,#731,.F.);
#1010=ORIENTED_EDGE('',*,*,#732,.F.);
#1011=ORIENTED_EDGE('',*,*,#733,.T.);
#1012=ORIENTED_EDGE('',*,*,#732,.T.);
#1013=ORIENTED_EDGE('',*,*,#734,.F.);
#1014=ORIENTED_EDGE('',*,*,#724,.F.);
#1015=ORIENTED_EDGE('',*,*,#733,.F.);
#1016=ORIENTED_EDGE('',*,*,#723,.F.);
#1017=ORIENTED_EDGE('',*,*,#727,.F.);
#1018=ORIENTED_EDGE('',*,*,#730,.F.);
#1019=ORIENTED_EDGE('',*,*,#734,.T.);
#1020=ORIENTED_EDGE('',*,*,#731,.T.);
#1021=ORIENTED_EDGE('',*,*,#728,.T.);
#1022=ORIENTED_EDGE('',*,*,#725,.T.);
#1023=ORIENTED_EDGE('',*,*,#735,.T.);
#1024=ORIENTED_EDGE('',*,*,#736,.T.);
#1025=ORIENTED_EDGE('',*,*,#737,.F.);
#1026=ORIENTED_EDGE('',*,*,#738,.F.);
#1027=ORIENTED_EDGE('',*,*,#739,.T.);
#1028=ORIENTED_EDGE('',*,*,#738,.T.);
#1029=ORIENTED_EDGE('',*,*,#740,.F.);
#1030=ORIENTED_EDGE('',*,*,#741,.F.);
#1031=ORIENTED_EDGE('',*,*,#742,.T.);
#1032=ORIENTED_EDGE('',*,*,#741,.T.);
#1033=ORIENTED_EDGE('',*,*,#743,.F.);
#1034=ORIENTED_EDGE('',*,*,#744,.F.);
#1035=ORIENTED_EDGE('',*,*,#745,.T.);
#1036=ORIENTED_EDGE('',*,*,#744,.T.);
#1037=ORIENTED_EDGE('',*,*,#746,.F.);
#1038=ORIENTED_EDGE('',*,*,#736,.F.);
#1039=ORIENTED_EDGE('',*,*,#745,.F.);
#1040=ORIENTED_EDGE('',*,*,#735,.F.);
#1041=ORIENTED_EDGE('',*,*,#739,.F.);
#1042=ORIENTED_EDGE('',*,*,#742,.F.);
#1043=ORIENTED_EDGE('',*,*,#746,.T.);
#1044=ORIENTED_EDGE('',*,*,#743,.T.);
#1045=ORIENTED_EDGE('',*,*,#740,.T.);
#1046=ORIENTED_EDGE('',*,*,#737,.T.);
#1047=ORIENTED_EDGE('',*,*,#747,.T.);
#1048=ORIENTED_EDGE('',*,*,#748,.T.);
#1049=ORIENTED_EDGE('',*,*,#749,.F.);
#1050=ORIENTED_EDGE('',*,*,#750,.F.);
#1051=ORIENTED_EDGE('',*,*,#751,.T.);
#1052=ORIENTED_EDGE('',*,*,#750,.T.);
#1053=ORIENTED_EDGE('',*,*,#752,.F.);
#1054=ORIENTED_EDGE('',*,*,#753,.F.);
#1055=ORIENTED_EDGE('',*,*,#754,.T.);
#1056=ORIENTED_EDGE('',*,*,#753,.T.);
#1057=ORIENTED_EDGE('',*,*,#755,.F.);
#1058=ORIENTED_EDGE('',*,*,#756,.F.);
#1059=ORIENTED_EDGE('',*,*,#757,.T.);
#1060=ORIENTED_EDGE('',*,*,#756,.T.);
#1061=ORIENTED_EDGE('',*,*,#758,.F.);
#1062=ORIENTED_EDGE('',*,*,#748,.F.);
#1063=ORIENTED_EDGE('',*,*,#758,.T.);
#1064=ORIENTED_EDGE('',*,*,#755,.T.);
#1065=ORIENTED_EDGE('',*,*,#752,.T.);
#1066=ORIENTED_EDGE('',*,*,#749,.T.);
#1067=ORIENTED_EDGE('',*,*,#757,.F.);
#1068=ORIENTED_EDGE('',*,*,#747,.F.);
#1069=ORIENTED_EDGE('',*,*,#751,.F.);
#1070=ORIENTED_EDGE('',*,*,#754,.F.);
#1071=PLANE('',#1245);
#1072=PLANE('',#1246);
#1073=PLANE('',#1247);
#1074=PLANE('',#1248);
#1075=PLANE('',#1249);
#1076=PLANE('',#1250);
#1077=PLANE('',#1251);
#1078=PLANE('',#1252);
#1079=PLANE('',#1253);
#1080=PLANE('',#1254);
#1081=PLANE('',#1255);
#1082=PLANE('',#1256);
#1083=PLANE('',#1257);
#1084=PLANE('',#1258);
#1085=PLANE('',#1259);
#1086=PLANE('',#1260);
#1087=PLANE('',#1261);
#1088=PLANE('',#1262);
#1089=PLANE('',#1263);
#1090=PLANE('',#1264);
#1091=PLANE('',#1265);
#1092=PLANE('',#1266);
#1093=PLANE('',#1267);
#1094=PLANE('',#1268);
#1095=PLANE('',#1269);
#1096=PLANE('',#1270);
#1097=PLANE('',#1271);
#1098=PLANE('',#1272);
#1099=PLANE('',#1273);
#1100=PLANE('',#1274);
#1101=PLANE('',#1275);
#1102=PLANE('',#1276);
#1103=PLANE('',#1277);
#1104=PLANE('',#1278);
#1105=PLANE('',#1279);
#1106=PLANE('',#1280);
#1107=PLANE('',#1281);
#1108=PLANE('',#1282);
#1109=PLANE('',#1283);
#1110=PLANE('',#1284);
#1111=PLANE('',#1285);
#1112=PLANE('',#1286);
#1113=PLANE('',#1287);
#1114=PLANE('',#1288);
#1115=PLANE('',#1289);
#1116=PLANE('',#1290);
#1117=PLANE('',#1291);
#1118=PLANE('',#1292);
#1119=PLANE('',#1293);
#1120=PLANE('',#1294);
#1121=PLANE('',#1295);
#1122=PLANE('',#1296);
#1123=PLANE('',#1297);
#1124=PLANE('',#1298);
#1125=PLANE('',#1299);
#1126=PLANE('',#1300);
#1127=PLANE('',#1301);
#1128=PLANE('',#1302);
#1129=PLANE('',#1303);
#1130=PLANE('',#1304);
#1131=PLANE('',#1305);
#1132=PLANE('',#1306);
#1133=PLANE('',#1307);
#1134=PLANE('',#1308);
#1135=PLANE('',#1309);
#1136=PLANE('',#1310);
#1137=PLANE('',#1311);
#1138=PLANE('',#1312);
#1139=PLANE('',#1313);
#1140=PLANE('',#1314);
#1141=PLANE('',#1315);
#1142=PLANE('',#1316);
#1143=PLANE('',#1317);
#1144=PLANE('',#1318);
#1145=PLANE('',#1319);
#1146=ADVANCED_FACE('',(#36),#1071,.T.);
#1147=ADVANCED_FACE('',(#37),#1072,.T.);
#1148=ADVANCED_FACE('',(#38),#1073,.T.);
#1149=ADVANCED_FACE('',(#39),#1074,.F.);
#1150=ADVANCED_FACE('',(#40),#1075,.T.);
#1151=ADVANCED_FACE('',(#41),#1076,.T.);
#1152=ADVANCED_FACE('',(#42),#1077,.T.);
#1153=ADVANCED_FACE('',(#43),#1078,.T.);
#1154=ADVANCED_FACE('',(#44),#1079,.F.);
#1155=ADVANCED_FACE('',(#45),#1080,.T.);
#1156=ADVANCED_FACE('',(#46),#1081,.T.);
#1157=ADVANCED_FACE('',(#47),#1082,.T.);
#1158=ADVANCED_FACE('',(#48),#1083,.T.);
#1159=ADVANCED_FACE('',(#49),#1084,.T.);
#1160=ADVANCED_FACE('',(#50),#1085,.T.);
#1161=ADVANCED_FACE('',(#51),#1086,.F.);
#1162=ADVANCED_FACE('',(#52),#1087,.T.);
#1163=ADVANCED_FACE('',(#53),#1088,.T.);
#1164=ADVANCED_FACE('',(#54),#1089,.F.);
#1165=ADVANCED_FACE('',(#55),#1090,.T.);
#1166=ADVANCED_FACE('',(#56),#1091,.T.);
#1167=ADVANCED_FACE('',(#57),#1092,.T.);
#1168=ADVANCED_FACE('',(#58),#1093,.T.);
#1169=ADVANCED_FACE('',(#59),#1094,.T.);
#1170=ADVANCED_FACE('',(#60),#1095,.F.);
#1171=ADVANCED_FACE('',(#61),#1096,.F.);
#1172=ADVANCED_FACE('',(#62),#1097,.T.);
#1173=ADVANCED_FACE('',(#63),#1098,.T.);
#1174=ADVANCED_FACE('',(#64),#1099,.T.);
#1175=ADVANCED_FACE('',(#65),#1100,.T.);
#1176=ADVANCED_FACE('',(#66,#13),#1101,.T.);
#1177=ADVANCED_FACE('',(#67),#1102,.T.);
#1178=ADVANCED_FACE('',(#68),#1103,.F.);
#1179=ADVANCED_FACE('',(#69),#1104,.F.);
#1180=ADVANCED_FACE('',(#70),#1105,.F.);
#1181=ADVANCED_FACE('',(#71),#1106,.T.);
#1182=ADVANCED_FACE('',(#72),#1107,.T.);
#1183=ADVANCED_FACE('',(#73),#1108,.T.);
#1184=ADVANCED_FACE('',(#74),#1109,.T.);
#1185=ADVANCED_FACE('',(#75),#1110,.T.);
#1186=ADVANCED_FACE('',(#76),#1111,.T.);
#1187=ADVANCED_FACE('',(#77),#1112,.T.);
#1188=ADVANCED_FACE('',(#78),#1113,.T.);
#1189=ADVANCED_FACE('',(#79),#1114,.T.);
#1190=ADVANCED_FACE('',(#80),#1115,.T.);
#1191=ADVANCED_FACE('',(#81),#1116,.T.);
#1192=ADVANCED_FACE('',(#82),#1117,.T.);
#1193=ADVANCED_FACE('',(#83),#1118,.T.);
#1194=ADVANCED_FACE('',(#84),#1119,.T.);
#1195=ADVANCED_FACE('',(#85),#1120,.T.);
#1196=ADVANCED_FACE('',(#86),#1121,.T.);
#1197=ADVANCED_FACE('',(#87),#1122,.T.);
#1198=ADVANCED_FACE('',(#88),#1123,.T.);
#1199=ADVANCED_FACE('',(#89),#1124,.T.);
#1200=ADVANCED_FACE('',(#90),#1125,.T.);
#1201=ADVANCED_FACE('',(#91),#1126,.T.);
#1202=ADVANCED_FACE('',(#92),#1127,.T.);
#1203=ADVANCED_FACE('',(#93),#1128,.T.);
#1204=ADVANCED_FACE('',(#94),#1129,.T.);
#1205=ADVANCED_FACE('',(#95),#1130,.T.);
#1206=ADVANCED_FACE('',(#96),#1131,.T.);
#1207=ADVANCED_FACE('',(#97),#1132,.T.);
#1208=ADVANCED_FACE('',(#98),#1133,.T.);
#1209=ADVANCED_FACE('',(#99),#1134,.T.);
#1210=ADVANCED_FACE('',(#100),#1135,.T.);
#1211=ADVANCED_FACE('',(#101),#1136,.T.);
#1212=ADVANCED_FACE('',(#102),#1137,.T.);
#1213=ADVANCED_FACE('',(#103),#1138,.T.);
#1214=ADVANCED_FACE('',(#104),#1139,.T.);
#1215=ADVANCED_FACE('',(#105),#1140,.T.);
#1216=ADVANCED_FACE('',(#106),#1141,.T.);
#1217=ADVANCED_FACE('',(#107),#1142,.T.);
#1218=ADVANCED_FACE('',(#108),#1143,.T.);
#1219=ADVANCED_FACE('',(#109),#1144,.T.);
#1220=ADVANCED_FACE('',(#110),#1145,.F.);
#1221=CLOSED_SHELL('',(#1146,#1147,#1148,#1149,#1150,#1151));
#1222=CLOSED_SHELL('',(#1152,#1153,#1154,#1155,#1156,#1157));
#1223=CLOSED_SHELL('',(#1158,#1159,#1160,#1161,#1162,#1163));
#1224=CLOSED_SHELL('',(#1164,#1165,#1166,#1167,#1168,#1169));
#1225=CLOSED_SHELL('',(#1170,#1171,#1172,#1173,#1174,#1175,#1176,#1177,
#1178,#1179,#1180,#1181,#1182,#1183,#1184));
#1226=CLOSED_SHELL('',(#1185,#1186,#1187,#1188,#1189,#1190));
#1227=CLOSED_SHELL('',(#1191,#1192,#1193,#1194,#1195,#1196));
#1228=CLOSED_SHELL('',(#1197,#1198,#1199,#1200,#1201,#1202));
#1229=CLOSED_SHELL('',(#1203,#1204,#1205,#1206,#1207,#1208));
#1230=CLOSED_SHELL('',(#1209,#1210,#1211,#1212,#1213,#1214));
#1231=CLOSED_SHELL('',(#1215,#1216,#1217,#1218,#1219,#1220));
#1232=DERIVED_UNIT_ELEMENT(#1234,1.);
#1233=DERIVED_UNIT_ELEMENT(#1969,-3.);
#1234=(
MASS_UNIT()
NAMED_UNIT(*)
SI_UNIT(.KILO.,.GRAM.)
);
#1235=DERIVED_UNIT((#1232,#1233));
#1236=MEASURE_REPRESENTATION_ITEM('density measure',
POSITIVE_RATIO_MEASURE(7850.),#1235);
#1237=PROPERTY_DEFINITION_REPRESENTATION(#1242,#1239);
#1238=PROPERTY_DEFINITION_REPRESENTATION(#1243,#1240);
#1239=REPRESENTATION('material name',(#1241),#1966);
#1240=REPRESENTATION('density',(#1236),#1966);
#1241=DESCRIPTIVE_REPRESENTATION_ITEM('Steel','Steel');
#1242=PROPERTY_DEFINITION('material property','material name',#1976);
#1243=PROPERTY_DEFINITION('material property','density of part',#1976);
#1244=AXIS2_PLACEMENT_3D('',#1628,#1320,#1321);
#1245=AXIS2_PLACEMENT_3D('',#1629,#1322,#1323);
#1246=AXIS2_PLACEMENT_3D('',#1638,#1328,#1329);
#1247=AXIS2_PLACEMENT_3D('',#1647,#1334,#1335);
#1248=AXIS2_PLACEMENT_3D('',#1650,#1338,#1339);
#1249=AXIS2_PLACEMENT_3D('',#1653,#1342,#1343);
#1250=AXIS2_PLACEMENT_3D('',#1654,#1344,#1345);
#1251=AXIS2_PLACEMENT_3D('',#1655,#1346,#1347);
#1252=AXIS2_PLACEMENT_3D('',#1664,#1352,#1353);
#1253=AXIS2_PLACEMENT_3D('',#1673,#1358,#1359);
#1254=AXIS2_PLACEMENT_3D('',#1676,#1362,#1363);
#1255=AXIS2_PLACEMENT_3D('',#1679,#1366,#1367);
#1256=AXIS2_PLACEMENT_3D('',#1680,#1368,#1369);
#1257=AXIS2_PLACEMENT_3D('',#1681,#1370,#1371);
#1258=AXIS2_PLACEMENT_3D('',#1690,#1376,#1377);
#1259=AXIS2_PLACEMENT_3D('',#1699,#1382,#1383);
#1260=AXIS2_PLACEMENT_3D('',#1702,#1386,#1387);
#1261=AXIS2_PLACEMENT_3D('',#1705,#1390,#1391);
#1262=AXIS2_PLACEMENT_3D('',#1706,#1392,#1393);
#1263=AXIS2_PLACEMENT_3D('',#1707,#1394,#1395);
#1264=AXIS2_PLACEMENT_3D('',#1716,#1400,#1401);
#1265=AXIS2_PLACEMENT_3D('',#1722,#1405,#1406);
#1266=AXIS2_PLACEMENT_3D('',#1728,#1410,#1411);
#1267=AXIS2_PLACEMENT_3D('',#1731,#1414,#1415);
#1268=AXIS2_PLACEMENT_3D('',#1732,#1416,#1417);
#1269=AXIS2_PLACEMENT_3D('',#1733,#1418,#1419);
#1270=AXIS2_PLACEMENT_3D('',#1742,#1424,#1425);
#1271=AXIS2_PLACEMENT_3D('',#1751,#1430,#1431);
#1272=AXIS2_PLACEMENT_3D('',#1760,#1436,#1437);
#1273=AXIS2_PLACEMENT_3D('',#1766,#1441,#1442);
#1274=AXIS2_PLACEMENT_3D('',#1772,#1446,#1447);
#1275=AXIS2_PLACEMENT_3D('',#1775,#1450,#1451);
#1276=AXIS2_PLACEMENT_3D('',#1778,#1454,#1455);
#1277=AXIS2_PLACEMENT_3D('',#1779,#1456,#1457);
#1278=AXIS2_PLACEMENT_3D('',#1785,#1461,#1462);
#1279=AXIS2_PLACEMENT_3D('',#1791,#1466,#1467);
#1280=AXIS2_PLACEMENT_3D('',#1800,#1472,#1473);
#1281=AXIS2_PLACEMENT_3D('',#1803,#1476,#1477);
#1282=AXIS2_PLACEMENT_3D('',#1805,#1479,#1480);
#1283=AXIS2_PLACEMENT_3D('',#1807,#1482,#1483);
#1284=AXIS2_PLACEMENT_3D('',#1808,#1484,#1485);
#1285=AXIS2_PLACEMENT_3D('',#1817,#1490,#1491);
#1286=AXIS2_PLACEMENT_3D('',#1823,#1495,#1496);
#1287=AXIS2_PLACEMENT_3D('',#1829,#1500,#1501);
#1288=AXIS2_PLACEMENT_3D('',#1832,#1504,#1505);
#1289=AXIS2_PLACEMENT_3D('',#1833,#1506,#1507);
#1290=AXIS2_PLACEMENT_3D('',#1834,#1508,#1509);
#1291=AXIS2_PLACEMENT_3D('',#1843,#1514,#1515);
#1292=AXIS2_PLACEMENT_3D('',#1849,#1519,#1520);
#1293=AXIS2_PLACEMENT_3D('',#1855,#1524,#1525);
#1294=AXIS2_PLACEMENT_3D('',#1858,#1528,#1529);
#1295=AXIS2_PLACEMENT_3D('',#1859,#1530,#1531);
#1296=AXIS2_PLACEMENT_3D('',#1860,#1532,#1533);
#1297=AXIS2_PLACEMENT_3D('',#1869,#1538,#1539);
#1298=AXIS2_PLACEMENT_3D('',#1875,#1543,#1544);
#1299=AXIS2_PLACEMENT_3D('',#1881,#1548,#1549);
#1300=AXIS2_PLACEMENT_3D('',#1884,#1552,#1553);
#1301=AXIS2_PLACEMENT_3D('',#1885,#1554,#1555);
#1302=AXIS2_PLACEMENT_3D('',#1886,#1556,#1557);
#1303=AXIS2_PLACEMENT_3D('',#1895,#1562,#1563);
#1304=AXIS2_PLACEMENT_3D('',#1901,#1567,#1568);
#1305=AXIS2_PLACEMENT_3D('',#1907,#1572,#1573);
#1306=AXIS2_PLACEMENT_3D('',#1910,#1576,#1577);
#1307=AXIS2_PLACEMENT_3D('',#1911,#1578,#1579);
#1308=AXIS2_PLACEMENT_3D('',#1912,#1580,#1581);
#1309=AXIS2_PLACEMENT_3D('',#1921,#1586,#1587);
#1310=AXIS2_PLACEMENT_3D('',#1927,#1591,#1592);
#1311=AXIS2_PLACEMENT_3D('',#1933,#1596,#1597);
#1312=AXIS2_PLACEMENT_3D('',#1936,#1600,#1601);
#1313=AXIS2_PLACEMENT_3D('',#1937,#1602,#1603);
#1314=AXIS2_PLACEMENT_3D('',#1938,#1604,#1605);
#1315=AXIS2_PLACEMENT_3D('',#1947,#1610,#1611);
#1316=AXIS2_PLACEMENT_3D('',#1953,#1615,#1616);
#1317=AXIS2_PLACEMENT_3D('',#1959,#1620,#1621);
#1318=AXIS2_PLACEMENT_3D('',#1962,#1624,#1625);
#1319=AXIS2_PLACEMENT_3D('',#1963,#1626,#1627);
#1320=DIRECTION('axis',(0.,0.,1.));
#1321=DIRECTION('refdir',(1.,0.,0.));
#1322=DIRECTION('center_axis',(0.,0.,1.));
#1323=DIRECTION('ref_axis',(-1.,0.,0.));
#1324=DIRECTION('',(1.,0.,0.));
#1325=DIRECTION('',(0.,1.,0.));
#1326=DIRECTION('',(-1.,0.,0.));
#1327=DIRECTION('',(0.,1.,0.));
#1328=DIRECTION('center_axis',(0.,0.,-1.));
#1329=DIRECTION('ref_axis',(1.,0.,0.));
#1330=DIRECTION('',(1.,0.,0.));
#1331=DIRECTION('',(0.,1.,0.));
#1332=DIRECTION('',(-1.,0.,0.));
#1333=DIRECTION('',(0.,1.,0.));
#1334=DIRECTION('center_axis',(0.,1.,0.));
#1335=DIRECTION('ref_axis',(0.,0.,1.));
#1336=DIRECTION('',(0.,0.,-1.));
#1337=DIRECTION('',(3.70074341541719E-16,0.,1.));
#1338=DIRECTION('center_axis',(0.,1.,0.));
#1339=DIRECTION('ref_axis',(1.,0.,0.));
#1340=DIRECTION('',(3.70074341541719E-16,0.,1.));
#1341=DIRECTION('',(0.,0.,-1.));
#1342=DIRECTION('center_axis',(-1.,0.,3.70074341541719E-16));
#1343=DIRECTION('ref_axis',(3.70074341541719E-16,0.,1.));
#1344=DIRECTION('center_axis',(1.,0.,0.));
#1345=DIRECTION('ref_axis',(0.,0.,-1.));
#1346=DIRECTION('center_axis',(1.,0.,-1.85037170770859E-16));
#1347=DIRECTION('ref_axis',(-1.85037170770859E-16,0.,-1.));
#1348=DIRECTION('',(-1.85037170770859E-16,0.,-1.));
#1349=DIRECTION('',(0.,1.,0.));
#1350=DIRECTION('',(-1.85037170770859E-16,0.,-1.));
#1351=DIRECTION('',(0.,1.,0.));
#1352=DIRECTION('center_axis',(-1.,0.,1.85037170770859E-16));
#1353=DIRECTION('ref_axis',(1.85037170770859E-16,0.,1.));
#1354=DIRECTION('',(1.85037170770859E-16,0.,1.));
#1355=DIRECTION('',(0.,1.,0.));
#1356=DIRECTION('',(1.85037170770859E-16,0.,1.));
#1357=DIRECTION('',(0.,1.,0.));
#1358=DIRECTION('center_axis',(0.,1.,0.));
#1359=DIRECTION('ref_axis',(1.,0.,0.));
#1360=DIRECTION('',(1.,0.,0.));
#1361=DIRECTION('',(-1.,0.,0.));
#1362=DIRECTION('center_axis',(0.,1.,0.));
#1363=DIRECTION('ref_axis',(0.,0.,1.));
#1364=DIRECTION('',(-1.,0.,0.));
#1365=DIRECTION('',(1.,0.,0.));
#1366=DIRECTION('center_axis',(0.,0.,-1.));
#1367=DIRECTION('ref_axis',(1.,0.,0.));
#1368=DIRECTION('center_axis',(0.,0.,1.));
#1369=DIRECTION('ref_axis',(-1.,0.,0.));
#1370=DIRECTION('center_axis',(0.,0.,1.));
#1371=DIRECTION('ref_axis',(-1.,0.,0.));
#1372=DIRECTION('',(1.,0.,0.));
#1373=DIRECTION('',(0.,1.,0.));
#1374=DIRECTION('',(-1.,0.,0.));
#1375=DIRECTION('',(0.,1.,0.));
#1376=DIRECTION('center_axis',(0.,0.,-1.));
#1377=DIRECTION('ref_axis',(1.,0.,0.));
#1378=DIRECTION('',(1.,0.,0.));
#1379=DIRECTION('',(0.,1.,0.));
#1380=DIRECTION('',(-1.,0.,0.));
#1381=DIRECTION('',(0.,1.,0.));
#1382=DIRECTION('center_axis',(0.,1.,0.));
#1383=DIRECTION('ref_axis',(0.,0.,1.));
#1384=DIRECTION('',(0.,0.,-1.));
#1385=DIRECTION('',(3.70074341541719E-16,0.,1.));
#1386=DIRECTION('center_axis',(0.,1.,0.));
#1387=DIRECTION('ref_axis',(1.,0.,0.));
#1388=DIRECTION('',(3.70074341541719E-16,0.,1.));
#1389=DIRECTION('',(0.,0.,-1.));
#1390=DIRECTION('center_axis',(-1.,0.,3.70074341541719E-16));
#1391=DIRECTION('ref_axis',(3.70074341541719E-16,0.,1.));
#1392=DIRECTION('center_axis',(1.,0.,0.));
#1393=DIRECTION('ref_axis',(0.,0.,-1.));
#1394=DIRECTION('center_axis',(0.,1.,0.));
#1395=DIRECTION('ref_axis',(1.,0.,0.));
#1396=DIRECTION('',(1.,0.,0.));
#1397=DIRECTION('',(0.,0.,1.));
#1398=DIRECTION('',(-1.,0.,0.));
#1399=DIRECTION('',(-3.70074341541719E-16,0.,-1.));
#1400=DIRECTION('center_axis',(-1.,0.,0.));
#1401=DIRECTION('ref_axis',(0.,0.,1.));
#1402=DIRECTION('',(0.,1.,0.));
#1403=DIRECTION('',(0.,0.,1.));
#1404=DIRECTION('',(0.,1.,0.));
#1405=DIRECTION('center_axis',(1.,0.,-3.70074341541719E-16));
#1406=DIRECTION('ref_axis',(-3.70074341541719E-16,0.,-1.));
#1407=DIRECTION('',(0.,1.,0.));
#1408=DIRECTION('',(-3.70074341541719E-16,0.,-1.));
#1409=DIRECTION('',(0.,1.,0.));
#1410=DIRECTION('center_axis',(0.,1.,0.));
#1411=DIRECTION('ref_axis',(0.,0.,1.));
#1412=DIRECTION('',(-1.,0.,0.));
#1413=DIRECTION('',(1.,0.,0.));
#1414=DIRECTION('center_axis',(0.,0.,-1.));
#1415=DIRECTION('ref_axis',(1.,0.,0.));
#1416=DIRECTION('center_axis',(0.,0.,1.));
#1417=DIRECTION('ref_axis',(-1.,0.,0.));
#1418=DIRECTION('center_axis',(-1.,0.,0.));
#1419=DIRECTION('ref_axis',(0.,0.,1.));
#1420=DIRECTION('',(0.,0.,1.));
#1421=DIRECTION('',(0.,1.,0.));
#1422=DIRECTION('',(0.,0.,-1.));
#1423=DIRECTION('',(0.,1.,0.));
#1424=DIRECTION('center_axis',(1.,0.,0.));
#1425=DIRECTION('ref_axis',(0.,0.,-1.));
#1426=DIRECTION('',(0.,0.,-1.));
#1427=DIRECTION('',(0.,1.,0.));
#1428=DIRECTION('',(0.,0.,1.));
#1429=DIRECTION('',(0.,1.,0.));
#1430=DIRECTION('center_axis',(2.3373116307898E-16,0.,1.));
#1431=DIRECTION('ref_axis',(1.,0.,-2.3373116307898E-16));
#1432=DIRECTION('',(0.,1.,0.));
#1433=DIRECTION('',(1.,0.,-2.3373116307898E-16));
#1434=DIRECTION('',(0.,-1.,0.));
#1435=DIRECTION('',(-1.,0.,2.3373116307898E-16));
#1436=DIRECTION('center_axis',(1.,0.,0.));
#1437=DIRECTION('ref_axis',(0.,0.,-1.));
#1438=DIRECTION('',(0.,1.,0.));
#1439=DIRECTION('',(0.,0.,-1.));
#1440=DIRECTION('',(0.,0.,1.));
#1441=DIRECTION('center_axis',(-2.3373116307898E-16,0.,-1.));
#1442=DIRECTION('ref_axis',(-1.,0.,2.3373116307898E-16));
#1443=DIRECTION('',(0.,1.,0.));
#1444=DIRECTION('',(-1.,0.,2.3373116307898E-16));
#1445=DIRECTION('',(1.,0.,-2.3373116307898E-16));
#1446=DIRECTION('center_axis',(-1.,0.,1.70803542250024E-16));
#1447=DIRECTION('ref_axis',(1.70803542250024E-16,0.,1.));
#1448=DIRECTION('',(1.70803542250024E-16,0.,1.));
#1449=DIRECTION('',(-1.70803542250024E-16,0.,-1.));
#1450=DIRECTION('center_axis',(0.,1.,0.));
#1451=DIRECTION('ref_axis',(0.,0.,1.));
#1452=DIRECTION('',(1.,0.,0.));
#1453=DIRECTION('',(-1.,0.,0.));
#1454=DIRECTION('center_axis',(0.,-1.,0.));
#1455=DIRECTION('ref_axis',(0.,0.,-1.));
#1456=DIRECTION('center_axis',(0.,1.,0.));
#1457=DIRECTION('ref_axis',(-1.,0.,0.));
#1458=DIRECTION('',(-1.,0.,0.));
#1459=DIRECTION('',(0.,0.,-1.));
#1460=DIRECTION('',(1.,0.,0.));
#1461=DIRECTION('center_axis',(0.,1.,0.));
#1462=DIRECTION('ref_axis',(-1.,0.,0.));
#1463=DIRECTION('',(1.,0.,0.));
#1464=DIRECTION('',(0.,0.,1.));
#1465=DIRECTION('',(-1.,0.,0.));
#1466=DIRECTION('center_axis',(0.,-1.,0.));
#1467=DIRECTION('ref_axis',(1.,0.,0.));
#1468=DIRECTION('',(1.,0.,0.));
#1469=DIRECTION('',(0.,0.,1.));
#1470=DIRECTION('',(-1.,0.,0.));
#1471=DIRECTION('',(0.,0.,-1.));
#1472=DIRECTION('center_axis',(0.,0.,-1.));
#1473=DIRECTION('ref_axis',(-1.,0.,0.));
#1474=DIRECTION('',(0.,1.,0.));
#1475=DIRECTION('',(0.,1.,0.));
#1476=DIRECTION('center_axis',(-1.,0.,0.));
#1477=DIRECTION('ref_axis',(0.,0.,1.));
#1478=DIRECTION('',(0.,1.,0.));
#1479=DIRECTION('center_axis',(0.,0.,1.));
#1480=DIRECTION('ref_axis',(1.,0.,0.));
#1481=DIRECTION('',(0.,1.,0.));
#1482=DIRECTION('center_axis',(1.,0.,0.));
#1483=DIRECTION('ref_axis',(0.,0.,-1.));
#1484=DIRECTION('center_axis',(-1.,0.,0.));
#1485=DIRECTION('ref_axis',(0.,0.,1.));
#1486=DIRECTION('',(0.,0.,1.));
#1487=DIRECTION('',(0.,1.,0.));
#1488=DIRECTION('',(0.,0.,1.));
#1489=DIRECTION('',(0.,1.,0.));
#1490=DIRECTION('center_axis',(0.,0.,-1.));
#1491=DIRECTION('ref_axis',(-1.,0.,0.));
#1492=DIRECTION('',(-1.,0.,0.));
#1493=DIRECTION('',(-1.,0.,0.));
#1494=DIRECTION('',(0.,1.,0.));
#1495=DIRECTION('center_axis',(1.,0.,0.));
#1496=DIRECTION('ref_axis',(0.,0.,-1.));
#1497=DIRECTION('',(0.,0.,-1.));
#1498=DIRECTION('',(0.,0.,-1.));
#1499=DIRECTION('',(0.,1.,0.));
#1500=DIRECTION('center_axis',(0.,0.,1.));
#1501=DIRECTION('ref_axis',(1.,0.,0.));
#1502=DIRECTION('',(1.,0.,0.));
#1503=DIRECTION('',(1.,0.,0.));
#1504=DIRECTION('center_axis',(0.,-1.,0.));
#1505=DIRECTION('ref_axis',(1.,0.,0.));
#1506=DIRECTION('center_axis',(0.,1.,0.));
#1507=DIRECTION('ref_axis',(0.,0.,1.));
#1508=DIRECTION('center_axis',(-1.,0.,1.85037170770859E-16));
#1509=DIRECTION('ref_axis',(1.85037170770859E-16,0.,1.));
#1510=DIRECTION('',(1.85037170770859E-16,0.,1.));
#1511=DIRECTION('',(0.,1.,0.));
#1512=DIRECTION('',(1.85037170770859E-16,0.,1.));
#1513=DIRECTION('',(0.,1.,0.));
#1514=DIRECTION('center_axis',(0.,0.,-1.));
#1515=DIRECTION('ref_axis',(-1.,0.,0.));
#1516=DIRECTION('',(-1.,0.,0.));
#1517=DIRECTION('',(-1.,0.,0.));
#1518=DIRECTION('',(0.,1.,0.));
#1519=DIRECTION('center_axis',(1.,0.,-3.70074341541719E-16));
#1520=DIRECTION('ref_axis',(-3.70074341541719E-16,0.,-1.));
#1521=DIRECTION('',(-3.70074341541719E-16,0.,-1.));
#1522=DIRECTION('',(-3.70074341541719E-16,0.,-1.));
#1523=DIRECTION('',(0.,1.,0.));
#1524=DIRECTION('center_axis',(0.,0.,1.));
#1525=DIRECTION('ref_axis',(1.,0.,0.));
#1526=DIRECTION('',(1.,0.,0.));
#1527=DIRECTION('',(1.,0.,0.));
#1528=DIRECTION('center_axis',(0.,-1.,0.));
#1529=DIRECTION('ref_axis',(1.,0.,0.));
#1530=DIRECTION('center_axis',(0.,1.,0.));
#1531=DIRECTION('ref_axis',(0.,0.,1.));
#1532=DIRECTION('center_axis',(-1.,0.,3.70074341541719E-16));
#1533=DIRECTION('ref_axis',(3.70074341541719E-16,0.,1.));
#1534=DIRECTION('',(3.70074341541719E-16,0.,1.));
#1535=DIRECTION('',(0.,1.,0.));
#1536=DIRECTION('',(3.70074341541719E-16,0.,1.));
#1537=DIRECTION('',(0.,1.,0.));
#1538=DIRECTION('center_axis',(0.,0.,-1.));
#1539=DIRECTION('ref_axis',(-1.,0.,0.));
#1540=DIRECTION('',(-1.,0.,0.));
#1541=DIRECTION('',(-1.,0.,0.));
#1542=DIRECTION('',(0.,1.,0.));
#1543=DIRECTION('center_axis',(1.,0.,-3.70074341541719E-16));
#1544=DIRECTION('ref_axis',(-3.70074341541719E-16,0.,-1.));
#1545=DIRECTION('',(-3.70074341541719E-16,0.,-1.));
#1546=DIRECTION('',(-3.70074341541719E-16,0.,-1.));
#1547=DIRECTION('',(0.,1.,0.));
#1548=DIRECTION('center_axis',(0.,0.,1.));
#1549=DIRECTION('ref_axis',(1.,0.,0.));
#1550=DIRECTION('',(1.,0.,0.));
#1551=DIRECTION('',(1.,0.,0.));
#1552=DIRECTION('center_axis',(0.,-1.,0.));
#1553=DIRECTION('ref_axis',(1.,0.,0.));
#1554=DIRECTION('center_axis',(0.,1.,0.));
#1555=DIRECTION('ref_axis',(0.,0.,1.));
#1556=DIRECTION('center_axis',(1.,0.,-1.85037170770859E-16));
#1557=DIRECTION('ref_axis',(-1.85037170770859E-16,0.,-1.));
#1558=DIRECTION('',(-1.85037170770859E-16,0.,-1.));
#1559=DIRECTION('',(0.,1.,0.));
#1560=DIRECTION('',(-1.85037170770859E-16,0.,-1.));
#1561=DIRECTION('',(0.,1.,0.));
#1562=DIRECTION('center_axis',(0.,0.,1.));
#1563=DIRECTION('ref_axis',(1.,0.,0.));
#1564=DIRECTION('',(1.,0.,0.));
#1565=DIRECTION('',(1.,0.,0.));
#1566=DIRECTION('',(0.,1.,0.));
#1567=DIRECTION('center_axis',(-1.,0.,0.));
#1568=DIRECTION('ref_axis',(0.,0.,1.));
#1569=DIRECTION('',(0.,0.,1.));
#1570=DIRECTION('',(0.,0.,1.));
#1571=DIRECTION('',(0.,1.,0.));
#1572=DIRECTION('center_axis',(0.,0.,-1.));
#1573=DIRECTION('ref_axis',(-1.,0.,0.));
#1574=DIRECTION('',(-1.,0.,0.));
#1575=DIRECTION('',(-1.,0.,0.));
#1576=DIRECTION('center_axis',(0.,-1.,0.));
#1577=DIRECTION('ref_axis',(1.,0.,0.));
#1578=DIRECTION('center_axis',(0.,1.,0.));
#1579=DIRECTION('ref_axis',(0.,0.,1.));
#1580=DIRECTION('center_axis',(0.,0.,1.));
#1581=DIRECTION('ref_axis',(1.,0.,0.));
#1582=DIRECTION('',(1.,0.,0.));
#1583=DIRECTION('',(0.,1.,0.));
#1584=DIRECTION('',(1.,0.,0.));
#1585=DIRECTION('',(0.,1.,0.));
#1586=DIRECTION('center_axis',(-1.,0.,0.));
#1587=DIRECTION('ref_axis',(0.,0.,1.));
#1588=DIRECTION('',(0.,0.,1.));
#1589=DIRECTION('',(0.,0.,1.));
#1590=DIRECTION('',(0.,1.,0.));
#1591=DIRECTION('center_axis',(0.,0.,-1.));
#1592=DIRECTION('ref_axis',(-1.,0.,0.));
#1593=DIRECTION('',(-1.,0.,0.));
#1594=DIRECTION('',(-1.,0.,0.));
#1595=DIRECTION('',(0.,1.,0.));
#1596=DIRECTION('center_axis',(1.,0.,0.));
#1597=DIRECTION('ref_axis',(0.,0.,-1.));
#1598=DIRECTION('',(0.,0.,-1.));
#1599=DIRECTION('',(0.,0.,-1.));
#1600=DIRECTION('center_axis',(0.,-1.,0.));
#1601=DIRECTION('ref_axis',(1.,0.,0.));
#1602=DIRECTION('center_axis',(0.,1.,0.));
#1603=DIRECTION('ref_axis',(0.,0.,1.));
#1604=DIRECTION('center_axis',(-1.,0.,0.));
#1605=DIRECTION('ref_axis',(0.,0.,1.));
#1606=DIRECTION('',(0.,0.,1.));
#1607=DIRECTION('',(0.,1.,0.));
#1608=DIRECTION('',(0.,0.,1.));
#1609=DIRECTION('',(0.,1.,0.));
#1610=DIRECTION('center_axis',(0.,0.,-1.));
#1611=DIRECTION('ref_axis',(-1.,0.,0.));
#1612=DIRECTION('',(-1.,0.,0.));
#1613=DIRECTION('',(-1.,0.,0.));
#1614=DIRECTION('',(0.,1.,0.));
#1615=DIRECTION('center_axis',(1.,0.,0.));
#1616=DIRECTION('ref_axis',(0.,0.,-1.));
#1617=DIRECTION('',(0.,0.,-1.));
#1618=DIRECTION('',(0.,0.,-1.));
#1619=DIRECTION('',(0.,1.,0.));
#1620=DIRECTION('center_axis',(0.,0.,1.));
#1621=DIRECTION('ref_axis',(1.,0.,0.));
#1622=DIRECTION('',(1.,0.,0.));
#1623=DIRECTION('',(1.,0.,0.));
#1624=DIRECTION('center_axis',(0.,1.,0.));
#1625=DIRECTION('ref_axis',(0.,0.,1.));
#1626=DIRECTION('center_axis',(0.,1.,0.));
#1627=DIRECTION('ref_axis',(0.,0.,1.));
#1628=CARTESIAN_POINT('',(0.,0.,0.));
#1629=CARTESIAN_POINT('Origin',(7.,0.,3.));
#1630=CARTESIAN_POINT('',(4.25,0.,3.));
#1631=CARTESIAN_POINT('',(5.,0.,3.));
#1632=CARTESIAN_POINT('',(3.5,0.,3.));
#1633=CARTESIAN_POINT('',(5.,10.,3.));
#1634=CARTESIAN_POINT('',(5.,0.,3.));
#1635=CARTESIAN_POINT('',(4.25,10.,3.));
#1636=CARTESIAN_POINT('',(3.5,10.,3.));
#1637=CARTESIAN_POINT('',(4.25,0.,3.));
#1638=CARTESIAN_POINT('Origin',(-7.,0.,-3.));
#1639=CARTESIAN_POINT('',(4.25,10.,-3.));
#1640=CARTESIAN_POINT('',(5.,10.,-3.));
#1641=CARTESIAN_POINT('',(-3.5,10.,-3.));
#1642=CARTESIAN_POINT('',(5.,0.,-3.));
#1643=CARTESIAN_POINT('',(5.,0.,-3.));
#1644=CARTESIAN_POINT('',(4.25,0.,-3.));
#1645=CARTESIAN_POINT('',(-3.5,0.,-3.));
#1646=CARTESIAN_POINT('',(4.25,0.,-3.));
#1647=CARTESIAN_POINT('Origin',(0.,10.,1.5));
#1648=CARTESIAN_POINT('',(5.,10.,3.));
#1649=CARTESIAN_POINT('',(4.25,10.,-3.));
#1650=CARTESIAN_POINT('Origin',(0.,0.,1.5));
#1651=CARTESIAN_POINT('',(4.25,0.,-3.));
#1652=CARTESIAN_POINT('',(5.,0.,3.));
#1653=CARTESIAN_POINT('Origin',(4.25,0.,-3.));
#1654=CARTESIAN_POINT('Origin',(5.,0.,3.));
#1655=CARTESIAN_POINT('Origin',(-4.25,0.,3.));
#1656=CARTESIAN_POINT('',(-4.25,0.,3.));
#1657=CARTESIAN_POINT('',(-4.25,0.,-3.));
#1658=CARTESIAN_POINT('',(-4.25,0.,3.));
#1659=CARTESIAN_POINT('',(-4.25,10.,-3.));
#1660=CARTESIAN_POINT('',(-4.25,0.,-3.));
#1661=CARTESIAN_POINT('',(-4.25,10.,3.));
#1662=CARTESIAN_POINT('',(-4.25,10.,3.));
#1663=CARTESIAN_POINT('',(-4.25,0.,3.));
#1664=CARTESIAN_POINT('Origin',(-5.,0.,-3.));
#1665=CARTESIAN_POINT('',(-5.,0.,-3.));
#1666=CARTESIAN_POINT('',(-5.,0.,3.));
#1667=CARTESIAN_POINT('',(-5.,0.,-3.));
#1668=CARTESIAN_POINT('',(-5.,10.,3.));
#1669=CARTESIAN_POINT('',(-5.,0.,3.));
#1670=CARTESIAN_POINT('',(-5.,10.,-3.));
#1671=CARTESIAN_POINT('',(-5.,10.,-3.));
#1672=CARTESIAN_POINT('',(-5.,0.,-3.));
#1673=CARTESIAN_POINT('Origin',(0.,0.,1.5));
#1674=CARTESIAN_POINT('',(3.5,0.,3.));
#1675=CARTESIAN_POINT('',(-3.5,0.,-3.));
#1676=CARTESIAN_POINT('Origin',(0.,10.,1.5));
#1677=CARTESIAN_POINT('',(3.5,10.,3.));
#1678=CARTESIAN_POINT('',(-3.5,10.,-3.));
#1679=CARTESIAN_POINT('Origin',(-7.,0.,-3.));
#1680=CARTESIAN_POINT('Origin',(7.,0.,3.));
#1681=CARTESIAN_POINT('Origin',(7.,0.,3.));
#1682=CARTESIAN_POINT('',(-3.25,0.,3.));
#1683=CARTESIAN_POINT('',(-2.5,0.,3.));
#1684=CARTESIAN_POINT('',(3.5,0.,3.));
#1685=CARTESIAN_POINT('',(-2.5,10.,3.));
#1686=CARTESIAN_POINT('',(-2.5,0.,3.));
#1687=CARTESIAN_POINT('',(-3.25,10.,3.));
#1688=CARTESIAN_POINT('',(3.5,10.,3.));
#1689=CARTESIAN_POINT('',(-3.25,0.,3.));
#1690=CARTESIAN_POINT('Origin',(-7.,0.,-3.));
#1691=CARTESIAN_POINT('',(-3.25,10.,-3.));
#1692=CARTESIAN_POINT('',(-2.5,10.,-3.));
#1693=CARTESIAN_POINT('',(-3.5,10.,-3.));
#1694=CARTESIAN_POINT('',(-2.5,0.,-3.));
#1695=CARTESIAN_POINT('',(-2.5,0.,-3.));
#1696=CARTESIAN_POINT('',(-3.25,0.,-3.));
#1697=CARTESIAN_POINT('',(-3.5,0.,-3.));
#1698=CARTESIAN_POINT('',(-3.25,0.,-3.));
#1699=CARTESIAN_POINT('Origin',(0.,10.,1.5));
#1700=CARTESIAN_POINT('',(-2.5,10.,3.));
#1701=CARTESIAN_POINT('',(-3.25,10.,-3.));
#1702=CARTESIAN_POINT('Origin',(0.,0.,1.5));
#1703=CARTESIAN_POINT('',(-3.25,0.,-3.));
#1704=CARTESIAN_POINT('',(-2.5,0.,3.));
#1705=CARTESIAN_POINT('Origin',(-3.25,0.,-3.));
#1706=CARTESIAN_POINT('Origin',(-2.5,0.,3.));
#1707=CARTESIAN_POINT('Origin',(0.,0.,1.5));
#1708=CARTESIAN_POINT('',(2.5,0.,3.));
#1709=CARTESIAN_POINT('',(3.25,0.,3.));
#1710=CARTESIAN_POINT('',(3.5,0.,3.));
#1711=CARTESIAN_POINT('',(2.5,0.,-3.));
#1712=CARTESIAN_POINT('',(2.5,0.,-3.));
#1713=CARTESIAN_POINT('',(3.25,0.,-3.));
#1714=CARTESIAN_POINT('',(-3.5,0.,-3.));
#1715=CARTESIAN_POINT('',(3.25,0.,3.));
#1716=CARTESIAN_POINT('Origin',(2.5,0.,-3.));
#1717=CARTESIAN_POINT('',(2.5,10.,3.));
#1718=CARTESIAN_POINT('',(2.5,0.,3.));
#1719=CARTESIAN_POINT('',(2.5,10.,-3.));
#1720=CARTESIAN_POINT('',(2.5,10.,-3.));
#1721=CARTESIAN_POINT('',(2.5,0.,-3.));
#1722=CARTESIAN_POINT('Origin',(3.25,0.,3.));
#1723=CARTESIAN_POINT('',(3.25,10.,-3.));
#1724=CARTESIAN_POINT('',(3.25,0.,-3.));
#1725=CARTESIAN_POINT('',(3.25,10.,3.));
#1726=CARTESIAN_POINT('',(3.25,10.,3.));
#1727=CARTESIAN_POINT('',(3.25,0.,3.));
#1728=CARTESIAN_POINT('Origin',(0.,10.,1.5));
#1729=CARTESIAN_POINT('',(3.5,10.,3.));
#1730=CARTESIAN_POINT('',(-3.5,10.,-3.));
#1731=CARTESIAN_POINT('Origin',(-7.,0.,-3.));
#1732=CARTESIAN_POINT('Origin',(7.,0.,3.));
#1733=CARTESIAN_POINT('Origin',(-2.5,10.,-3.));
#1734=CARTESIAN_POINT('',(-2.5,10.,-3.));
#1735=CARTESIAN_POINT('',(-2.5,10.,3.));
#1736=CARTESIAN_POINT('',(-2.5,10.,-0.749999999999999));
#1737=CARTESIAN_POINT('',(-2.5,11.,-3.));
#1738=CARTESIAN_POINT('',(-2.5,10.,-3.));
#1739=CARTESIAN_POINT('',(-2.5,11.,3.));
#1740=CARTESIAN_POINT('',(-2.5,11.,-0.749999999999999));
#1741=CARTESIAN_POINT('',(-2.5,10.,3.));
#1742=CARTESIAN_POINT('Origin',(2.5,10.,3.));
#1743=CARTESIAN_POINT('',(2.5,10.,3.));
#1744=CARTESIAN_POINT('',(2.5,10.,-3.));
#1745=CARTESIAN_POINT('',(2.5,10.,2.25));
#1746=CARTESIAN_POINT('',(2.5,11.,3.));
#1747=CARTESIAN_POINT('',(2.5,10.,3.));
#1748=CARTESIAN_POINT('',(2.5,11.,-3.));
#1749=CARTESIAN_POINT('',(2.5,11.,2.25));
#1750=CARTESIAN_POINT('',(2.5,10.,-3.));
#1751=CARTESIAN_POINT('Origin',(-9.5,0.,8.00000000000001));
#1752=CARTESIAN_POINT('',(9.5,-1.,8.));
#1753=CARTESIAN_POINT('',(9.5,11.,8.));
#1754=CARTESIAN_POINT('',(9.5,0.,8.));
#1755=CARTESIAN_POINT('',(-9.5,11.,8.00000000000001));
#1756=CARTESIAN_POINT('',(-9.5,11.,8.00000000000001));
#1757=CARTESIAN_POINT('',(-9.5,-1.,8.00000000000001));
#1758=CARTESIAN_POINT('',(-9.5,0.,8.00000000000001));
#1759=CARTESIAN_POINT('',(9.5,-1.,8.));
#1760=CARTESIAN_POINT('Origin',(9.5,0.,8.));
#1761=CARTESIAN_POINT('',(9.5,-1.,-5.));
#1762=CARTESIAN_POINT('',(9.5,11.,-5.));
#1763=CARTESIAN_POINT('',(9.5,0.,-5.));
#1764=CARTESIAN_POINT('',(9.5,11.,8.));
#1765=CARTESIAN_POINT('',(9.5,-1.,-5.));
#1766=CARTESIAN_POINT('Origin',(9.5,0.,-5.));
#1767=CARTESIAN_POINT('',(-9.5,-1.,-5.));
#1768=CARTESIAN_POINT('',(-9.5,11.,-5.));
#1769=CARTESIAN_POINT('',(-9.5,0.,-5.));
#1770=CARTESIAN_POINT('',(9.5,11.,-5.));
#1771=CARTESIAN_POINT('',(-9.5,-1.,-5.));
#1772=CARTESIAN_POINT('Origin',(-9.5,0.,-5.));
#1773=CARTESIAN_POINT('',(-9.5,11.,-5.));
#1774=CARTESIAN_POINT('',(-9.5,-1.,8.00000000000001));
#1775=CARTESIAN_POINT('Origin',(0.,11.,1.5));
#1776=CARTESIAN_POINT('',(1.25,11.,-3.));
#1777=CARTESIAN_POINT('',(-1.25,11.,3.));
#1778=CARTESIAN_POINT('Origin',(0.,-1.,1.5));
#1779=CARTESIAN_POINT('Origin',(0.,10.,1.5));
#1780=CARTESIAN_POINT('',(-7.,10.,3.));
#1781=CARTESIAN_POINT('',(7.,10.,3.));
#1782=CARTESIAN_POINT('',(-7.,10.,-3.));
#1783=CARTESIAN_POINT('',(-7.,10.,3.));
#1784=CARTESIAN_POINT('',(-7.,10.,-3.));
#1785=CARTESIAN_POINT('Origin',(0.,10.,1.5));
#1786=CARTESIAN_POINT('',(7.,10.,-3.));
#1787=CARTESIAN_POINT('',(-7.,10.,-3.));
#1788=CARTESIAN_POINT('',(7.,10.,3.));
#1789=CARTESIAN_POINT('',(7.,10.,-3.));
#1790=CARTESIAN_POINT('',(7.,10.,3.));
#1791=CARTESIAN_POINT('Origin',(0.,0.,1.5));
#1792=CARTESIAN_POINT('',(-7.,0.,3.));
#1793=CARTESIAN_POINT('',(7.,0.,3.));
#1794=CARTESIAN_POINT('',(3.5,0.,3.));
#1795=CARTESIAN_POINT('',(7.,0.,-3.));
#1796=CARTESIAN_POINT('',(7.,0.,-3.));
#1797=CARTESIAN_POINT('',(-7.,0.,-3.));
#1798=CARTESIAN_POINT('',(-3.5,0.,-3.));
#1799=CARTESIAN_POINT('',(-7.,0.,3.));
#1800=CARTESIAN_POINT('Origin',(4.25,0.,3.));
#1801=CARTESIAN_POINT('',(-7.,0.,3.));
#1802=CARTESIAN_POINT('',(7.,0.,3.));
#1803=CARTESIAN_POINT('Origin',(7.,0.,-3.));
#1804=CARTESIAN_POINT('',(7.,0.,-3.));
#1805=CARTESIAN_POINT('Origin',(5.,0.,-3.));
#1806=CARTESIAN_POINT('',(-7.,0.,-3.));
#1807=CARTESIAN_POINT('Origin',(-7.,0.,3.));
#1808=CARTESIAN_POINT('Origin',(-2.5,0.,-3.));
#1809=CARTESIAN_POINT('',(-2.5,0.,-3.));
#1810=CARTESIAN_POINT('',(-2.5,0.,3.));
#1811=CARTESIAN_POINT('',(-2.5,0.,-3.));
#1812=CARTESIAN_POINT('',(-2.5,10.,3.));
#1813=CARTESIAN_POINT('',(-2.5,0.,3.));
#1814=CARTESIAN_POINT('',(-2.5,10.,-3.));
#1815=CARTESIAN_POINT('',(-2.5,10.,-3.));
#1816=CARTESIAN_POINT('',(-2.5,0.,-3.));
#1817=CARTESIAN_POINT('Origin',(2.5,0.,-3.));
#1818=CARTESIAN_POINT('',(2.5,0.,-3.));
#1819=CARTESIAN_POINT('',(7.,0.,-3.));
#1820=CARTESIAN_POINT('',(2.5,10.,-3.));
#1821=CARTESIAN_POINT('',(7.,10.,-3.));
#1822=CARTESIAN_POINT('',(2.5,0.,-3.));
#1823=CARTESIAN_POINT('Origin',(2.5,0.,3.));
#1824=CARTESIAN_POINT('',(2.5,0.,3.));
#1825=CARTESIAN_POINT('',(2.5,0.,3.));
#1826=CARTESIAN_POINT('',(2.5,10.,3.));
#1827=CARTESIAN_POINT('',(2.5,10.,3.));
#1828=CARTESIAN_POINT('',(2.5,0.,3.));
#1829=CARTESIAN_POINT('Origin',(-2.5,0.,3.));
#1830=CARTESIAN_POINT('',(-7.,0.,3.));
#1831=CARTESIAN_POINT('',(-7.,10.,3.));
#1832=CARTESIAN_POINT('Origin',(0.,0.,0.));
#1833=CARTESIAN_POINT('Origin',(0.,10.,0.));
#1834=CARTESIAN_POINT('Origin',(-4.25,0.,-3.));
#1835=CARTESIAN_POINT('',(-4.25,0.,-3.));
#1836=CARTESIAN_POINT('',(-4.25,0.,3.));
#1837=CARTESIAN_POINT('',(-4.25,0.,-3.));
#1838=CARTESIAN_POINT('',(-4.25,10.,3.));
#1839=CARTESIAN_POINT('',(-4.25,0.,3.));
#1840=CARTESIAN_POINT('',(-4.25,10.,-3.));
#1841=CARTESIAN_POINT('',(-4.25,10.,-3.));
#1842=CARTESIAN_POINT('',(-4.25,0.,-3.));
#1843=CARTESIAN_POINT('Origin',(-3.25,0.,-3.));
#1844=CARTESIAN_POINT('',(-3.25,0.,-3.));
#1845=CARTESIAN_POINT('',(7.,0.,-3.));
#1846=CARTESIAN_POINT('',(-3.25,10.,-3.));
#1847=CARTESIAN_POINT('',(7.,10.,-3.));
#1848=CARTESIAN_POINT('',(-3.25,0.,-3.));
#1849=CARTESIAN_POINT('Origin',(-3.25,0.,3.));
#1850=CARTESIAN_POINT('',(-3.25,0.,3.));
#1851=CARTESIAN_POINT('',(-3.25,0.,3.));
#1852=CARTESIAN_POINT('',(-3.25,10.,3.));
#1853=CARTESIAN_POINT('',(-3.25,10.,3.));
#1854=CARTESIAN_POINT('',(-3.25,0.,3.));
#1855=CARTESIAN_POINT('Origin',(-4.25,0.,3.));
#1856=CARTESIAN_POINT('',(-7.,0.,3.));
#1857=CARTESIAN_POINT('',(-7.,10.,3.));
#1858=CARTESIAN_POINT('Origin',(-3.75,0.,-1.11022302462516E-15));
#1859=CARTESIAN_POINT('Origin',(-3.75,10.,-1.11022302462516E-15));
#1860=CARTESIAN_POINT('Origin',(3.25,0.,-3.));
#1861=CARTESIAN_POINT('',(3.25,0.,-3.));
#1862=CARTESIAN_POINT('',(3.25,0.,3.));
#1863=CARTESIAN_POINT('',(3.25,0.,-3.));
#1864=CARTESIAN_POINT('',(3.25,10.,3.));
#1865=CARTESIAN_POINT('',(3.25,0.,3.));
#1866=CARTESIAN_POINT('',(3.25,10.,-3.));
#1867=CARTESIAN_POINT('',(3.25,10.,-3.));
#1868=CARTESIAN_POINT('',(3.25,0.,-3.));
#1869=CARTESIAN_POINT('Origin',(4.25,0.,-3.));
#1870=CARTESIAN_POINT('',(4.25,0.,-3.));
#1871=CARTESIAN_POINT('',(7.,0.,-3.));
#1872=CARTESIAN_POINT('',(4.25,10.,-3.));
#1873=CARTESIAN_POINT('',(7.,10.,-3.));
#1874=CARTESIAN_POINT('',(4.25,0.,-3.));
#1875=CARTESIAN_POINT('Origin',(4.25,0.,3.));
#1876=CARTESIAN_POINT('',(4.25,0.,3.));
#1877=CARTESIAN_POINT('',(4.25,0.,3.));
#1878=CARTESIAN_POINT('',(4.25,10.,3.));
#1879=CARTESIAN_POINT('',(4.25,10.,3.));
#1880=CARTESIAN_POINT('',(4.25,0.,3.));
#1881=CARTESIAN_POINT('Origin',(3.25,0.,3.));
#1882=CARTESIAN_POINT('',(-7.,0.,3.));
#1883=CARTESIAN_POINT('',(-7.,10.,3.));
#1884=CARTESIAN_POINT('Origin',(3.75,0.,0.));
#1885=CARTESIAN_POINT('Origin',(3.75,10.,0.));
#1886=CARTESIAN_POINT('Origin',(-5.,0.,3.));
#1887=CARTESIAN_POINT('',(-5.,0.,3.));
#1888=CARTESIAN_POINT('',(-5.,0.,-3.));
#1889=CARTESIAN_POINT('',(-5.,0.,3.));
#1890=CARTESIAN_POINT('',(-5.,10.,-3.));
#1891=CARTESIAN_POINT('',(-5.,0.,-3.));
#1892=CARTESIAN_POINT('',(-5.,10.,3.));
#1893=CARTESIAN_POINT('',(-5.,10.,3.));
#1894=CARTESIAN_POINT('',(-5.,0.,3.));
#1895=CARTESIAN_POINT('Origin',(-7.,0.,3.));
#1896=CARTESIAN_POINT('',(-7.,0.,3.));
#1897=CARTESIAN_POINT('',(-7.,0.,3.));
#1898=CARTESIAN_POINT('',(-7.,10.,3.));
#1899=CARTESIAN_POINT('',(-7.,10.,3.));
#1900=CARTESIAN_POINT('',(-7.,0.,3.));
#1901=CARTESIAN_POINT('Origin',(-7.,0.,-3.));
#1902=CARTESIAN_POINT('',(-7.,0.,-3.));
#1903=CARTESIAN_POINT('',(-7.,0.,-3.));
#1904=CARTESIAN_POINT('',(-7.,10.,-3.));
#1905=CARTESIAN_POINT('',(-7.,10.,-3.));
#1906=CARTESIAN_POINT('',(-7.,0.,-3.));
#1907=CARTESIAN_POINT('Origin',(-5.,0.,-3.));
#1908=CARTESIAN_POINT('',(7.,0.,-3.));
#1909=CARTESIAN_POINT('',(7.,10.,-3.));
#1910=CARTESIAN_POINT('Origin',(-6.,0.,0.));
#1911=CARTESIAN_POINT('Origin',(-6.,10.,0.));
#1912=CARTESIAN_POINT('Origin',(5.,0.,3.));
#1913=CARTESIAN_POINT('',(5.,0.,3.));
#1914=CARTESIAN_POINT('',(7.,0.,3.));
#1915=CARTESIAN_POINT('',(-7.,0.,3.));
#1916=CARTESIAN_POINT('',(7.,10.,3.));
#1917=CARTESIAN_POINT('',(7.,0.,3.));
#1918=CARTESIAN_POINT('',(5.,10.,3.));
#1919=CARTESIAN_POINT('',(-7.,10.,3.));
#1920=CARTESIAN_POINT('',(5.,0.,3.));
#1921=CARTESIAN_POINT('Origin',(5.,0.,-3.));
#1922=CARTESIAN_POINT('',(5.,0.,-3.));
#1923=CARTESIAN_POINT('',(5.,0.,-3.));
#1924=CARTESIAN_POINT('',(5.,10.,-3.));
#1925=CARTESIAN_POINT('',(5.,10.,-3.));
#1926=CARTESIAN_POINT('',(5.,0.,-3.));
#1927=CARTESIAN_POINT('Origin',(7.,0.,-3.));
#1928=CARTESIAN_POINT('',(7.,0.,-3.));
#1929=CARTESIAN_POINT('',(7.,0.,-3.));
#1930=CARTESIAN_POINT('',(7.,10.,-3.));
#1931=CARTESIAN_POINT('',(7.,10.,-3.));
#1932=CARTESIAN_POINT('',(7.,0.,-3.));
#1933=CARTESIAN_POINT('Origin',(7.,0.,3.));
#1934=CARTESIAN_POINT('',(7.,0.,3.));
#1935=CARTESIAN_POINT('',(7.,10.,3.));
#1936=CARTESIAN_POINT('Origin',(6.,0.,0.));
#1937=CARTESIAN_POINT('Origin',(6.,10.,0.));
#1938=CARTESIAN_POINT('Origin',(-2.5,10.,-3.));
#1939=CARTESIAN_POINT('',(-2.5,10.,-3.));
#1940=CARTESIAN_POINT('',(-2.5,10.,3.));
#1941=CARTESIAN_POINT('',(-2.5,10.,-3.));
#1942=CARTESIAN_POINT('',(-2.5,11.,3.));
#1943=CARTESIAN_POINT('',(-2.5,10.,3.));
#1944=CARTESIAN_POINT('',(-2.5,11.,-3.));
#1945=CARTESIAN_POINT('',(-2.5,11.,-3.));
#1946=CARTESIAN_POINT('',(-2.5,10.,-3.));
#1947=CARTESIAN_POINT('Origin',(2.5,10.,-3.));
#1948=CARTESIAN_POINT('',(2.5,10.,-3.));
#1949=CARTESIAN_POINT('',(7.,10.,-3.));
#1950=CARTESIAN_POINT('',(2.5,11.,-3.));
#1951=CARTESIAN_POINT('',(7.,11.,-3.));
#1952=CARTESIAN_POINT('',(2.5,10.,-3.));
#1953=CARTESIAN_POINT('Origin',(2.5,10.,3.));
#1954=CARTESIAN_POINT('',(2.5,10.,3.));
#1955=CARTESIAN_POINT('',(2.5,10.,3.));
#1956=CARTESIAN_POINT('',(2.5,11.,3.));
#1957=CARTESIAN_POINT('',(2.5,11.,3.));
#1958=CARTESIAN_POINT('',(2.5,10.,3.));
#1959=CARTESIAN_POINT('Origin',(-2.5,10.,3.));
#1960=CARTESIAN_POINT('',(-7.,10.,3.));
#1961=CARTESIAN_POINT('',(-7.,11.,3.));
#1962=CARTESIAN_POINT('Origin',(0.,11.,0.));
#1963=CARTESIAN_POINT('Origin',(0.,10.,0.));
#1964=UNCERTAINTY_MEASURE_WITH_UNIT(LENGTH_MEASURE(0.01),#1968,
'DISTANCE_ACCURACY_VALUE',
'Maximum model space distance between geometric entities at asserted c
onnectivities');
#1965=UNCERTAINTY_MEASURE_WITH_UNIT(LENGTH_MEASURE(0.01),#1968,
'DISTANCE_ACCURACY_VALUE',
'Maximum model space distance between geometric entities at asserted c
onnectivities');
#1966=(
GEOMETRIC_REPRESENTATION_CONTEXT(3)
GLOBAL_UNCERTAINTY_ASSIGNED_CONTEXT((#1964))
GLOBAL_UNIT_ASSIGNED_CONTEXT((#1968,#1970,#1971))
REPRESENTATION_CONTEXT('','3D')
);
#1967=(
GEOMETRIC_REPRESENTATION_CONTEXT(3)
GLOBAL_UNCERTAINTY_ASSIGNED_CONTEXT((#1965))
GLOBAL_UNIT_ASSIGNED_CONTEXT((#1968,#1970,#1971))
REPRESENTATION_CONTEXT('','3D')
);
#1968=(
LENGTH_UNIT()
NAMED_UNIT(*)
SI_UNIT(.MILLI.,.METRE.)
);
#1969=(
LENGTH_UNIT()
NAMED_UNIT(*)
SI_UNIT($,.METRE.)
);
#1970=(
NAMED_UNIT(*)
PLANE_ANGLE_UNIT()
SI_UNIT($,.RADIAN.)
);
#1971=(
NAMED_UNIT(*)
SI_UNIT($,.STERADIAN.)
SOLID_ANGLE_UNIT()
);
#1972=SHAPE_DEFINITION_REPRESENTATION(#1973,#1974);
#1973=PRODUCT_DEFINITION_SHAPE('',$,#1976);
#1974=SHAPE_REPRESENTATION('',(#1244),#1966);
#1975=PRODUCT_DEFINITION_CONTEXT('part definition',#1980,'design');
#1976=PRODUCT_DEFINITION('(Unsaved)','(Unsaved)',#1977,#1975);
#1977=PRODUCT_DEFINITION_FORMATION('',$,#1982);
#1978=PRODUCT_RELATED_PRODUCT_CATEGORY('(Unsaved)','(Unsaved)',(#1982));
#1979=APPLICATION_PROTOCOL_DEFINITION('international standard',
'automotive_design',2009,#1980);
#1980=APPLICATION_CONTEXT(
'Core Data for Automotive Mechanical Design Process');
#1981=PRODUCT_CONTEXT('part definition',#1980,'mechanical');
#1982=PRODUCT('(Unsaved)','(Unsaved)',$,(#1981));
#1983=PRESENTATION_STYLE_ASSIGNMENT((#1985));
#1984=PRESENTATION_STYLE_ASSIGNMENT((#1986));
#1985=SURFACE_STYLE_USAGE(.BOTH.,#1987);
#1986=SURFACE_STYLE_USAGE(.BOTH.,#1988);
#1987=SURFACE_SIDE_STYLE('',(#1989));
#1988=SURFACE_SIDE_STYLE('',(#1990));
#1989=SURFACE_STYLE_FILL_AREA(#1991);
#1990=SURFACE_STYLE_FILL_AREA(#1992);
#1991=FILL_AREA_STYLE('Steel - Satin',(#1993));
#1992=FILL_AREA_STYLE('Glass - Light Color (Blue)',(#1994));
#1993=FILL_AREA_STYLE_COLOUR('Steel - Satin',#1995);
#1994=FILL_AREA_STYLE_COLOUR('Glass - Light Color (Blue)',#1996);
#1995=COLOUR_RGB('Steel - Satin',0.627450980392157,0.627450980392157,0.627450980392157);
#1996=COLOUR_RGB('Glass - Light Color (Blue)',0.423529411764706,0.768627450980392,
0.854901960784314);
ENDSEC;
END-ISO-10303-21;
